<svg
  xmlns="http://www.w3.org/2000/svg"
  width="570"
  height="371"
  fill="none"
  stroke-linecap="square"
  stroke-miterlimit="10"
>
  <path fill="#000000" d="M0 0h570v371H0V0Z" /><path
    stroke="#3a3a3a"
    stroke-linecap="butt"
    d="M99.5 81.5v223m96-223v223m97-223v223m96-223v223m96-223v223"
  /><path stroke="#f0f0f0" stroke-linecap="butt" d="M44.5 304.5h495" /><path
    stroke="#3a3a3a"
    stroke-linecap="butt"
    d="M44.5 230.5h495m-495-75h495m-495-74h495"
  /><path
    stroke="#353535"
    stroke-linecap="butt"
    d="M51.4 287.6v16m48.1-16.1v16m48.1-17.5v16m48.2-17.1v16m48.1-16.9v16m48.1-36.4v16m48.2-30v16m48.1-38.6v16m48.1-45.9v16m48.2-34.9v16m48.1-89.3v16M51.4 287.6v16m48.1-16v16m48.1-16.1v16m48.2-16.1v16m48.1-17v16M292 286v16m48.2-16.7v16m48.1-24.3v16m48.1-22.1v16"
  /><clipPath id="a"><path
      d="M44.5 81.3h495v223.1h-495V81.3Z"
    /></clipPath><path
    stroke="red"
    stroke-linecap="butt"
    stroke-width="2"
    d="m51.4 303.6 48-.1 48.2-1.4 48.2-1.2 48-1 48.2-20.3 48.2-14 48-22.5 48.2-30 48.2-18.9 48-73.3"
    clip-path="url(#a)"
  /><path
    stroke="#90f"
    stroke-linecap="butt"
    stroke-width="2"
    d="M51.4 303.6h48l48.2-.1h48.2l48-1.1 48.2-.4 48.2-.7 48-8.4 48.2-6"
    clip-path="url(#a)"
  /><path
    fill="red"
    d="M55.9 303.6a4.5 4.5 0 1 1-9 0 4.5 4.5 0 0 1 9 0Zm48.1-.1a4.5 4.5 0 1 1-9 0 4.5 4.5 0 0 1 9 0Zm48.1-1.5a4.5 4.5 0 1 1-9 0 4.5 4.5 0 0 1 9 0Zm48.2-1.1a4.5 4.5 0 1 1-9 0 4.5 4.5 0 0 1 9 0Zm48.1-.9a4.5 4.5 0 1 1-9 0 4.5 4.5 0 0 1 9 0Zm48.1-20.4a4.5 4.5 0 1 1-9 0 4.5 4.5 0 0 1 9 0Zm48.2-14a4.5 4.5 0 1 1-9 0 4.5 4.5 0 0 1 9 0Zm48.1-22.6a4.5 4.5 0 1 1-9 0 4.5 4.5 0 0 1 9 0Zm48.2-29.9a4.5 4.5 0 1 1-9 0 4.5 4.5 0 0 1 9 0Zm48-18.9a4.5 4.5 0 1 1-9 0 4.5 4.5 0 0 1 9 0Zm48.2-73.3a4.5 4.5 0 1 1-9 0 4.5 4.5 0 0 1 9 0Z"
    clip-path="url(#a)"
  /><path
    fill="#90f"
    d="M55.9 303.6a4.5 4.5 0 1 1-9 0 4.5 4.5 0 0 1 9 0Zm48.1 0a4.5 4.5 0 1 1-9 0 4.5 4.5 0 0 1 9 0Zm48.1-.1a4.5 4.5 0 1 1-9 0 4.5 4.5 0 0 1 9 0Zm48.2-.1a4.5 4.5 0 1 1-9 0 4.5 4.5 0 0 1 9 0Zm48.1-1a4.5 4.5 0 1 1-9 0 4.5 4.5 0 0 1 9 0Zm48.1-.4a4.5 4.5 0 1 1-9 0 4.5 4.5 0 0 1 9 0Zm48.2-.7a4.5 4.5 0 1 1-9 0 4.5 4.5 0 0 1 9 0Zm48.1-8.3a4.5 4.5 0 1 1-9 0 4.5 4.5 0 0 1 9 0Zm48.2-6.1a4.5 4.5 0 1 1-9 0 4.5 4.5 0 0 1 9 0Z"
    clip-path="url(#a)"
  /><path
    fill="red"
    d="M43.2 281.3v1.2q0 1.6-.7 2.5-.6.7-1.5.7l-.9-.1-.6-.5-.4-.6-.3-.8-.1-1.2v-1.2q0-1.6.8-2.5.5-.8 1.5-.8l.8.2q.4.2.6.5l.4.6.3.8.1 1.2Zm-.5 0q0-.7-.2-1.3l-.4-1-.4-.3q-.3-.2-.7-.2-.9 0-1.3.9-.5.8-.5 2v1q0 .7.2 1.3l.4 1 .4.3q.3.2.8.2.8 0 1.3-.8.4-.9.4-2v-1Zm5.2 2.9h.2q.3 0 .5.2.3.2.3.5 0 .4-.3.6-.2.2-.5.2h-.2q-.4 0-.6-.2-.2-.2-.2-.6 0-.3.2-.5t.6-.2Zm7.3-6.1v7h1.9l.1.2v.2h-4.4l-.1-.2v-.2h2v-6.3l-1.6.5h-.3l-.1-.2v-.2h.3l2.2-.8Zm4.6 7h3.8v-.5h.4l.1.3v.7h-4.7v-.8l2.9-2.7.9-1 .3-.5.1-.5q0-.6-.5-1-.5-.6-1.2-.6t-1.2.4q-.5.4-.6 1H60l-.2.1h-.1v-.2l.2-.7q.3-.5.8-.8.6-.3 1.2-.3.9 0 1.6.7.6.6.6 1.4l-.1.6-.4.7-1 1-2.8 2.6Zm31.6-3.9v1.2q0 1.6-.8 2.5-.6.8-1.5.8l-.8-.2-.7-.5-.3-.6-.3-.8q-.2-.5-.2-1.2v-1.2q0-1.6.8-2.5.6-.7 1.5-.7l.8.1.7.5.3.6.3.8q.2.5.2 1.2Zm-.5 0-.2-1.2-.5-1q-.1-.2-.4-.3-.3-.2-.7-.2-.8 0-1.3.8t-.5 2v1l.2 1.4.5 1 .4.3q.3.2.7.2.8 0 1.3-.9.5-.8.5-2v-1Zm5 2.9h.3l.6.2q.2.2.2.6 0 .3-.2.5-.3.3-.6.3H96q-.3 0-.6-.3-.2-.2-.2-.5 0-.4.2-.6l.6-.2Zm7.4-6v6.9h2v.4h-4.4v-.3l.3-.1h1.7v-6.3l-1.7.5h-.2v-.4h.2l2.2-.8Zm7.8 3.4q.7.3 1 .8.4.5.4 1.1 0 1-.7 1.6-.7.7-1.8.7-.6 0-1.3-.3-.7-.3-1-.6v-.3l.2-.1.2.1q.9.7 1.9.7.9 0 1.4-.6.6-.5.6-1.2 0-.4-.3-.8t-.8-.7l-1-.2h-.3l-.1-.3v-.2h.7q.7 0 1.1-.4.4-.4.4-1 0-.5-.4-1-.5-.3-1.2-.3l-1 .1q-.4.2-.6.5l-.2.1h-.2l-.1-.2q0-.2.5-.5.7-.5 1.6-.5 1 0 1.5.5.6.6.6 1.3 0 .5-.3 1-.2.4-.8.7Zm10.9-1.7v1.2q0 1.6-.8 2.5-.6.7-1.5.7l-.8-.1q-.4-.2-.6-.5l-.4-.6-.3-.8-.1-1.2v-1.2q0-1.6.7-2.5.6-.8 1.5-.8.5 0 .8.2l.7.5.4.6.3.8v1.2Zm-.5 0q0-.7-.2-1.2l-.4-1-.4-.4-.8-.2q-.8 0-1.3.9-.4.8-.4 2v1q0 .7.2 1.3l.4 1q.1.2.4.3.3.3.7.3.9 0 1.3-.9.5-.8.5-2v-1Zm5.1 2.9h.2q.4 0 .6.2.2.2.2.5 0 .4-.2.6-.2.2-.6.2h-.2q-.3 0-.5-.2-.3-.2-.3-.5 0-.4.3-.6.2-.2.5-.2Zm8.1-2.6q.7.3 1 .8.4.5.4 1.1 0 .9-.7 1.6-.7.6-1.8.6l-1.3-.2q-.7-.3-1-.6v-.3l.2-.1h.2q1 .8 2 .8.8 0 1.4-.6.5-.5.5-1.2l-.2-.8q-.3-.5-.9-.7l-1-.2-.3-.1v-.4h.6q.7 0 1.1-.4.5-.4.5-1 0-.5-.5-1-.4-.4-1.2-.4-.5 0-.9.2l-.7.5-.1.1h-.3v-.2q0-.2.4-.6.7-.5 1.6-.5 1 0 1.6.6.6.6.6 1.3 0 .5-.3 1-.3.4-.9.7Zm4 3.5h3.7v-.5h.4v1h-4.7v-.8l3-2.7.9-1 .3-.5v-.5q0-.6-.4-1-.5-.6-1.3-.6-.6 0-1.1.4-.5.4-.6 1l-.1.1h-.4v-.2l.3-.7q.3-.5.8-.8.6-.3 1.1-.3 1 0 1.6.7.7.6.7 1.4l-.1.7-.4.6-1 1-2.8 2.6Zm16-2.5.1-1.4.7-1.7.7-1.2h.4v.2l-1 2.2-.2 2q0 1 .3 1.9.3 1 1 2.1v.2l-.1.1-.2.1h-.2l-.7-1.2q-.5-1-.6-1.7l-.2-1.6Zm8.7-1.8v-.2l.2-.1h.2v1.4l-.2.1h-.2v-.3q0-.3-.4-.6-.5-.3-1.3-.3t-1.3.3q-.3.3-.3.6 0 .4.4.6.3.2 1 .3 1 0 1.5.2.6.2.8.6.3.3.3.8 0 .6-.6 1-.6.6-1.8.6-1.1 0-1.9-.6v.3h-.4v-1.5l.2-.1h.2v.3l.2.4q.2.3.6.5.5.2 1.1.2 1 0 1.5-.4.4-.3.4-.7 0-.5-.5-.8-.4-.3-1.4-.3-.9-.1-1.3-.3-.4-.1-.6-.4-.2-.3-.2-.7 0-.6.6-1t1.5-.4q1 0 1.7.5Zm6.3 1q.7.3 1 .8.3.4.3 1 0 .9-.7 1.5-.6.6-1.6.6-.9 0-1.6-.6-.6-.6-.6-1.5 0-.6.3-1 .3-.5 1-.8l-.9-.7q-.3-.5-.3-1 0-.8.6-1.5.6-.6 1.5-.6 1 0 1.5.6.7.7.7 1.5 0 .5-.4 1l-.8.7Zm.7-1.7q0-.7-.5-1.1-.5-.5-1.2-.5t-1.1.5q-.5.4-.5 1t.5 1q.4.5 1.1.5.7 0 1.2-.4.5-.5.5-1Zm0 3.5q0-.6-.4-1.1-.5-.5-1.3-.5-.7 0-1.2.5t-.5 1.1q0 .7.5 1.2t1.2.5q.8 0 1.3-.5t.5-1.2Zm5.5-1-.2 1.5-.7 1.7-.7 1.2-.2.1h-.1l-.1-.2v-.2q.7-1.2 1-2.1l.2-2q0-1-.3-1.9-.2-1-.9-2.1v-.3h.4l.7 1.1q.5 1 .7 1.8.2.7.2 1.5Z"
  /><path
    fill="red"
    d="M170.1 278.6v1.2q0 1.6-.7 2.5-.6.8-1.5.8-.5 0-.9-.2l-.6-.5-.4-.6-.3-.8-.1-1.2v-1.2q0-1.6.8-2.5.5-.8 1.5-.8l.8.2q.4.2.6.5l.4.6.3.8.1 1.2Zm-.5 0-.2-1.2-.4-1-.4-.3q-.3-.3-.7-.3-.9 0-1.3.9-.5.8-.5 2v1l.2 1.4.4.9.4.3q.3.3.8.3.8 0 1.3-.9.4-.8.4-2v-1Zm5.2 2.9h.2q.3 0 .5.2.3.2.3.6 0 .3-.3.5-.2.3-.5.3h-.2q-.4 0-.6-.3-.2-.2-.2-.5 0-.4.2-.6.2-.2.6-.2Zm8-.7h-3.3v-.5l2.7-4.8h1v4.8h.7l.1.3v.2h-.7v1.6h.6l.1.2v.2h-2.4v-.3l.3-.1h.9v-1.6Zm0-.5V276h-.3l-2.5 4.3h2.8Zm7-1.2q.7.3 1 .8.3.4.3 1 0 .9-.6 1.5-.7.7-1.6.7-1 0-1.6-.7-.7-.6-.7-1.5 0-.6.3-1 .3-.5 1-.8-.6-.3-.8-.7-.4-.5-.4-1 0-.8.7-1.4.6-.7 1.5-.7.8 0 1.5.7.6.6.6 1.4 0 .5-.4 1-.2.4-.7.7Zm.7-1.7q0-.6-.5-1.1-.5-.5-1.1-.5-.7 0-1.2.5t-.5 1q0 .7.5 1 .5.5 1.2.5t1.1-.4q.5-.4.5-1Zm.1 3.5q0-.6-.5-1.1-.5-.5-1.2-.5-.8 0-1.3.5t-.5 1.1q0 .7.5 1.2t1.3.5q.7 0 1.2-.5t.5-1.2Zm12.2-1 .2-1.4q.1-.7.6-1.7t.8-1.2h.3v.2l-.9 2.3q-.2.9-.2 1.9 0 1 .2 1.9.3 1 1 2.1v.3l-.3.1h-.1l-.7-1.2-.7-1.7-.2-1.5Zm8.7-1.8v-.2l.2-.1h.2v1.4l-.2.1h-.1l-.1-.3q0-.3-.4-.5-.5-.4-1.2-.4-.9 0-1.3.4-.4.2-.4.5 0 .4.4.6.3.2 1.1.3 1 0 1.4.2.6.2.9.6l.2.8q0 .6-.6 1-.6.6-1.7.6-1.2 0-2-.6v.3h-.4v-1.5h.4v.2q0 .3.2.4.2.3.7.5.4.2 1 .2 1 0 1.5-.4.5-.3.5-.7 0-.5-.5-.8l-1.4-.3q-1-.1-1.3-.3-.4-.1-.7-.4-.2-.3-.2-.7 0-.6.6-1 .7-.4 1.5-.4 1 0 1.7.5Zm7-1.9v-.2H215v.7h-.4l-.1-.2v-1h4.5v.8l-2 6.3v.2h-.4v-.3l2-6.3Zm5.5 3.8-.2 1.4-.7 1.7-.7 1.2-.1.1h-.2v-.4l.9-2.1q.3-1 .3-2 0-.9-.3-1.8-.3-1-1-2.2v-.3h.4l.7 1.2.7 1.7q.2.7.2 1.5Z"
  /><path
    fill="red"
    d="M218.3 277.6v1.2q0 1.6-.8 2.6-.6.7-1.5.7l-.8-.2-.7-.5-.3-.6-.3-.8q-.2-.5-.2-1.2v-1.2q0-1.6.8-2.5.6-.7 1.5-.7l.8.2q.4.1.7.4l.3.7.3.7q.2.5.2 1.2Zm-.5 0-.2-1.2-.5-1q-.1-.2-.4-.3-.3-.2-.7-.2-.8 0-1.3.8-.5.9-.5 2v1q0 .8.2 1.4l.5 1 .4.3q.3.2.7.2.8 0 1.3-.8.5-.9.5-2v-1.1Zm5 3h.3l.6.1.2.6-.2.6-.6.2h-.2l-.6-.2-.2-.6.2-.6.6-.2Zm5.7-1.8q.5-.7 1-1 .5-.3 1-.3.8 0 1.4.6.6.7.6 1.7 0 .8-.5 1.6-.6.7-1.5.7-.7 0-1.2-.4-.6-.4-1-1.2-.3-1-.3-2.3 0-.9.4-1.7.2-.6.7-1 .5-.5 1.1-.8.6-.3 1.4-.3l.8.2.1.2v.2h-.4l-.6-.1q-1.1 0-2 1-1 1-1 2.3v.6Zm.1.8q.3 1 .7 1.5.5.5 1.2.5.6 0 1-.5.5-.5.5-1.3t-.4-1.3q-.5-.5-1-.5-.6 0-1.2.5l-.8 1.1Zm8.6-5.1v7h2v.3l-.3.1h-4.1v-.4h2V275l-1.7.5h-.3v-.2l.2-.1 2.2-.7ZM251 279l.2-1.4q.2-.8.7-1.8l.7-1.2h.2l.1.2v.1q-.7 1.2-1 2.2l-.2 1.9q0 1 .3 2 .2.9.9 2v.4h-.4l-.7-1.2-.7-1.7q-.2-.7-.2-1.5Zm8.7-1.8v-.3h.4l.1.3v1.1h-.4v-.2q-.1-.4-.4-.6-.5-.3-1.3-.3t-1.3.3q-.3.2-.3.6 0 .3.4.5.2.2 1 .3l1.5.2q.5.2.8.6.3.4.3.8 0 .6-.6 1.1-.6.5-1.8.5-1.2 0-2-.6v.3l-.2.1h-.1v-1.6h.2l.1.2.1.5.7.4q.4.2 1 .2 1 0 1.5-.3.5-.4.5-.8 0-.5-.5-.7-.5-.3-1.4-.4l-1.3-.2q-.4-.2-.6-.5-.2-.3-.2-.7 0-.6.6-1 .6-.3 1.5-.3 1 0 1.6.5Zm4 1.6q.4-.7.9-1 .5-.3 1-.3.8 0 1.4.6.6.7.6 1.7 0 .8-.5 1.6-.6.7-1.5.7-.7 0-1.2-.4-.6-.4-1-1.2-.3-1-.3-2.3 0-.9.4-1.7.2-.6.7-1 .5-.5 1.1-.8.6-.3 1.4-.3l.8.2.1.2v.2h-.4l-.6-.1q-1.1 0-2 1-1 1-1 2.3v.6Zm0 .8q.3 1 .7 1.5.5.5 1.2.5.6 0 1-.5.5-.5.5-1.3t-.4-1.3q-.5-.5-1-.5-.6 0-1.2.5l-.8 1.1Zm8.5-.6-.1 1.4q-.2.8-.7 1.8l-.7 1.2h-.4v-.4l1-2.2.2-1.9q0-1-.3-2l-.9-2v-.4h.4l.7 1.2.7 1.7.1 1.5Zm-7.1-21.4q.7.3 1 .8.4.6.4 1.1 0 1-.7 1.6-.7.7-1.8.7-.6 0-1.3-.3l-1-.5v-.4h.4q1 .7 2 .7.8 0 1.4-.5.5-.6.5-1.2 0-.5-.2-.9-.3-.4-.9-.7l-1-.2h-.3v-.4l.2-.1h.4q.7 0 1.1-.4.5-.4.5-1 0-.5-.5-1-.4-.3-1.2-.3l-.9.1-.7.5-.1.2h-.4v-.2q0-.3.4-.6.7-.5 1.6-.5 1 0 1.6.5.6.6.6 1.4 0 .5-.3.9t-.9.7Zm6 2.6h.1q.4 0 .6.2l.2.6-.2.6q-.2.2-.6.2h-.2q-.3 0-.5-.2-.3-.3-.3-.6t.3-.6q.2-.2.5-.2Zm8-2.6q.7.3 1 .8.4.6.4 1.1 0 1-.7 1.6-.7.7-1.8.7-.6 0-1.3-.3l-1-.5v-.4h.4q1 .7 2 .7.8 0 1.4-.5.5-.6.5-1.2 0-.5-.2-.9-.3-.4-.9-.7l-1-.2h-.3v-.4l.2-.1h.4q.7 0 1.1-.4.5-.4.5-1 0-.5-.5-1-.4-.3-1.2-.3l-.9.1-.7.5-.1.2h-.4v-.2q0-.3.4-.6.7-.5 1.6-.5 1 0 1.6.5.6.6.6 1.4 0 .5-.3.9t-.9.7Zm7 2h-3.3v-.6l2.7-4.8h1v4.9h.7v.4h-.7v1.6h.7v.4l-.3.1h-2l-.1-.2v-.2l.3-.1h1v-1.6Zm0-.5v-4.4h-.3l-2.5 4.4h2.7Zm13-.4.1-1.4q.2-.8.7-1.8.5-1 .8-1.2h.3v.3l-1 2.2-.2 1.9q0 1 .3 2 .3.9 1 2v.2l-.1.2h-.4l-.7-1.2q-.5-1-.6-1.7l-.2-1.5Zm8.7-1.8v-.3h.4v1.4h-.4v-.2q0-.4-.4-.6-.5-.3-1.3-.3t-1.3.3q-.3.2-.3.5 0 .4.4.6.3.2 1 .3l1.5.2q.6.2.8.6.3.4.3.8 0 .6-.6 1.1-.6.5-1.8.5-1.1 0-1.9-.6v.3l-.2.1h-.2V260h.4v.2q0 .3.2.5l.6.4q.5.2 1.1.2 1 0 1.5-.4.4-.3.4-.7 0-.5-.5-.7-.4-.3-1.4-.4l-1.3-.2q-.4-.2-.6-.5-.2-.3-.2-.7 0-.6.6-1 .6-.3 1.5-.3 1 0 1.7.5Zm4-2.2v2.5l.8-.3.8-.1q.9 0 1.5.6.6.7.6 1.8t-.7 1.9q-.7.7-1.7.7-.7 0-1.4-.3l-.8-.6-.2-.3v-.2h.4q1 .9 2 .9.8 0 1.4-.6.5-.6.5-1.6 0-.8-.5-1.3-.4-.5-1.2-.5-.8 0-1.5.4h-.5v-3.5h3.4l.3.1v.4h-3.3Zm8.5 4-.2 1.4q-.2.8-.7 1.8l-.7 1.2h-.3l-.1-.2v-.1q.7-1.2 1-2.2l.2-1.9q0-1-.3-2-.2-.9-.9-2v-.4h.4l.7 1.2.7 1.7q.2.7.2 1.5Zm-9.3-17.9v2.4l.7-.3h.8q1 0 1.5.6.7.6.7 1.7t-.7 1.9q-.7.7-1.8.7-.7 0-1.3-.3-.5-.2-.9-.6l-.2-.3v-.2h.5q.8 1 1.9 1 .8 0 1.4-.7.6-.6.6-1.5t-.5-1.4q-.5-.5-1.3-.5-.7 0-1.5.4h-.4v-3.4h3.5v.4h-3.1Zm8.2 5.4h.2q.3 0 .5.2.3.3.3.6t-.3.6q-.2.2-.5.2h-.2q-.4 0-.6-.2l-.2-.6.2-.6q.2-.2.6-.2Zm5 1h3.7v-.5l.3-.1h.1l.1.3v.7h-4.7v-.7l2.9-2.7.9-1 .3-.5.1-.5q0-.6-.5-1.1-.5-.5-1.2-.5t-1.2.4q-.5.3-.6.9l-.1.2h-.3v-.2l.2-.8q.3-.5.8-.7.6-.3 1.2-.3.9 0 1.6.6.6.7.6 1.5l-.1.6-.4.6q-.2.4-1 1-1.7 1.8-2.8 2.7Zm7 0h3.7v-.5l.3-.1h.1l.1.3v.7h-4.7v-.7l2.9-2.7.9-1 .3-.5.1-.5q0-.6-.5-1.1-.5-.5-1.2-.5t-1.2.4q-.5.3-.6.9l-.1.2h-.3v-.2l.2-.8q.3-.5.8-.7.6-.3 1.2-.3.9 0 1.6.6.6.7.6 1.5l-.1.6-.4.6q-.2.4-1 1-1.7 1.8-2.8 2.7Zm16-2.5.2-1.4q.1-.8.6-1.8t.8-1.2h.2v.3q-.6 1.2-.9 2.2l-.2 1.9.2 2q.3.9 1 2v.4h-.4l-.7-1.2-.7-1.7q-.2-.7-.2-1.5Zm8.7-1.8v-.3h.4v1.4h-.3l-.1-.2q0-.4-.4-.6-.5-.3-1.2-.3-.9 0-1.3.3-.4.2-.4.6 0 .3.4.6l1.1.2q1 .1 1.4.3.6.2.9.5l.2.8q0 .6-.6 1.1-.6.5-1.7.5-1.2 0-2-.6v.3l-.2.1h-.2V246h.4v.2q0 .3.2.5l.7.4q.4.2 1 .2 1 0 1.5-.3.5-.4.5-.8 0-.5-.5-.7-.5-.3-1.4-.4-1 0-1.3-.2l-.7-.5q-.2-.3-.2-.7 0-.6.6-1 .7-.3 1.5-.3 1 0 1.7.5Zm6.3 2.7h-3.3v-.6l2.7-4.7h1v4.8h.7l.1.2v.2h-.7v1.6h.4l.2.1.1.2v.2H361v-.4h1.2v-1.6Zm0-.5v-4.3h-.3l-2.5 4.3h2.8Zm6.2-.4-.2 1.4q-.2.8-.7 1.8l-.7 1.2h-.3v-.3q.6-1.2.9-2.2.3-1 .3-1.9 0-1-.3-2-.3-.9-1-2v-.4h.4l.7 1.2.7 1.7q.2.7.2 1.5Zm-7-23.4q.6.3 1 .8.3.4.3 1 0 .9-.7 1.5-.7.7-1.6.7-1 0-1.6-.7-.6-.6-.6-1.5 0-.6.3-1 .3-.5.9-.8-.5-.3-.8-.7-.3-.5-.3-1 0-.8.6-1.4.6-.7 1.5-.7t1.5.7q.6.6.6 1.4 0 .5-.3 1-.3.4-.8.7Zm.6-1.7q0-.6-.5-1.1-.4-.5-1.1-.5-.7 0-1.2.5-.4.5-.4 1 0 .7.4 1 .5.5 1.2.5t1.2-.4q.4-.4.4-1Zm.2 3.5q0-.6-.5-1.1-.5-.5-1.3-.5-.7 0-1.3.5-.5.5-.5 1.1 0 .7.5 1.2.6.5 1.3.5.7 0 1.2-.5.6-.5.6-1.2Zm5 .6h.3l.6.2q.2.2.2.6 0 .3-.2.5-.3.3-.6.3h-.2q-.3 0-.6-.3-.2-.2-.2-.5 0-.4.2-.6l.6-.2Zm5 .9h3.9v-.5h.4v1h-4.7v-.8l3-2.7.8-1q.3-.3.3-.5l.1-.4q0-.7-.5-1.2t-1.2-.5q-.6 0-1.1.4-.5.4-.7 1v.1h-.4v-.2l.2-.7q.4-.5.9-.8.5-.3 1.1-.3 1 0 1.6.7.6.6.6 1.4v.7l-.4.6-1 1-2.8 2.6Zm7.8-6.4v2.4l.9-.2.7-.1q1 0 1.6.6.6.7.6 1.7 0 1.2-.7 2-.7.7-1.8.7-.7 0-1.3-.4l-.8-.5-.3-.3.1-.2h.4q.9.9 2 .9.8 0 1.3-.6.6-.6.6-1.6 0-.8-.5-1.3t-1.2-.5q-.8 0-1.6.4h-.4v-3.5h3.4l.2.1.1.2v.2H380Zm15.3 4 .2-1.5.7-1.7.7-1.2h.3l.1.2q-.7 1.3-1 2.3-.2.9-.2 1.9 0 1 .3 1.9.2 1 .9 2.1v.3l-.2.1h-.2l-.7-1.2-.7-1.7-.2-1.5Zm8.7-1.9v-.2l.3-.1h.1l.1.3v1.1l-.2.1h-.2v-.3q-.1-.3-.4-.5-.5-.4-1.3-.4t-1.3.4q-.3.2-.3.5 0 .4.4.6.2.2 1 .3 1 0 1.5.2t.8.6q.3.4.3.8 0 .6-.6 1-.6.6-1.8.6-1.2 0-1.9-.6v.2l-.1.1h-.4v-1.5h.4l.1.2.1.4q.2.3.7.5.4.2 1 .2 1 0 1.5-.4.5-.3.5-.7 0-.5-.5-.8l-1.4-.3q-.9-.1-1.3-.3-.4-.1-.6-.4-.2-.3-.2-.7 0-.6.6-1t1.5-.4q1 0 1.6.5Zm6.4.8q.7.3 1 .8.4.5.4 1.1 0 1-.7 1.6-.7.7-1.8.7-.6 0-1.3-.3-.7-.3-1-.6v-.3l.2-.1h.2q.9.8 1.9.8.9 0 1.4-.6.6-.5.6-1.2 0-.4-.3-.8t-.8-.7l-1-.2-.3-.1-.1-.2v-.2h.7q.7 0 1.1-.4.4-.4.4-1 0-.5-.4-1-.5-.4-1.2-.4l-1 .2q-.4.2-.6.5l-.2.1h-.2l-.1-.2q0-.2.5-.6.7-.5 1.6-.5 1 0 1.5.6.6.6.6 1.3 0 .5-.3 1-.2.4-.8.7Zm6.1 1-.1 1.5-.7 1.7-.7 1.2-.2.1h-.2v-.4l1-2.1.2-2q0-.9-.3-1.8-.3-1-.9-2.2v-.3h.4l.7 1.2.7 1.7.1 1.5Zm-11.2-34.5v7h1.9v.4l-.2.1h-4.2v-.4l.3-.1h1.7v-6.3l-1.6.5h-.4v-.3l.2-.1 2.3-.8Zm4.6 7h3.8v-.4l.2-.1h.2v1h-4.7v-.7l3-2.8.9-1 .3-.5v-.4q0-.7-.4-1.1-.5-.5-1.3-.5-.6 0-1.1.3-.5.4-.6 1l-.1.1h-.4v-.1q0-.3.3-.8t.8-.7q.6-.3 1.1-.3 1 0 1.6.6.7.7.7 1.5l-.1.6-.4.6-1 1-2.8 2.7Zm9-1h.2q.4 0 .6.3.2.2.2.6l-.2.6q-.2.2-.6.2h-.2q-.3 0-.5-.2-.3-.3-.3-.6 0-.4.3-.6.2-.2.5-.2Zm5 1h3.8v-.4l.2-.1h.2v1h-4.7v-.7l3-2.8.9-1 .3-.5v-.4q0-.7-.4-1.1-.5-.5-1.3-.5-.6 0-1.1.3-.5.4-.6 1l-.1.1h-.4v-.1q0-.3.3-.8t.8-.7q.6-.3 1.1-.3 1 0 1.6.6.7.7.7 1.5l-.1.6-.4.6-1 1-2.8 2.7Zm10.1-3.3q.7.3 1 .8.3.5.3 1 0 .9-.7 1.5-.6.7-1.6.7-.9 0-1.6-.7-.6-.6-.6-1.5 0-.5.3-1t1-.8q-.6-.3-.9-.7-.3-.4-.3-1 0-.8.6-1.4.6-.6 1.5-.6 1 0 1.5.6.7.6.7 1.4 0 .6-.4 1-.2.4-.8.7Zm.7-1.7q0-.6-.5-1-.5-.5-1.2-.5t-1.1.4q-.5.5-.5 1.1 0 .6.5 1 .4.4 1.1.4.7 0 1.2-.4t.5-1Zm0 3.5q0-.6-.4-1-.5-.6-1.3-.6-.7 0-1.2.5t-.5 1.1q0 .7.5 1.2t1.2.5q.8 0 1.3-.5t.5-1.2Zm12.3-1 .1-1.3q.2-.8.7-1.8.5-1 .8-1.2h.3v.3l-1 2.2-.2 1.9q0 1 .3 2 .3.9 1 2v.2l-.1.2h-.3q-.3-.2-.8-1.2t-.6-1.7l-.2-1.5Zm8.7-1.7v-.3h.4v1.4h-.4v-.2q0-.4-.4-.6-.5-.3-1.3-.3t-1.3.3q-.3.2-.3.5 0 .4.4.6.3.2 1 .3 1 0 1.5.2.6.2.8.6.3.4.3.8 0 .6-.6 1.1-.6.5-1.8.5-1.1 0-1.9-.6v.3l-.2.1h-.2v-1.6h.4v.2q0 .3.2.4.2.3.6.5.5.2 1.1.2 1 0 1.5-.4.4-.3.4-.7 0-.5-.5-.7-.4-.3-1.3-.4l-1.4-.2q-.4-.2-.6-.5-.2-.3-.2-.7 0-.6.6-1 .6-.3 1.5-.3 1 0 1.7.5Zm3.2 4.2h3.8v-.4l.2-.1h.2v1h-4.7v-.7l3-2.8.9-1 .3-.5v-.4q0-.7-.4-1.1-.5-.5-1.3-.5-.6 0-1.1.3-.5.4-.6 1l-.1.1h-.4v-.1q0-.3.3-.8t.8-.7q.6-.3 1.1-.3 1 0 1.6.6.7.7.7 1.5l-.1.6-.4.6-1 1-2.8 2.7Zm9.3-2.4-.2 1.4q-.2.8-.7 1.8l-.7 1.2h-.3l-.1-.2v-.1q.7-1.2 1-2.2l.2-2q0-.9-.3-1.8-.2-1-.9-2.2v-.3h.4l.7 1.2.7 1.7q.2.7.2 1.5Zm-14.8-23.4v7h1.9l.1.2v.1l-.3.1H451l-.1-.2v-.2h2v-6.4l-1.6.5h-.3l-.1-.2v-.1l.3-.1 2.2-.7Zm7.7 5.3h-3.3v-.5l2.7-4.8h1v4.9h.7l.1.2v.2h-.7v1.6h.6l.1.3v.1l-.3.1h-2.1v-.4h1.2V174Zm0-.4v-4.4h-.3l-2.5 4.4h2.8Zm6 1.1h.2q.3 0 .5.2.3.3.3.6t-.3.6q-.2.2-.5.2h-.2q-.4 0-.6-.2l-.2-.6.2-.6q.2-.2.6-.2Zm8-2.4q.7.3 1 .8.3.5.3 1 0 .9-.6 1.5-.7.7-1.6.7-1 0-1.6-.7-.7-.6-.7-1.5 0-.5.3-1t1-.8q-.6-.3-.8-.6-.4-.5-.4-1.1 0-.8.7-1.4.6-.6 1.5-.6.8 0 1.5.6.6.6.6 1.4 0 .6-.4 1-.2.4-.7.7Zm.7-1.7q0-.6-.5-1-.5-.5-1.1-.5-.7 0-1.2.4-.5.5-.5 1.1 0 .6.5 1t1.2.4q.7 0 1.1-.4.5-.4.5-1Zm.1 3.5q0-.6-.5-1-.5-.6-1.2-.6-.8 0-1.3.5t-.5 1.1q0 .7.5 1.2t1.3.5q.7 0 1.2-.5t.5-1.2Zm3.1 1.5h3.8v-.4l.3-.1h.1l.1.3v.7h-4.7v-.7l2.9-2.8.9-1 .3-.4.1-.5q0-.7-.5-1.1-.5-.5-1.2-.5t-1.2.3q-.5.4-.6 1l-.1.1h-.3v-.1l.2-.8q.3-.5.8-.7.6-.3 1.2-.3.9 0 1.6.6.6.7.6 1.5l-.1.6-.4.6-1 1-2.8 2.7Zm16.1-2.4.2-1.4q.1-.8.6-1.8t.8-1.2h.3v.3q-.6 1.2-.9 2.2l-.2 1.9.2 2q.3.9 1 2v.4h-.4l-.7-1.2-.7-1.7-.2-1.5Zm8.7-1.8v-.3h.4v1.4h-.3l-.1-.2q0-.4-.4-.6-.5-.3-1.2-.3-.9 0-1.3.3-.4.2-.4.5 0 .4.4.6.3.2 1.1.3l1.4.2q.6.2.9.6l.2.8q0 .6-.6 1.1-.6.5-1.7.5-1.2 0-2-.6v.3l-.2.1h-.2v-1.6h.4v.2q0 .3.2.5l.7.4q.4.2 1 .2 1 0 1.5-.4.5-.3.5-.7 0-.5-.5-.7-.5-.3-1.4-.4l-1.3-.2-.7-.5q-.2-.3-.2-.7 0-.6.6-1 .7-.3 1.5-.3 1 0 1.7.5Zm5.6-2.7v7h1.9l.1.2v.1l-.3.1H507l-.1-.2v-.2h2v-6.4l-1.6.5h-.3l-.1-.2v-.1l.3-.1 2.2-.7Zm7 4.5q0 .7-.3 1.4-.2.8-.7 1.8l-.7 1.2h-.3v-.3q.6-1.2.9-2.2.3-1 .3-1.9 0-1-.3-2-.3-.9-1-2v-.4h.4l.7 1.2.7 1.7q.2.7.2 1.5Zm-17.2-70.9h3.8v-.5h.4v1h-4.7v-.8l3-2.7.8-1q.3-.3.3-.5l.1-.5q0-.6-.5-1-.5-.6-1.2-.6-.6 0-1.1.4-.5.4-.7 1v.1h-.4V97l.2-.7q.4-.5.9-.8.5-.3 1.1-.3 1 0 1.6.7.6.6.6 1.4v.6l-.4.7-1 1-2.8 2.6Zm10-1.6H506v-.6l2.8-4.7h1v4.8h.7v.4l-.3.1h-.4v1.6h.7v.4H508v-.4h1.3v-1.6Zm0-.5V96h-.2l-2.5 4.3h2.7Zm6 1.2h.2l.6.2q.2.2.2.5 0 .4-.2.6l-.6.2h-.2l-.6-.2q-.2-.2-.2-.6 0-.3.2-.5l.6-.2Zm5.6-1.8 1-1q.5-.3 1-.3.8 0 1.4.7.6.6.6 1.6 0 .9-.5 1.6-.6.7-1.5.7-.7 0-1.2-.4-.6-.4-1-1.2-.3-1-.3-2.2 0-1 .4-1.7.2-.6.7-1.1.5-.5 1.1-.8.6-.3 1.4-.3l.8.2.1.3v.1l-.2.1h-.2q-.2-.2-.6-.2-1.1 0-2 1-1 1-1 2.3v.6Zm.1.9q.3 1 .7 1.5.5.4 1.2.4.6 0 1-.5.5-.5.5-1.3t-.4-1.3q-.5-.5-1-.5-.6 0-1.2.5l-.8 1.2Zm9.4-1.6q.6.3 1 .8.3.5.3 1 0 1-.7 1.6-.7.6-1.6.6-1 0-1.6-.6-.6-.7-.6-1.5 0-.6.3-1 .3-.6.9-.9l-.8-.6q-.3-.5-.3-1 0-.9.6-1.5t1.5-.6q.9 0 1.5.6t.6 1.4q0 .6-.3 1t-.8.7Zm.6-1.6q0-.7-.5-1.1-.4-.5-1.1-.5-.7 0-1.2.5-.4.4-.4 1t.4 1q.5.5 1.2.5t1.2-.4q.4-.5.4-1Zm.2 3.5q0-.7-.5-1.1-.5-.5-1.3-.5-.7 0-1.3.5-.5.4-.5 1 0 .8.5 1.3.6.4 1.3.4.7 0 1.2-.4.6-.5.6-1.2Zm12.1-1 .2-1.4q.2-.8.7-1.7l.7-1.2.2-.1h.1l.1.2v.2q-.7 1.2-1 2.1l-.2 2q0 1 .3 1.9.2 1 .9 2.1v.3h-.4l-.7-1.1-.7-1.7-.2-1.6Zm8.7-1.8V98l.3-.1h.1l.1.3v1.1l-.2.1h-.2V99l-.4-.6q-.5-.3-1.3-.3t-1.3.3q-.3.3-.3.6 0 .4.4.6l1 .2 1.5.3q.5.2.8.6.3.3.3.8 0 .6-.6 1-.6.5-1.8.5-1.2 0-1.9-.5v.2l-.1.1h-.3v-1.5l.1-.1h.2l.1.3.1.4q.2.3.7.5.4.2 1 .2 1 0 1.5-.4t.5-.7q0-.5-.5-.8-.5-.3-1.4-.4-.9 0-1.3-.2-.4-.1-.6-.4l-.2-.7q0-.6.6-1t1.5-.4q1 0 1.6.5Zm7.7.5v1.2q0 1.6-.8 2.5-.6.7-1.5.7l-.8-.1-.7-.5-.3-.6-.3-.8q-.2-.5-.2-1.2v-1.2q0-1.6.8-2.5.6-.8 1.5-.8l.8.2.7.5.3.6.3.8q.2.5.2 1.2Zm-.5 0q0-.7-.2-1.3l-.5-1-.4-.3q-.3-.2-.7-.2-.8 0-1.3.9-.5.8-.5 2v1q0 .7.2 1.3l.5 1q.1.2.4.3.3.2.7.2.8 0 1.3-.8.5-.9.5-2v-1Zm5.3 1.4-.1 1.4-.7 1.7-.7 1.2h-.4v-.2l1-2.2.2-2q0-1-.3-1.9-.3-1-.9-2.1v-.3l.2-.1h.2l.7 1.2q.5 1 .7 1.8l.1 1.5Z"
  /><path
    fill="#90f"
    d="M25.7 281.3v1.2q0 1.6-.7 2.5-.6.7-1.5.7l-.9-.1-.6-.5-.4-.6-.3-.8-.1-1.2v-1.2q0-1.6.8-2.5.5-.8 1.5-.8l.8.2q.4.2.6.5l.4.6.3.8.1 1.2Zm-.5 0q0-.7-.2-1.3l-.4-1-.4-.3q-.3-.2-.7-.2-.9 0-1.3.9-.5.8-.5 2v1q0 .7.2 1.3l.4 1 .4.3q.3.2.8.2.8 0 1.3-.8.4-.9.4-2v-1Zm5.2 2.9h.2q.3 0 .5.2.3.2.3.5 0 .4-.3.6-.2.2-.5.2h-.2q-.4 0-.6-.2-.2-.2-.2-.6 0-.3.2-.5t.6-.2Zm7.3-6.1v7h1.9l.1.2v.2h-4.4l-.1-.2v-.2h2v-6.3l-1.6.5h-.3l-.1-.2v-.2h.3l2.2-.8Zm4.6 7h3.8v-.5h.4l.1.3v.7H42v-.8l2.9-2.7.9-1 .3-.5.1-.5q0-.6-.5-1-.5-.6-1.2-.6t-1.2.4q-.5.4-.6 1h-.1l-.2.1h-.1v-.2l.2-.7q.3-.5.8-.8.6-.3 1.2-.3.9 0 1.6.7.6.6.6 1.4l-.1.6-.4.7-1 1-2.8 2.6Zm16.1-2.5.2-1.4q.1-.8.6-1.7.5-1 .8-1.2l.1-.1h.2v.4l-.9 2.1-.2 2 .2 1.9q.3 1 1 2.1v.3H60l-.7-1.1-.7-1.7-.2-1.6Zm9.7.5h-5q.1 1 .8 1.6.7.6 1.7.6l1.1-.2 1-.5h.4v.3q-.3.3-1 .6l-1.5.2q-1.3 0-2.1-.8-.9-.8-.9-2 0-1 .8-1.8t2-.8q1.2 0 2 .8.7.8.7 2Zm-.5-.5q-.1-.8-.7-1.3-.7-.5-1.5-.5-.9 0-1.5.5t-.8 1.3h4.5Zm5.1-4.5v7h1.9l.1.2v.2h-4.4l-.1-.2v-.2h2v-6.3l-1.6.5h-.3l-.1-.2v-.2h.3l2.2-.8Zm7 4.6q0 .6-.3 1.4l-.7 1.7-.7 1.2h-.3v-.2l.9-2.2q.3-1 .3-2t-.3-1.9q-.3-1-1-2.1v-.3l.3-.1h.1l.7 1.2q.5 1 .7 1.8.2.7.2 1.5Z"
  /><path
    fill="#90f"
    d="M73.9 281.3v1.2q0 1.6-.8 2.5-.6.7-1.5.7l-.8-.1-.7-.5-.3-.6-.3-.8q-.2-.5-.2-1.2v-1.2q0-1.6.8-2.5.6-.8 1.5-.8l.8.2.7.5.3.6.3.8q.2.5.2 1.2Zm-.5 0q0-.7-.2-1.3l-.5-1-.4-.3q-.3-.2-.7-.2-.8 0-1.3.9-.5.8-.5 2v1q0 .7.2 1.3l.5 1q.1.2.4.3.3.2.7.2.8 0 1.3-.8.5-.9.5-2v-1Zm5 2.9h.3l.6.2q.2.2.2.5 0 .4-.2.6l-.6.2h-.2l-.6-.2q-.2-.2-.2-.6 0-.3.2-.5l.6-.2Zm7.4-6.1v7h2v.4h-4.4v-.4h2v-6.3l-1.7.5h-.3v-.4h.2l2.2-.8Zm4.7 7h3.8v-.5h.4v1H90v-.8l3-2.7.8-1q.3-.3.3-.5l.1-.5q0-.6-.5-1-.5-.6-1.2-.6-.6 0-1.1.4-.5.4-.7 1l-.2.1h-.2v-.2l.2-.7q.4-.5.9-.8.5-.3 1.1-.3 1 0 1.6.7.6.6.6 1.4v.6l-.4.7-1 1-2.8 2.6Zm16-2.5.2-1.4q.2-.8.7-1.7l.7-1.2.2-.1h.1l.1.2v.2q-.7 1.2-1 2.1l-.2 2q0 .9.3 1.9.2 1 .9 2.1v.3h-.4l-.7-1.1-.7-1.7-.2-1.6Zm9.8.5h-5q0 1 .7 1.6.7.6 1.7.6l1.2-.2 1-.5h.2v.3q-.3.3-1 .6-.7.2-1.5.2-1.3 0-2.1-.8-.9-.8-.9-2 0-1 .8-1.8t2-.8q1.2 0 2 .8t.8 2Zm-.5-.5q-.2-.8-.8-1.3-.6-.5-1.5-.5t-1.5.5q-.6.5-.8 1.3h4.6Zm2.7 2.5h3.8v-.5h.4v1H118v-.8l3-2.7.8-1q.3-.3.3-.5l.1-.5q0-.6-.5-1-.5-.6-1.2-.6-.6 0-1.1.4-.5.4-.7 1l-.2.1h-.2v-.2l.2-.7q.4-.5.9-.8.5-.3 1.1-.3 1 0 1.6.7.6.6.6 1.4v.6l-.4.7-1 1-2.8 2.6Zm9.2-2.4-.1 1.4-.7 1.7-.7 1.2h-.4v-.2l1-2.2.2-2q0-1-.3-1.9-.3-1-.9-2.1v-.3l.2-.1h.2l.7 1.2q.5 1 .7 1.8l.1 1.5Z"
  /><path
    fill="#90f"
    d="M122 281.2v1.2q0 1.6-.8 2.5-.6.8-1.5.8l-.8-.2q-.4-.2-.6-.5l-.4-.6-.3-.8-.1-1.2v-1.2q0-1.6.7-2.5.6-.7 1.5-.7l.8.1.7.5.4.6.3.8v1.2Zm-.5 0-.2-1.2-.4-1-.4-.3-.8-.2q-.8 0-1.3.8-.4.8-.4 2v1l.2 1.4.4 1 .4.3q.3.2.7.2.9 0 1.3-.9.5-.8.5-2v-1Zm5.1 2.9h.2q.4 0 .6.2.2.2.2.6 0 .3-.2.5-.2.3-.6.3h-.2q-.3 0-.5-.3-.3-.2-.3-.5 0-.4.3-.6.2-.2.5-.2Zm7.4-6v6.9h1.9v.4h-4.4v-.3l.3-.1h1.7v-6.3l-1.6.5h-.4v-.4h.2l2.3-.8Zm7.7 3.4q.7.3 1 .8.4.5.4 1.1 0 1-.7 1.6-.7.7-1.8.7-.6 0-1.3-.3-.7-.3-1-.6v-.3l.2-.1.2.1q1 .7 2 .7.8 0 1.4-.6.5-.5.5-1.2l-.2-.8q-.3-.4-.9-.7l-1-.2h-.3v-.5h.6q.7 0 1.1-.4.5-.4.5-1 0-.5-.5-1-.4-.3-1.2-.3l-.9.1-.7.5-.1.1h-.3v-.2q0-.2.4-.5.7-.5 1.6-.5 1 0 1.6.5.6.6.6 1.3 0 .5-.3 1-.3.4-.9.7Zm13 1 .1-1.4.7-1.7.7-1.2h.4v.3l-1 2.2-.2 1.9q0 1 .3 1.9.3 1 1 2.1v.2l-.1.1-.2.1h-.2l-.7-1.2q-.5-1-.6-1.7l-.2-1.5Zm9.7.6h-5q.1 1 .8 1.5.6.6 1.6.6l1.2-.2 1-.5h.3l.1.2v.2l-1 .5q-.8.3-1.6.3-1.2 0-2-.9-1-.8-1-2 0-1 .9-1.8.8-.8 2-.8 1.1 0 2 .8.7.8.7 2Zm-.5-.5q-.2-.9-.8-1.4-.6-.5-1.5-.5-.8 0-1.4.5-.7.5-.8 1.4h4.5Zm5.8-1.1q.7.3 1 .8.4.5.4 1.1 0 1-.7 1.6-.7.7-1.8.7-.6 0-1.3-.3-.7-.3-1-.6v-.3l.2-.1.2.1q1 .7 2 .7.8 0 1.4-.6.5-.5.5-1.2l-.2-.8q-.3-.4-.9-.7l-1-.2h-.3v-.5h.6q.7 0 1.1-.4.5-.4.5-1 0-.5-.5-1-.4-.3-1.2-.3l-.9.1-.7.5-.1.1h-.3v-.2q0-.2.4-.5.7-.5 1.6-.5 1 0 1.6.5.6.6.6 1.3 0 .5-.3 1-.3.4-.9.7Zm6.2 1-.2 1.5-.7 1.7-.7 1.2-.2.1h-.1l-.1-.2v-.2q.7-1.1 1-2.1l.2-2q0-.9-.3-1.8-.2-1-.9-2.2v-.3h.4l.7 1.2.7 1.7q.2.7.2 1.5Z"
  /><path
    fill="#90f"
    d="M170.1 281.1v1.2q0 1.6-.7 2.6-.6.7-1.5.7-.5 0-.9-.2l-.6-.5-.4-.6-.3-.8-.1-1.2v-1.2q0-1.6.8-2.5.5-.7 1.5-.7l.8.1q.4.2.6.5l.4.7.3.7.1 1.2Zm-.5 0-.2-1.2-.4-1-.4-.3q-.3-.2-.7-.2-.9 0-1.3.8-.5.9-.5 2v1q0 .8.2 1.4l.4 1 .4.3q.3.2.8.2.8 0 1.3-.8.4-1 .4-2v-1.1Zm5.2 2.9h.2q.3 0 .5.2.3.3.3.6t-.3.6q-.2.2-.5.2h-.2q-.4 0-.6-.2l-.2-.6.2-.6q.2-.2.6-.2Zm7.3-6v7h1.9l.1.2v.1l-.3.1h-4.1l-.1-.2v-.2h2v-6.4l-1.6.5h-.3l-.1-.2v-.1l.3-.1 2.2-.7Zm7.7 5.3h-3.3v-.5l2.7-4.8h1v4.9h.7l.1.2v.2h-.7v1.6h.6l.1.3v.1l-.3.1h-2.1v-.4h1.2v-1.7Zm0-.4v-4.4h-.3L187 283h2.8Zm13-.4.2-1.4q.1-.8.6-1.8t.8-1.2h.3v.3q-.6 1.2-.9 2.2l-.2 1.9.2 2q.3.9 1 2v.4h-.4l-.7-1.2-.7-1.7q-.2-.7-.2-1.5Zm9.7.5h-5q.1 1 .8 1.5.7.6 1.7.6l1.1-.2q.6-.1 1-.5h.4v.4q-.3.3-1 .5-.8.3-1.5.3-1.3 0-2.1-.8-.9-.9-.9-2t.8-1.9q.8-.7 2-.7t2 .8q.7.7.7 2Zm-.5-.5q-.1-.8-.7-1.3-.7-.5-1.5-.5-.9 0-1.5.5t-.8 1.3h4.5Zm5.8.8h-3.3v-.5l2.7-4.8h1v4.9h.7l.1.2v.2h-.7v1.6h.6l.1.3v.1l-.3.1h-2.1v-.4h1.2v-1.7Zm0-.4v-4.4h-.3L215 283h2.8Zm6.2-.4-.2 1.4q-.2.8-.7 1.8l-.7 1.2h-.3v-.3q.6-1.2.9-2.2.3-1 .3-1.9 0-1-.3-2-.3-.9-1-2v-.4h.4l.7 1.2.7 1.7q.2.7.2 1.5Z"
  /><path
    fill="#90f"
    d="M218.3 280v1.3q0 1.6-.8 2.5-.6.7-1.5.7l-.8-.1-.7-.5-.3-.6-.3-.8q-.2-.5-.2-1.2v-1.2q0-1.6.8-2.5.6-.8 1.5-.8l.8.2.7.5.3.6.3.8q.2.5.2 1.2Zm-.5.1q0-.7-.2-1.2-.2-.7-.5-1l-.4-.4q-.3-.2-.7-.2-.8 0-1.3.9-.5.8-.5 2v1q0 .7.2 1.3l.5 1q.1.2.4.3.3.3.7.3.8 0 1.3-.9.5-.8.5-2v-1Zm5 2.9h.3l.6.2q.2.2.2.5 0 .4-.2.6l-.6.2h-.2l-.6-.2q-.2-.2-.2-.5 0-.4.2-.6l.6-.2Zm5 .9h3.9v-.5h.4v1h-4.7v-.8l3-2.7.8-1q.3-.3.3-.5l.1-.5q0-.6-.5-1-.5-.6-1.2-.6-.6 0-1.1.4-.5.4-.7 1v.1h-.4v-.2l.2-.7q.4-.5.9-.8.5-.3 1.1-.3 1 0 1.6.7.6.6.6 1.4v.7l-.4.6-1 1-2.8 2.6Zm10.2-3.3q.6.3 1 .8.3.4.3 1 0 .9-.7 1.5t-1.6.6q-1 0-1.6-.6-.6-.6-.6-1.5 0-.6.3-1 .3-.5.9-.8l-.8-.7q-.3-.5-.3-1 0-.8.6-1.5.6-.6 1.5-.6t1.5.6q.6.7.6 1.5 0 .5-.3 1l-.8.7Zm.6-1.7q0-.7-.5-1.1-.4-.5-1.1-.5-.7 0-1.2.5-.4.4-.4 1t.4 1q.5.5 1.2.5t1.2-.4q.4-.5.4-1Zm.2 3.5q0-.6-.5-1.1-.5-.5-1.3-.5-.7 0-1.3.5-.5.5-.5 1.1 0 .7.5 1.2.6.5 1.3.5.7 0 1.2-.5.6-.5.6-1.2Zm12.1-1 .2-1.4.7-1.7.7-1.2h.3l.1.2-1 2.2-.2 2q0 1 .3 1.9.2 1 .9 2.1v.3l-.2.1h-.2l-.7-1.2-.7-1.7-.2-1.6Zm9.8.5h-5q0 1 .7 1.6.7.6 1.7.6l1.2-.2 1-.5h.2v.4q-.3.3-1 .5-.7.3-1.5.3-1.3 0-2.1-.9-.9-.8-.9-2 0-1 .8-1.8t2-.8q1.2 0 2 .8t.8 2Zm-.5-.5q-.2-.8-.8-1.3-.6-.5-1.5-.5t-1.5.5q-.6.5-.8 1.3h4.6Zm3.4-3.9v2.4l.9-.3h.7q1 0 1.6.6.6.7.6 1.7 0 1.2-.7 2-.7.6-1.8.6-.7 0-1.3-.3l-.8-.5-.3-.3.1-.2h.4q.9.9 2 .9.8 0 1.3-.6.6-.6.6-1.6 0-.8-.5-1.3t-1.2-.5q-.8 0-1.6.3l-.2.1h-.2V277h3.6l.1.3v.1l-.3.1h-3Zm8.5 4-.1 1.4-.7 1.7-.7 1.2-.2.1h-.2v-.3l1-2.2.2-2q0-1-.3-1.9-.3-1-.9-2.1v-.4h.4l.7 1.1q.5 1 .7 1.8l.1 1.5Z"
  /><path
    fill="#90f"
    d="M266.4 279.7v1.2q0 1.6-.8 2.5-.6.8-1.5.8l-.8-.2q-.4-.2-.6-.5l-.4-.6-.3-.8-.1-1.2v-1.2q0-1.6.7-2.5.6-.7 1.5-.7l.8.1.7.5.4.7.3.7v1.2Zm-.5 0-.2-1.2-.4-1-.4-.3-.8-.2q-.8 0-1.3.8-.4.9-.4 2v1q0 .8.2 1.4l.4 1 .4.3q.3.2.7.2.9 0 1.3-.9.5-.8.5-2v-1Zm5.1 2.9h.2q.4 0 .6.2.2.2.2.6 0 .3-.2.5-.2.3-.6.3h-.2q-.3 0-.5-.3-.3-.2-.3-.5 0-.4.3-.6.2-.2.5-.2Zm8.1-2.6q.7.3 1 .8.4.6.4 1.1 0 1-.7 1.6-.7.7-1.8.7-.6 0-1.3-.3l-1-.5v-.4h.4q1 .7 2 .7.8 0 1.4-.5.5-.6.5-1.3l-.2-.8q-.3-.4-.9-.7l-1-.2h-.3v-.4l.2-.1h.4q.7 0 1.1-.4.5-.4.5-1 0-.5-.5-1-.4-.3-1.2-.3l-.9.1-.7.5-.1.2h-.4v-.2q0-.3.4-.6.7-.5 1.6-.5 1 0 1.6.5.6.6.6 1.4 0 .5-.3.9t-.9.7Zm7 0q.7.3 1 .8.4.6.4 1.1 0 1-.7 1.6-.7.7-1.8.7-.6 0-1.3-.3l-1-.5v-.4h.4q1 .7 2 .7.8 0 1.4-.5.5-.6.5-1.3l-.2-.8q-.3-.4-.9-.7l-1-.2h-.3v-.4l.2-.1h.4q.7 0 1.1-.4.5-.4.5-1 0-.5-.5-1-.4-.3-1.2-.3l-.9.1-.7.5-.1.2h-.4v-.2q0-.3.4-.6.7-.5 1.6-.5 1 0 1.6.5.6.6.6 1.4 0 .5-.3.9t-.9.7Zm13 1 .1-1.3q.2-.8.7-1.8.5-1 .8-1.2h.3v.3l-1 2.2-.2 1.9q0 1 .3 2 .3.9 1 2v.2l-.1.1-.2.1h-.2l-.7-1.2q-.5-1-.6-1.7l-.2-1.5Zm9.7.6h-5q.1 1 .8 1.5.6.6 1.6.6l1.2-.2 1-.5h.3l.1.2v.2l-1 .5q-.8.3-1.6.3-1.2 0-2-.8-1-.9-1-2t.9-1.9q.8-.8 2-.8 1.1 0 2 .8.7.8.7 2Zm-.5-.5q-.2-.8-.8-1.3-.6-.6-1.5-.6-.8 0-1.4.5-.7.5-.8 1.4h4.5Zm3.4-.2q.4-.7.9-1 .5-.3 1-.3.9 0 1.5.6.6.7.6 1.6 0 1-.6 1.6-.5.8-1.5.8-.7 0-1.2-.4-.6-.4-.9-1.2-.4-1-.4-2.3 0-.9.4-1.7l.7-1q.5-.5 1.1-.8.7-.3 1.4-.3.5 0 .8.2l.1.2v.2h-.4l-.6-.1q-1 0-2 1t-1 2.3v.6Zm0 .8q.3 1 .8 1.5.4.5 1.1.5.7 0 1.1-.5.5-.5.5-1.4 0-.7-.5-1.2t-1-.5q-.6 0-1.1.4-.4.4-.8 1.2Zm8.6-.6-.2 1.4q-.2.8-.7 1.7l-.7 1.2-.2.1h-.1l-.1-.2v-.1q.7-1.2 1-2.2l.2-2q0-.9-.3-1.8-.2-1-.9-2.2v-.3h.4l.7 1.2.7 1.7q.2.7.2 1.5Z"
  /><path
    fill="#90f"
    d="M314.5 279v1.3q0 1.5-.7 2.5-.6.7-1.5.7-.5 0-.9-.2-.3-.1-.6-.5-.2-.1-.4-.6l-.3-.8-.1-1.1V279q0-1.5.8-2.5.5-.7 1.5-.7l.8.2q.4.1.6.5l.4.6.3.8.1 1.1Zm-.5.1q0-.7-.2-1.3l-.4-1-.4-.3q-.3-.2-.7-.2-.9 0-1.3.8-.5.9-.5 2v1q0 .8.2 1.4l.4 1 .4.3q.3.2.8.2.8 0 1.3-.8.4-.9.4-2v-1Zm5.2 2.8h.2q.3 0 .5.3.3.2.3.5t-.3.6q-.2.2-.5.2h-.2q-.4 0-.6-.2l-.2-.6q0-.3.2-.5.2-.3.6-.3Zm8-.6h-3.3v-.6l2.7-4.7h1v4.8h.7l.1.2v.2h-.7v1.6h.4l.2.1.1.2v.2H326v-.4h1.2v-1.6Zm0-.5v-4.3h-.3l-2.5 4.3h2.8Zm4 2h3.7v-.4h.4l.1.2v.7h-4.7v-.7l2.9-2.7.9-1 .3-.5.1-.5q0-.6-.5-1.1-.5-.5-1.2-.5t-1.2.4q-.5.3-.6.9l-.1.2h-.3v-.2l.2-.8q.3-.5.8-.7.6-.3 1.2-.3.9 0 1.6.6.6.7.6 1.5l-.1.6-.4.6q-.2.4-1 1-1.7 1.8-2.8 2.7Zm16-2.4.2-1.4q.1-.8.6-1.8t.8-1.2h.2v.3q-.6 1.2-.9 2.2l-.2 1.9.2 2q.3.9 1 2v.4h-.4l-.7-1.2-.7-1.7q-.2-.7-.2-1.5Zm9.7.5h-5q.1 1 .8 1.6.7.5 1.7.5l1.1-.1 1-.5.2-.1h.2v.4q-.3.3-1 .6l-1.5.2q-1.3 0-2.1-.8-.9-.8-.9-2 0-1 .8-1.9.8-.7 2-.7t2 .8q.7.8.7 2Zm-.5-.5q-.1-.8-.7-1.3-.7-.5-1.5-.5-.9 0-1.5.5t-.8 1.3h4.5Zm6.5-3.7v-.2h-3.5v.7h-.4l-.1-.3v-1h4.5v.9l-2 6.3v.2h-.4v-.4l2-6.2Zm5.5 3.7-.2 1.4q-.2.8-.7 1.8l-.7 1.2h-.3v-.3q.6-1.2.9-2.2.3-1 .3-1.9 0-1-.3-1.9-.3-1-1-2.2v-.3h.4l.7 1.2.7 1.7.2 1.5Zm-7.8-12.9v7h2v.4h-4.4v-.4h2V268l-1.7.6h-.3v-.4l.2-.1 2.2-.7Zm6.7 6h.2l.6.2.2.6-.2.6-.6.2h-.2l-.6-.2-.2-.6.2-.6.6-.2Zm5.7-5.4v2.4l.9-.3h.7q1 0 1.6.6.6.6.6 1.7t-.7 1.9q-.7.7-1.8.7-.7 0-1.3-.3-.5-.2-.8-.6l-.3-.3.1-.2h.4q.9 1 2 1 .8 0 1.3-.7.6-.6.6-1.5t-.5-1.4q-.5-.5-1.2-.5-.8 0-1.6.4h-.4v-3.4h3.6l.1.2v.2H373Zm7 0v2.4l.9-.3h.7q1 0 1.6.6.6.6.6 1.7t-.7 1.9q-.7.7-1.8.7-.7 0-1.3-.3-.5-.2-.8-.6l-.3-.3.1-.2h.4q.9 1 2 1 .8 0 1.3-.7.6-.6.6-1.5t-.5-1.4q-.5-.5-1.2-.5-.8 0-1.6.4h-.4v-3.4h3.6l.1.2v.2H380Zm15.3 3.9.2-1.4q.2-.8.7-1.8l.7-1.2h.3l.1.2v.1q-.7 1.2-1 2.2l-.2 1.9q0 1 .3 2 .2.9.9 2v.4h-.4l-.7-1.2-.7-1.7q-.2-.7-.2-1.5Zm9.8.5h-5q0 1 .7 1.5.7.6 1.7.6l1.2-.1 1-.5.1-.1h.2v.4q-.3.3-1 .6-.7.2-1.5.2-1.3 0-2.1-.8-.9-.8-.9-2 0-1.1.8-1.9.8-.7 2-.7t2 .8q.8.7.8 2Zm-.5-.5q-.2-.8-.8-1.3-.6-.5-1.5-.5t-1.5.5q-.6.5-.8 1.3h4.6Zm5.8-.9q.6.3 1 .8.3.5.3 1 0 1-.7 1.6-.7.6-1.6.6-1 0-1.6-.6-.6-.7-.6-1.5 0-.6.3-1.1.3-.5.9-.8l-.8-.6q-.3-.5-.3-1.1 0-.8.6-1.4.6-.6 1.5-.6t1.5.6q.6.6.6 1.4 0 .6-.3 1t-.8.7Zm.6-1.7q0-.6-.5-1-.4-.5-1.1-.5-.7 0-1.2.4-.4.5-.4 1.1 0 .6.4 1 .5.5 1.2.5t1.2-.5q.4-.4.4-1Zm.2 3.6q0-.7-.5-1.2t-1.3-.5q-.7 0-1.3.5-.5.5-.5 1.2 0 .6.5 1.1.6.5 1.3.5.7 0 1.2-.5.6-.5.6-1.1Zm5.3-1-.1 1.4q-.2.8-.7 1.8l-.7 1.2h-.4v-.4l1-2.2.2-1.9q0-1-.3-2l-.9-2v-.4h.4l.7 1.2.7 1.7.1 1.5Z"
  /><path
    fill="#90f"
    d="M406.4 268.4h3.8v-.4l.2-.1h.2v1H406v-.7l3-2.8.9-1 .3-.5v-.4q0-.7-.4-1.2-.5-.4-1.3-.4-.6 0-1.1.3-.5.4-.6 1l-.1.1h-.4v-.1q0-.3.3-.8t.8-.8l1.1-.2q1 0 1.6.6.7.6.7 1.5l-.1.6-.4.6-1 1-2.8 2.7Zm9-1h.2q.4 0 .6.3.2.2.2.6 0 .3-.2.5-.2.3-.6.3h-.2q-.3 0-.5-.3-.3-.2-.3-.5 0-.4.3-.6.2-.2.5-.2Zm8.1-2.5q.7.3 1 .8.4.6.4 1.1 0 1-.7 1.6-.7.7-1.8.7-.6 0-1.3-.3l-1-.5v-.4h.4q1 .7 2 .7.8 0 1.4-.5.5-.6.5-1.3l-.2-.8q-.3-.4-.9-.7l-1-.2h-.3v-.4l.2-.1h.4q.7 0 1.1-.4.5-.4.5-1 0-.5-.5-1-.4-.3-1.2-.3l-.9.1-.7.5-.1.2h-.3v-.2q0-.3.4-.6.7-.5 1.6-.5 1 0 1.6.5.6.6.6 1.4 0 .5-.3.9t-.9.7Zm4.6.9q.4-.7.9-1 .5-.3 1-.3.9 0 1.5.6.6.7.6 1.6 0 1-.6 1.6-.5.8-1.5.8-.7 0-1.2-.4-.6-.4-.9-1.2-.4-1-.4-2.3 0-.9.4-1.7l.7-1q.5-.5 1.1-.8.7-.3 1.4-.3.5 0 .8.2.2 0 .2.2l-.1.2h-.4l-.5-.1q-1.2 0-2.1 1-1 1-1 2.3v.6Zm0 .8q.3 1 .8 1.5.4.5 1.1.5.7 0 1.1-.5.5-.5.5-1.4 0-.7-.5-1.2t-1-.5q-.6 0-1.1.4-.4.4-.8 1.2Zm15.4-.6.1-1.4q.2-.8.7-1.8.5-1 .8-1.2h.3v.4l-1 2.2-.2 1.9q0 1 .3 2 .3.9 1 2v.2l-.1.1-.2.1h-.1q-.3-.2-.8-1.2t-.6-1.7l-.2-1.5Zm9.7.5h-5q.1 1 .8 1.5.6.6 1.6.6l1.2-.2 1-.5h.2l.1.2v.2l-1 .5q-.8.3-1.6.3-1.2 0-2-.8-1-.9-1-2t.9-1.9q.8-.8 2-.8 1.1 0 2 .8.7.8.7 2Zm-.5-.5q-.1-.8-.8-1.3-.6-.6-1.5-.6-.8 0-1.4.5-.7.5-.8 1.4h4.5Zm6.9-1.3q-.4.7-1 1-.5.4-1 .4t-1-.3q-.5-.3-.8-.9-.3-.5-.3-1.1 0-1 .6-1.7t1.5-.7q.7 0 1.2.4.6.4.9 1.2.4 1 .4 2.3 0 1-.4 1.8-.2.5-.6.9l-1 .7q-.7.4-1.5.4-.6 0-.9-.2l-.1-.3v-.1l.2-.1h.2q.2.2.5.2 1.3 0 2.2-1 .9-.8.9-2.2v-.7Zm-.1-.8q-.4-1.2-.8-1.6-.5-.4-1-.4-.7 0-1.2.5t-.5 1.3q0 .9.5 1.4.5.5 1 .5l.8-.2.6-.6.6-.9Zm5.2 2q0 .8-.2 1.5-.2.8-.7 1.7l-.7 1.2-.2.1h-.1l-.1-.2v-.1q.7-1.2 1-2.2l.2-2q0-.9-.3-1.8-.2-1-.9-2.2v-.3h.4l.7 1.2.7 1.7q.2.7.2 1.5Z"
  /><path
    fill="#bdbdbd"
    d="M83.8 345.5v-.2h.4v1.4h-.4v-.2q0-.4-.4-.6-.5-.4-1.3-.4t-1.3.4q-.3.2-.3.5 0 .4.4.6.3.2 1 .3 1 0 1.5.2.6.2.8.6.3.4.3.8 0 .6-.6 1.1-.6.5-1.8.5-1.1 0-1.9-.6v.3l-.2.1h-.2v-1.6h.4v.2q0 .3.2.4.2.3.6.5.5.2 1.1.2 1 0 1.5-.4.4-.3.4-.7 0-.5-.5-.7-.4-.3-1.3-.4-1-.1-1.4-.3-.4-.1-.6-.4-.2-.3-.2-.7 0-.6.6-1t1.5-.4q1 0 1.7.5Zm3.5-.3v1q.4-.6 1-.9.4-.3 1.1-.3.7 0 1.3.4.7.3 1 1 .3.5.3 1.2 0 1-.7 1.8-.8.8-1.9.8-1.3 0-2.1-1.1v3h1.4v.4H86l-.1-.2v-.2h1v-6.4h-1l-.1-.2v-.2h1.5Zm4.2 2.4q0-.9-.6-1.4-.6-.7-1.5-.7t-1.5.7q-.6.6-.6 1.4 0 .9.6 1.5t1.5.6q.9 0 1.5-.6t.6-1.5Zm7.3.3h-5q.1 1 .8 1.5.6.6 1.6.6l1.2-.2 1-.5h.3l.1.2v.2l-1 .5q-.8.3-1.6.3-1.2 0-2-.8-1-.9-1-2t.9-1.9q.8-.8 2-.8 1.1 0 2 .8.7.8.7 2Zm-.5-.5q-.1-.8-.8-1.3-.6-.6-1.5-.6-.8 0-1.4.5-.7.5-.8 1.4h4.5Zm7.5.5h-5q.1 1 .8 1.5.6.6 1.6.6l1.2-.2 1-.5h.3l.1.2v.2l-1 .5q-.8.3-1.6.3-1.2 0-2-.8-1-.9-1-2t.9-1.9q.8-.8 2-.8 1.1 0 2 .8.7.8.7 2Zm-.5-.5q-.1-.8-.8-1.3-.6-.6-1.5-.6-.8 0-1.4.5-.7.5-.8 1.4h4.5Zm7.2-4.5v6.9h.9l.1.2v.2l-.3.1H112v-1q-.8 1.2-2.1 1.2-.7 0-1.3-.4-.6-.3-1-1-.3-.6-.3-1.3 0-.7.3-1.4.4-.6 1-1t1.3-.4q1.3 0 2.1 1.2v-2.8h-.9v-.4h1.4Zm-.5 4.9q0-1-.6-1.6-.6-.7-1.5-.7t-1.5.7q-.6.6-.6 1.6 0 .9.6 1.6.6.6 1.5.6t1.5-.6q.6-.7.6-1.6Zm12-.4.2-1.4q.2-.8.7-1.8.5-1 .8-1.2h.3v.3l-1 2.2-.2 1.9q0 1 .3 2 .3.9 1 2v.2l-.1.1-.2.1h-.1q-.3-.2-.8-1.2t-.6-1.7l-.2-1.5Zm9.2-1.7v-.4h.4v1.6l-.2.1h-.1l-.1-.3q0-.4-.6-.8-.5-.4-1.3-.4-1.2 0-1.7.7-.6.7-.6 1.6 0 1 .7 1.6.6.6 1.6.6l1.1-.2q.6-.2 1.1-.7l.2-.1h.2v.2q0 .3-.5.7-1 .6-2.2.6-1.1 0-2-.8-.7-.7-.7-1.9t.8-2q.8-.8 2-.8 1.1 0 1.9.7Zm5.6-3v1.3h-.7v-1.3h.7Zm0 3h-3.1l-.1-.2v-.2h3.8v5.3q0 .7-.3 1-.3.5-.8.8-.3.2-.8.2h-1.6l-.3-.1v-.4h2q.6 0 1-.4.4-.5.4-1v-5Zm6.7 2 2.2 2.1h.3l.1.1v.3l-.3.1H146l-.1-.3v-.1l.3-.1h.8l-1.9-1.8-1.9 1.8h1.1v.4l-.3.1h-1.8v-.4l.3-.1 2.3-2.2-2-1.9h-.3l-.1-.2v-.2h1.9v.4h-.8l1.6 1.6 1.7-1.6h-.8l-.1-.2v-.2h1.9v.4h-.3l-2 2Zm6.9-4.8v6.9h2.2v.4l-.3.1h-4.6v-.4l.2-.1h2v-6.4h-1.7v-.4h2.2Zm16.4 5h-5q.1 1 .8 1.5.6.6 1.6.6l1.2-.2 1-.5h.3l.1.2v.2l-1 .5q-.8.3-1.6.3-1.2 0-2-.8-1-.9-1-2t.9-1.9q.8-.8 2-.8 1.1 0 2 .8.7.8.7 2Zm-.5-.5q-.2-.8-.8-1.3-.6-.6-1.5-.6-.8 0-1.4.5-.7.5-.8 1.4h4.5Zm4.5-1.7v4.1h2.4v.4l-.2.1h-4.1l-.1-.3v-.1l.3-.1h1.2v-4h-1l-.3-.1v-.4h1.3v-.8q0-.6.5-1.1.5-.5 1.3-.5l1.5.2h.4v.4h-1.8q-.7 0-1 .3-.4.3-.4.7v.7h2.3l.3.1v.4h-2.6Zm7 0v4.1h2.4v.4l-.2.1h-4.1l-.1-.3v-.1l.3-.1h1.2v-4h-1l-.3-.1v-.4h1.3v-.8q0-.6.5-1.1.5-.5 1.3-.5l1.5.2h.4v.4h-1.8q-.7 0-1 .3-.4.3-.4.7v.7h2.3l.3.1v.4h-2.6Zm10 2q0 1.2-.7 2-.8.8-2 .8-1.1 0-2-.8-.7-.8-.7-2 0-1 .8-1.9.8-.8 2-.8 1 0 1.9.8.8.8.8 2Zm-.4 0q0-.9-.7-1.5-.6-.7-1.6-.7t-1.6.7q-.6.6-.6 1.6 0 .9.6 1.5.7.7 1.6.7 1 0 1.6-.7.7-.6.7-1.5Zm4.1-2.5v1.3q1-1 1.5-1.2.4-.2.9-.2.4 0 .8.3l.4.4-.1.2h-.5l-.3-.3-.3-.1q-.3 0-.8.3l-1.6 1.2v2.7h2.5v.4l-.3.1h-4.1v-.4h1.4v-4.2h-1v-.4h1.5Zm6.6 0h2.7l.2.1.1.2v.2h-3v3.3q0 .4.4.7.3.3 1 .3l1-.1 1-.4h.2v.3l-1 .5q-.6.2-1.3.2-.9 0-1.4-.4-.5-.4-.5-1.1v-3.3h-1.1l-.1-.2v-.2h1.3v-1.8h.4l.1.3v1.4Zm17.7 2.7h-5q.1 1 .8 1.5.6.6 1.6.6l1.2-.2 1-.5h.3l.1.2v.2l-1 .5q-.8.3-1.6.3-1.2 0-2-.8-1-.9-1-2t.9-1.9q.8-.8 2-.8 1.1 0 2 .8.7.8.7 2Zm-.5-.5q-.2-.8-.8-1.3-.6-.6-1.5-.6-.8 0-1.4.5-.7.5-.8 1.4h4.5Zm5-4.6v7h2v.4l-.2.1h-4.2v-.4l.3-.1h1.7v-6.3l-1.6.5h-.4v-.3l.2-.2 2.3-.7Zm12.8 2.4h2.7l.2.1.1.2v.2h-3v3.3q0 .4.4.7.3.3 1 .3l1-.1 1-.4h.2v.3l-1 .5q-.6.2-1.3.2-.9 0-1.4-.4-.5-.4-.5-1.1v-3.3h-1.1l-.1-.2v-.2h1.3v-1.8h.4l.1.3v1.4Zm6.4-2.3v3l.9-.6q.4-.3 1-.3l1 .2.6.7q.3.4.3.8v3.1h.8v.4l-.3.1H244l-.1-.3v-.1l.3-.1h.6v-3q0-.6-.4-1-.4-.3-1-.3t-1 .3l-.9.9v3.1h.8v.4l-.2.1h-1.9v-.4l.3-.1h.5v-6.4h-.9v-.4h1.4Zm8 2.3v1.3q1-1 1.5-1.2.4-.2.9-.2.4 0 .8.3l.4.4-.1.2h-.5l-.3-.3-.3-.1q-.3 0-.8.3l-1.6 1.2v2.7h2.5v.4l-.3.1h-4.1v-.4h1.4v-4.2h-1v-.4h1.5Zm10.4 2.6q0 1-.8 1.9-.8.8-2 .8-1.1 0-2-.8-.7-.8-.7-2 0-1 .8-1.9.8-.8 2-.8 1 0 1.9.8.8.8.8 2Zm-.5 0q0-1-.7-1.6-.6-.7-1.6-.7t-1.6.7q-.6.6-.6 1.6 0 .9.6 1.5.7.7 1.6.7 1 0 1.6-.7.7-.6.7-1.5Zm6.4 2.5v-.7q-1 .9-2.2.9-.7 0-1-.4-.5-.5-.5-1.2v-3.2h-1v-.4h1.4v3.6q0 .5.3.8.3.3.8.3 1.2 0 2.2-1.1v-3.2h-1.2v-.4h1.7v4.5h.7v.4l-.3.1h-.9Zm7-4.2v-.9h1.1l.3.1v.4h-.9v5l-.2.8-.5.5-.6.4q-.3.2-.7.2h-1.4l-.3-.1v-.4h1.7q.4 0 .8-.3.3-.2.5-.6.2-.2.2-.6V349q-.8 1-2 1-1 0-1.8-.7-.7-.7-.7-1.8 0-1 .7-1.8t1.7-.8q1.3 0 2 1.1Zm0 1.5q0-.9-.6-1.5t-1.4-.6q-.9 0-1.4.7-.6.5-.6 1.4 0 .9.6 1.5.5.6 1.4.6.8 0 1.4-.6.6-.6.6-1.5Zm3.7-4.7v3l.9-.6q.4-.3 1-.3l1 .2.6.7q.3.4.3.8v3.1h.8v.4l-.3.1H279l-.1-.3v-.1l.3-.1h.6v-3q0-.6-.4-1-.4-.3-1-.3t-1 .3l-.9.9v3.1h.8v.4l-.2.1h-1.9v-.4l.3-.1h.5v-6.4h-.9v-.4h1.4Zm18.3 5h-5q.1 1 .8 1.5.6.6 1.6.6l1.2-.2 1-.5h.3l.1.2v.2l-1 .5q-.8.3-1.6.3-1.2 0-2-.8-1-.9-1-2t.9-1.9q.8-.8 2-.8 1.1 0 2 .8.7.8.7 2Zm-.5-.5q-.2-.8-.8-1.3-.6-.6-1.5-.6-.8 0-1.4.5-.7.5-.8 1.4h4.5Zm6.8-1.3q-.3.7-.9 1-.5.4-1 .4-.6 0-1-.3-.5-.3-.8-.9-.3-.5-.3-1.1 0-1 .6-1.7t1.5-.7q.7 0 1.2.4.6.4.9 1.2.4 1 .4 2.3 0 1-.4 1.8-.2.5-.6.9l-1 .7q-.7.4-1.5.4-.6 0-.9-.2-.2-.1-.2-.3l.1-.1.2-.1h.2q.2.2.5.2 1.3 0 2.2-1 .9-.8.9-2.2v-.7Zm0-.8q-.4-1.2-.8-1.6-.5-.4-1-.4-.7 0-1.2.5t-.5 1.3q0 .9.5 1.4.5.5 1 .5l.8-.2.6-.6.6-.9Zm4 3.2h1.6l-1.7 3.3q-.1.3-.4.3l-.2-.1-.1-.3v-.1l.8-3Zm16.4 1.8v-.7q-1 .9-2.3.9-.8 0-1.3-.5-.5-.4-.5-1 0-.8.6-1.3.7-.5 2-.5h.7l.8.1v-.8q0-.4-.3-.7-.4-.3-1.2-.3-.5 0-1.6.4h-.4v-.4l.7-.2q.9-.3 1.4-.3.9 0 1.4.5.5.5.5 1v3.3h1l.1.2v.2l-.3.1h-1.2Zm0-2.5-.7-.1h-.8q-1 0-1.7.4-.4.4-.4.8 0 .5.3.8.4.3 1 .3.7 0 1.2-.3.6-.2 1.1-.8v-1Zm6 2.5h-.8l-2-4.6h-.8v-.4h2.4v.4h-1.1l1.8 4.1h.3l1.7-4h-.8l-.3-.1v-.4h2.4v.4h-.7l-2 4.6Zm6.9-7.6v1.3h-.8v-1.3h.8Zm0 2.5v4.6h2.2v.4l-.3.1h-4.6v-.4l.3-.1h1.9v-4h-1.4l-.3-.1v-.4h2.2Zm6.4.5v4.1h2.4v.4l-.2.1h-4.1l-.1-.3v-.1l.3-.1h1.2v-4h-1l-.3-.1v-.4h1.3v-.8q0-.6.5-1.1.5-.5 1.3-.5l1.5.2h.4v.4h-2q-.6 0-1 .3-.3.3-.3.7v.7h2.3l.3.1v.4h-2.5Zm10 2.2h-5q.1 1 .8 1.5.6.6 1.6.6l1.2-.2 1-.5h.3l.1.2v.2l-1 .5q-.8.3-1.6.3-1.2 0-2-.8-1-.9-1-2t.9-1.9q.8-.8 2-.8 1.1 0 2 .8.7.8.7 2Zm-.5-.5q-.2-.8-.8-1.3-.6-.6-1.5-.6-.8 0-1.4.5-.7.5-.8 1.4h4.5Zm3.2-2.2v.8l1-.8q.4-.2.9-.2.6 0 1 .3.4.2.6.6.3.4.3.8v3.1h.7v.4l-.3.1h-1.6v-.4l.3-.1h.4v-3q0-.5-.4-.9t-1-.4q-.5 0-.8.2-.4.2-1 1v3.1h.7l.1.2v.2l-.3.1h-1.9v-.4l.3-.1h.5v-4h-.4l-.2-.1v-.4h1.2Zm10.7.5v-.4h.4v1.6l-.2.1h-.1l-.1-.3q0-.4-.6-.8-.5-.4-1.3-.4-1.2 0-1.7.7-.6.7-.6 1.6 0 1 .6 1.6.7.6 1.7.6l1.1-.2q.6-.2 1.1-.7l.2-.1h.2v.2q0 .3-.5.7-1 .6-2.2.6-1.1 0-2-.8-.7-.7-.7-1.9t.8-2q.8-.8 2-.8 1.1 0 1.9.7Zm13.6-.2v-.2h.4v1.4h-.4v-.2q0-.4-.4-.6-.5-.4-1.3-.4t-1.3.4q-.3.2-.3.5 0 .4.4.6.3.2 1 .3 1 0 1.5.2.6.2.8.6.3.4.3.8 0 .6-.6 1.1-.6.5-1.8.5-1.1 0-1.9-.6v.3l-.2.1h-.2v-1.6h.4v.2q0 .3.2.4.2.3.6.5.5.2 1.1.2 1 0 1.5-.4.4-.3.4-.7 0-.5-.5-.7-.4-.3-1.4-.4-.9-.1-1.3-.3-.4-.1-.6-.4-.2-.3-.2-.7 0-.6.6-1t1.5-.4q1 0 1.7.5Zm3.5-.3v1q.4-.6 1-.9.4-.3 1.1-.3.7 0 1.3.4.7.3 1 1 .3.5.3 1.2 0 1-.7 1.8-.8.8-1.9.8-1.3 0-2.1-1.1v3h1.4v.4H380l-.1-.2v-.2h1v-6.4h-1l-.1-.2v-.2h1.5Zm4.2 2.4q0-.9-.6-1.4-.6-.7-1.5-.7t-1.5.7q-.6.6-.6 1.4 0 .9.6 1.5t1.5.6q.9 0 1.5-.6t.6-1.5Zm7.3.3h-5q.1 1 .8 1.5.6.6 1.6.6l1.2-.2 1-.5h.3l.1.2v.2l-1 .5q-.8.3-1.6.3-1.2 0-2-.8-1-.9-1-2t.9-1.9q.8-.8 2-.8 1.1 0 2 .8.7.8.7 2Zm-.5-.5q-.2-.8-.8-1.3-.6-.6-1.5-.6-.8 0-1.4.5-.7.5-.8 1.4h4.5Zm7.5.5h-5q.1 1 .8 1.5.6.6 1.6.6l1.2-.2 1-.5h.3l.1.2v.2l-1 .5q-.8.3-1.6.3-1.2 0-2-.8-1-.9-1-2t.9-1.9q.8-.8 2-.8 1.1 0 2 .8.7.8.7 2Zm-.5-.5q-.2-.8-.8-1.3-.6-.6-1.5-.6-.8 0-1.4.5-.7.5-.8 1.4h4.5Zm7.2-4.5v6.9h.9l.1.2v.2l-.3.1H406v-1q-.8 1.2-2.1 1.2-.7 0-1.3-.4-.6-.3-1-1-.3-.6-.3-1.3 0-.7.3-1.4.4-.6 1-1t1.3-.4q1.3 0 2.1 1.2v-2.8h-.9v-.4h1.4Zm-.5 4.9q0-1-.6-1.6-.6-.7-1.5-.7t-1.5.7q-.6.6-.6 1.6 0 .9.6 1.6.6.6 1.5.6t1.5-.6q.6-.7.6-1.6Zm12.4-5v7h1.9v.4l-.2.1h-4.2v-.4l.3-.1h1.7v-6.3l-1.6.5h-.4v-.3l.2-.2 2.3-.7Zm9 3.2v1.2q0 1.6-.8 2.5-.6.8-1.5.8l-.8-.2q-.4-.2-.6-.5l-.4-.6-.3-.8-.1-1.2V346q0-1.6.7-2.5.6-.7 1.5-.7l.8.1.7.5.4.7.3.7v1.2Zm-.5 0-.2-1.2-.4-1-.4-.3-.8-.2q-.8 0-1.3.8-.4.9-.4 2v1q0 .8.2 1.4l.4 1 .4.3q.3.2.7.2.9 0 1.3-.9.5-.8.5-2v-1Zm11.2-.8h2.7l.2.1.1.2v.2h-3v3.3q0 .4.4.7.3.3 1 .3l1-.1 1-.4h.2v.3l-1 .5q-.6.2-1.3.2-.9 0-1.4-.4-.5-.4-.5-1.1v-3.3h-1.1l-.1-.2v-.2h1.3v-1.8h.4l.1.3v1.4Zm6.4-2.3v3l.9-.6q.4-.3 1-.3l1 .2.6.7q.3.4.3.8v3.1h.8v.4l-.3.1H447l-.1-.3v-.1l.3-.1h.6v-3q0-.6-.4-1-.4-.3-1-.3t-1 .3l-.9.9v3.1h.8v.4l-.2.1h-1.9v-.4l.3-.1h.5v-6.4h-.9v-.4h1.4Zm8 2.3v1.3q1-1 1.5-1.2.4-.2.9-.2.4 0 .8.3l.4.4-.1.2h-.5l-.3-.3-.3-.1q-.3 0-.8.3-.5.2-1.6 1.2v2.7h2.5v.4l-.3.1h-4.1v-.4h1.4v-4.2h-1v-.4h1.5Zm10.4 2.6q0 1-.8 1.9-.8.8-2 .8-1.1 0-2-.8-.7-.8-.7-2 0-1 .8-1.9.8-.8 2-.8 1 0 1.9.8.8.8.8 2Zm-.5 0q0-1-.7-1.6-.6-.7-1.6-.7t-1.6.7q-.6.6-.6 1.6 0 .9.6 1.5.7.7 1.6.7 1 0 1.6-.7.7-.6.7-1.5Zm6.4 2.5v-.7q-1 .9-2.2.9-.7 0-1-.4-.5-.5-.5-1.2v-3.2h-1v-.4h1.4v3.6q0 .5.3.8.3.3.8.3 1.2 0 2.2-1.1v-3.2h-1.2v-.4h1.7v4.5h.7v.4l-.3.1h-.9Zm7-4.2v-.9h1.1l.3.1v.4h-.9v5l-.2.8-.5.5-.6.4q-.3.2-.7.2h-1.4l-.3-.1v-.4h1.7q.4 0 .8-.3.3-.2.5-.6.2-.2.2-.6V349q-.8 1-2 1-1 0-1.8-.7-.7-.7-.7-1.8 0-1 .7-1.8t1.7-.8q1.3 0 2 1.1Zm0 1.5q0-.9-.6-1.5t-1.4-.6q-.9 0-1.4.7-.6.5-.6 1.4 0 .9.6 1.5.5.6 1.4.6.8 0 1.4-.6.6-.6.6-1.5Zm3.7-4.7v3l.9-.6q.4-.3 1-.3l1 .2.6.7q.3.4.3.8v3.1h.8v.4l-.3.1H482l-.1-.3v-.1l.3-.1h.6v-3q0-.6-.4-1-.4-.3-1-.3t-1 .3l-.9.9v3.1h.8v.4l-.2.1h-1.9v-.4l.3-.1h.5v-6.4h-.9v-.4h1.4Zm17.9 3.1v1.2q0 1.6-.8 2.5-.6.8-1.5.8l-.8-.2q-.4-.2-.6-.5l-.4-.6-.3-.8-.1-1.2V346q0-1.6.7-2.5.6-.7 1.5-.7l.8.1.7.5.4.7.3.7v1.2Zm-.5 0-.2-1.2-.4-1-.4-.3-.8-.2q-.8 0-1.3.8-.4.9-.4 2v1q0 .8.2 1.4l.4 1 .4.3q.3.2.7.2.9 0 1.3-.9.5-.8.5-2v-1Zm5.4 1.4-.2 1.4q-.2.8-.7 1.7l-.7 1.2-.2.1h-.1l-.1-.2v-.1q.7-1.2 1-2.2l.2-2q0-.9-.3-1.8-.2-1-.9-2.2v-.3h.4l.7 1.2.7 1.7q.2.7.2 1.5Z"
  /><path
    fill="#fff"
    d="M37.4 303.2v1.2q0 1.6-.7 2.5-.6.7-1.5.7-.5 0-.9-.2l-.6-.4-.4-.6-.3-.8-.1-1.2v-1.2q0-1.6.7-2.5.6-.8 1.5-.8.5 0 .9.2l.6.5.4.6.3.8.1 1.2Zm-.5 0q0-.7-.2-1.3l-.4-1-.4-.3q-.3-.2-.8-.2-.8 0-1.3.9-.4.8-.4 2v1q0 .7.2 1.3l.4 1 .4.3q.3.2.8.2.8 0 1.3-.8.4-.9.4-2v-1Zm-8.5-77.6v7h1.9l.1.2v.2H26l-.1-.2v-.2h2v-6.3l-1.6.5H26l-.1-.2v-.2h.2l2.3-.8Zm9 3.2v1.2q0 1.6-.7 2.5-.6.7-1.5.7l-.9-.1-.6-.5-.4-.6-.3-.8-.1-1.2v-1.2q0-1.6.7-2.5.6-.8 1.5-.8.5 0 .9.2l.6.5.4.6.3.8.1 1.2Zm-.5 0q0-.7-.2-1.3l-.4-1-.4-.3q-.3-.2-.8-.2-.8 0-1.3.9-.4.8-.4 2v1q0 .7.2 1.3l.4 1 .4.3q.3.2.8.2.8 0 1.3-.8.4-.9.4-2v-1ZM26 158.2h3.8v-.5h.4l.1.3v.7h-4.8v-.8q1.6-1.3 3-2.7l.9-1 .3-.5.1-.4q0-.7-.5-1.2t-1.2-.5q-.7 0-1.2.4t-.6 1l-.1.1h-.3l-.1-.2.3-.7q.3-.5.8-.8.6-.3 1.2-.3.9 0 1.5.7.7.6.7 1.4l-.1.7-.4.6-1 1L26 158Zm11.4-3.8v1.2q0 1.6-.7 2.5-.6.7-1.5.7l-.9-.1-.6-.5-.4-.6-.3-.8-.1-1.2v-1.2q0-1.6.7-2.5.6-.8 1.5-.8.5 0 .9.2l.6.5.4.6.3.8.1 1.2Zm-.5 0-.2-1.2-.4-1-.4-.4q-.3-.2-.8-.2-.8 0-1.3.9-.4.8-.4 2v1q0 .7.2 1.3l.4 1 .4.3q.3.3.8.3.8 0 1.3-.9.4-.8.4-2v-1Zm-7.7-74.1q.6.3 1 .8t.4 1.1q0 1-.8 1.6-.7.7-1.8.7-.6 0-1.3-.3l-1-.6v-.3h.4q1 .7 2 .7.8 0 1.4-.6.6-.5.6-1.2 0-.4-.3-.8t-.8-.7l-1.1-.2h-.3V80h.7q.6 0 1-.4.5-.4.5-1 0-.5-.5-1-.4-.3-1.1-.3l-1 .1q-.4.2-.6.5l-.2.1H26v-.2q0-.2.4-.5.8-.5 1.7-.5.9 0 1.5.5.6.6.6 1.3 0 .5-.3 1-.3.4-.8.7Zm8.2-.3v1.2q0 1.6-.7 2.5-.6.8-1.5.8-.5 0-.9-.2l-.6-.5-.4-.6-.3-.8-.1-1.2V80q0-1.6.7-2.5.6-.7 1.5-.7l.9.1.6.5.4.6.3.8.1 1.2Zm-.5 0-.2-1.2-.4-1-.4-.3q-.3-.2-.8-.2-.8 0-1.3.8-.4.8-.4 2v1l.2 1.4.4 1 .4.3q.3.2.8.2.8 0 1.3-.9.4-.8.4-2v-1Zm60.6 240h3.8v-.5h.4v.9H97v-.7l3-2.7.8-1q.3-.3.3-.5l.1-.5q0-.6-.5-1.1-.5-.5-1.2-.5-.6 0-1.1.4-.5.4-.7.9v.2h-.4v-.2l.2-.8.9-.7q.5-.3 1.1-.3 1 0 1.6.7.6.6.6 1.4v.6l-.4.7-1 1-2.8 2.6Zm99.3-1.6h-3.3v-.6l2.7-4.7h1v4.8h.7l.1.3v.1h-.7v1.6h.4l.2.1.1.2v.2h-2.4v-.4h1.2v-1.6Zm0-.5v-4.3h-.3l-2.5 4.3h2.8Zm93.9-.6q.4-.6.9-1 .5-.3 1-.3.9 0 1.5.7.6.6.6 1.6 0 .9-.6 1.6-.5.7-1.5.7-.7 0-1.2-.4-.6-.4-.9-1.2-.4-1-.4-2.2 0-1 .4-1.7.3-.7.7-1.1.5-.5 1.1-.8.7-.3 1.4-.3.5 0 .8.2l.1.3v.1h-1q-1 0-2 .9-1 1-1 2.3v.6Zm0 .9q.3 1 .8 1.5.4.4 1.1.4.7 0 1.1-.5.5-.5.5-1.3t-.5-1.3q-.5-.5-1-.5-.6 0-1.1.5-.4.3-.8 1.2Zm98.7-1.6q.6.3 1 .8.3.5.3 1 0 1-.7 1.6-.7.6-1.6.6-1 0-1.6-.6-.6-.7-.6-1.5 0-.6.3-1 .3-.6.9-.9l-.8-.6q-.3-.5-.3-1 0-.9.6-1.5t1.5-.6q.9 0 1.5.6t.6 1.4q0 .6-.3 1t-.8.7Zm.6-1.6q0-.7-.5-1.1-.4-.5-1.1-.5-.7 0-1.2.5-.4.4-.4 1t.4 1q.5.5 1.2.5t1.2-.4q.4-.5.4-1Zm.2 3.5q0-.7-.5-1.1-.5-.5-1.3-.5-.7 0-1.3.5-.5.4-.5 1 0 .8.5 1.3.6.4 1.3.4.7 0 1.2-.4.6-.5.6-1.2Zm91.2-5.5v7h1.9l.1.2v.2H479l-.1-.2v-.2h2v-6.3l-1.6.5h-.3l-.1-.2v-.2l.3-.1 2.2-.7Zm9 3.2v1.2q0 1.6-.7 2.5-.6.7-1.5.7-.5 0-.9-.2l-.6-.4-.4-.6-.3-.8-.1-1.2v-1.2q0-1.6.8-2.5.5-.8 1.5-.8l.8.2q.4.2.6.5l.4.6.3.8.1 1.2Zm-.5 0q0-.7-.2-1.3l-.4-1-.4-.3q-.3-.2-.7-.2-.9 0-1.3.9-.5.8-.5 2v1q0 .7.2 1.3l.4 1 .4.3q.3.2.8.2.8 0 1.3-.8.4-.9.4-2v-1Z"
  /><path fill="red" d="M59 93.5a6 6 0 1 1-12 0 6 6 0 0 1 12 0Z" /><path
    fill="#bdbdbd"
    d="M72 96.5v-.7q-1 1-2.3 1-.9 0-1.4-.5-.5-.5-.5-1.1 0-.7.7-1.3.7-.5 2-.5h.6l1 .2v-.8q0-.4-.5-.7-.3-.3-1-.3t-1.7.3h-.4v-.3l.7-.3 1.3-.2q1 0 1.5.5.5.4.5 1V96h.7l.2.1.1.2v.2H72Zm0-2.4-.7-.2h-.8q-1.1 0-1.7.4-.5.4-.5.9 0 .4.4.7.3.3 1 .3l1.2-.2 1.1-.8V94Zm8.4 0q0 1-.9 1.8-.8.8-1.9.8-1.1 0-2-.8-.8-.8-.8-1.9 0-1.1.8-2 .9-.7 2-.7t2 .8q.8.8.8 2Zm-.5 0q0-1-.7-1.7-.7-.6-1.6-.6-1 0-1.6.6-.7.7-.7 1.6 0 1 .7 1.6.7.6 1.6.6 1 0 1.6-.6.7-.7.7-1.6Zm2.5-2.6v.5q.6-.7 1.2-.7.4 0 .7.2.3.2.5.6l.6-.6.7-.2q.5 0 .9.3.4.5.4 1V96h.4l.2.1.1.2v.2h-1.3v-3.9l-.1-.6-.6-.2-.5.2-.7.8V96h.4l.2.1.1.2v.2h-1.3v-3.8q0-.4-.2-.7-.2-.2-.5-.2l-.5.2-.7.8V96h.4l.2.1.1.2v.2h-2V96h.7v-4h-.4l-.3-.1v-.4h1.2ZM94.3 94h-5q0 1 .7 1.6.7.5 1.7.5l1.2-.1 1-.5.1-.1h.2v.4q-.3.3-1 .6-.7.2-1.5.2-1.3 0-2.1-.8t-.8-2q0-1 .7-1.8.8-.8 2-.8t2 .8q.8.8.8 2Zm-.5-.5q-.2-.8-.8-1.3-.6-.5-1.5-.5-.8 0-1.5.5-.6.5-.8 1.3h4.6Zm3.2-2.1v.7q.5-.5 1-.7.4-.2.9-.2l1 .2.6.6q.3.4.3.8V96h.4l.2.1.1.2v.2h-2V96h.7v-3q0-.6-.4-1-.4-.3-1-.3-.5 0-.9.2l-1 1v3h.6l.2.1v.4h-2.1V96h.8v-4H96l-.3-.1v-.4H97Zm10.7.5v-.5h.4v1.8h-.4v-.3q0-.4-.6-.7-.5-.4-1.4-.4-1 0-1.6.7-.6.7-.6 1.5 0 1 .6 1.6.7.6 1.7.6l1.1-.2q.6-.2 1-.7h.5v.2q0 .2-.6.6-1 .6-2 .6-1.3 0-2-.7-.8-.8-.8-2t.8-2q.8-.7 2-.7 1 0 1.9.7Z"
  /><path fill="#90f" d="M137 93.5a6 6 0 1 1-12 0 6 6 0 0 1 12 0Z" /><path
    fill="#bdbdbd"
    d="M150.7 92v-.5h.4v1.7h-.4v-.3q0-.4-.6-.7-.5-.4-1.4-.4-1 0-1.6.7-.6.7-.6 1.5 0 1 .6 1.6.7.6 1.7.6l1.1-.2q.6-.2 1-.7h.5v.2q0 .2-.6.6-1 .6-2 .6-1.3 0-2-.7-.8-.8-.8-2t.8-2q.8-.7 2-.7 1 0 1.9.7Zm5.6-3v1.2h-.7V89h.7Zm0 3h-2.9l-.2-.1-.1-.2v-.2h3.8v5.4q0 .6-.2 1-.3.4-.8.7l-.8.2H153v-.4l.3-.1h1.5q.7 0 1-.4.4-.4.4-1v-5Zm6.6 1.9 2.3 2.1h.3v.1l.1.2v.2h-2.1l-.1-.2V96h1.1l-1.9-1.9-1.9 1.8h.8l.3.1v.4h-2.1l-.1-.2V96h.4l2.3-2.2-2-2h-.4v-.4h1.9v.4h-.8l1.6 1.7 1.7-1.6h-.6l-.3-.1v-.4h1.9v.4l-.1.1h-.2l-2 2Zm7-4.7V96h1.9l.2.1.1.2v.2h-4.9l-.1-.2V96h2.3v-6.4h-1.7v-.4l.2-.1h2ZM25 47.4l-1.7 7.4H25q.5 0 .7.2l.1.4q0 .4-.4.7l-.7.1H20l-.7-.1-.1-.4q0-.4.4-.7.2-.2.7-.2h1.6l1.3-6h-1q-.6 0-.7-.2-.2-.1-.2-.4 0-.4.4-.7l.7-.1H25Zm5.3 9q-.8 0-1.6-.3-.7-.3-1-1-.4-.6-.4-1.3 0-.8.6-1.8t1.7-1.6q1-.6 2.2-.6.8 0 1.5.4t1 1q.4.6.4 1.4 0 1-.6 1.8-.5 1-1.6 1.5-1 .6-2.2.6Zm.3-1.3q1 0 1.9-.7.8-.7.8-1.5 0-.7-.5-1.2-.5-.4-1.4-.4-1.1 0-2 .8-.7.7-.7 1.4 0 .6.6 1 .5.6 1.3.6Zm8.3-1.4-1.5 2.5H36l-.2-4.8-.5-.1-.1-.4q0-.4.4-.7.2-.2.7-.2h1.3q.4 0 .6.2.2.1.2.4 0 .4-.4.7l-.8.1.1 2.3 1.4-2.3H40l.4 2.3 1-2.3h-.7l-.2-.5q0-.4.4-.7.2-.2.7-.2H43q.4 0 .6.2.2.1.2.4 0 .3-.3.5-.2.3-.7.3l-2.1 4.8h-1.3l-.5-2.5Zm11.5.1h-5.8q.1.6.6 1 .5.3 1.4.3.8 0 2.2-.4l.8-.1.3.1.2.4q0 .4-.3.7-.3.2-1.5.4-1.1.3-2 .3-1.5 0-2.3-.8-.8-.7-.8-1.9 0-1 .6-1.9.5-1 1.6-1.5 1-.6 2.2-.6 1.3 0 2.1.8.9.7.9 2l-.1.7-.1.5ZM49 52.4q-.2-.5-.6-.8-.5-.3-1.2-.3t-1.3.2q-.6.3-1 1H49Zm6.3-2.4-.2 1 1.6-1 1-.2q.6 0 1 .4.5.4.5.7 0 .3-.3.6t-.6.3q-.3 0-.5-.3l-.4-.2-.9.2-1.8 1.2-.4 2.1h2q.4 0 .6.2l.1.4q0 .4-.3.7l-.8.1h-4.2l-.6-.1-.2-.4q0-.4.4-.7.2-.2.7-.2h.9l.7-3.4h-.5l-.7-.1-.1-.4q0-.4.4-.7.2-.2.7-.2h1.9Zm19 1.6h-6l-.7-.1-.2-.4q0-.4.4-.7.2-.2.7-.2h6q.5 0 .7.2l.1.4q0 .4-.4.7l-.7.1Zm-.6 2.7h-6q-.5 0-.7-.2l-.1-.4q0-.4.4-.7l.7-.1h6l.6.1.2.4q0 .4-.4.7-.2.2-.7.2Zm13.5-2.9-.7 3.4h2q.5 0 .7.2l.1.4q0 .4-.4.7l-.7.1H84l-.6-.1-.2-.4q0-.4.4-.7.2-.2.7-.2h.8l.8-3.4h-.7l-.7-.1-.1-.4q0-.4.4-.7.2-.2.7-.2h.7v-.5q.3-1 1-1.5.9-.6 2.2-.6h1.2l1 .3.2.4q0 .4-.3.6-.3.3-.6.3h-.4l-1.5-.2q-.7 0-1 .2-.3.2-.3.5l-.1.5h2.1q.5 0 .6.2.2.1.2.4 0 .4-.4.7l-.7.1h-2.2Zm8.3 4.8V56q-1.1.6-2.4.6-1 0-1.6-.5-.5-.5-.5-1.2 0-.5.4-1 .5-.8 1.4-1.2 1-.4 2.1-.4l1.4.1.1-.3v-.2l-.2-.4-1-.1-1.6.2h-1l-.1-.5q0-.3.2-.5T94 50l1.7-.2q1.1 0 1.7.5.6.5.6 1.2v.5l-.7 2.8h.2q.5 0 .7.2l.1.4q0 .4-.4.7l-.6.1h-1.7Zm.5-2.5-1.5-.1q-1 0-1.7.5-.4.2-.4.5 0 .2.3.3.3.2.8.2l1.1-.2q.7-.2 1.3-.6l.1-.6Zm8.7-2-.6-.3-.8-.1-1.1.1q-.5.2-.5.4l.2.2q.2.2 1 .3l1.7.3q.6.2 1 .6.3.4.3 1 0 1-1.1 1.6-1.1.7-2.5.7-.6 0-1.1-.2-.5 0-1-.3l-.4.2-.4-.1-.2-.4v-.4l.2-.5q0-.5.3-.7l.6-.2.4.1.1.5q.3.3.7.4.4.2 1 .2 1 0 1.7-.4.2-.1.2-.3 0-.3-.3-.4-.3-.2-1.4-.3-1.5-.2-2-.6-.4-.4-.4-1 0-.5.3-1t1-.8q1-.5 2-.5l.9.1.8.3.5-.2.4.2.1.3v.5l-.1.3q-.1.5-.4.7-.2.2-.5.2l-.4-.1-.2-.4Zm6-.3-.5 2.8v.7q.4.2 1 .2 1 0 2-.5l.7-.2q.2 0 .3.2.2.1.2.4 0 .3-.3.5-.3.4-1.4.7-1 .3-1.9.3-.6 0-1.2-.3-.4-.1-.7-.4l-.2-.8v-.5l.7-3h-.6q-.4 0-.6-.2l-.2-.4q0-.4.4-.7.3-.2.8-.2h.5l.2-1.2q.1-.5.4-.8.2-.2.5-.2t.4.2q.2.1.2.3v.5l-.3 1.2h2.6q.4 0 .6.2l.1.4q0 .4-.3.7l-.7.1h-2.6Zm11.6 2.4h-5.8q.1.6.6 1 .5.3 1.4.3.8 0 2.2-.4l.8-.1.3.1.2.4q0 .4-.3.7-.3.2-1.5.4-1.1.3-2 .3-1.5 0-2.3-.8-.8-.7-.8-1.9 0-1 .6-1.9.5-1 1.6-1.5 1-.6 2.2-.6 1.3 0 2.1.8.9.7.9 2l-.1.7-.1.5Zm-1.3-1.4q-.2-.5-.6-.8-.5-.3-1.2-.3t-1.3.2q-.6.3-1 1h4.1Zm6.3-2.4-.2 1 1.6-1 1-.2q.6 0 1 .4.5.4.5.7 0 .3-.3.6t-.6.3q-.3 0-.5-.3l-.4-.2-.9.2-1.8 1.2-.4 2.1h2q.4 0 .6.2l.1.4q0 .4-.3.7l-.8.1h-4.2l-.6-.1-.2-.4q0-.4.4-.7.2-.2.7-.2h.9l.7-3.4h-.5l-.7-.1-.1-.4q0-.4.4-.7.2-.2.7-.2h1.9Z"
  /><path
    fill="#fff"
    d="M26 30.7v-.4q-.8.4-1.7.6l-1.7.2q-1.6 0-2.6-.9-1-.8-1-1.9 0-1.2 1.3-2.3 1.3-1 3.5-1H26v-.4q0-.4-.4-.7-.3-.3-1.4-.3-.9 0-2.3.4H21q-.4 0-.7-.2-.3-.3-.3-.7l.1-.5.3-.3.7-.3 1.5-.3H24q1.9 0 3 .7 1 .8 1 2.2v4.1h.3q.7 0 1 .3.3.3.3.7 0 .5-.3.8-.3.2-1 .2h-2.4Zm0-3.5q-1.2-.3-2.3-.3-1.2 0-2 .6-.6.4-.6.8 0 .3.2.4.5.4 1.4.4.7 0 1.6-.3 1-.3 1.6-.8v-.8Zm10.2 1.1 2.1-4.4q-.8 0-1-.2-.5-.3-.5-.8t.3-.8q.3-.2 1-.2H41q.7 0 1 .2.3.3.3.8 0 .4-.3.7-.3.3-1 .3h-.4l-3.3 6.8h-2L31.7 24h-.3q-.7 0-1-.3-.4-.3-.4-.7 0-.5.3-.8.4-.2 1-.2h2.8q.7 0 1 .2.3.3.3.8t-.5.8q-.2.2-1 .2l2.2 4.4Zm12.7-10.2v2h-2.4v-2h2.4Zm.2 3.8v6.8h2.4q.8 0 1 .3.4.3.4.7 0 .5-.3.8-.3.2-1 .2h-6.9q-.7 0-1-.2-.3-.3-.3-.8 0-.4.3-.7.3-.3 1-.3h2.4V24h-1.6q-.7 0-1-.3-.3-.3-.3-.7 0-.5.3-.8.3-.2 1-.2h3.6Zm11 2v4.8H63q.7 0 1 .3.3.3.3.7 0 .5-.3.8-.3.2-1 .2h-6q-.8 0-1-.2-.4-.3-.4-.8 0-.4.3-.7.3-.3 1-.3h1.2V24h-1q-.6 0-1-.3-.3-.3-.3-.7 0-.5.3-.8.4-.2 1-.2h1v-1q0-1.3 1-2.2 1-.8 2.9-.8l1.9.1q1 .2 1.4.5.3.2.3.6 0 .5-.3.8-.3.3-.7.3h-.5q-1.3-.3-2.2-.3-1 0-1.4.3-.4.3-.4.7v.8h3.1q.7 0 1 .2.3.3.3.8 0 .4-.3.7-.3.3-1 .3h-3Zm17 3.4H69q.3.8 1 1.3.9.4 2.2.4 1.1 0 3-.4l1-.2q.4 0 .7.3.3.3.3.7 0 .4-.3.6-.4.4-2 .7-1.4.4-2.8.4-2.4 0-3.9-1.4-1.4-1.4-1.4-3.3 0-2.1 1.5-3.5 1.6-1.3 3.6-1.3 1.3 0 2.3.4 1 .5 1.5 1 .7.7 1.2 1.8.3.7.3 1.7v.8Zm-2.1-2q-.5-.8-1.3-1.3-.7-.4-1.7-.4t-1.8.4q-.7.5-1.2 1.3h6Zm7-3.3v.6l1.2-.7q.7-.2 1.5-.2 1.7 0 2.8 1.1.8.9.8 2.3v3.7q.6 0 1 .3.2.3.2.7 0 .5-.3.8-.3.2-1 .2h-1.8q-.7 0-1-.2-.4-.3-.4-.8 0-.4.3-.7.4-.3 1-.3V25q0-.7-.4-1-.4-.4-1.3-.4-.7 0-1.3.3-.5.2-1.3 1.1v3.7q.8 0 1 .2.5.3.5.8t-.3.8q-.3.2-1 .2H80q-.7 0-1-.2-.4-.3-.4-.8t.5-.8q.2-.2 1-.2V24q-.6 0-1-.3-.2-.3-.2-.7 0-.5.3-.8.3-.2 1-.2h2Zm17.2.3q.3-.3.7-.3.4 0 .7.3.3.3.3 1v1.3q0 .7-.3 1-.3.3-.7.3-.4 0-.7-.2-.2-.2-.3-.7-.1-.6-.6-.8-.8-.5-2-.5-1.4 0-2.3.8-.8.9-.8 2.1 0 1.2.8 1.9t2.7.7q1.2 0 2-.3.5-.1 1-.5.4-.4.7-.4.4 0 .7.3.3.3.3.7 0 .7-.9 1.3-1.3.9-4 .9-2.3 0-3.6-1-1.7-1.3-1.7-3.6 0-2 1.4-3.5 1.4-1.4 3.7-1.4.8 0 1.5.2.8.1 1.4.4Zm20.9 6.1 2.1-4.4q-.8 0-1-.2-.5-.3-.5-.8t.3-.8q.3-.2 1-.2h2.8q.7 0 1 .2.3.3.3.8 0 .4-.3.7-.3.3-1 .3h-.4l-3.3 6.8h-2l-3.4-6.8h-.3q-.7 0-1-.3-.4-.3-.4-.7 0-.5.3-.8.4-.2 1-.2h2.8q.7 0 1 .2.3.3.3.8t-.5.8q-.2.2-1 .2l2.2 4.4Zm14.1-4.1-1-.4q-.5-.2-1.1-.2-1.2 0-1.9.4l-.3.3q0 .3.4.5l1.4.3 2.8.5q1 .4 1.6 1.1.5.7.5 1.5 0 1-1 1.8-1.3 1-3.4 1h-1.7l-1.3-.5-.3.2h-.4q-.4 0-.7-.3-.3-.3-.3-1v-.7q0-.7.3-1 .3-.3.7-.3.4 0 .6.2.3.2.4.7.5.4 1.1.6l1.5.1q1.4 0 2.1-.4.4-.2.4-.4 0-.4-.5-.7-.5-.2-2.2-.4-2.4-.3-3.2-1-.8-.7-.8-1.7 0-1.1 1-1.8 1.1-1 3.1-1l1.4.1 1.2.4.3-.2h.3q.5 0 .7.3.3.3.3 1v.5q0 .6-.2.9-.3.4-.8.4-.4 0-.6-.2-.3-.2-.4-.6Zm25-2q.3-.3.7-.3.4 0 .7.3.3.3.3 1v1.3q0 .7-.3 1-.3.3-.7.3-.4 0-.7-.2-.2-.2-.3-.7-.1-.6-.6-.8-.8-.5-2-.5-1.4 0-2.3.8-.8.9-.8 2.1 0 1.2.8 1.9t2.7.7q1.2 0 2-.3.5-.1 1-.5.4-.4.7-.4.4 0 .7.3.3.3.3.7 0 .7-.9 1.3-1.3.9-4 .9-2.3 0-3.6-1-1.7-1.3-1.7-3.6 0-2 1.4-3.5 1.4-1.4 3.7-1.4.8 0 1.5.2.8.1 1.4.4Zm10.9-4.1v2h-2.4v-2h2.4Zm-.9 5.8h-4q-.8 0-1-.3-.4-.3-.4-.7 0-.5.3-.8.3-.2 1-.2h6.1v9.3q0 1-.4 1.8t-1.4 1.3q-.9.6-2 .6h-2.3q-.7 0-1-.3-.3-.2-.3-.7 0-.4.3-.7.3-.3 1-.3h2.2q1 0 1.4-.5.5-.5.5-1.2V24Zm12.3 2.2 3 2.6q.6 0 .9.3.3.3.3.7 0 .5-.3.8-.3.2-1 .2h-2.3q-.8 0-1-.2-.4-.3-.4-.8l.2-.6.6-.4-1.5-1.3-1.5 1.3q.5.1.7.4.2.2.2.6 0 .5-.3.8-.3.2-1 .2h-2.3q-.7 0-1-.2-.3-.3-.3-.8 0-.4.2-.7l.9-.3 3-2.6L176 24q-.5 0-.8-.4-.3-.2-.3-.6 0-.5.4-.8.3-.2 1-.2h1.9q.7 0 1 .2.3.3.3.8t-.5.9l1.2 1 1.1-1q-.5-.4-.5-1 0-.4.3-.7.3-.2 1-.2h1.9q.7 0 1 .2.3.3.3.8 0 .4-.2.6-.3.3-.8.4l-2.7 2.2Zm11.5-8v10.6h2.4q.8 0 1 .3.4.3.4.7 0 .5-.3.8-.3.2-1 .2h-6.9q-.7 0-1-.2-.3-.3-.3-.8 0-.4.3-.7.3-.3 1-.3h2.4v-8.6h-1.6q-.7 0-1-.3-.3-.3-.3-.7 0-.5.3-.8.3-.2 1-.2h3.6Zm12.6 5.1q0 .6-.4 1-.5.3-1.2.3t-1-.3q-.5-.4-.5-1t.4-1q.4-.3 1.1-.3.7 0 1.2.4.4.3.4.9Zm0 6.6q0 .5-.4 1-.4.3-1.1.3-.7 0-1.1-.4-.4-.4-.4-1 0-.5.4-.9t1-.4q.8 0 1.2.4.4.4.4 1Zm26.7-8v7q.6 0 1 .2.2.3.2.7 0 .5-.3.8-.3.2-1 .2h-2v-.4l-1.5.6-1.5.2q-1 0-1.7-.5-.8-.4-1.2-1.1-.3-.5-.3-1.3V24h-.3q-.8 0-1-.3-.4-.3-.4-.7 0-.5.3-.8.3-.2 1-.2h2.4v6q0 .6.3.9.3.2 1 .2l1.3-.2q.7-.2 1.7-.8V24h-.7q-.7 0-1-.3-.4-.3-.4-.7 0-.5.3-.8.4-.2 1-.2h2.8Zm10 2.4-1.1-.4q-.5-.2-1.1-.2-1.2 0-1.9.4l-.3.3q0 .3.4.5l1.4.3 2.8.5q1 .4 1.6 1.1.5.7.5 1.5 0 1-1 1.8-1.3 1-3.4 1h-1.7l-1.3-.5-.3.2h-.4q-.4 0-.7-.3-.3-.3-.3-1v-.7q0-.7.3-1 .3-.3.7-.3.4 0 .6.2.3.2.4.7.5.4 1.1.6l1.5.1q1.4 0 2.1-.4.4-.2.4-.4 0-.4-.5-.7-.5-.2-2.2-.4-2.4-.3-3.2-1-.8-.7-.8-1.7 0-1.1 1-1.8 1.1-1 3.1-1l1.4.1 1.2.4.3-.2h.3q.5 0 .7.3.3.3.3 1v.5q0 .6-.2.9-.3.4-.8.4-.4 0-.6-.2-.3-.2-.4-.6Zm14.8 3.1H249q.3.8 1 1.3.9.4 2.2.4 1.1 0 3-.4l1-.2q.4 0 .7.3.3.3.3.7 0 .4-.3.6-.4.4-2 .7-1.4.4-2.8.4-2.4 0-3.9-1.4-1.4-1.4-1.4-3.3 0-2.1 1.5-3.5 1.6-1.3 3.6-1.3 1.3 0 2.3.4 1 .5 1.5 1 .7.7 1.2 1.8.3.7.3 1.7v.8Zm-2.2-2q-.5-.8-1.3-1.3-.7-.4-1.7-.4t-1.8.4q-.7.5-1.2 1.3h6Zm8.7-3.4v1q1.3-.9 2-1.2.7-.3 1.4-.3 1 0 1.9.7.6.5.6 1t-.3.7q-.3.3-.7.3-.4 0-.8-.3-.4-.4-.7-.4-.5 0-1.3.5l-2 1.6v3h2.8q.7 0 1 .3.3.3.3.7 0 .5-.3.8-.3.2-1 .2h-6q-.8 0-1.1-.2-.3-.3-.3-.8 0-.4.3-.7.3-.3 1-.3h1.2V24h-.7q-.7 0-1-.3-.3-.3-.3-.7 0-.5.3-.8.3-.2 1-.2h2.7Zm24 2v4q0 .6.2.8.4.3 1.5.3 1.5 0 2.8-.6.5-.3.8-.3.4 0 .7.3.3.3.3.8 0 .3-.4.6-.4.5-1.8.9-1.5.4-2.4.4-1.9 0-2.8-.8-1-.9-1-2V24h-.7q-.7 0-1-.3-.3-.3-.3-.7 0-.5.3-.8.3-.2 1-.2h.7v-2q0-.8.3-1 .3-.4.8-.4.4 0 .7.3.3.3.3 1V22h3.6q.8 0 1 .2.4.3.4.8 0 .4-.3.7-.3.3-1 .3h-3.7Zm13.2-5.8v2h-2.4v-2h2.4Zm.2 3.8v6.8h2.4q.8 0 1 .3.4.3.4.7 0 .5-.3.8-.3.2-1 .2h-6.9q-.7 0-1-.2-.3-.3-.3-.8 0-.4.3-.7.3-.3 1-.3h2.4V24h-1.6q-.7 0-1-.3-.3-.3-.3-.7 0-.5.3-.8.3-.2 1-.2h3.6Zm8 0v.5l.8-.6q.4-.2 1-.2l.8.2.9.7q.5-.5 1-.7.5-.2 1.1-.2 1.1 0 1.8.6 1 .8 1 2v4.5q.5 0 .8.3.4.3.4.7 0 .5-.4.8-.3.2-1 .2h-1.9v-6.3l-.1-.6q-.2-.2-.5-.2-.4 0-.7.2l-.8.9v4q.6 0 .9.3.3.3.3.7 0 .5-.3.8-.3.2-1 .2h-2v-6.3l-.1-.6q-.2-.2-.5-.2-.4 0-.7.2-.4.2-.9.9v4q.7 0 1 .3.3.3.3.7 0 .5-.3.8-.3.2-1 .2H307q-.7 0-1-.2-.3-.3-.3-.8 0-.4.3-.7.3-.3 1-.3V24q-.7 0-1-.3-.3-.3-.3-.7 0-.5.3-.8.3-.2 1-.2h2Zm20 5.4h-8q.3.8 1 1.3.9.4 2.2.4 1.1 0 3-.4l1-.2q.4 0 .7.3.3.3.3.7 0 .4-.3.6-.4.4-2 .7-1.4.4-2.8.4-2.4 0-3.9-1.4-1.4-1.4-1.4-3.3 0-2.1 1.5-3.5 1.6-1.3 3.6-1.3 1.3 0 2.3.4 1 .5 1.5 1 .7.7 1.2 1.8.3.7.3 1.7v.8Zm-2.1-2q-.5-.8-1.3-1.3-.7-.4-1.7-.4t-1.8.4q-.7.5-1.2 1.3h6Zm20.4.6q0-1.7.6-3.5.4-1.3 1.3-2.9.6-1 1-1.3.2-.3.6-.3.4 0 .7.3.3.3.3.7l-.2.7q-1 1.7-1.6 3.2-.4 1.5-.4 3 0 1.6.4 3.2.5 1.5 1.6 3.2l.2.7q0 .4-.3.7-.3.3-.7.3-.4 0-.6-.3-.4-.3-1-1.5-1-1.7-1.3-2.9-.6-1.7-.6-3.3Zm15-1.7-1.1-.4q-.5-.2-1.1-.2-1.2 0-1.9.4l-.3.3q0 .3.4.5l1.4.3 2.8.5q1 .4 1.6 1.1.5.7.5 1.5 0 1-1 1.8-1.3 1-3.4 1h-1.7l-1.3-.5-.3.2h-.4q-.4 0-.7-.3-.3-.3-.3-1v-.7q0-.7.3-1 .3-.3.7-.3.4 0 .6.2.3.2.4.7.5.4 1.1.6l1.5.1q1.4 0 2.1-.4.4-.2.4-.4 0-.4-.5-.7-.5-.2-2.2-.4-2.4-.3-3.2-1-.8-.7-.8-1.7 0-1.1 1-1.8 1.1-1 3.1-1l1.4.1 1.2.4.3-.2h.3q.5 0 .7.3.3.3.3 1v.5q0 .6-.2.9-.3.4-.8.4-.4 0-.6-.2-.3-.2-.4-.6Zm14.8 3.1H369q.3.8 1 1.3.9.4 2.2.4 1.1 0 3-.4l1-.2q.4 0 .7.3.3.3.3.7 0 .4-.3.6-.4.4-2 .7-1.4.4-2.8.4-2.4 0-3.9-1.4-1.4-1.4-1.4-3.3 0-2.1 1.5-3.5 1.6-1.3 3.6-1.3 1.3 0 2.3.4 1 .5 1.5 1 .7.7 1.2 1.8.3.7.3 1.7v.8Zm-2.2-2q-.5-.8-1.3-1.3-.7-.4-1.7-.4t-1.8.4q-.7.5-1.2 1.3h6Zm12.3-3q.3-.4.7-.4.4 0 .7.3.3.3.3 1v1.3q0 .7-.3 1-.3.3-.7.3-.4 0-.7-.2-.2-.2-.3-.7-.1-.6-.6-.8-.8-.5-2-.5-1.4 0-2.3.8-.8.9-.8 2.1 0 1.2.8 1.9t2.7.7q1.2 0 2-.3.5-.1 1-.5.4-.4.7-.4.4 0 .7.3.3.3.3.7 0 .7-.9 1.3-1.3.9-4 .9-2.3 0-3.6-1-1.7-1.3-1.7-3.6 0-2 1.4-3.5 1.4-1.4 3.7-1.4.8 0 1.5.2.8.1 1.4.4Zm14 4.2q0 1.1-.6 2.2-.6 1-1.9 1.7-1.3.7-2.6.7-1.4 0-2.7-.7-1.2-.6-1.9-1.7-.6-1-.6-2.2 0-1.2.6-2.4.7-1.2 2-1.8 1.2-.7 2.6-.7 1.3 0 2.6.7 1.2.7 1.9 1.8.6 1.2.6 2.4Zm-2 0q0-1-.7-1.8-.9-1-2.4-1-1.4 0-2.3.8-1 .8-1 2 0 1 1 1.7 1 .8 2.3.8 1.3 0 2.2-.8 1-.8 1-1.7ZM406 22v.6l1.2-.7q.7-.2 1.5-.2 1.7 0 2.8 1.1.8.9.8 2.3v3.7q.6 0 1 .3.2.3.2.7 0 .5-.3.8-.3.2-1 .2h-1.8q-.7 0-1-.2-.4-.3-.4-.8 0-.4.3-.7.4-.3 1-.3V25q0-.7-.4-1-.4-.4-1.3-.4-.7 0-1.3.3-.5.2-1.3 1.1v3.7q.8 0 1 .2.5.3.5.8t-.3.8q-.3.2-1 .2H404q-.7 0-1-.2-.4-.3-.4-.8t.5-.8q.2-.2 1-.2V24q-.6 0-1-.3-.2-.3-.2-.7 0-.5.3-.8.3-.2 1-.2h2Zm18.6-3.8v10.6h.4q.7 0 1 .3.3.3.3.7 0 .5-.3.8-.3.2-1 .2h-2.4v-.4l-1.4.5q-.7.3-1.5.3-2.3 0-3.7-1.3-1.3-1.3-1.3-3.3 0-2 1.4-3.5 1.4-1.4 3.5-1.4l1.6.2 1.4.8V20h-.3q-.7 0-1-.3-.3-.3-.3-.7 0-.5.3-.8.3-.2 1-.2h2.3Zm-2 8.5q0-1.3-.8-2.1-.9-.9-2.2-.9-1.2 0-2 .9-1 .8-1 2 0 1.1.8 1.8t2.2.7q1.5 0 2.2-.7.8-.7.8-1.7Zm11.6-2.4-1-.4q-.5-.2-1.1-.2-1.2 0-1.9.4l-.3.3q0 .3.4.5l1.4.3 2.8.5q1 .4 1.6 1.1.5.7.5 1.5 0 1-1 1.8-1.3 1-3.4 1h-1.7l-1.3-.5-.3.2h-.4q-.4 0-.7-.3-.3-.3-.3-1v-.7q0-.7.3-1 .3-.3.7-.3.4 0 .6.2.3.2.4.7.5.4 1.1.6l1.5.1q1.4 0 2.1-.4.4-.2.4-.4 0-.4-.5-.7-.5-.2-2.2-.4-2.4-.3-3.2-1-.8-.7-.8-1.7 0-1.1 1-1.8 1.1-1 3.1-1l1.4.1 1.2.4.3-.2h.3q.5 0 .7.3.3.3.3 1v.5q0 .6-.2.9-.3.4-.8.4-.4 0-.6-.2-.3-.2-.4-.6Zm10.7 1.7q0 1.7-.6 3.4-.4 1.3-1.3 2.9-.6 1.1-1 1.4-.2.3-.6.3-.4 0-.7-.3-.3-.3-.3-.7l.2-.7q1.1-1.7 1.6-3.2.5-1.6.5-3.1 0-1.6-.5-3-.5-1.6-1.6-3.3l-.2-.7q0-.4.3-.7.3-.3.7-.3.4 0 .7.2l1 1.6q1 1.7 1.3 2.8.5 1.7.5 3.4Z"
  />
</svg>
