<svg
  xmlns="http://www.w3.org/2000/svg"
  width="796"
  height="481"
  fill="none"
  stroke-linecap="square"
  stroke-miterlimit="10"
>
  <path fill="#000000" d="M0 0h796v481H0V0Z" /><path
    stroke="#666"
    stroke-linecap="butt"
    d="M142.5 124.5v280m118-280v280m118-280v280m118-280v280m118-280v280m119-280v280m-650 0h688m-688-43h688m-688-43h688m-688-43h688m-688-43h688m-688-43h688m-688-43h688"
  /><path
    d="M83.5 390.5h688m-688-14h688m-688-29h688m-688-14h688m-688-29h688m-688-15h688m-688-28h688m-688-15h688m-688-28h688m-688-15h688m-688-29h688m-688-14h688m-688-29h688"
  /><clipPath id="a"><path
      d="M83.05 124.62h688.9v280.33H83.05V124.62Z"
    /></clipPath><path
    stroke="#f66151"
    stroke-linecap="butt"
    d="M762.23 140.4s-83.97 15.84-125.96 25.03c-42 9.2-109.85 24.2-164.78 39.46-54.92 15.25-146.98 40.9-201.24 63.62-54.27 22.71-162.8 84.82-162.8 84.82"
    clip-path="url(#a)"
  /><path
    stroke="#57e389"
    stroke-linecap="butt"
    d="M749.7 150.1s-90.19 16.69-135.28 26.66c-45.09 9.97-109.37 24.57-164.05 40.2-54.69 15.63-141.55 40.62-194.59 63.55-53.03 22.92-159.1 85.58-159.1 85.58"
    clip-path="url(#a)"
  /><path
    stroke="#99c1f1"
    stroke-linecap="butt"
    d="M757.8 177.38s-91.47 16.96-137.2 26.56c-45.74 9.6-112.26 22.97-168.39 38.1-56.13 15.13-145.17 40.45-198.74 62.19-53.57 21.74-160.7 80.16-160.7 80.16"
    clip-path="url(#a)"
  /><path
    fill="#f66151"
    d="m757.99 136.16 4.24 2.74 4.24-2.74-2.74 4.24 2.74 4.25-4.24-2.75-4.24 2.75 2.74-4.25ZM632.02 161.2l4.25 2.73 4.24-2.74-2.74 4.24 2.74 4.25-4.24-2.75-4.25 2.75 2.75-4.25Zm-164.77 39.45 4.24 2.74 4.25-2.74-2.75 4.24 2.75 4.24-4.25-2.74-4.24 2.74 2.74-4.24ZM266 264.27l4.25 2.74 4.24-2.74-2.74 4.24 2.74 4.24-4.24-2.74-4.25 2.74 2.75-4.24Zm-162.8 84.82 4.25 2.74 4.24-2.74-2.74 4.24 2.74 4.24-4.24-2.74-4.25 2.74 2.75-4.24Z"
    clip-path="url(#a)"
  /><path
    fill="#57e389"
    d="m745.45 145.85 4.25 2.75 4.24-2.75-2.74 4.25 2.74 4.24-4.24-2.74-4.25 2.74 2.75-4.24Zm-135.27 26.67 4.24 2.74 4.25-2.74-2.75 4.24 2.75 4.24-4.25-2.74-4.24 2.74 2.74-4.24Zm-164.05 40.19 4.24 2.75 4.24-2.75-2.74 4.25 2.74 4.24-4.24-2.74-4.24 2.74 2.74-4.24Zm-194.59 63.56 4.24 2.74 4.25-2.74-2.75 4.24 2.75 4.24-4.25-2.74-4.24 2.74 2.74-4.24Zm-159.1 85.58 4.24 2.74 4.24-2.74-2.74 4.24 2.74 4.24-4.24-2.74-4.24 2.74 2.74-4.24Z"
    clip-path="url(#a)"
  /><path
    fill="#99c1f1"
    d="m753.56 173.14 4.25 2.74 4.24-2.74-2.74 4.24 2.74 4.24-4.24-2.74-4.25 2.74 2.75-4.24ZM616.35 199.7l4.25 2.74 4.24-2.75-2.74 4.25 2.74 4.24-4.24-2.74-4.25 2.74 2.75-4.24Zm-168.38 38.1 4.24 2.74 4.24-2.74-2.74 4.24 2.74 4.24-4.24-2.74-4.24 2.74 2.74-4.24Zm-198.74 62.19 4.24 2.74 4.24-2.74-2.74 4.24 2.74 4.24-4.24-2.74-4.24 2.74 2.74-4.24Zm-160.7 80.16 4.24 2.74 4.24-2.74-2.74 4.24 2.74 4.25-4.24-2.75-4.24 2.75 2.74-4.25Z"
    clip-path="url(#a)"
  /><path
    fill="#f3f3f3"
    d="M296.06 451.01h-2.9l-.3.74h.3q.42 0 .6.17.2.15.2.44 0 .26-.2.43-.18.16-.6.16h-1.63q-.44 0-.6-.16-.2-.17-.2-.45 0-.26.2-.44.2-.17.63-.15l1.9-4.7h-.79q-.44 0-.62-.16-.2-.17-.2-.44 0-.28.2-.44.18-.17.62-.17h2.6l2.39 5.9q.42 0 .54.1.28.19.28.52 0 .26-.18.43-.2.16-.61.16h-1.63q-.44 0-.62-.16-.17-.17-.17-.45 0-.26.17-.42.19-.17.62-.17h.3l-.3-.74Zm-.48-1.2-.97-2.38-.99 2.38h1.96Zm6.03 1.69 1.3-2.68q-.49 0-.61-.07-.3-.2-.3-.52 0-.26.17-.44.19-.17.63-.17h1.65q.43 0 .61.17.19.18.19.44 0 .27-.19.44-.19.15-.6.15h-.21l-2.02 4.13h-1.25l-2.01-4.13h-.17q-.43 0-.61-.15-.19-.17-.19-.44 0-.26.19-.44.19-.17.6-.17h1.63q.42 0 .61.17.19.18.19.44 0 .33-.28.52-.14.07-.64.07l1.3 2.68Zm10-.6h-4.92q.19.47.65.75.49.28 1.3.28.67 0 1.78-.28.45-.1.63-.1.25 0 .4.17.18.15.18.42 0 .23-.18.39-.23.22-1.15.42-.9.19-1.74.19-1.45 0-2.31-.81-.86-.82-.86-2 0-1.27.92-2.07.94-.8 2.16-.8.73 0 1.34.27.63.25.92.55.43.44.7 1.08.18.45.18 1.03v.51Zm-1.33-1.2q-.26-.52-.72-.77-.44-.26-1.06-.26-.6 0-1.06.26-.44.25-.72.77h3.56Zm5.08-2.08v.75q.75-.53 1.19-.72.43-.18.8-.18.6 0 1.15.43.38.3.38.6 0 .26-.2.45-.16.17-.41.17-.22 0-.47-.22-.25-.23-.44-.23-.25 0-.75.33-.5.3-1.25.93v1.82h1.7q.44 0 .61.17.19.15.19.44 0 .26-.19.43-.17.16-.6.16h-3.63q-.44 0-.63-.16-.17-.17-.17-.45 0-.26.17-.42.19-.17.63-.17h.72v-2.93h-.44q-.44 0-.63-.15-.17-.17-.17-.44 0-.26.17-.44.2-.17.63-.17h1.64Zm8.33 5.33v-.28q-.46.23-1 .36-.55.12-.99.12-.97 0-1.57-.51-.61-.52-.61-1.14 0-.75.76-1.4.78-.65 2.14-.65.55 0 1.27.13v-.3q0-.27-.24-.44-.23-.17-.89-.17-.53 0-1.37.22-.31.08-.5.08-.24 0-.4-.18-.17-.18-.17-.45 0-.16.05-.26.06-.11.17-.18.11-.06.44-.15.45-.13.9-.2.48-.08.85-.08 1.11 0 1.74.48.62.48.62 1.33v2.47h.2q.43 0 .61.17.2.15.2.44 0 .26-.2.43-.18.16-.6.16h-1.41Zm0-2.16q-.72-.14-1.33-.14-.74 0-1.27.36-.32.24-.32.47 0 .17.15.27.3.2.8.2.44 0 .98-.17.55-.17.99-.47v-.52Zm7.23-2.8v-.37h1.4q.45 0 .62.17.19.18.19.44 0 .27-.2.44-.16.15-.6.15h-.2v4.38q0 .64-.27 1.1-.27.48-.83.82-.55.35-1.23.35h-1.36q-.44 0-.63-.18-.17-.17-.17-.43 0-.27.17-.44.19-.16.63-.16h1.33q.54 0 .84-.31.31-.3.31-.75v-.58q-.39.25-.81.38-.4.14-.84.14-1.22 0-2.05-.81-.83-.83-.83-2.04 0-1.2.83-2.01.83-.83 2.05-.83.45 0 .86.14.42.13.8.4Zm0 2.3q0-.67-.5-1.15-.48-.49-1.17-.49t-1.17.49q-.49.48-.49 1.15 0 .66.49 1.14.48.49 1.17.49t1.17-.49q.5-.48.5-1.14Zm8.69.61h-4.92q.19.47.65.75.49.28 1.3.28.67 0 1.78-.28.45-.1.63-.1.25 0 .4.17.18.15.18.42 0 .23-.18.39-.23.22-1.15.42-.9.19-1.74.19-1.45 0-2.31-.81-.86-.82-.86-2 0-1.27.92-2.07.94-.8 2.16-.8.73 0 1.34.27.63.25.92.55.43.44.7 1.08.18.45.18 1.03v.51Zm-1.33-1.2q-.26-.52-.72-.77-.44-.26-1.06-.26-.6 0-1.06.26-.44.25-.72.77h3.56Zm11.5.3v1.75h1.24q.42 0 .6.17.2.15.2.44 0 .26-.2.43-.18.16-.6.16h-2.63q-.44 0-.62-.16-.18-.17-.18-.45 0-.26.2-.42.18-.17.6-.17h.19v-4.7h-.19q-.44 0-.62-.16-.18-.17-.18-.44 0-.28.18-.44.18-.17.62-.17h5.66v1.84q0 .43-.18.61-.17.2-.43.2-.27 0-.44-.18-.16-.19-.16-.63v-.64h-3.06v1.75h1.05q0-.47.1-.6.18-.29.5-.29.27 0 .43.2.17.16.17.6v1.4q0 .41-.17.6-.16.19-.42.19-.33 0-.52-.28-.1-.14-.1-.61h-1.04Zm8.25-4.64v1.26h-1.42v-1.26h1.42Zm.17 2.26v4.13h1.44q.44 0 .61.17.19.15.19.44 0 .26-.19.43-.17.16-.6.16h-4.1q-.43 0-.61-.16-.19-.17-.19-.45 0-.26.19-.42.19-.17.6-.17H357v-2.93h-.97q-.44 0-.62-.15-.2-.17-.2-.44 0-.26.2-.44.18-.17.62-.17h2.17Zm7-2.26v6.39h1.44q.44 0 .63.17.18.15.18.44 0 .26-.18.43-.2.16-.63.16h-4.08q-.44 0-.62-.16-.19-.17-.19-.45 0-.26.19-.42.19-.17.62-.17H364v-5.2h-.97q-.42 0-.6-.16-.2-.17-.2-.44t.18-.42q.18-.17.62-.17h2.17Zm9.4 5.54h-4.91q.19.47.65.75.49.28 1.3.28.67 0 1.78-.28.45-.1.63-.1.25 0 .4.17.18.15.18.42 0 .23-.18.39-.23.22-1.15.42-.9.19-1.74.19-1.45 0-2.31-.81-.86-.82-.86-2 0-1.27.92-2.07.94-.8 2.16-.8.73 0 1.34.27.63.25.92.55.43.44.7 1.08.18.45.18 1.03v.51Zm-1.32-1.2q-.26-.52-.72-.77-.44-.26-1.06-.26-.6 0-1.06.26-.44.25-.72.77h3.56Zm6.63-.67q-.3-.17-.63-.27-.31-.1-.67-.1-.7 0-1.11.24-.17.1-.17.22 0 .13.23.27.19.1.85.17 1.18.17 1.65.33.63.22.96.65.34.43.34.9 0 .63-.58 1.07-.81.63-2.1.63-.54 0-.98-.1-.43-.07-.8-.26-.09.08-.2.12-.1.05-.2.05-.28 0-.45-.19-.16-.19-.16-.62v-.4q0-.43.16-.62.17-.19.43-.19.22 0 .36.13.16.1.24.4.28.24.65.37.4.1.91.1.81 0 1.28-.25.22-.12.22-.26 0-.24-.31-.4-.31-.15-1.28-.26-1.46-.14-1.94-.58-.49-.42-.49-1.06 0-.64.55-1.06.74-.6 1.92-.6.43 0 .8.08.4.08.75.25l.2-.12q.1-.05.18-.05.25 0 .4.19.17.19.17.62v.3q0 .4-.09.53-.19.27-.52.27-.2 0-.37-.13-.16-.14-.2-.37Zm6.12-3.67v1.26h-1.42v-1.26h1.42Zm.17 2.26v4.13h1.44q.44 0 .61.17.19.15.19.44 0 .26-.19.43-.17.16-.6.16h-4.1q-.43 0-.61-.16-.19-.17-.19-.45 0-.26.19-.42.19-.17.6-.17H385v-2.93h-.97q-.44 0-.62-.15-.2-.17-.2-.44 0-.26.2-.44.18-.17.62-.17h2.17Zm5.75 4.13h2.11q.02-.33.19-.5.17-.18.4-.18.29 0 .44.2.18.18.18.62v1.06h-5.24v-1l3.17-3.13h-1.84v.13q0 .42-.17.6-.16.2-.42.2-.29 0-.46-.2-.15-.18-.15-.6v-1.33h4.96v.99l-3.17 3.14Zm10.66-.85h-4.92q.19.47.65.75.49.28 1.3.28.67 0 1.78-.28.45-.1.63-.1.25 0 .4.17.18.15.18.42 0 .23-.18.39-.23.22-1.15.42-.9.19-1.74.19-1.45 0-2.31-.81-.86-.82-.86-2 0-1.27.92-2.07.94-.8 2.16-.8.73 0 1.34.27.63.25.92.55.43.44.7 1.08.18.45.18 1.03v.51Zm-1.33-1.2q-.26-.52-.72-.77-.44-.26-1.06-.26-.6 0-1.06.26-.44.25-.72.77h3.56Zm13.78 1.31h-2.9l-.3.74h.3q.42 0 .6.17.2.15.2.44 0 .26-.2.43-.18.16-.6.16h-1.63q-.44 0-.6-.16-.2-.17-.2-.45 0-.26.2-.44.2-.17.63-.15l1.9-4.7h-.79q-.44 0-.62-.16-.2-.17-.2-.44 0-.28.2-.44.18-.17.62-.17h2.6l2.39 5.9q.42 0 .54.1.28.19.28.52 0 .26-.18.43-.2.16-.61.16h-1.63q-.44 0-.62-.16-.17-.17-.17-.45 0-.26.17-.42.19-.17.62-.17h.3l-.3-.74Zm-.48-1.2-.97-2.38-.99 2.38h1.96Zm7.89-1.97q.22-.2.45-.2.25 0 .42.19.18.18.18.6v.79q0 .42-.18.6-.17.2-.43.2-.25 0-.43-.15-.1-.1-.18-.44-.07-.32-.35-.48-.47-.28-1.2-.28-.86 0-1.38.5-.5.5-.5 1.26 0 .7.49 1.11.5.41 1.64.41.75 0 1.22-.16.28-.09.53-.3.25-.24.47-.24.23 0 .4.18.2.18.2.43 0 .4-.55.76-.8.53-2.36.53-1.41 0-2.2-.57-1.04-.79-1.04-2.15 0-1.28.85-2.12.86-.84 2.23-.84.5 0 .92.09.44.1.8.28Zm4.89-.22v.75q.75-.53 1.19-.72.43-.18.8-.18.6 0 1.15.43.38.3.38.6 0 .26-.2.45-.16.17-.41.17-.22 0-.47-.22-.25-.23-.44-.23-.25 0-.75.33-.5.3-1.25.93v1.82h1.7q.44 0 .61.17.19.15.19.44 0 .26-.19.43-.17.16-.6.16h-3.63q-.44 0-.63-.16-.17-.17-.17-.45 0-.26.17-.42.19-.17.63-.17h.72v-2.93h-.44q-.44 0-.63-.15-.17-.17-.17-.44 0-.26.17-.44.2-.17.63-.17h1.64Zm10.36 2.77q0 .69-.4 1.34-.37.64-1.13 1.03-.75.38-1.58.38-.81 0-1.56-.38-.75-.37-1.16-1.01-.39-.66-.39-1.38 0-.72.4-1.4.4-.7 1.15-1.1.75-.4 1.56-.4.83 0 1.58.4.76.4 1.14 1.11.39.69.39 1.4Zm-1.2 0q0-.58-.41-1.06-.58-.66-1.5-.66-.81 0-1.36.53-.55.52-.55 1.2 0 .57.55 1.05.56.48 1.36.48.81 0 1.36-.48t.55-1.06Zm6.39-1.36q-.3-.17-.63-.27-.31-.1-.67-.1-.7 0-1.11.24-.17.1-.17.22 0 .13.23.27.19.1.85.17 1.18.17 1.65.33.63.22.96.65.34.43.34.9 0 .63-.58 1.07-.81.63-2.1.63-.54 0-.98-.1-.43-.07-.8-.26-.09.08-.2.12-.1.05-.2.05-.28 0-.45-.19-.16-.19-.16-.62v-.4q0-.43.16-.62.17-.19.43-.19.22 0 .36.13.16.1.24.4.28.24.65.37.4.1.91.1.81 0 1.28-.25.22-.12.22-.26 0-.24-.31-.4-.31-.15-1.28-.26-1.46-.14-1.94-.58-.49-.42-.49-1.06 0-.64.55-1.06.74-.6 1.92-.6.43 0 .8.08.4.08.75.25l.2-.12q.1-.05.18-.05.25 0 .4.19.17.19.17.62v.3q0 .4-.09.53-.19.27-.52.27-.2 0-.37-.13-.16-.14-.2-.37Zm7 0q-.3-.17-.63-.27-.31-.1-.67-.1-.7 0-1.11.24-.17.1-.17.22 0 .13.23.27.19.1.85.17 1.18.17 1.65.33.63.22.96.65.34.43.34.9 0 .63-.58 1.07-.81.63-2.1.63-.54 0-.98-.1-.43-.07-.8-.26-.09.08-.2.12-.1.05-.2.05-.28 0-.45-.19-.16-.19-.16-.62v-.4q0-.43.16-.62.17-.19.43-.19.22 0 .36.13.16.1.24.4.28.24.65.37.4.1.91.1.81 0 1.28-.25.22-.12.22-.26 0-.24-.31-.4-.31-.15-1.28-.26-1.46-.14-1.94-.58-.49-.42-.49-1.06 0-.64.55-1.06.74-.6 1.92-.6.43 0 .8.08.4.08.75.25l.2-.12q.1-.05.18-.05.25 0 .4.19.17.19.17.62v.3q0 .4-.09.53-.19.27-.52.27-.2 0-.37-.13-.16-.14-.2-.37Zm13.28-1.99v4.7h.81q.42 0 .6.18.2.15.2.44 0 .26-.2.43-.18.16-.6.16h-2.81q-.44 0-.63-.16-.19-.17-.19-.45 0-.26.2-.42.18-.17.62-.17h.8v-4.7h-1.3v1.13q0 .44-.17.63-.18.17-.44.17-.27 0-.44-.17-.16-.19-.16-.63v-2.34h6.22v2.34q0 .44-.17.63-.15.17-.44.17-.25 0-.42-.17-.17-.19-.17-.63v-1.14h-1.31Zm9.42 3.86h-4.92q.19.47.65.75.49.28 1.3.28.67 0 1.78-.28.45-.1.63-.1.25 0 .4.17.18.15.18.42 0 .23-.18.39-.23.22-1.15.42-.9.19-1.74.19-1.45 0-2.31-.81-.86-.82-.86-2 0-1.27.92-2.07.94-.8 2.16-.8.73 0 1.34.27.63.25.92.55.43.44.7 1.08.18.45.18 1.03v.51Zm-1.33-1.2q-.26-.52-.72-.77-.44-.26-1.06-.26-.6 0-1.06.26-.44.25-.72.77h3.56Zm6.63-.67q-.3-.17-.63-.27-.31-.1-.67-.1-.7 0-1.11.24-.17.1-.17.22 0 .13.23.27.19.1.85.17 1.18.17 1.65.33.63.22.96.65.34.43.34.9 0 .63-.58 1.07-.81.63-2.1.63-.54 0-.98-.1-.43-.07-.8-.26-.09.08-.2.12-.1.05-.2.05-.28 0-.45-.19-.16-.19-.16-.62v-.4q0-.43.16-.62.17-.19.43-.19.22 0 .36.13.16.1.24.4.28.24.65.37.4.1.91.1.81 0 1.28-.25.22-.12.22-.26 0-.24-.31-.4-.31-.15-1.28-.26-1.46-.14-1.94-.58-.49-.42-.49-1.06 0-.64.55-1.06.74-.6 1.92-.6.43 0 .8.08.4.08.75.25l.2-.12q.1-.05.18-.05.25 0 .4.19.17.19.17.62v.3q0 .4-.09.53-.19.27-.52.27-.2 0-.37-.13-.16-.14-.2-.37Zm5.4-.2v2.4q0 .4.16.52.23.18.87.18.93 0 1.7-.39.3-.14.48-.14.23 0 .4.18.17.17.17.42 0 .23-.18.4-.3.28-1.14.52-.85.22-1.43.22-1.12 0-1.68-.49-.55-.48-.55-1.18v-2.65h-.44q-.44 0-.62-.15-.18-.17-.18-.44 0-.26.18-.44.18-.17.62-.17h.44v-1.08q0-.43.16-.6.17-.2.43-.2.27 0 .44.2.17.17.17.6v1.08h2.22q.42 0 .61.17.19.18.19.44 0 .27-.19.44-.19.15-.6.15h-2.23Zm16.17-2.68q.11-.15.24-.23.14-.08.3-.08.26 0 .42.19.17.19.17.6v1.04q0 .42-.17.6-.16.2-.42.2-.25 0-.4-.15-.14-.12-.21-.5-.04-.25-.16-.37-.25-.27-.69-.42-.42-.16-.86-.16-.53 0-.98.24-.45.23-.8.76-.34.52-.34 1.25v.78q0 .86.62 1.44.64.58 1.75.58.68 0 1.14-.17.27-.11.57-.43.18-.18.3-.23.1-.06.23-.06.25 0 .42.19.19.17.19.42 0 .25-.25.53-.36.4-.93.64-.75.31-1.65.31-1.08 0-1.92-.44-.7-.34-1.2-1.1-.48-.77-.48-1.66v-.81q0-.94.44-1.75.44-.82 1.2-1.25.79-.44 1.65-.44.53 0 .98.12.45.11.84.36Zm5.72-.8v6.4h1.44q.44 0 .63.17.18.15.18.44 0 .26-.18.43-.2.16-.63.16h-4.08q-.44 0-.62-.16-.19-.17-.19-.45 0-.26.19-.42.19-.17.62-.17H504v-5.2h-.97q-.42 0-.6-.16-.2-.17-.2-.44t.18-.42q.18-.17.62-.17h2.17Zm6.83 0v1.27h-1.42v-1.26h1.42Zm.17 2.27v4.13h1.44q.44 0 .61.17.19.15.19.44 0 .26-.19.43-.17.16-.6.16h-4.1q-.43 0-.61-.16-.19-.17-.19-.45 0-.26.19-.42.19-.17.6-.17H511v-2.93h-.97q-.44 0-.62-.15-.2-.17-.2-.44 0-.26.2-.44.18-.17.62-.17h2.17Zm4.9 4.67v1.97h.73q.44 0 .62.16.2.17.2.44 0 .26-.2.43-.18.18-.62.18h-2.13q-.43 0-.62-.18-.17-.17-.17-.43 0-.27.18-.44.2-.16.61-.16h.2v-5.44h-.2q-.43 0-.62-.15-.17-.17-.17-.44 0-.26.17-.44.19-.17.62-.17h1.4v.42q.43-.3.88-.43.46-.14.93-.14 1.23 0 2.09.84.88.83.88 1.9 0 1.2-1.04 1.97-.84.64-1.92.64-.47 0-.92-.12-.44-.14-.9-.4Zm3.57-2.06q0-.26-.2-.64-.19-.39-.61-.66-.4-.26-.97-.26-.89 0-1.42.67-.36.47-.36.9 0 .48.51.93.52.45 1.27.45.77 0 1.27-.45.51-.45.51-.94Zm6.24-1.2q-.3-.17-.63-.27-.31-.1-.67-.1-.7 0-1.11.24-.17.1-.17.22 0 .13.23.27.19.1.85.17 1.18.17 1.65.33.63.22.96.65.34.43.34.9 0 .63-.58 1.07-.81.63-2.1.63-.54 0-.98-.1-.43-.07-.8-.26-.09.08-.2.12-.1.05-.2.05-.28 0-.45-.19-.16-.19-.16-.62v-.4q0-.43.16-.62.17-.19.43-.19.22 0 .36.13.16.1.24.4.28.24.65.37.4.1.91.1.81 0 1.28-.25.22-.12.22-.26 0-.24-.31-.4-.31-.15-1.28-.26-1.46-.14-1.94-.58-.49-.42-.49-1.06 0-.64.55-1.06.74-.6 1.92-.6.43 0 .8.08.4.08.75.25l.2-.12q.1-.05.18-.05.25 0 .4.19.17.19.17.62v.3q0 .4-.09.53-.19.27-.52.27-.2 0-.37-.13-.16-.14-.2-.37Zm12.26 1q0-1.02.35-2.08.25-.77.78-1.72.37-.67.54-.83.2-.15.41-.15.27 0 .44.17.17.17.17.42 0 .17-.14.4-.63 1.04-.92 1.96-.28.9-.28 1.83 0 .94.28 1.84.3.9.92 1.95.14.24.14.41 0 .25-.17.42-.17.18-.44.18-.2 0-.38-.15-.23-.2-.62-.92-.55-1.03-.75-1.7-.33-1.03-.33-2.03Zm6.44.92v2h-1.4q-.43 0-.62-.16-.18-.17-.18-.45 0-.26.18-.42.2-.17.61-.17h.2v-5.2h-.2q-.42 0-.6-.16-.2-.17-.2-.44t.2-.42q.18-.17.6-.17h1.4v4.04l.95-.76q-.14-.25-.14-.4 0-.27.17-.45.19-.17.62-.17h1.38q.42 0 .6.17.2.18.2.44 0 .27-.2.44-.18.15-.6.15h-.35l-1.45 1.2 1.97 1.73h.34q.44 0 .61.17.2.15.2.44 0 .26-.2.43-.17.16-.6.16h-1.38q-.44 0-.63-.16-.18-.17-.18-.45 0-.22.2-.45l-1.27-1.13-.23.19Zm6.48-5.6v2.7q.44-.29.9-.43.45-.15.9-.15 1.25 0 2.11.87.88.86.88 2.08 0 1.15-.83 1.94-.82.78-2.17.78-.49 0-.94-.13-.44-.1-.85-.36v.3h-1.4q-.44 0-.63-.16-.18-.17-.18-.45 0-.26.18-.42.19-.17.63-.17h.2v-5.2h-.2q-.44 0-.63-.16-.18-.17-.18-.44t.18-.42q.19-.17.63-.17h1.4Zm3.58 5.1q0-.75-.51-1.27-.52-.51-1.28-.51-.75 0-1.27.51-.52.52-.52 1.25 0 .66.47 1.08.47.42 1.32.42.85 0 1.32-.42.47-.42.47-1.06Zm5.44-.42q0 1.03-.33 2.08-.26.78-.78 1.71-.4.7-.58.85-.17.15-.39.15-.26 0-.44-.17-.17-.17-.17-.42 0-.17.14-.4.63-1.05.9-1.96.3-.9.3-1.84 0-.92-.3-1.83-.27-.92-.9-1.95-.14-.24-.14-.4 0-.26.17-.43.18-.17.44-.17.22 0 .38.14.23.2.62.92.56 1.03.77 1.7.3 1.03.3 2.02ZM30.64 330.67l3.41 1.13v1.34l-5.9.72q-.04.27-.2.4-.15.15-.38.15-.29 0-.46-.17-.17-.2-.17-.63v-1.6q0-.43.17-.62.16-.18.44-.18.27 0 .44.18.15.19.15.61v.64l3.36-.4-2.8-.94v-1.25l2.8-.94-3.36-.4v.62q0 .44-.15.63-.17.18-.44.18-.28 0-.44-.18-.17-.2-.17-.63v-1.6q0-.42.17-.6.16-.19.44-.19.22 0 .4.16.15.14.2.4l5.9.7v1.32l-3.4 1.15Zm.55-9.51v5.01h-1.1v-5.01h1.1Zm-.76-5.27 2.42-2q0-.36.17-.53.17-.19.44-.19.26 0 .43.2.16.18.16.6v1.36q0 .42-.16.61-.17.19-.45.19-.25 0-.4-.17-.18-.18-.2-.5l-1.48 1.2 1.49 1.22q.01-.35.18-.5.18-.17.43-.17.26 0 .43.18.16.17.16.61v1.35q0 .43-.16.62-.17.19-.45.19-.25 0-.42-.19-.17-.19-.17-.53l-2.44-2-2.27 1.9q0 .35-.17.54-.17.17-.42.17-.28 0-.44-.19-.17-.19-.17-.62v-1.11q0-.42.17-.61.16-.19.44-.19.19 0 .36.11.1.08.23.34l1.35-1.1-1.35-1.12q-.14.27-.23.35-.17.12-.36.12-.27 0-.44-.18-.17-.2-.17-.63v-1.1q0-.43.17-.62.16-.19.44-.19.25 0 .42.2.17.16.17.5l2.29 1.88Zm1.18-5.51h1.24v-1.22q0-.42.17-.61.16-.19.44-.19.26 0 .43.19.16.19.16.6v2.62q0 .44-.16.62-.17.17-.45.17-.26 0-.42-.18-.17-.19-.17-.61v-.19h-4.7v.19q0 .44-.16.62-.17.17-.44.17-.28 0-.44-.17-.17-.18-.17-.62V309q0-1.22.67-1.92.67-.72 1.63-.72.51 0 .98.24.36.18.7.6.35.43.52.88.17.44.17 1.16v1.14Zm-1.2 0v-1.11q0-.8-.34-1.25-.36-.46-.86-.46-.43 0-.74.38-.33.36-.33 1.05v1.39h2.27Zm3.33-5.94q.19.16.25.25.04.1.04.23 0 .29-.17.46-.18.15-.62.15h-.81q-.43 0-.61-.15-.2-.17-.2-.46 0-.2.12-.34.1-.16.37-.22.27-.08.36-.17.17-.16.36-.6.19-.43.19-.95 0-.8-.38-1.31-.21-.33-.56-.33-.22 0-.4.16-.2.15-.33.51-.1.24-.25 1.05-.17.99-.42 1.49-.27.5-.74.8-.47.29-1.01.29-.86 0-1.5-.72-.66-.72-.66-1.87 0-.47.1-.86.1-.4.3-.72-.21-.24-.21-.47 0-.27.18-.42.18-.18.61-.18h.9q.43 0 .62.18.19.15.19.42 0 .22-.14.39-.1.12-.4.19-.3.06-.43.17-.22.15-.36.5-.16.34-.16.78 0 .66.3 1.03.3.38.62.38.24 0 .44-.14.2-.16.33-.47.08-.2.27-1.11.17-.92.39-1.42.21-.5.68-.83.46-.33 1.1-.33.89 0 1.42.62.7.85.7 2.13 0 .5-.12.97-.11.47-.36.92Zm-4.52-7.25h3.63v-.44q0-.44.17-.6.16-.2.44-.2.26 0 .43.2.16.16.16.6v1.58q0 .44-.16.63-.17.17-.45.17-.25 0-.42-.17-.17-.2-.17-.57h-4.7v.19q0 .42-.16.61-.17.19-.44.19-.28 0-.44-.19-.17-.19-.17-.61v-1.39l4.83-3.08h-3.63v.44q0 .44-.15.62-.17.18-.44.18-.28 0-.44-.18-.17-.18-.17-.62v-1.58q0-.44.17-.6.16-.2.44-.2.27 0 .44.2.15.16.15.54h5.91v1.19l-4.83 3.09Zm2.11-7.27h1.52v-.43q0-.44.17-.61.16-.19.44-.19.26 0 .43.19.16.17.16.6v1.83q0 .43-.16.61-.17.2-.45.2-.26 0-.42-.2-.17-.18-.17-.6v-.2h-4.7v.2q0 .42-.16.6-.17.2-.44.2-.28 0-.44-.2-.17-.18-.17-.6v-2.72q0-1.29.64-1.97.63-.7 1.53-.7.57 0 1.03.32.46.33.82.99.32-.38.84-.82.34-.26 1.05-.73 0-.45.1-.6.18-.26.5-.26.27 0 .44.19.16.17.16.6v.7q-2.25 1.45-2.72 2.42v1.18Zm-1.2 0V289q0-.53-.16-.94-.2-.55-.44-.74-.23-.18-.46-.18-.35 0-.63.36-.3.36-.3 1.06v1.37h1.99Zm3.6-13.48q.2.16.26.25.04.1.04.23 0 .29-.17.46-.18.15-.62.15h-.81q-.43 0-.61-.15-.2-.17-.2-.46 0-.2.12-.34.1-.16.37-.22.27-.08.36-.17.17-.16.36-.6.19-.43.19-.95 0-.8-.38-1.31-.21-.33-.56-.33-.22 0-.4.16-.2.15-.33.51-.1.24-.25 1.05-.17.99-.42 1.49-.27.5-.74.8-.47.29-1.01.29-.86 0-1.5-.72-.66-.72-.66-1.87 0-.47.1-.86.1-.4.3-.72-.21-.24-.21-.47 0-.27.18-.42.18-.18.61-.18h.9q.43 0 .62.18.19.15.19.42 0 .22-.14.39-.1.12-.4.19-.3.06-.43.17-.22.15-.36.5-.16.34-.16.78 0 .66.3 1.03.3.38.62.38.24 0 .44-.14.2-.16.33-.47.08-.2.27-1.11.17-.92.39-1.42.21-.5.68-.83.46-.33 1.1-.33.89 0 1.42.62.7.85.7 2.13 0 .5-.12.97-.11.47-.36.92Zm-4.79-10.63q-.2-.21-.2-.45 0-.25.19-.42.18-.17.6-.17h.79q.42 0 .6.17.2.17.2.44 0 .25-.15.42-.1.1-.44.19-.32.06-.48.34-.28.47-.28 1.2 0 .86.5 1.38.5.5 1.26.5.7 0 1.11-.49.41-.5.41-1.64 0-.75-.16-1.22-.09-.28-.3-.53-.24-.25-.24-.47 0-.23.18-.4.18-.19.43-.19.4 0 .76.55.53.8.53 2.36 0 1.4-.57 2.18-.79 1.05-2.15 1.05-1.28 0-2.12-.84-.84-.86-.84-2.24 0-.5.09-.92.1-.44.28-.8Zm2.55-8.25q.69 0 1.34.4.64.37 1.03 1.14.38.75.38 1.57 0 .82-.38 1.57-.37.75-1.01 1.15-.66.4-1.38.4-.72 0-1.4-.4-.7-.4-1.1-1.15-.4-.75-.4-1.57 0-.82.4-1.57.4-.77 1.11-1.14.69-.4 1.4-.4Zm0 1.2q-.58 0-1.06.41-.66.58-.66 1.5 0 .82.53 1.36.52.55 1.2.55.57 0 1.05-.55.48-.56.48-1.36t-.48-1.36q-.48-.54-1.06-.54Zm-2.77-4.84h.75q-.53-.75-.72-1.18-.18-.44-.18-.82 0-.59.43-1.14.3-.37.6-.37.26 0 .45.19.17.17.17.42 0 .22-.22.47-.23.25-.23.43 0 .25.33.75.3.5.93 1.25h1.82v-1.7q0-.44.17-.6.16-.2.44-.2.26 0 .43.2.16.16.16.6v3.63q0 .43-.16.62-.17.17-.45.17-.26 0-.42-.17-.17-.19-.17-.62v-.72h-2.92v.43q0 .44-.16.63-.17.17-.44.17-.26 0-.44-.17-.17-.19-.17-.63v-1.64ZM32 243.67v4.93q.47-.2.75-.66.28-.48.28-1.3 0-.67-.28-1.78-.1-.45-.1-.62 0-.25.17-.41.15-.17.42-.17.23 0 .39.17.22.23.42 1.16.19.9.19 1.73 0 1.45-.81 2.31-.82.86-2 .86-1.27 0-2.07-.92-.8-.94-.8-2.16 0-.73.27-1.34.25-.62.55-.92.44-.42 1.08-.69.45-.19 1.03-.19H32ZM30.8 245q-.52.27-.77.72-.26.44-.26 1.06 0 .61.26 1.07.25.43.77.71V245Zm.33-11.89q-1.02 0-2.08-.34-.77-.25-1.72-.78-.67-.38-.83-.55-.15-.19-.15-.4 0-.27.17-.44.17-.18.42-.18.17 0 .4.14 1.04.63 1.96.93.9.28 1.83.28.94 0 1.84-.28.9-.3 1.96-.93.23-.14.4-.14.25 0 .42.18.18.17.18.43 0 .2-.15.38-.2.23-.92.62-1.03.55-1.7.75-1.03.33-2.03.33Zm-4.67-10.19h6.39v-.2q0-.42.17-.6.16-.2.44-.2.26 0 .43.2.16.16.16.6v1.4h-.3q.25.41.36.87.13.45.13.92 0 1.36-.78 2.19-.78.82-1.94.82-1.22 0-2.08-.86-.87-.87-.87-2.12 0-.47.15-.92.14-.46.42-.9h-1.5v.21q0 .44-.15.63-.17.17-.44.17t-.42-.17q-.17-.2-.17-.63v-1.4Zm5.09 1.2q-.75 0-1.27.54-.51.51-.51 1.26t.51 1.29q.52.51 1.25.51.66 0 1.08-.47.42-.47.42-1.33 0-.84-.42-1.3-.42-.5-1.06-.5Zm1.3-3h-4.7v.2q0 .43-.16.62-.17.19-.44.19-.28 0-.44-.19-.17-.19-.17-.63v-3q0-1.07.61-1.73.6-.66 1.42-.66.4 0 .74.16.34.14.64.45.34-.56.8-.84.45-.3 1.03-.3.45 0 .84.2.3.16.47.38.25.31.4.75.16.42.16 1.08v3.51q0 .44-.16.63-.17.19-.45.19-.26 0-.42-.19-.17-.19-.17-.63v-.18Zm-2.96-1.18v-1.33q0-.7-.36-1.17-.23-.31-.59-.31-.31 0-.55.3-.25.3-.25.93v1.58h1.75Zm2.96 0v-2.08q0-.73-.22-1.03-.16-.23-.47-.23-.36 0-.7.45-.36.45-.36 1.3v1.59h1.75Zm-1.72-8.77q1.03 0 2.08.33.78.27 1.72.78.68.4.84.58.16.17.16.4 0 .26-.18.43-.17.17-.42.17-.17 0-.4-.14-1.05-.62-1.96-.9-.9-.3-1.84-.3-.92 0-1.83.3-.92.28-1.95.9-.24.14-.4.14-.26 0-.43-.17-.17-.17-.17-.44 0-.22.14-.37.2-.24.92-.63 1.03-.56 1.7-.76 1.03-.32 2.02-.32Zm36.53 192.78q.69.3 1.03.83.36.53.36 1.1 0 .9-.72 1.57-.7.67-1.78.67-.64 0-1.33-.26-.67-.27-.94-.55-.09-.1-.09-.2t.06-.16q.08-.08.17-.08.1 0 .2.1.91.67 1.93.67.86 0 1.44-.53.58-.55.58-1.2 0-.44-.29-.87-.28-.42-.82-.65-.53-.25-1.08-.25-.17 0-.25-.06-.08-.08-.08-.2 0-.1.08-.16.08-.08.22-.08l.42.01q.67 0 1.1-.4.43-.4.43-.94 0-.55-.45-.97-.46-.42-1.2-.42-.5 0-.93.17-.42.17-.67.49l-.16.14-.1.01q-.1 0-.18-.06-.06-.06-.06-.16 0-.23.5-.6.72-.5 1.6-.5.95 0 1.54.57.61.56.61 1.33 0 .5-.3.94-.28.43-.84.7Zm4.64-2.86v2.4q.42-.17.81-.26.4-.1.77-.1.94 0 1.55.66.62.64.62 1.7 0 1.18-.7 1.91-.7.72-1.75.72-.7 0-1.35-.31-.45-.22-.83-.53-.21-.2-.21-.33 0-.1.06-.17.08-.08.17-.08.1 0 .2.1.9.84 1.93.84.87 0 1.43-.6.57-.59.57-1.56 0-.84-.5-1.34-.49-.5-1.24-.5-.76 0-1.53.39-.19.1-.27.1-.1 0-.17-.07-.06-.08-.06-.2v-3.27h3.44q.17 0 .25.08.08.06.08.17 0 .11-.08.19-.08.06-.25.06H72.3Zm-4.64-40.27q.69.3 1.03.83.36.53.36 1.1 0 .9-.72 1.57-.7.67-1.78.67-.64 0-1.33-.26-.67-.27-.94-.55-.09-.1-.09-.2t.06-.16q.08-.08.17-.08.1 0 .2.1.91.67 1.93.67.86 0 1.44-.53.58-.55.58-1.2 0-.44-.29-.86-.28-.43-.82-.66-.53-.25-1.08-.25-.17 0-.25-.06-.08-.08-.08-.2 0-.1.08-.16.08-.08.22-.08l.42.01q.67 0 1.1-.4.43-.4.43-.94 0-.55-.45-.97-.46-.42-1.2-.42-.5 0-.93.17-.42.17-.67.49l-.16.14-.1.01q-.1 0-.18-.06-.06-.06-.06-.16 0-.23.5-.59.72-.5 1.6-.5.95 0 1.54.56.61.57.61 1.33 0 .5-.3.94-.28.44-.84.7Zm4.53.9q.45-.68.94-1 .48-.34 1.08-.34.78 0 1.39.66.6.66.6 1.63 0 .87-.56 1.6-.54.72-1.53.72-.64 0-1.2-.39-.55-.39-.86-1.2-.4-1.02-.4-2.25 0-.92.37-1.72.28-.6.75-1.08.47-.47 1.1-.76.62-.3 1.35-.3.49 0 .81.2.14.08.14.24 0 .1-.06.17-.06.06-.15.06-.08 0-.2-.06-.23-.1-.59-.1-1.14 0-2.09.97-.94.99-.94 2.33 0 .2.05.61Zm.11.8q.22 1.07.69 1.54.48.45 1.14.45.65 0 1.1-.52.48-.51.48-1.32 0-.79-.47-1.29t-1.06-.5q-.57 0-1.1.49-.34.33-.78 1.15Zm-4.64-44.82q.69.29 1.03.82.36.53.36 1.11 0 .9-.72 1.56-.7.68-1.78.68-.64 0-1.33-.27-.67-.27-.94-.55-.09-.1-.09-.2t.06-.16q.08-.07.17-.07.1 0 .2.09.91.67 1.93.67.86 0 1.44-.53.58-.55.58-1.2 0-.44-.29-.86-.28-.42-.82-.66-.53-.25-1.08-.25-.17 0-.25-.06-.08-.08-.08-.19 0-.1.08-.17.08-.08.22-.08l.42.02q.67 0 1.1-.41.43-.4.43-.94 0-.54-.45-.97-.46-.42-1.2-.42-.5 0-.93.17-.42.18-.67.49l-.16.14-.1.01q-.1 0-.18-.06-.06-.06-.06-.15 0-.24.5-.6.72-.5 1.6-.5.95 0 1.54.56.61.57.61 1.33 0 .5-.3.94-.28.44-.84.7Zm7.64-2.65v-.22h-3.52v.44q0 .17-.07.25-.07.08-.18.08-.1 0-.18-.08-.07-.08-.07-.25v-.94h4.52v.8l-1.97 6.33q-.05.14-.12.2-.07.05-.14.05-.11 0-.2-.06-.05-.08-.05-.18 0-.06.04-.17l1.94-6.25Zm-7.64-40.48q.69.3 1.03.82.36.53.36 1.11 0 .9-.72 1.57-.7.67-1.78.67-.64 0-1.33-.27-.67-.26-.94-.55-.09-.09-.09-.2 0-.1.06-.15.08-.08.17-.08.1 0 .2.1.91.66 1.93.66.86 0 1.44-.53.58-.55.58-1.2 0-.44-.29-.86-.28-.42-.82-.66-.53-.25-1.08-.25-.17 0-.25-.06-.08-.08-.08-.19 0-.1.08-.17.08-.08.22-.08l.42.02q.67 0 1.1-.4.43-.41.43-.95t-.45-.96q-.46-.43-1.2-.43-.5 0-.93.18-.42.17-.67.48-.1.11-.16.14-.04.02-.1.02-.1 0-.18-.07-.06-.06-.06-.15 0-.24.5-.6.72-.5 1.6-.5.95 0 1.54.57.61.56.61 1.32 0 .5-.3.94-.28.44-.84.7Zm7 .18q.62.3.94.8.3.48.3 1.05 0 .86-.65 1.5t-1.6.64q-.93 0-1.58-.64-.66-.64-.66-1.5 0-.57.31-1.05.31-.5.94-.8-.55-.31-.8-.64-.33-.48-.33-1.06 0-.8.61-1.4.63-.62 1.52-.62.87 0 1.5.61.62.61.62 1.41 0 .58-.34 1.05-.23.34-.78.65Zm.62-1.67q0-.64-.48-1.1-.47-.45-1.16-.45-.67 0-1.15.46-.47.45-.47 1.08 0 .57.47 1.01.47.42 1.15.42.7 0 1.18-.42.46-.44.46-1Zm.13 3.52q0-.64-.5-1.13-.5-.48-1.25-.48t-1.27.48q-.5.49-.5 1.13 0 .67.5 1.17.52.48 1.27.48.73 0 1.23-.48.52-.5.52-1.17Zm-7.75-45.16q.69.3 1.03.83.36.53.36 1.1 0 .9-.72 1.57-.7.67-1.78.67-.64 0-1.33-.27-.67-.26-.94-.54-.09-.1-.09-.2t.06-.16q.08-.08.17-.08.1 0 .2.1.91.66 1.93.66.86 0 1.44-.53.58-.54.58-1.2 0-.44-.29-.86-.28-.42-.82-.66-.53-.25-1.08-.25-.17 0-.25-.06-.08-.08-.08-.19 0-.1.08-.17.08-.08.22-.08l.42.02q.67 0 1.1-.4.43-.41.43-.94 0-.55-.45-.97-.46-.42-1.2-.42-.5 0-.93.17-.42.17-.67.48-.1.11-.16.14-.04.02-.1.02-.1 0-.18-.06-.06-.07-.06-.16 0-.23.5-.6.72-.5 1.6-.5.95 0 1.54.57.61.56.61 1.33 0 .5-.3.93-.28.44-.84.7Zm8.02-.16q-.4.67-.93 1.02-.51.32-1.06.32-.52 0-1-.28-.47-.3-.75-.86-.28-.57-.28-1.18 0-.91.56-1.64.56-.75 1.5-.75.67 0 1.22.42.55.4.86 1.2.4 1.02.4 2.36 0 1.03-.35 1.73-.22.47-.66.91-.42.44-.97.72-.73.36-1.53.36-.53 0-.86-.2-.16-.1-.16-.24 0-.1.07-.15.08-.08.19-.08.06 0 .2.08.22.1.53.1 1.23 0 2.12-.89.91-.9.91-2.26l-.02-.69Zm-.1-.83q-.31-1.18-.78-1.6-.45-.44-1.06-.44-.64 0-1.11.53-.47.51-.47 1.34 0 .81.47 1.34.47.52 1.08.52.34 0 .67-.19.34-.18.64-.56.19-.25.56-.94Zm-8.01-40.2H64.3v-.57l2.73-4.73h1.04v4.81h.4q.19 0 .27.06.08.07.08.2 0 .09-.08.16t-.27.07h-.4v1.56h.4q.19 0 .27.08.08.06.08.17 0 .1-.08.19-.08.06-.27.06h-1.83q-.17 0-.25-.06-.07-.08-.07-.2 0-.1.07-.16.08-.08.25-.08h.93v-1.56Zm0-.49v-4.31h-.25l-2.5 4.31h2.75Zm8.34-1.73v1.22q0 1.57-.75 2.51-.6.72-1.5.72-.44 0-.83-.17-.37-.17-.64-.49-.17-.18-.37-.6-.2-.44-.29-.8-.14-.5-.14-1.17v-1.22q0-1.6.75-2.52.6-.73 1.5-.73.44 0 .82.17.39.17.65.48.17.2.38.64.2.43.3.77.12.5.12 1.19Zm-.48.06q0-.7-.2-1.3-.21-.6-.45-.95-.15-.22-.39-.36-.32-.2-.75-.2-.82 0-1.3.84-.46.85-.46 1.97v1.08q0 .7.2 1.31.2.6.45.95.14.2.38.35.33.22.75.22.83 0 1.3-.85.47-.86.47-1.98v-1.08Zm-7.86-40.97H64.3v-.56l2.73-4.74h1.04v4.81h.4q.19 0 .27.07.08.06.08.18 0 .1-.08.18-.08.06-.27.06h-.4v1.56h.4q.19 0 .27.08.08.06.08.17 0 .11-.08.19-.08.06-.27.06h-1.83q-.17 0-.25-.06-.07-.08-.07-.19 0-.1.07-.17.08-.08.25-.08h.93v-1.56Zm0-.49v-4.3h-.25l-2.5 4.3h2.75Zm6.32-4.9v6.95h1.7q.16 0 .24.08.08.06.08.17 0 .11-.08.19-.08.06-.25.06h-3.86q-.19 0-.26-.06-.07-.08-.07-.19 0-.1.07-.17.07-.08.26-.08h1.69v-6.28l-1.61.52-.17.03q-.1 0-.17-.07t-.07-.18q0-.08.07-.16.04-.05.18-.1l2.25-.71Zm55.6 278.72h3.78v-.19q0-.17.06-.25.08-.08.19-.08.1 0 .17.08.08.08.08.25v.69H129v-.73q1.5-1.35 2.93-2.74.65-.66.9-.95.25-.31.33-.53.1-.24.1-.47 0-.64-.52-1.13-.5-.48-1.22-.48-.64 0-1.14.37-.5.36-.64.91-.05.14-.1.19-.06.04-.15.04-.11 0-.17-.06-.07-.06-.07-.15 0-.29.3-.77.31-.48.84-.75.55-.28 1.13-.28.92 0 1.58.64.65.64.65 1.45 0 .33-.1.63-.12.28-.38.62-.27.33-.95 1-1.74 1.72-2.83 2.66v.03Zm11.37-3.78v1.22q0 1.58-.75 2.51-.6.72-1.5.72-.43 0-.83-.17-.37-.17-.64-.48-.17-.2-.37-.61-.2-.44-.28-.8-.14-.5-.14-1.17v-1.22q0-1.6.75-2.52.6-.73 1.5-.73.43 0 .81.17.39.17.66.49.17.2.37.64.2.42.3.76.12.5.12 1.19Zm-.48.06q0-.7-.2-1.3-.2-.6-.44-.95-.16-.22-.4-.36-.32-.2-.74-.2-.83 0-1.3.84-.47.85-.47 1.97v1.08q0 .7.2 1.31.2.6.46.95.14.2.37.35.33.22.75.22.83 0 1.3-.85.47-.86.47-1.98v-1.08Zm7.48-.06v1.22q0 1.58-.75 2.51-.6.72-1.5.72-.43 0-.83-.17-.37-.17-.64-.48-.17-.2-.37-.61-.2-.44-.28-.8-.14-.5-.14-1.17v-1.22q0-1.6.75-2.52.6-.73 1.5-.73.43 0 .81.17.39.17.66.49.17.2.37.64.2.42.3.76.12.5.12 1.19Zm-.48.06q0-.7-.2-1.3-.2-.6-.44-.95-.16-.22-.4-.36-.32-.2-.74-.2-.83 0-1.3.84-.47.85-.47 1.97v1.08q0 .7.2 1.31.2.6.46.95.14.2.37.35.33.22.75.22.83 0 1.3-.85.47-.86.47-1.98v-1.08Zm7.48-.06v1.22q0 1.58-.75 2.51-.6.72-1.5.72-.43 0-.83-.17-.37-.17-.64-.48-.17-.2-.37-.61-.2-.44-.28-.8-.14-.5-.14-1.17v-1.22q0-1.6.75-2.52.6-.73 1.5-.73.43 0 .81.17.39.17.66.49.17.2.37.64.2.42.3.76.12.5.12 1.19Zm-.48.06q0-.7-.2-1.3-.2-.6-.44-.95-.16-.22-.4-.36-.32-.2-.74-.2-.83 0-1.3.84-.47.85-.47 1.97v1.08q0 .7.2 1.31.2.6.46.95.14.2.37.35.33.22.75.22.83 0 1.3-.85.47-.86.47-1.98v-1.08Zm96.48.22q.69.3 1.03.83.36.53.36 1.1 0 .9-.72 1.57-.7.67-1.78.67-.64 0-1.33-.26-.67-.27-.93-.55-.1-.1-.1-.2t.07-.16q.07-.08.17-.08t.2.1q.9.67 1.92.67.86 0 1.44-.53.58-.55.58-1.2 0-.44-.28-.87-.28-.42-.83-.65-.53-.25-1.08-.25-.17 0-.25-.06-.08-.08-.08-.2 0-.1.08-.16.08-.08.22-.08l.42.01q.67 0 1.1-.4.43-.4.43-.94 0-.55-.45-.97-.45-.42-1.19-.42-.5 0-.94.17-.42.17-.67.49l-.15.14-.11.01q-.1 0-.18-.06-.06-.06-.06-.16 0-.23.5-.6.72-.5 1.61-.5.94 0 1.53.57.61.56.61 1.33 0 .5-.3.94-.28.43-.84.7Zm8.25-.28v1.22q0 1.58-.75 2.51-.6.72-1.5.72-.44 0-.83-.17-.37-.17-.64-.48-.17-.2-.37-.61-.2-.44-.28-.8-.14-.5-.14-1.17v-1.22q0-1.6.75-2.52.59-.73 1.5-.73.43 0 .8.17.4.17.66.49.18.2.38.64.2.42.3.76.12.5.12 1.19Zm-.48.06q0-.7-.2-1.3-.2-.6-.44-.95-.16-.22-.4-.36-.32-.2-.74-.2-.83 0-1.3.84-.47.85-.47 1.97v1.08q0 .7.2 1.31.2.6.46.95.14.2.37.35.33.22.75.22.83 0 1.3-.85.47-.86.47-1.98v-1.08Zm7.48-.06v1.22q0 1.58-.75 2.51-.6.72-1.5.72-.44 0-.83-.17-.37-.17-.64-.48-.17-.2-.37-.61-.2-.44-.28-.8-.14-.5-.14-1.17v-1.22q0-1.6.75-2.52.59-.73 1.5-.73.43 0 .8.17.4.17.66.49.18.2.38.64.2.42.3.76.12.5.12 1.19Zm-.48.06q0-.7-.2-1.3-.2-.6-.44-.95-.16-.22-.4-.36-.32-.2-.74-.2-.83 0-1.3.84-.47.85-.47 1.97v1.08q0 .7.2 1.31.2.6.46.95.14.2.37.35.33.22.75.22.83 0 1.3-.85.47-.86.47-1.98v-1.08Zm7.48-.06v1.22q0 1.58-.75 2.51-.6.72-1.5.72-.44 0-.83-.17-.37-.17-.64-.48-.17-.2-.37-.61-.2-.44-.28-.8-.14-.5-.14-1.17v-1.22q0-1.6.75-2.52.59-.73 1.5-.73.43 0 .8.17.4.17.66.49.18.2.38.64.2.42.3.76.12.5.12 1.19Zm-.48.06q0-.7-.2-1.3-.2-.6-.44-.95-.16-.22-.4-.36-.32-.2-.74-.2-.83 0-1.3.84-.47.85-.47 1.97v1.08q0 .7.2 1.31.2.6.46.95.14.2.37.35.33.22.75.22.83 0 1.3-.85.47-.86.47-1.98v-1.08Zm96.39 2.16h-3.27v-.56l2.74-4.74h1.03v4.81h.4q.19 0 .27.07.08.06.08.18 0 .1-.08.18-.08.06-.27.06h-.4v1.56h.4q.19 0 .27.08.08.06.08.17 0 .1-.08.19-.08.06-.27.06h-1.83q-.17 0-.25-.06-.07-.08-.07-.19 0-.1.07-.17.08-.08.25-.08h.93v-1.56Zm0-.49v-4.3h-.25l-2.5 4.3h2.75Zm8.34-1.73v1.22q0 1.58-.75 2.51-.6.72-1.5.72-.44 0-.83-.17-.37-.17-.64-.48-.17-.2-.37-.61-.2-.44-.28-.8-.15-.5-.15-1.17v-1.22q0-1.6.75-2.52.6-.73 1.5-.73.44 0 .82.17.39.17.65.49.18.2.38.64.2.42.3.76.12.5.12 1.19Zm-.48.06q0-.7-.2-1.3-.21-.6-.44-.95-.16-.22-.4-.36-.32-.2-.75-.2-.82 0-1.3.84-.46.85-.46 1.97v1.08q0 .7.2 1.31.2.6.46.95.14.2.37.35.33.22.75.22.83 0 1.3-.85.47-.86.47-1.98v-1.08Zm7.48-.06v1.22q0 1.58-.75 2.51-.6.72-1.5.72-.44 0-.83-.17-.37-.17-.64-.48-.17-.2-.37-.61-.2-.44-.28-.8-.15-.5-.15-1.17v-1.22q0-1.6.75-2.52.6-.73 1.5-.73.44 0 .82.17.39.17.65.49.18.2.38.64.2.42.3.76.12.5.12 1.19Zm-.48.06q0-.7-.2-1.3-.21-.6-.44-.95-.16-.22-.4-.36-.32-.2-.75-.2-.82 0-1.3.84-.46.85-.46 1.97v1.08q0 .7.2 1.31.2.6.46.95.14.2.37.35.33.22.75.22.83 0 1.3-.85.47-.86.47-1.98v-1.08Zm7.48-.06v1.22q0 1.58-.75 2.51-.6.72-1.5.72-.44 0-.83-.17-.37-.17-.64-.48-.17-.2-.37-.61-.2-.44-.28-.8-.15-.5-.15-1.17v-1.22q0-1.6.75-2.52.6-.73 1.5-.73.44 0 .82.17.39.17.65.49.18.2.38.64.2.42.3.76.12.5.12 1.19Zm-.48.06q0-.7-.2-1.3-.21-.6-.44-.95-.16-.22-.4-.36-.32-.2-.75-.2-.82 0-1.3.84-.46.85-.46 1.97v1.08q0 .7.2 1.31.2.6.46.95.14.2.37.35.33.22.75.22.83 0 1.3-.85.47-.86.47-1.98v-1.08ZM485 414.1v2.4q.42-.18.81-.27.4-.1.77-.1.94 0 1.54.66.63.64.63 1.7 0 1.18-.7 1.91-.7.72-1.75.72-.7 0-1.35-.31-.45-.22-.83-.53-.21-.2-.21-.33 0-.1.06-.17.08-.08.17-.08.1 0 .2.1.9.84 1.93.84.87 0 1.43-.6.57-.59.57-1.56 0-.84-.5-1.34-.49-.5-1.24-.5-.76 0-1.53.39-.19.1-.27.1-.1 0-.17-.07-.06-.08-.06-.2v-3.27h3.44q.17 0 .25.08.08.06.08.17 0 .11-.08.19-.08.06-.25.06H485Zm10.6 2.57v1.22q0 1.58-.74 2.51-.6.72-1.5.72-.44 0-.83-.17-.37-.17-.64-.48-.17-.2-.37-.61-.2-.44-.29-.8-.14-.5-.14-1.17v-1.22q0-1.6.75-2.52.6-.73 1.5-.73.44 0 .82.17.39.17.65.49.17.2.38.64.2.42.3.76.12.5.12 1.19Zm-.48.06q0-.7-.2-1.3-.2-.6-.44-.95-.15-.22-.39-.36-.32-.2-.75-.2-.82 0-1.3.84-.46.85-.46 1.97v1.08q0 .7.2 1.31.2.6.45.95.14.2.38.35.33.22.75.22.83 0 1.3-.85.46-.86.46-1.98v-1.08Zm7.49-.06v1.22q0 1.58-.75 2.51-.6.72-1.5.72-.44 0-.83-.17-.37-.17-.64-.48-.17-.2-.37-.61-.2-.44-.29-.8-.14-.5-.14-1.17v-1.22q0-1.6.75-2.52.6-.73 1.5-.73.44 0 .82.17.39.17.65.49.17.2.38.64.2.42.3.76.12.5.12 1.19Zm-.49.06q0-.7-.2-1.3-.2-.6-.44-.95-.15-.22-.39-.36-.32-.2-.75-.2-.82 0-1.3.84-.46.85-.46 1.97v1.08q0 .7.2 1.31.2.6.45.95.14.2.38.35.33.22.75.22.83 0 1.3-.85.46-.86.46-1.98v-1.08Zm7.49-.06v1.22q0 1.58-.75 2.51-.6.72-1.5.72-.44 0-.83-.17-.37-.17-.64-.48-.17-.2-.37-.61-.2-.44-.29-.8-.14-.5-.14-1.17v-1.22q0-1.6.75-2.52.6-.73 1.5-.73.44 0 .82.17.39.17.65.49.17.2.38.64.2.42.3.76.12.5.12 1.19Zm-.49.06q0-.7-.2-1.3-.2-.6-.44-.95-.15-.22-.39-.36-.32-.2-.75-.2-.82 0-1.3.84-.46.85-.46 1.97v1.08q0 .7.2 1.31.2.6.45.95.14.2.38.35.33.22.75.22.83 0 1.3-.85.46-.86.46-1.98v-1.08Zm94.02 1.11q.45-.67.94-1 .48-.33 1.07-.33.79 0 1.4.66.6.65.6 1.62 0 .88-.56 1.61-.54.72-1.53.72-.64 0-1.2-.39-.55-.39-.86-1.2-.4-1.02-.4-2.25 0-.92.37-1.72.28-.61.75-1.08.47-.47 1.1-.76.62-.3 1.35-.3.48 0 .81.2.14.08.14.24 0 .1-.06.17-.06.06-.16.06-.07 0-.18-.06-.24-.11-.6-.11-1.14 0-2.09.98-.94.99-.94 2.33 0 .2.05.61Zm.1.81q.23 1.07.7 1.53.48.46 1.14.46.65 0 1.1-.52.47-.51.47-1.33 0-.78-.46-1.28-.47-.5-1.07-.5-.56 0-1.09.49-.34.32-.78 1.15Zm10.62-1.98v1.22q0 1.58-.75 2.51-.6.72-1.5.72-.44 0-.83-.17-.38-.17-.64-.48-.17-.2-.38-.61-.2-.44-.28-.8-.14-.5-.14-1.17v-1.22q0-1.6.75-2.52.6-.73 1.5-.73.44 0 .81.17.4.17.66.49.17.2.38.64.2.42.3.76.12.5.12 1.19Zm-.49.06q0-.7-.2-1.3-.2-.6-.44-.95-.15-.22-.39-.36-.33-.2-.75-.2-.83 0-1.3.84-.46.85-.46 1.97v1.08q0 .7.2 1.31.2.6.45.95.14.2.38.35.33.22.75.22.83 0 1.3-.85.46-.86.46-1.98v-1.08Zm7.49-.06v1.22q0 1.58-.75 2.51-.6.72-1.5.72-.44 0-.83-.17-.38-.17-.64-.48-.17-.2-.38-.61-.2-.44-.28-.8-.14-.5-.14-1.17v-1.22q0-1.6.75-2.52.6-.73 1.5-.73.44 0 .81.17.4.17.66.49.17.2.38.64.2.42.3.76.12.5.12 1.19Zm-.49.06q0-.7-.2-1.3-.2-.6-.44-.95-.15-.22-.39-.36-.33-.2-.75-.2-.83 0-1.3.84-.46.85-.46 1.97v1.08q0 .7.2 1.31.2.6.45.95.14.2.38.35.33.22.75.22.83 0 1.3-.85.46-.86.46-1.98v-1.08Zm7.49-.06v1.22q0 1.58-.75 2.51-.6.72-1.5.72-.44 0-.83-.17-.38-.17-.64-.48-.17-.2-.38-.61-.2-.44-.28-.8-.14-.5-.14-1.17v-1.22q0-1.6.75-2.52.6-.73 1.5-.73.44 0 .81.17.4.17.66.49.17.2.38.64.2.42.3.76.12.5.12 1.19Zm-.49.06q0-.7-.2-1.3-.2-.6-.44-.95-.15-.22-.39-.36-.33-.2-.75-.2-.83 0-1.3.84-.46.85-.46 1.97v1.08q0 .7.2 1.31.2.6.45.95.14.2.38.35.33.22.75.22.83 0 1.3-.85.46-.86.46-1.98v-1.08Zm97.13-2.43v-.2h-3.52v.43q0 .17-.08.25-.06.08-.17.08-.1 0-.19-.08-.06-.08-.06-.25v-.94H725v.8l-1.97 6.33q-.05.14-.13.2-.06.05-.14.05-.1 0-.18-.07-.07-.07-.07-.17 0-.06.05-.17l1.94-6.25Zm7.6 2.37v1.22q0 1.58-.74 2.51-.6.72-1.5.72-.44 0-.83-.17-.38-.17-.64-.48-.17-.2-.38-.61-.2-.44-.28-.8-.14-.5-.14-1.17v-1.22q0-1.6.75-2.52.6-.73 1.5-.73.44 0 .81.17.4.17.66.49.17.2.37.64.2.42.3.76.13.5.13 1.19Zm-.48.06q0-.7-.2-1.3-.2-.6-.44-.95-.15-.22-.39-.36-.33-.2-.75-.2-.83 0-1.3.84-.46.85-.46 1.97v1.08q0 .7.2 1.31.2.6.45.95.14.2.38.35.32.22.75.22.82 0 1.3-.85.46-.86.46-1.98v-1.08Zm7.49-.06v1.22q0 1.58-.75 2.51-.6.72-1.5.72-.44 0-.83-.17-.38-.17-.64-.48-.17-.2-.38-.61-.2-.44-.28-.8-.14-.5-.14-1.17v-1.22q0-1.6.75-2.52.6-.73 1.5-.73.44 0 .81.17.4.17.66.49.17.2.37.64.2.42.3.76.13.5.13 1.19Zm-.49.06q0-.7-.2-1.3-.2-.6-.44-.95-.15-.22-.39-.36-.33-.2-.75-.2-.83 0-1.3.84-.46.85-.46 1.97v1.08q0 .7.2 1.31.2.6.45.95.14.2.38.35.32.22.75.22.82 0 1.3-.85.46-.86.46-1.98v-1.08Zm7.49-.06v1.22q0 1.58-.75 2.51-.6.72-1.5.72-.44 0-.83-.17-.38-.17-.64-.48-.17-.2-.38-.61-.2-.44-.28-.8-.14-.5-.14-1.17v-1.22q0-1.6.75-2.52.6-.73 1.5-.73.44 0 .81.17.4.17.66.49.17.2.37.64.2.42.3.76.13.5.13 1.19Zm-.49.06q0-.7-.2-1.3-.2-.6-.44-.95-.15-.22-.39-.36-.33-.2-.75-.2-.83 0-1.3.84-.46.85-.46 1.97v1.08q0 .7.2 1.31.2.6.45.95.14.2.38.35.32.22.75.22.82 0 1.3-.85.46-.86.46-1.98v-1.08Z"
  /><path
    fill="#f66151"
    d="m269.76 90.34 4.24 2.74 4.24-2.74-2.74 4.24 2.74 4.25-4.24-2.75-4.24 2.75 2.74-4.25Z"
  /><path
    fill="#f3f3f3"
    d="M290.53 94.77v2.31h1.69q.17 0 .25.08.08.06.08.17 0 .11-.08.2-.08.05-.25.05h-2.85q-.17 0-.25-.06-.07-.08-.07-.19 0-.1.07-.17.08-.08.25-.08h.68v-5.86h-.68q-.17 0-.25-.06-.07-.08-.07-.19 0-.1.07-.17.08-.08.25-.08h2.86q1.02 0 1.66.61.64.6.64 1.4 0 .46-.2.85-.2.38-.5.6-.44.33-.9.48-.35.11-.85.11h-1.55Zm0-.5h1.58q.53 0 1.01-.23.49-.25.7-.6.23-.36.23-.72 0-.57-.5-1.03-.5-.47-1.27-.47h-1.75v3.05Zm7.49-1.76v1.25q.95-.88 1.42-1.13.48-.25.89-.25.44 0 .81.3.4.3.4.45 0 .11-.09.19-.07.06-.18.06l-.1-.02q-.05-.01-.15-.12-.2-.2-.36-.28-.14-.08-.3-.08-.31 0-.78.27-.45.25-1.56 1.25v2.68h2.17q.19 0 .26.08.08.06.08.17 0 .11-.08.2-.07.05-.26.05h-3.86q-.17 0-.25-.06-.08-.08-.08-.17 0-.11.08-.17.08-.07.25-.07h1.19v-4.1h-.91q-.17 0-.25-.07-.08-.08-.08-.18 0-.11.08-.18.08-.07.25-.07h1.4Zm10.25 2.65h-5.02q.13.95.8 1.55.67.58 1.65.58.57 0 1.16-.18.6-.18.98-.5.11-.07.2-.07.1 0 .16.07.08.07.08.18 0 .09-.1.18-.27.3-1 .55-.71.25-1.48.25-1.26 0-2.1-.83-.85-.83-.85-2 0-1.08.8-1.84.8-.77 1.97-.77 1.2 0 1.98.8.78.78.77 2.03Zm-.5-.5q-.14-.81-.77-1.31-.63-.52-1.48-.52-.86 0-1.49.5-.62.5-.78 1.33h4.52Zm6.46-1.83q0-.17.07-.25.07-.07.17-.07t.17.07q.08.08.08.27v.84q0 .17-.08.25-.06.08-.17.08-.1 0-.17-.06-.07-.08-.07-.22-.04-.36-.37-.58-.47-.33-1.27-.33-.82 0-1.28.33-.34.25-.34.56 0 .36.4.6.29.15 1.07.25 1.03.1 1.42.25.58.2.84.58.28.36.28.78 0 .62-.6 1.1-.6.5-1.77.5-1.16 0-1.9-.6 0 .2-.04.26-.01.07-.08.11-.06.03-.14.03-.1 0-.17-.07-.06-.08-.06-.25v-1.02q0-.17.06-.25.06-.08.17-.08.11 0 .2.08.07.06.07.19 0 .28.12.45.2.28.66.47.45.19 1.1.19.96 0 1.43-.36t.47-.75q0-.47-.48-.74-.47-.28-1.4-.37-.92-.1-1.32-.24-.4-.15-.61-.45-.22-.31-.22-.67 0-.63.6-1 .63-.38 1.5-.38 1.02 0 1.66.5Zm8.04 2.33h-5.02q.13.95.8 1.55.67.58 1.65.58.57 0 1.16-.18.6-.18.98-.5.11-.07.2-.07.1 0 .16.07.08.07.08.18 0 .09-.1.18-.27.3-1 .55-.71.25-1.48.25-1.26 0-2.1-.83-.85-.83-.85-2 0-1.08.8-1.84.8-.77 1.97-.77 1.2 0 1.98.8.78.78.77 2.03Zm-.5-.5q-.14-.81-.77-1.31-.63-.52-1.48-.52-.86 0-1.49.5-.62.5-.78 1.33h4.52Zm3.82-2.15h2.68q.17 0 .25.07.07.07.07.18 0 .1-.07.18-.08.07-.25.07h-2.68v3.28q0 .42.35.72.34.28 1 .28.5 0 1.08-.14.57-.16.9-.35.11-.08.19-.08.1 0 .16.08.07.06.07.17 0 .08-.07.16-.2.19-.91.42-.72.22-1.4.22-.85 0-1.37-.39-.5-.4-.5-1.1v-3.27h-.9q-.17 0-.25-.07-.08-.08-.08-.18 0-.11.08-.18.08-.07.25-.07h.9v-1.46q0-.17.07-.25.07-.08.18-.08.11 0 .18.08.07.08.07.25v1.46Zm17.27.8v1.21q0 1.58-.75 2.52-.6.72-1.5.72-.44 0-.83-.18-.37-.17-.64-.48-.17-.19-.37-.61-.2-.44-.29-.8-.14-.5-.14-1.17V93.3q0-1.6.75-2.51.6-.74 1.5-.74.44 0 .82.17.39.18.65.49.17.2.38.64.2.42.3.76.12.5.12 1.2Zm-.49.05q0-.7-.2-1.3-.2-.6-.44-.95-.15-.21-.39-.35-.32-.2-.75-.2-.82 0-1.3.84-.46.84-.46 1.96v1.08q0 .7.2 1.32.2.59.45.95.14.2.38.34.33.22.75.22.83 0 1.3-.84.46-.86.46-1.99v-1.08Z"
  /><path
    fill="#57e389"
    d="m361.76 90.34 4.24 2.74 4.24-2.74-2.74 4.24 2.74 4.25-4.24-2.75-4.24 2.75 2.74-4.25Z"
  /><path
    fill="#f3f3f3"
    d="M382.53 94.77v2.31h1.69q.17 0 .25.08.08.06.08.17 0 .11-.08.2-.08.05-.25.05h-2.85q-.17 0-.25-.06-.07-.08-.07-.19 0-.1.07-.17.08-.08.25-.08h.68v-5.86h-.68q-.17 0-.25-.06-.07-.08-.07-.19 0-.1.07-.17.08-.08.25-.08h2.86q1.02 0 1.66.61.64.6.64 1.4 0 .46-.2.85-.2.38-.5.6-.44.33-.9.48-.35.11-.85.11h-1.55Zm0-.5h1.58q.53 0 1.01-.23.49-.25.7-.6.23-.36.23-.72 0-.57-.5-1.03-.5-.47-1.27-.47h-1.75v3.05Zm7.49-1.76v1.25q.95-.88 1.42-1.13.48-.25.89-.25.44 0 .81.3.4.3.4.45 0 .11-.09.19-.07.06-.18.06l-.1-.02q-.05-.01-.15-.12-.2-.2-.36-.28-.14-.08-.3-.08-.31 0-.78.27-.45.25-1.56 1.25v2.68h2.17q.19 0 .26.08.08.06.08.17 0 .11-.08.2-.07.05-.26.05h-3.86q-.17 0-.25-.06-.08-.08-.08-.17 0-.11.08-.17.08-.07.25-.07h1.19v-4.1h-.91q-.17 0-.25-.07-.08-.08-.08-.18 0-.11.08-.18.08-.07.25-.07h1.4Zm10.25 2.65h-5.02q.13.95.8 1.55.67.58 1.65.58.57 0 1.16-.18.6-.18.98-.5.11-.07.2-.07.1 0 .16.07.08.07.08.18 0 .09-.1.18-.27.3-1 .55-.71.25-1.48.25-1.26 0-2.1-.83-.85-.83-.85-2 0-1.08.8-1.84.8-.77 1.97-.77 1.2 0 1.98.8.78.78.77 2.03Zm-.5-.5q-.14-.81-.77-1.31-.63-.52-1.48-.52-.86 0-1.49.5-.62.5-.78 1.33h4.52Zm6.46-1.83q0-.17.07-.25.07-.07.17-.07t.17.07q.08.08.08.27v.84q0 .17-.08.25-.06.08-.17.08-.1 0-.17-.06-.07-.08-.07-.22-.04-.36-.37-.58-.47-.33-1.27-.33-.82 0-1.28.33-.34.25-.34.56 0 .36.4.6.29.15 1.07.25 1.03.1 1.42.25.58.2.84.58.28.36.28.78 0 .62-.6 1.1-.6.5-1.77.5-1.16 0-1.9-.6 0 .2-.04.26-.01.07-.08.11-.06.03-.14.03-.1 0-.17-.07-.06-.08-.06-.25v-1.02q0-.17.06-.25.06-.08.17-.08.11 0 .2.08.07.06.07.19 0 .28.12.45.2.28.66.47.45.19 1.1.19.96 0 1.43-.36t.47-.75q0-.47-.48-.74-.47-.28-1.4-.37-.92-.1-1.32-.24-.4-.15-.61-.45-.22-.31-.22-.67 0-.63.6-1 .63-.38 1.5-.38 1.02 0 1.66.5Zm8.04 2.33h-5.02q.13.95.8 1.55.67.58 1.65.58.57 0 1.16-.18.6-.18.98-.5.11-.07.2-.07.1 0 .16.07.08.07.08.18 0 .09-.1.18-.27.3-1 .55-.71.25-1.48.25-1.26 0-2.1-.83-.85-.83-.85-2 0-1.08.8-1.84.8-.77 1.97-.77 1.2 0 1.98.8.78.78.77 2.03Zm-.5-.5q-.14-.81-.77-1.31-.63-.52-1.48-.52-.86 0-1.49.5-.62.5-.78 1.33h4.52Zm3.82-2.15h2.68q.17 0 .25.07.07.07.07.18 0 .1-.07.18-.08.07-.25.07h-2.68v3.28q0 .42.35.72.34.28 1 .28.5 0 1.08-.14.57-.16.9-.35.11-.08.19-.08.1 0 .16.08.07.06.07.17 0 .08-.07.16-.2.19-.91.42-.72.22-1.4.22-.85 0-1.37-.39-.5-.4-.5-1.1v-3.27h-.9q-.17 0-.25-.07-.08-.08-.08-.18 0-.11.08-.18.08-.07.25-.07h.9v-1.46q0-.17.07-.25.07-.08.18-.08.11 0 .18.08.07.08.07.25v1.46Zm12.9 4.57h3.78v-.18q0-.18.06-.25.08-.08.19-.08.1 0 .17.08.08.07.08.25v.68H430v-.73q1.5-1.34 2.92-2.74.66-.65.9-.95.26-.31.34-.53.09-.23.09-.47 0-.64-.52-1.12-.5-.49-1.21-.49-.64 0-1.14.38-.5.36-.65.9-.04.14-.09.2-.06.04-.16.04t-.17-.06q-.06-.07-.06-.16 0-.28.3-.77.3-.48.84-.75.55-.28 1.13-.28.92 0 1.57.64.66.64.66 1.46 0 .32-.1.62-.12.28-.38.63-.27.32-.96 1-1.73 1.71-2.83 2.65v.03Z"
  /><path
    fill="#99c1f1"
    d="m453.76 90.34 4.24 2.74 4.24-2.74-2.74 4.24 2.74 4.25-4.24-2.75-4.24 2.75 2.74-4.25Z"
  /><path
    fill="#f3f3f3"
    d="M474.53 94.77v2.31h1.69q.17 0 .25.08.08.06.08.17 0 .11-.08.2-.08.05-.25.05h-2.85q-.17 0-.25-.06-.07-.08-.07-.19 0-.1.07-.17.08-.08.25-.08h.68v-5.86h-.68q-.17 0-.25-.06-.07-.08-.07-.19 0-.1.07-.17.08-.08.25-.08h2.86q1.02 0 1.66.61.64.6.64 1.4 0 .46-.2.85-.2.38-.5.6-.44.33-.9.48-.35.11-.85.11h-1.55Zm0-.5h1.58q.53 0 1.01-.23.49-.25.7-.6.23-.36.23-.72 0-.57-.5-1.03-.5-.47-1.27-.47h-1.75v3.05Zm7.49-1.76v1.25q.95-.88 1.42-1.13.48-.25.89-.25.44 0 .81.3.4.3.4.45 0 .11-.09.19-.07.06-.18.06l-.1-.02q-.05-.01-.15-.12-.2-.2-.36-.28-.14-.08-.3-.08-.31 0-.78.27-.45.25-1.56 1.25v2.68h2.17q.19 0 .26.08.08.06.08.17 0 .11-.08.2-.07.05-.26.05h-3.86q-.17 0-.25-.06-.08-.08-.08-.17 0-.11.08-.17.08-.07.25-.07h1.19v-4.1h-.91q-.17 0-.25-.07-.08-.08-.08-.18 0-.11.08-.18.08-.07.25-.07h1.4Zm10.25 2.65h-5.02q.13.95.8 1.55.67.58 1.65.58.57 0 1.16-.18.6-.18.98-.5.11-.07.2-.07.1 0 .16.07.08.07.08.18 0 .09-.1.18-.27.3-1 .55-.71.25-1.48.25-1.26 0-2.1-.83-.85-.83-.85-2 0-1.08.8-1.84.8-.77 1.97-.77 1.2 0 1.98.8.78.78.77 2.03Zm-.5-.5q-.14-.81-.77-1.31-.63-.52-1.48-.52-.86 0-1.49.5-.62.5-.78 1.33h4.52Zm6.46-1.83q0-.17.07-.25.07-.07.17-.07t.17.07q.08.08.08.27v.84q0 .17-.08.25-.06.08-.17.08-.1 0-.17-.06-.07-.08-.07-.22-.04-.36-.37-.58-.47-.33-1.27-.33-.82 0-1.28.33-.34.25-.34.56 0 .36.4.6.29.15 1.07.25 1.03.1 1.42.25.58.2.84.58.28.36.28.78 0 .62-.6 1.1-.6.5-1.77.5-1.16 0-1.9-.6 0 .2-.04.26-.01.07-.08.11-.06.03-.14.03-.1 0-.17-.07-.06-.08-.06-.25v-1.02q0-.17.06-.25.06-.08.17-.08.11 0 .2.08.07.06.07.19 0 .28.12.45.2.28.66.47.45.19 1.1.19.96 0 1.43-.36t.47-.75q0-.47-.48-.74-.47-.28-1.4-.37-.92-.1-1.32-.24-.4-.15-.61-.45-.22-.31-.22-.67 0-.63.6-1 .63-.38 1.5-.38 1.02 0 1.66.5Zm8.04 2.33h-5.02q.13.95.8 1.55.67.58 1.65.58.57 0 1.16-.18.6-.18.98-.5.11-.07.2-.07.1 0 .16.07.08.07.08.18 0 .09-.1.18-.27.3-1 .55-.71.25-1.48.25-1.26 0-2.1-.83-.85-.83-.85-2 0-1.08.8-1.84.8-.77 1.97-.77 1.2 0 1.98.8.78.78.77 2.03Zm-.5-.5q-.14-.81-.77-1.31-.63-.52-1.48-.52-.86 0-1.49.5-.62.5-.78 1.33h4.52Zm3.82-2.15h2.68q.17 0 .25.07.07.07.07.18 0 .1-.07.18-.08.07-.25.07h-2.68v3.28q0 .42.35.72.34.28 1 .28.5 0 1.08-.14.57-.16.9-.35.11-.08.19-.08.1 0 .16.08.07.06.07.17 0 .08-.07.16-.2.19-.91.42-.72.22-1.4.22-.85 0-1.37-.39-.5-.4-.5-1.1v-3.27h-.9q-.17 0-.25-.07-.08-.08-.08-.18 0-.11.08-.18.08-.07.25-.07h.9v-1.46q0-.17.07-.25.07-.08.18-.08.11 0 .18.08.07.08.07.25v1.46Zm15.93 3.01h-3.27v-.56l2.73-4.74h1.04v4.82h.4q.19 0 .27.06.08.06.08.19 0 .09-.08.17-.08.06-.27.06h-.4v1.56h.4q.19 0 .27.08.08.06.08.17 0 .11-.08.2-.08.05-.27.05h-1.83q-.17 0-.25-.06-.07-.08-.07-.19 0-.1.07-.17.08-.08.25-.08h.93v-1.56Zm0-.48v-4.32h-.25l-2.5 4.32h2.75Z"
  /><path
    fill="#b7b7b7"
    d="M27.88 61.2v4.77h2.51q.2 0 .3.08.1.08.1.22 0 .1-.1.2-.1.08-.3.08h-4.48q-.22 0-.31-.08-.08-.1-.08-.2 0-.14.08-.22.1-.08.3-.08h1.38v-4.76h-1.23q-.2 0-.3-.08-.1-.08-.1-.22 0-.11.1-.19.1-.1.3-.1h1.23v-.85q0-.74.6-1.27t1.56-.53q.81 0 1.73.16.35.05.41.12.08.08.08.2 0 .12-.08.2-.08.07-.22.07l-.18-.01q-1.04-.16-1.74-.16-.75 0-1.16.38-.4.35-.4.84v.86h2.69q.2 0 .28.1.1.07.1.2 0 .12-.1.2-.08.08-.28.08h-2.7Zm10.34 5.35v-.84q-1.19 1.06-2.55 1.06-.84 0-1.28-.45-.56-.6-.56-1.41v-3.7h-.78q-.2 0-.3-.08-.08-.08-.08-.22 0-.11.08-.19.1-.1.3-.1h1.36v4.29q0 .56.34.94.36.36.9.36 1.4 0 2.57-1.3v-3.7h-1.06q-.2 0-.3-.08-.1-.08-.1-.22 0-.11.1-.19.1-.1.3-.1h1.62v5.35h.49q.22 0 .3.08.09.08.09.22 0 .1-.1.2-.07.08-.3.08h-1.04Zm5.35-5.92v1.45q1.12-1.01 1.67-1.3.56-.3 1.03-.3.51 0 .95.35.44.35.44.52 0 .14-.1.23-.07.08-.2.08-.06 0-.1-.02l-.2-.17q-.23-.23-.42-.31-.17-.1-.34-.1-.38 0-.9.3-.54.3-1.83 1.47v3.14h2.54q.2 0 .3.08.1.08.1.22 0 .1-.1.2-.1.08-.3.08H41.6q-.2 0-.3-.08-.08-.08-.08-.2 0-.11.08-.19.1-.08.3-.08h1.39v-4.8h-1.07q-.2 0-.3-.07-.07-.08-.07-.22 0-.11.08-.19.1-.1.3-.1h1.64Zm7.5 0h3.12q.2 0 .28.1.1.07.1.2 0 .12-.1.2-.08.08-.28.08h-3.12v3.82q0 .5.4.85.4.33 1.17.33.58 0 1.25-.18.7-.18 1.07-.4.14-.08.21-.08.11 0 .2.1.09.07.09.18 0 .11-.1.19-.22.23-1.06.5-.84.25-1.6.25-1.03 0-1.62-.47-.6-.47-.6-1.27v-3.82h-1.05q-.2 0-.3-.08-.08-.08-.08-.22 0-.11.08-.19.1-.1.3-.1h1.06v-1.68q0-.22.08-.3.09-.09.21-.09.13 0 .2.1.09.07.09.3v1.68Zm7.3-2.66v3.53q.54-.6 1.04-.82.5-.25 1.12-.25.68 0 1.14.23.47.23.79.73.3.49.3 1.02v3.56h.65q.22 0 .3.08.09.08.09.22 0 .1-.1.2-.07.08-.3.08h-1.85q-.22 0-.31-.08-.08-.1-.08-.2 0-.14.08-.22.1-.08.31-.08h.64v-3.51q0-.63-.45-1.03-.44-.43-1.25-.43-.63 0-1.07.3-.32.22-1.06 1.03v3.64H59q.22 0 .3.08.1.08.1.22 0 .1-.1.2-.08.08-.3.08h-1.86q-.22 0-.3-.08-.09-.1-.09-.2 0-.14.08-.22.1-.08.31-.08h.64v-7.42h-.76q-.2 0-.3-.08-.1-.08-.1-.22 0-.12.1-.2.1-.08.3-.08h1.34Zm13 5.75H65.5q.16 1.13.94 1.81.78.68 1.94.68.64 0 1.34-.2.7-.23 1.16-.59.12-.09.22-.09t.18.1q.1.07.1.18 0 .11-.11.22-.33.34-1.17.64-.85.3-1.72.3-1.49 0-2.47-.95-.98-.97-.98-2.35 0-1.25.92-2.14.93-.9 2.3-.9 1.4 0 2.3.92.93.92.91 2.37Zm-.59-.58q-.17-.95-.9-1.54-.74-.6-1.74-.6t-1.73.6q-.72.58-.9 1.54h5.27Zm4.79-2.51v1.45q1.12-1.01 1.67-1.3.56-.3 1.03-.3.51 0 .95.35.44.35.44.52 0 .14-.1.23-.07.08-.2.08-.06 0-.1-.02l-.2-.17q-.23-.23-.42-.31-.17-.1-.34-.1-.38 0-.9.3-.54.3-1.83 1.47v3.14h2.54q.2 0 .3.08.1.08.1.22 0 .1-.1.2-.1.08-.3.08H73.6q-.2 0-.3-.08-.08-.08-.08-.2 0-.11.08-.19.1-.08.3-.08h1.39v-4.8h-1.06q-.2 0-.3-.07-.08-.08-.08-.22 0-.11.08-.19.1-.1.3-.1h1.64Zm15.5 0h3.12q.2 0 .28.1.1.07.1.2 0 .12-.1.2-.08.08-.28.08h-3.12v3.82q0 .5.4.85.4.33 1.17.33.58 0 1.25-.18.7-.18 1.07-.4.14-.08.22-.08.1 0 .18.1.1.07.1.18 0 .11-.1.19-.22.23-1.06.5-.84.25-1.6.25-1.03 0-1.62-.47-.6-.47-.6-1.27v-3.82h-1.06q-.2 0-.3-.08-.07-.08-.07-.22 0-.11.08-.19.1-.1.3-.1h1.06v-1.68q0-.22.08-.3.09-.09.21-.09.13 0 .2.1.09.07.09.3v1.68Zm12.39 2.97q0 1.3-.94 2.25-.94.92-2.27.92-1.34 0-2.28-.92-.94-.94-.94-2.25 0-1.32.94-2.24.94-.93 2.28-.93 1.33 0 2.27.93.94.92.94 2.24Zm-.58 0q0-1.08-.77-1.83-.76-.77-1.86-.77t-1.87.77q-.77.76-.77 1.83t.77 1.84q.78.77 1.87.77 1.1 0 1.86-.77.77-.77.77-1.84Zm7.36 2.95h-.72l-1.27-3.69-1.25 3.69h-.72l-1.18-5.34h-.28q-.2 0-.3-.08-.08-.08-.08-.22 0-.11.08-.19.1-.1.3-.1h1.57q.2 0 .3.1.1.08.1.2 0 .13-.1.2-.1.09-.3.09h-.73l1.02 4.56 1.23-3.64h.69l1.25 3.64.98-4.56h-.73q-.2 0-.3-.08-.1-.08-.1-.22 0-.11.1-.19.1-.1.3-.1h1.58q.2 0 .3.1.09.08.09.2 0 .13-.1.2-.1.09-.3.09h-.28l-1.15 5.34Zm7.67 0v-.83q-1.27 1.05-2.69 1.05-1.03 0-1.6-.52-.59-.53-.59-1.28 0-.83.77-1.45.77-.63 2.23-.63.4 0 .86.05.47.05 1.02.16v-.92q0-.47-.44-.82-.44-.36-1.31-.36-.67 0-1.9.4-.21.06-.27.06-.11 0-.19-.08t-.08-.2q0-.11.08-.2.1-.09.77-.27 1.06-.28 1.6-.28 1.1 0 1.7.54.62.53.62 1.2v3.8h.76q.2 0 .3.08.1.08.1.22 0 .1-.1.2-.1.08-.3.08h-1.34Zm0-2.86q-.4-.1-.86-.16-.45-.06-.95-.06-1.25 0-1.96.53-.53.4-.53.97 0 .52.4.88.41.36 1.2.36.73 0 1.37-.3.64-.3 1.33-.95v-1.27Zm5.66-3.06v1.45q1.12-1.01 1.67-1.3.56-.3 1.03-.3.51 0 .95.35.44.35.44.52 0 .14-.1.23-.07.08-.2.08-.06 0-.1-.02l-.2-.17q-.23-.23-.42-.31-.17-.1-.34-.1-.38 0-.9.3-.54.3-1.83 1.47v3.14h2.54q.2 0 .3.08.1.08.1.22 0 .1-.1.2-.1.08-.3.08h-4.51q-.2 0-.3-.08-.08-.08-.08-.2 0-.11.08-.19.1-.08.3-.08h1.39v-4.8h-1.06q-.2 0-.3-.07-.08-.08-.08-.22 0-.11.08-.19.1-.1.3-.1h1.64Zm11.5-2.66v8h.76q.2 0 .3.08.1.08.1.22 0 .1-.1.2-.1.08-.3.08h-1.34v-1.14q-1 1.36-2.55 1.36-.76 0-1.48-.4-.72-.43-1.14-1.2-.41-.76-.41-1.57 0-.82.4-1.58.43-.77 1.15-1.17.72-.42 1.5-.42 1.5 0 2.53 1.35v-3.23h-.77q-.22 0-.31-.08-.08-.08-.08-.22 0-.12.08-.2.1-.08.31-.08h1.35Zm-.58 5.63q0-1.1-.75-1.85-.74-.75-1.75-.75-1.03 0-1.77.75-.73.75-.73 1.85t.73 1.86q.74.75 1.77.75 1.01 0 1.75-.75.75-.77.75-1.86Zm7.65-2.6q0-.2.08-.28.1-.1.22-.1.13 0 .2.1.08.08.08.3V62q0 .2-.08.3-.07.1-.2.1-.12 0-.2-.08-.08-.08-.1-.25-.03-.41-.42-.68-.56-.39-1.48-.39-.96 0-1.5.4-.4.3-.4.65 0 .4.48.69.32.19 1.25.3 1.18.12 1.65.28.67.25.99.67.32.42.32.92 0 .72-.7 1.3-.7.56-2.06.56t-2.24-.69q0 .24-.03.31-.01.07-.1.11-.05.05-.15.05-.12 0-.2-.08-.08-.1-.08-.31v-1.17q0-.2.08-.3.08-.1.2-.1.13 0 .2.1.1.08.1.22 0 .33.16.53.23.33.75.55.53.22 1.3.22 1.1 0 1.65-.43.55-.42.55-.87 0-.55-.55-.86-.56-.33-1.64-.44-1.06-.1-1.53-.28-.46-.17-.72-.53-.27-.36-.27-.77 0-.73.72-1.17.74-.43 1.74-.43 1.2 0 1.93.57Zm12.93-.37h3.12q.2 0 .28.1.1.07.1.2 0 .12-.1.2-.08.08-.28.08h-3.12v3.82q0 .5.4.85.4.33 1.17.33.58 0 1.25-.18.7-.18 1.07-.4.14-.08.22-.08.1 0 .18.1.1.07.1.18 0 .11-.1.19-.22.23-1.06.5-.84.25-1.6.25-1.02 0-1.62-.47-.6-.47-.6-1.27v-3.82h-1.05q-.2 0-.3-.08-.08-.08-.08-.22 0-.11.08-.19.1-.1.3-.1h1.06v-1.68q0-.22.08-.3.09-.09.21-.09.13 0 .2.1.09.07.09.3v1.68Zm7.3-2.66v3.53q.54-.6 1.04-.82.5-.25 1.12-.25.68 0 1.15.23.46.23.78.73.3.49.3 1.02v3.56h.65q.22 0 .3.08.09.08.09.22 0 .1-.1.2-.07.08-.3.08h-1.85q-.22 0-.31-.08-.08-.1-.08-.2 0-.14.08-.22.1-.08.31-.08h.64v-3.51q0-.63-.45-1.03-.44-.43-1.25-.43-.63 0-1.06.3-.33.22-1.07 1.03v3.64h.64q.22 0 .3.08.1.08.1.22 0 .1-.1.2-.08.08-.3.08h-1.86q-.21 0-.3-.08-.09-.1-.09-.2 0-.14.08-.22.1-.08.31-.08h.64v-7.42h-.76q-.2 0-.3-.08-.1-.08-.1-.22 0-.12.1-.2.1-.08.3-.08h1.34Zm13 5.75h-5.87q.16 1.13.94 1.81.78.68 1.94.68.64 0 1.34-.2.7-.23 1.16-.59.12-.09.22-.09t.18.1q.1.07.1.18 0 .11-.11.22-.33.34-1.17.64-.85.3-1.72.3-1.49 0-2.47-.95-.98-.97-.98-2.35 0-1.25.92-2.14.93-.9 2.3-.9 1.4 0 2.3.92.93.92.91 2.37Zm-.59-.58q-.17-.95-.9-1.54-.74-.6-1.74-.6t-1.73.6q-.72.58-.9 1.54h5.27Zm15.44 3.41v-.84q-1.19 1.06-2.54 1.06-.85 0-1.29-.45-.56-.6-.56-1.41v-3.7h-.78q-.2 0-.3-.08-.07-.08-.07-.22 0-.11.07-.19.1-.1.3-.1h1.36v4.29q0 .56.34.94.36.36.9.36 1.4 0 2.57-1.3v-3.7h-1.06q-.2 0-.3-.08-.1-.08-.1-.22 0-.11.1-.19.1-.1.3-.1h1.62v5.35h.49q.22 0 .3.08.09.08.09.22 0 .1-.1.2-.07.08-.3.08h-1.04Zm3.86-5.92v1.05q.52-.63 1.1-.94.59-.31 1.4-.31.84 0 1.56.4.72.4 1.11 1.1.4.7.4 1.48 0 1.23-.9 2.12-.87.88-2.17.88-1.53 0-2.5-1.25v3.45h1.4q.21 0 .29.08.1.08.1.22 0 .1-.1.19-.08.1-.28.1h-2.75q-.2 0-.3-.09-.08-.08-.08-.2 0-.14.08-.22.1-.08.3-.08h.78v-7.4h-.78q-.2 0-.3-.08-.08-.08-.08-.22 0-.11.08-.19.1-.1.3-.1h1.34Zm4.99 2.78q0-.98-.72-1.69-.72-.72-1.77-.72t-1.78.72q-.72.7-.72 1.69 0 1 .72 1.72.73.7 1.78.7 1.03 0 1.75-.7.74-.72.74-1.72Zm3.01-2.78v1.05q.52-.63 1.1-.94.59-.31 1.4-.31.84 0 1.56.4.72.4 1.11 1.1.4.7.4 1.48 0 1.23-.9 2.12-.87.88-2.17.88-1.53 0-2.5-1.25v3.45h1.4q.21 0 .29.08.1.08.1.22 0 .1-.1.19-.08.1-.28.1h-2.75q-.2 0-.3-.09-.08-.08-.08-.2 0-.14.08-.22.1-.08.3-.08h.78v-7.4h-.78q-.2 0-.3-.08-.08-.08-.08-.22 0-.11.08-.19.1-.1.3-.1h1.34Zm4.99 2.78q0-.98-.72-1.69-.72-.72-1.77-.72t-1.78.72q-.72.7-.72 1.69 0 1 .72 1.72.73.7 1.78.7 1.03 0 1.75-.7.74-.72.74-1.72Zm8.3.31h-5.87q.16 1.13.94 1.81.78.68 1.94.68.64 0 1.34-.2.7-.23 1.16-.59.12-.09.22-.09t.18.1q.1.07.1.18 0 .11-.11.22-.33.34-1.17.64-.85.3-1.72.3-1.49 0-2.47-.95-.98-.97-.98-2.35 0-1.25.92-2.14.93-.9 2.3-.9 1.4 0 2.3.92.93.92.91 2.37Zm-.59-.58q-.17-.95-.9-1.54-.74-.6-1.74-.6t-1.73.6q-.72.58-.9 1.54h5.27Zm4.79-2.51v1.45q1.12-1.01 1.67-1.3.56-.3 1.03-.3.51 0 .95.35.44.35.44.52 0 .14-.1.23-.07.08-.2.08-.06 0-.1-.02l-.2-.17q-.23-.23-.42-.31-.17-.1-.34-.1-.38 0-.9.3-.54.3-1.83 1.47v3.14h2.54q.2 0 .3.08.1.08.1.22 0 .1-.1.2-.1.08-.3.08h-4.51q-.2 0-.3-.08-.08-.08-.08-.2 0-.11.08-.19.1-.08.3-.08h1.39v-4.8h-1.06q-.2 0-.3-.07-.08-.08-.08-.22 0-.11.08-.19.1-.1.3-.1h1.64Zm16.96-2.66v8h2.27q.2 0 .3.08.1.08.1.22 0 .1-.1.2-.1.08-.3.08h-5.1q-.2 0-.3-.08-.07-.1-.07-.2 0-.14.08-.22.1-.08.3-.08h2.26v-7.42h-1.65q-.2 0-.3-.08-.1-.08-.1-.22 0-.12.08-.2.1-.08.32-.08h2.21Zm10.83 5.75h-5.86q.16 1.13.94 1.81.78.68 1.94.68.64 0 1.34-.2.7-.23 1.16-.59.12-.09.22-.09t.18.1q.1.07.1.18 0 .11-.11.22-.33.34-1.17.64-.85.3-1.72.3-1.49 0-2.47-.95-.98-.97-.98-2.35 0-1.25.92-2.14.93-.9 2.3-.9 1.4 0 2.3.92.93.92.91 2.37Zm-.58-.58q-.17-.95-.9-1.54-.74-.6-1.74-.6t-1.73.6q-.72.58-.9 1.54h5.27Zm5.1-1.93v4.76h2.51q.2 0 .3.08.1.08.1.22 0 .1-.1.2-.1.08-.3.08h-4.48q-.22 0-.31-.08-.08-.1-.08-.2 0-.14.08-.22.1-.08.3-.08h1.38v-4.76h-1.23q-.2 0-.3-.08-.1-.08-.1-.22 0-.11.1-.19.1-.1.3-.1h1.23v-.85q0-.74.6-1.27t1.56-.53q.81 0 1.74.16.34.05.4.12.08.08.08.2 0 .12-.08.2-.08.07-.22.07l-.19-.01q-1.03-.16-1.73-.16-.75 0-1.16.38-.4.35-.4.84v.86h2.69q.2 0 .28.1.1.07.1.2 0 .12-.1.2-.08.08-.28.08h-2.7Zm7.19-.58h3.12q.2 0 .28.1.1.07.1.2 0 .12-.1.2-.08.08-.28.08h-3.12v3.82q0 .5.4.85.4.33 1.17.33.58 0 1.25-.18.7-.18 1.07-.4.14-.08.22-.08.1 0 .18.1.1.07.1.18 0 .11-.1.19-.22.23-1.06.5-.84.25-1.6.25-1.02 0-1.62-.47-.6-.47-.6-1.27v-3.82h-1.06q-.2 0-.3-.08-.07-.08-.07-.22 0-.11.08-.19.1-.1.3-.1h1.06v-1.68q0-.22.08-.3.09-.09.21-.09.13 0 .2.1.09.07.09.3v1.68Zm20.3 1.17h-6.24q-.2 0-.3-.08-.1-.1-.1-.22t.1-.2q.1-.08.3-.08h6.25q.22 0 .3.08.09.08.09.22 0 .1-.1.2-.07.08-.3.08Zm0 2.06h-6.24q-.2 0-.3-.08-.1-.07-.1-.21 0-.13.1-.2.1-.09.3-.09h6.25q.22 0 .3.08.09.08.09.2 0 .15-.1.22-.07.08-.3.08Zm10.71-5.89v3.81q1.05-1.35 2.52-1.35 1.25 0 2.14.92.9.9.9 2.23t-.9 2.27q-.9.92-2.14.92-1.5 0-2.52-1.34v1.12h-1.34q-.2 0-.3-.08-.08-.1-.08-.2 0-.14.08-.22.1-.08.3-.08h.78v-7.42h-.78q-.2 0-.3-.08-.08-.08-.08-.22 0-.12.08-.2.1-.08.3-.08h1.34Zm4.99 5.63q0-1.08-.75-1.83-.74-.77-1.74-.77t-1.75.77q-.73.75-.73 1.83 0 1.1.73 1.86.75.75 1.75.75t1.74-.75q.75-.77.75-1.86Zm8.3.12h-5.87q.16 1.13.94 1.81.78.68 1.94.68.64 0 1.34-.2.7-.23 1.16-.59.12-.09.22-.09t.18.1q.1.07.1.18 0 .11-.11.22-.33.34-1.17.64-.85.3-1.72.3-1.49 0-2.47-.95-.99-.97-.99-2.35 0-1.25.93-2.14.93-.9 2.3-.9 1.4 0 2.3.92.93.92.91 2.37Zm-.59-.58q-.17-.95-.9-1.54-.74-.6-1.74-.6t-1.73.6q-.72.58-.9 1.54h5.27Zm4.29-2.51h3.12q.2 0 .28.1.1.07.1.2 0 .12-.1.2-.08.08-.28.08h-3.12v3.82q0 .5.4.85.4.33 1.17.33.58 0 1.25-.18.7-.18 1.07-.4.14-.08.22-.08.1 0 .18.1.1.07.1.18 0 .11-.1.19-.22.23-1.06.5-.84.25-1.6.25-1.02 0-1.62-.47-.6-.47-.6-1.27v-3.82h-1.06q-.2 0-.3-.08-.07-.08-.07-.22 0-.11.08-.19.1-.1.3-.1h1.06v-1.68q0-.22.08-.3.09-.09.21-.09.13 0 .2.1.09.07.09.3v1.68Zm8 0h3.12q.2 0 .28.1.1.07.1.2 0 .12-.1.2-.08.08-.28.08h-3.12v3.82q0 .5.4.85.4.33 1.17.33.58 0 1.25-.18.7-.18 1.07-.4.14-.08.22-.08.1 0 .18.1.1.07.1.18 0 .11-.1.19-.22.23-1.06.5-.84.25-1.6.25-1.02 0-1.62-.47-.6-.47-.6-1.27v-3.82h-1.06q-.2 0-.3-.08-.07-.08-.07-.22 0-.11.08-.19.1-.1.3-.1h1.06v-1.68q0-.22.08-.3.09-.09.21-.09.13 0 .2.1.09.07.09.3v1.68Zm12.3 3.1h-5.87q.16 1.12.94 1.8.78.68 1.94.68.64 0 1.34-.2.7-.23 1.16-.59.12-.09.22-.09t.18.1q.1.07.1.18 0 .11-.11.22-.33.34-1.17.64-.85.3-1.72.3-1.49 0-2.47-.95-.99-.97-.99-2.35 0-1.25.93-2.14.93-.9 2.3-.9 1.4 0 2.3.92.93.92.91 2.37Zm-.59-.59q-.17-.95-.9-1.54-.74-.6-1.74-.6t-1.73.6q-.72.58-.9 1.54h5.27Zm4.79-2.51v1.45q1.12-1.01 1.67-1.3.56-.3 1.03-.3.51 0 .95.35.44.35.44.52 0 .14-.1.23-.07.08-.2.08-.06 0-.1-.02l-.2-.17q-.23-.23-.42-.31-.17-.1-.34-.1-.38 0-.9.3-.54.3-1.83 1.47v3.14h2.54q.2 0 .3.08.1.08.1.22 0 .1-.1.2-.1.08-.3.08h-4.51q-.2 0-.3-.08-.08-.08-.08-.2 0-.11.08-.19.1-.08.3-.08h1.39v-4.8h-1.06q-.2 0-.3-.07-.08-.08-.08-.22 0-.11.08-.19.1-.1.3-.1h1.64Z"
  /><path
    fill="#fff"
    d="M27.13 40.53q-.27.32-.44.41-.16.1-.39.1-.45 0-.73-.32-.29-.31-.29-1.01v-1.36q0-.72.29-1.02.28-.31.73-.31.36 0 .6.19.24.18.37.62.12.42.26.58.29.31 1 .62.72.32 1.58.32 1.35 0 2.2-.63.55-.39.55-.94 0-.37-.26-.7-.27-.33-.86-.55-.4-.14-1.75-.39-1.64-.3-2.49-.73-.82-.44-1.32-1.22-.49-.78-.49-1.69 0-1.43 1.2-2.51 1.2-1.08 3.13-1.08.76 0 1.42.17.67.17 1.2.52.4-.38.78-.38.44 0 .72.31.28.3.28 1.02v1.5q0 .73-.28 1.05-.28.3-.72.3-.37 0-.64-.23-.21-.17-.32-.67-.11-.5-.27-.72-.28-.36-.86-.6-.56-.27-1.3-.27-1.09 0-1.71.52-.63.5-.63 1.04 0 .36.25.72.27.34.77.53.32.14 1.86.45 1.54.3 2.35.66.83.36 1.38 1.14.55.77.55 1.83 0 1.48-1.05 2.38-1.38 1.17-3.53 1.17-.83 0-1.63-.2-.78-.2-1.51-.62Zm14.92-2.4 2.9-6.9h-.46q-.72 0-1.03-.29-.32-.28-.32-.73 0-.46.32-.72.3-.28 1.03-.28h2.68q.72 0 1.04.28.3.26.3.72 0 .54-.46.86-.23.15-.92.15l-4.11 9.83H41.1l-4.11-9.83q-.7 0-.92-.15-.47-.32-.47-.86 0-.46.3-.72.3-.28 1.02-.28h2.7q.73 0 1.02.28.32.26.32.72 0 .45-.3.73-.3.28-1.03.28h-.47l2.89 6.9Zm12.97-6.9v7.82h1.36q.72 0 1.01.28.32.27.32.72 0 .44-.32.72-.3.28-1.01.28h-4.69q-.73 0-1.05-.28-.3-.28-.3-.72 0-.45.3-.72.32-.28 1.05-.28h1.33v-7.83h-2.17v1.9q0 .71-.28 1.02-.27.3-.72.3-.44 0-.72-.3-.28-.3-.28-1.03v-3.9h10.37v3.9q0 .72-.28 1.03-.28.3-.72.3-.44 0-.72-.3-.28-.3-.28-1.03v-1.89h-2.2Zm15.23 5.05H61.9v-1.82h8.36v1.82Zm10.25 1.55h-4.87l-.49 1.22h.49q.73 0 1.03.28.31.27.31.72 0 .44-.31.72-.3.28-1.03.28h-2.69q-.72 0-1.03-.28-.31-.28-.31-.72 0-.45.33-.73.32-.29 1.06-.27l3.14-7.83h-1.3q-.73 0-1.05-.28-.3-.28-.3-.73 0-.46.3-.72.32-.28 1.05-.28h4.31l3.99 9.84q.7 0 .94.16.45.3.45.84 0 .44-.31.72-.3.28-1.02.28h-2.7q-.72 0-1.03-.28-.32-.28-.32-.72 0-.45.32-.72.3-.28 1.03-.28h.48l-.47-1.22Zm-.83-2-1.62-3.97-1.6 3.97h3.22Zm10.38 2.3 2.9-6.9h-.46q-.72 0-1.03-.29-.32-.28-.32-.73 0-.46.32-.72.3-.28 1.03-.28h2.69q.71 0 1.03.28.3.26.3.72 0 .54-.46.86-.23.15-.92.15l-4.11 9.83H89.1l-4.11-9.83q-.7 0-.92-.15-.47-.32-.47-.86 0-.46.3-.72.3-.28 1.02-.28h2.7q.73 0 1.02.28.32.26.32.72 0 .45-.3.73-.3.28-1.03.28h-.47l2.89 6.9Zm13.02-10.03v10.95h2.03q.72 0 1.01.28.31.27.31.72 0 .44-.3.72-.3.28-1.02.28h-6.05q-.72 0-1.03-.28-.31-.28-.31-.72 0-.45.3-.72.32-.28 1.04-.28h2.02v-8.36l-1.79.47q-.43.12-.64.12-.39 0-.67-.3-.26-.3-.26-.74 0-.4.2-.63.2-.23.86-.4l4.3-1.11Zm23 10.51 2.15-4.42q-.8 0-1.01-.14-.5-.31-.5-.88 0-.43.3-.71.32-.29 1.04-.29h2.75q.72 0 1.02.29.3.28.3.73 0 .44-.3.72-.3.28-1.02.28h-.34l-3.35 6.86h-2.1l-3.34-6.86h-.28q-.73 0-1.04-.28-.3-.28-.3-.73 0-.44.3-.72.3-.29 1.04-.29h2.7q.7 0 1 .29.32.28.32.73 0 .55-.47.84-.23.16-1.05.16l2.18 4.42Zm14.84-4.25q.89.61 1.33 1.4.44.79.44 1.79 0 1.06-.58 1.97-.58.89-1.7 1.36-1.1.47-2.88.47-2.33 0-3.5-.74-.66-.4-.66-.97 0-.43.28-.73.3-.3.72-.3.28 0 .58.2.44.3.81.4.58.14 1.61.14 1.75 0 2.53-.46.79-.47.79-1.3 0-.6-.46-1.17-.45-.57-1.22-.89-.43-.17-1.48-.25-.5-.03-.77-.3-.26-.27-.26-.7 0-.42.28-.71.3-.3.75-.3h1.06q.4-.05.78-.25.4-.22.63-.6.25-.37.25-.78 0-.64-.56-1.09-.57-.47-1.7-.47-1.43 0-2.2.85-.23.23-.35.3-.2.12-.47.12-.41 0-.7-.3t-.29-.72q0-.67.9-1.31 1.3-.92 3.26-.92 1.86 0 2.98 1.06 1.13 1.05 1.13 2.53 0 .77-.35 1.44-.32.67-.98 1.23Zm10.67 5.69q0 .56-.4.95-.4.38-1.1.38-.7 0-1.1-.38-.41-.39-.41-.95 0-.58.4-.95.4-.38 1.11-.38.7 0 1.1.38.4.37.4.95Zm14.84-6.44v2.2q0 1.96-1.14 3.76-1.12 1.78-3.21 1.78-1.2 0-2.05-.53-.83-.54-1.58-1.97-.75-1.44-.75-3.03v-2.2q0-1.94 1.13-3.73 1.12-1.8 3.21-1.8 1.2 0 2.04.54.84.51 1.59 1.95.77 1.42.77 3.03Zm-2.01 0q0-1.62-.9-2.84-.52-.67-1.46-.67-.9 0-1.48.73-.88 1.13-.88 2.78v2.2q0 1.65.92 2.85.5.69 1.46.69.9 0 1.46-.75.88-1.13.88-2.78v-2.2Zm11.17 6.44q0 .56-.4.95-.4.38-1.1.38-.7 0-1.1-.38-.41-.39-.41-.95 0-.58.4-.95.4-.38 1.11-.38.7 0 1.1.38.4.37.4.95Zm14.84-6.44v2.2q0 1.96-1.14 3.76-1.12 1.78-3.21 1.78-1.2 0-2.05-.53-.83-.54-1.58-1.97-.75-1.44-.75-3.03v-2.2q0-1.94 1.13-3.73 1.12-1.8 3.21-1.8 1.2 0 2.04.54.84.51 1.59 1.95.77 1.42.77 3.03Zm-2.01 0q0-1.62-.9-2.84-.52-.67-1.46-.67-.9 0-1.48.73-.88 1.13-.88 2.78v2.2q0 1.65.92 2.85.5.69 1.46.69.9 0 1.46-.75.88-1.13.88-2.78v-2.2Z"
  />
</svg>
