<svg
  xmlns="http://www.w3.org/2000/svg"
  width="913"
  height="698"
  fill="none"
  stroke-linecap="square"
  stroke-miterlimit="10"
>
  <path fill="#000000" d="M0 0h913v698H0V0Z" /><path
    stroke="#3a3a3a"
    stroke-linecap="butt"
    d="M93.5 557.5h785m-785-39h785m-785-78h785m-785-39h785m-785-78h785m-785-40h785m-785-78h785m-785-39h785"
  /><clipPath id="a"><path
      d="M93.9 127.4h784.2v469.7H93.9V127.4Z"
    /></clipPath><path
    d="M188 597h-61V306c0-1.1.9-2 2-2h57a2 2 0 0 1 2 2Z"
    clip-path="url(#a)"
  /><path
    fill="#980000"
    d="M188 597h-61V306c0-1.1.9-2 2-2h57a2 2 0 0 1 2 2Z"
    clip-path="url(#a)"
  /><path
    d="M282 597h-61V374c0-1.1.9-2 2-2h57a2 2 0 0 1 2 2Z"
    clip-path="url(#a)"
  /><path
    fill="#90f"
    d="M282 597h-61V374c0-1.1.9-2 2-2h57a2 2 0 0 1 2 2Z"
    clip-path="url(#a)"
  /><path
    d="M376 597h-61V196c0-1.1.9-2 2-2h57a2 2 0 0 1 2 2Z"
    clip-path="url(#a)"
  /><path
    fill="#0ff"
    d="M376 597h-61V196c0-1.1.9-2 2-2h57a2 2 0 0 1 2 2Z"
    clip-path="url(#a)"
  /><path
    d="M470 597h-61V368c0-1.1.9-2 2-2h57a2 2 0 0 1 2 2Z"
    clip-path="url(#a)"
  /><path
    fill="#bdbdbd"
    d="M470 597h-61V368c0-1.1.9-2 2-2h57a2 2 0 0 1 2 2Z"
    clip-path="url(#a)"
  /><path
    d="M564 597h-61V435c0-1.1.9-2 2-2h57a2 2 0 0 1 2 2Z"
    clip-path="url(#a)"
  /><path
    fill="#0f0"
    d="M564 597h-61V435c0-1.1.9-2 2-2h57a2 2 0 0 1 2 2Z"
    clip-path="url(#a)"
  /><path
    d="M658 597h-61V415c0-1.1.9-2 2-2h57a2 2 0 0 1 2 2Z"
    clip-path="url(#a)"
  /><path
    fill="#f0f"
    d="M658 597h-61V415c0-1.1.9-2 2-2h57a2 2 0 0 1 2 2Z"
    clip-path="url(#a)"
  /><path
    d="M752 597h-61V423c0-1.1.9-2 2-2h57a2 2 0 0 1 2 2Z"
    clip-path="url(#a)"
  /><path
    fill="#3d85c6"
    d="M752 597h-61V423c0-1.1.9-2 2-2h57a2 2 0 0 1 2 2Z"
    clip-path="url(#a)"
  /><path
    d="M846 597h-61V426c0-1.1.9-2 2-2h57a2 2 0 0 1 2 2Z"
    clip-path="url(#a)"
  /><path
    fill="#e06666"
    d="M846 597h-61V426c0-1.1.9-2 2-2h57a2 2 0 0 1 2 2Z"
    clip-path="url(#a)"
  /><path
    stroke="#980000"
    stroke-linecap="round"
    stroke-linejoin="round"
    stroke-width="3"
    d="M141 318h3.8v-.5h.4v1h-4.7v-.8l3-2.7.8-1 .4-.5v-.5q0-.6-.5-1-.5-.6-1.2-.6-.6 0-1.1.4-.5.4-.7 1v.1h-.4v-.2l.2-.7q.4-.5.9-.8.5-.3 1.1-.3 1 0 1.6.7.7.6.7 1.4 0 .4-.2.7l-.3.6-1 1-2.8 2.6h0Zm10-1.6h-3.3v-.6l2.8-4.7h1v4.8h.7v.4l-.3.1h-.4v1.6h.7v.4h-2.4v-.4h1.3v-1.6Zm0-.5v-4.3h-.2l-2.5 4.3h2.7Zm8.1-1.6q-.4.7-.9 1-.5.4-1 .4-.6 0-1-.3-.5-.3-.8-.9-.3-.6-.3-1.2 0-.9.6-1.6.5-.8 1.5-.8.6 0 1.2.5.5.4.8 1.2.4 1 .4 2.3 0 1-.3 1.8l-.7.9-1 .7q-.7.3-1.5.3-.5 0-.8-.2-.2 0-.2-.2v-.2h.5q.2.2.5.2 1.2 0 2.1-1 1-.8 1-2.2v-.7Zm0-.8q-.4-1.2-.8-1.6-.5-.5-1.1-.5-.7 0-1.1.6-.5.5-.5 1.3t.5 1.4q.4.5 1 .5.4 0 .7-.2.4-.2.7-.6l.5-1Zm4.9 3.6h.2l.6.2q.2.2.2.5 0 .4-.2.6l-.6.2h-.2l-.6-.2q-.2-.2-.2-.5 0-.4.2-.6l.6-.2Zm9.1-2.8q-.4.7-.9 1-.5.4-1 .4-.6 0-1-.3-.5-.3-.8-.9-.3-.6-.3-1.2 0-.9.6-1.6.5-.8 1.5-.8.6 0 1.2.5.5.4.8 1.2.4 1 .4 2.3 0 1-.3 1.8l-.7.9-1 .7q-.7.3-1.5.3-.5 0-.8-.2-.2 0-.2-.2v-.2h.5q.2.2.5.2 1.2 0 2.1-1 1-.8 1-2.2v-.7Zm0-.8q-.4-1.2-.8-1.6-.5-.5-1.1-.5-.7 0-1.1.6-.5.5-.5 1.3t.5 1.4q.4.5 1 .5.4 0 .7-.2.4-.2.7-.6l.5-1Z"
  /><path
    fill="#bdbdbd"
    d="M141 318h3.8v-.5h.4v1h-4.7v-.8l3-2.7.8-1 .4-.5v-.5q0-.6-.5-1-.5-.6-1.2-.6-.6 0-1.1.4-.5.4-.7 1v.1h-.4v-.2l.2-.7q.4-.5.9-.8.5-.3 1.1-.3 1 0 1.6.7.7.6.7 1.4 0 .4-.2.7l-.3.6-1 1-2.8 2.6Zm10-1.6h-3.3v-.6l2.8-4.7h1v4.8h.7v.4l-.3.1h-.4v1.6h.7v.4h-2.4v-.4h1.3v-1.6Zm0-.5v-4.3h-.2l-2.5 4.3h2.7Zm8.1-1.6q-.4.7-.9 1-.5.4-1 .4-.6 0-1-.3-.5-.3-.8-.9-.3-.6-.3-1.2 0-.9.6-1.6.5-.8 1.5-.8.6 0 1.2.5.5.4.8 1.2.4 1 .4 2.3 0 1-.3 1.8l-.7.9-1 .7q-.7.3-1.5.3-.5 0-.8-.2-.2 0-.2-.2v-.2h.5q.2.2.5.2 1.2 0 2.1-1 1-.8 1-2.2v-.7Zm0-.8q-.4-1.2-.8-1.6-.5-.5-1.1-.5-.7 0-1.1.6-.5.5-.5 1.3t.5 1.4q.4.5 1 .5.4 0 .7-.2.4-.2.7-.6l.5-1Zm4.9 3.6h.2l.6.2q.2.2.2.5 0 .4-.2.6l-.6.2h-.2l-.6-.2q-.2-.2-.2-.5 0-.4.2-.6l.6-.2Zm9.1-2.8q-.4.7-.9 1-.5.4-1 .4-.6 0-1-.3-.5-.3-.8-.9-.3-.6-.3-1.2 0-.9.6-1.6.5-.8 1.5-.8.6 0 1.2.5.5.4.8 1.2.4 1 .4 2.3 0 1-.3 1.8l-.7.9-1 .7q-.7.3-1.5.3-.5 0-.8-.2-.2 0-.2-.2v-.2h.5q.2.2.5.2 1.2 0 2.1-1 1-.8 1-2.2v-.7Zm0-.8q-.4-1.2-.8-1.6-.5-.5-1.1-.5-.7 0-1.1.6-.5.5-.5 1.3t.5 1.4q.4.5 1 .5.4 0 .7-.2.4-.2.7-.6l.5-1Z"
  /><path
    stroke="#90f"
    stroke-linecap="round"
    stroke-linejoin="round"
    stroke-width="3"
    d="M237 379.9v7h1.8l.1.2v.2h-4.4v-.4h1.9v-6.3l-1.6.5h-.3v-.4l.2-.1 2.2-.7Zm8.7 3.3q-.4.7-1 1-.4.3-1 .3l-1-.2q-.5-.3-.7-.9-.3-.6-.3-1.2 0-.9.5-1.6.6-.8 1.5-.8.7 0 1.3.4.5.4.8 1.2.4 1 .4 2.4 0 1-.3 1.7l-.7 1-1 .7q-.7.3-1.5.3-.5 0-.9-.2l-.1-.2v-.2h.4l.6.1q1.2 0 2.1-.9 1-.9 1-2.2l-.1-.7Zm-.1-.8q-.3-1.2-.8-1.6-.4-.5-1-.5-.7 0-1.2.6-.4.5-.4 1.3t.4 1.3q.5.6 1.1.6.4 0 .7-.2l.6-.6.6-1Zm3 4.5h3.7v-.2l.1-.3h.4v1h-4.7v-.8l2.9-2.7.9-1 .3-.5.1-.5q0-.6-.5-1.1-.5-.5-1.2-.5t-1.2.4q-.5.4-.6.9v.2h-.4v-.2l.2-.7q.3-.5.9-.8.5-.3 1-.3 1 0 1.7.7.6.6.6 1.4v.6l-.5.7-1 1-2.7 2.6h0Zm9-1h.2q.3 0 .5.3.3.2.3.5 0 .4-.3.6-.2.2-.5.2h-.2q-.4 0-.6-.2-.2-.2-.2-.6 0-.3.2-.5.2-.3.6-.3Zm7.3-6v7h1.9l.1.2v.2h-4.4v-.4h1.9v-6.3l-1.6.5h-.3v-.4l.2-.1 2.2-.7Z"
  /><path
    fill="#bdbdbd"
    d="M237 379.9v7h1.8l.1.2v.2h-4.4v-.4h1.9v-6.3l-1.6.5h-.3v-.4l.2-.1 2.2-.7Zm8.7 3.3q-.4.7-1 1-.4.3-1 .3l-1-.2q-.5-.3-.7-.9-.3-.6-.3-1.2 0-.9.5-1.6.6-.8 1.5-.8.7 0 1.3.4.5.4.8 1.2.4 1 .4 2.4 0 1-.3 1.7l-.7 1-1 .7q-.7.3-1.5.3-.5 0-.9-.2l-.1-.2v-.2h.4l.6.1q1.2 0 2.1-.9 1-.9 1-2.2l-.1-.7Zm-.1-.8q-.3-1.2-.8-1.6-.4-.5-1-.5-.7 0-1.2.6-.4.5-.4 1.3t.4 1.3q.5.6 1.1.6.4 0 .7-.2l.6-.6.6-1Zm3 4.5h3.7v-.2l.1-.3h.4v1h-4.7v-.8l2.9-2.7.9-1 .3-.5.1-.5q0-.6-.5-1.1-.5-.5-1.2-.5t-1.2.4q-.5.4-.6.9v.2h-.4v-.2l.2-.7q.3-.5.9-.8.5-.3 1-.3 1 0 1.7.7.6.6.6 1.4v.6l-.5.7-1 1-2.7 2.6Zm9-1h.2q.3 0 .5.3.3.2.3.5 0 .4-.3.6-.2.2-.5.2h-.2q-.4 0-.6-.2-.2-.2-.2-.6 0-.3.2-.5.2-.3.6-.3Zm7.3-6v7h1.9l.1.2v.2h-4.4v-.4h1.9v-6.3l-1.6.5h-.3v-.4l.2-.1 2.2-.7Z"
  /><path
    stroke="#0ff"
    stroke-linecap="round"
    stroke-linejoin="round"
    stroke-width="3"
    d="M332.1 205.3q.7.3 1 .8.4.5.4 1.1 0 .9-.7 1.6-.7.6-1.8.6l-1.3-.2q-.7-.3-1-.6v-.3l.2-.1h.2q.9.8 1.9.8.9 0 1.4-.6.6-.5.6-1.2 0-.4-.3-.8-.2-.5-.8-.7l-1-.2-.3-.1-.1-.2v-.2h.7q.7 0 1.1-.4.4-.4.4-1 0-.5-.4-1-.5-.4-1.2-.4l-1 .2q-.4.2-.6.5l-.2.1q0 0 0 0h-.2l-.1-.2q0-.2.5-.6.7-.5 1.6-.5 1 0 1.5.6.6.6.6 1.3l-.2 1q-.3.4-.9.7Zm7 1.9h-3.4v-.6l2.8-4.7h1v4.8h.7v.4l-.3.1h-.4v1.6h.7v.4h-2.4v-.4h1.3v-1.6Zm0-.5v-4.3h-.3l-2.5 4.3h2.7Zm3.9 2h3.8v-.4h.4v1h-4.7v-.8l3-2.7.8-1 .4-.5v-.5q0-.6-.5-1-.5-.6-1.2-.6-.6 0-1.1.4-.5.4-.7 1v.1h-.4v-.2l.2-.7q.4-.5.9-.8.5-.3 1.1-.3 1 0 1.6.7.6.6.6 1.4v.7l-.4.6-1 1-2.8 2.6h0Zm9-.8h.2l.6.2q.2.2.2.5 0 .4-.2.6l-.6.2h-.2l-.6-.2q-.2-.2-.2-.5 0-.4.2-.6l.6-.2Zm9.1-2.8q-.4.7-.9 1-.5.4-1 .4-.6 0-1-.3-.5-.3-.8-.9-.3-.6-.3-1.2 0-.9.6-1.6.5-.8 1.5-.8.6 0 1.2.5.5.4.9 1.2.3 1 .3 2.3 0 1-.3 1.8l-.7.9-1 .7q-.7.3-1.5.3-.5 0-.8-.2-.2 0-.2-.2v-.2h.5q.2.2.5.2 1.2 0 2.1-1 1-.8 1-2.2v-.7Zm0-.8q-.4-1.2-.9-1.6-.4-.5-1-.5-.7 0-1.1.6-.5.5-.5 1.3t.5 1.4q.4.5 1 .5.4 0 .7-.2.4-.2.7-.6l.5-1Z"
  /><path
    fill="#3a3a3a"
    d="M332.1 205.3q.7.3 1 .8.4.5.4 1.1 0 .9-.7 1.6-.7.6-1.8.6l-1.3-.2q-.7-.3-1-.6v-.3l.2-.1h.2q.9.8 1.9.8.9 0 1.4-.6.6-.5.6-1.2 0-.4-.3-.8-.2-.5-.8-.7l-1-.2-.3-.1-.1-.2v-.2h.7q.7 0 1.1-.4.4-.4.4-1 0-.5-.4-1-.5-.4-1.2-.4l-1 .2q-.4.2-.6.5l-.2.1h-.2l-.1-.2q0-.2.5-.6.7-.5 1.6-.5 1 0 1.5.6.6.6.6 1.3l-.2 1q-.3.4-.9.7Zm7 1.9h-3.4v-.6l2.8-4.7h1v4.8h.7v.4l-.3.1h-.4v1.6h.7v.4h-2.4v-.4h1.3v-1.6Zm0-.5v-4.3h-.3l-2.5 4.3h2.7Zm3.9 2h3.8v-.4h.4v1h-4.7v-.8l3-2.7.8-1 .4-.5v-.5q0-.6-.5-1-.5-.6-1.2-.6-.6 0-1.1.4-.5.4-.7 1v.1h-.4v-.2l.2-.7q.4-.5.9-.8.5-.3 1.1-.3 1 0 1.6.7.6.6.6 1.4v.7l-.4.6-1 1-2.8 2.6Zm9-.8h.2l.6.2q.2.2.2.5 0 .4-.2.6l-.6.2h-.2l-.6-.2q-.2-.2-.2-.5 0-.4.2-.6l.6-.2Zm9.1-2.8q-.4.7-.9 1-.5.4-1 .4-.6 0-1-.3-.5-.3-.8-.9-.3-.6-.3-1.2 0-.9.6-1.6.5-.8 1.5-.8.6 0 1.2.5.5.4.9 1.2.3 1 .3 2.3 0 1-.3 1.8l-.7.9-1 .7q-.7.3-1.5.3-.5 0-.8-.2-.2 0-.2-.2v-.2h.5q.2.2.5.2 1.2 0 2.1-1 1-.8 1-2.2v-.7Zm0-.8q-.4-1.2-.9-1.6-.4-.5-1-.5-.7 0-1.1.6-.5.5-.5 1.3t.5 1.4q.4.5 1 .5.4 0 .7-.2.4-.2.7-.6l.5-1Z"
  /><path
    stroke="#bdbdbd"
    stroke-linecap="round"
    stroke-linejoin="round"
    stroke-width="3"
    d="M425.3 373.5v7h2v.4h-4.4v-.4h2v-6.3l-1.6.5h-.4v-.4l.2-.1 2.2-.7Zm8.8 3.3q-.4.6-.9 1-.5.3-1 .3-.6 0-1-.3-.5-.3-.8-.8-.3-.6-.3-1.2 0-1 .6-1.6.5-.8 1.5-.8.6 0 1.2.4.5.4.9 1.2.3 1 .3 2.4 0 1-.3 1.7-.2.5-.7 1-.4.4-1 .6-.7.4-1.5.4-.5 0-.8-.2-.2 0-.2-.2v-.2h.5l.5.1q1.2 0 2.1-.9 1-.9 1-2.2v-.7Zm0-.9q-.4-1.1-.9-1.6-.4-.4-1-.4-.7 0-1.1.5-.5.5-.5 1.4 0 .8.5 1.3.4.5 1 .5.4 0 .7-.2.4-.1.7-.5l.5-1Zm3.5 2q.5-.7 1-1 .5-.4 1-.4.8 0 1.4.7.7.6.7 1.6 0 .9-.6 1.6-.6.7-1.5.7-.7 0-1.2-.4-.6-.4-.9-1.2-.4-1-.4-2.2 0-1 .4-1.8l.7-1q.5-.5 1.1-.8.6-.3 1.4-.3.5 0 .8.2l.1.2v.2h-.4l-.6-.1q-1.1 0-2 1-1 1-1 2.3v.6Zm.1.7q.3 1.1.7 1.6.5.4 1.2.4.6 0 1-.5.6-.5.6-1.3t-.5-1.3q-.5-.5-1-.5-.6 0-1.2.5l-.8 1.1Zm8.3 1h.2l.6.2q.2.2.2.5 0 .4-.2.6l-.6.2h-.2l-.6-.2q-.2-.2-.2-.6 0-.3.2-.5.3-.3.6-.3Zm8.8-5.3v-.2h-3.6v.7h-.4v-1.3h4.4v.9l-2 6.3v.2h-.4v-.4l2-6.2Z"
  /><path
    fill="#3a3a3a"
    d="M425.3 373.5v7h2v.4h-4.4v-.4h2v-6.3l-1.6.5h-.4v-.4l.2-.1 2.2-.7Zm8.8 3.3q-.4.6-.9 1-.5.3-1 .3-.6 0-1-.3-.5-.3-.8-.8-.3-.6-.3-1.2 0-1 .6-1.6.5-.8 1.5-.8.6 0 1.2.4.5.4.9 1.2.3 1 .3 2.4 0 1-.3 1.7-.2.5-.7 1-.4.4-1 .6-.7.4-1.5.4-.5 0-.8-.2-.2 0-.2-.2v-.2h.5l.5.1q1.2 0 2.1-.9 1-.9 1-2.2v-.7Zm0-.9q-.4-1.1-.9-1.6-.4-.4-1-.4-.7 0-1.1.5-.5.5-.5 1.4 0 .8.5 1.3.4.5 1 .5.4 0 .7-.2.4-.1.7-.5l.5-1Zm3.5 2q.5-.7 1-1 .5-.4 1-.4.8 0 1.4.7.7.6.7 1.6 0 .9-.6 1.6-.6.7-1.5.7-.7 0-1.2-.4-.6-.4-.9-1.2-.4-1-.4-2.2 0-1 .4-1.8l.7-1q.5-.5 1.1-.8.6-.3 1.4-.3.5 0 .8.2l.1.2v.2h-.4l-.6-.1q-1.1 0-2 1-1 1-1 2.3v.6Zm.1.7q.3 1.1.7 1.6.5.4 1.2.4.6 0 1-.5.6-.5.6-1.3t-.5-1.3q-.5-.5-1-.5-.6 0-1.2.5l-.8 1.1Zm8.3 1h.2l.6.2q.2.2.2.5 0 .4-.2.6l-.6.2h-.2l-.6-.2q-.2-.2-.2-.6 0-.3.2-.5.3-.3.6-.3Zm8.8-5.3v-.2h-3.6v.7h-.4v-1.3h4.4v.9l-2 6.3v.2h-.4v-.4l2-6.2Z"
  /><path
    stroke="#0f0"
    stroke-linecap="round"
    stroke-linejoin="round"
    stroke-width="3"
    d="M519.3 440.3v7h2v.4h-4.4v-.4h2V441l-1.6.5h-.4v-.4l.2-.1 2.2-.7Zm7.8 3.4q.7.3 1 .9.4.5.4 1 0 1-.7 1.6-.7.7-1.8.7l-1.3-.2q-.7-.3-1-.6v-.4h.4q.9.7 1.9.7.9 0 1.4-.5.6-.5.6-1.2 0-.4-.3-.9-.2-.4-.8-.6-.5-.3-1-.3h-.3l-.1-.2v-.2h.7q.7 0 1.1-.5.5-.4.5-.9t-.5-1q-.5-.4-1.2-.4l-1 .2q-.4.2-.6.5l-.2.1q0 0 0 0h-.2l-.1-.2q0-.2.5-.6.7-.5 1.6-.5 1 0 1.5.6.6.5.6 1.3l-.2 1q-.3.4-.9.6Zm8-.1q-.4.7-.9 1-.5.3-1 .3-.6 0-1-.2-.5-.3-.8-1-.3-.5-.3-1 0-1 .6-1.7.5-.8 1.5-.8.6 0 1.2.4.5.4.9 1.2.3 1 .3 2.4 0 1-.3 1.7-.2.5-.7 1l-1 .7q-.7.3-1.5.3-.5 0-.8-.2-.2 0-.2-.2v-.2h.5l.5.1q1.2 0 2.1-.9 1-.9 1-2.2v-.7Zm0-.8q-.4-1.2-.9-1.6-.4-.5-1-.5-.7 0-1.1.5-.5.6-.5 1.4 0 .8.5 1.3.4.5 1 .5l.7-.1q.4-.2.7-.6l.5-1Zm4.9 3.5h.2q.3 0 .6.3.2.2.2.5 0 .4-.2.6l-.6.2h-.2l-.6-.2q-.2-.2-.2-.6 0-.3.2-.5.3-.3.6-.3Zm8.1-2.4q.6.3 1 .8.3.5.3 1 0 1-.7 1.6-.7.6-1.6.6-1 0-1.6-.6-.6-.7-.6-1.5 0-.6.3-1 .3-.6 1-.9l-.9-.6q-.3-.5-.3-1 0-.9.6-1.5t1.5-.6q.9 0 1.5.6t.6 1.4q0 .6-.3 1-.2.4-.8.7Zm.6-1.6q0-.7-.5-1.1-.4-.5-1.1-.5-.7 0-1.2.5-.4.4-.4 1t.4 1q.5.5 1.2.5t1.2-.4q.4-.5.4-1Zm.2 3.5q0-.7-.5-1.1-.5-.5-1.3-.5-.7 0-1.3.5-.5.4-.5 1 0 .7.5 1.2.6.5 1.3.5.7 0 1.2-.5.6-.5.6-1.1Z"
  /><path
    fill="#3a3a3a"
    d="M519.3 440.3v7h2v.4h-4.4v-.4h2V441l-1.6.5h-.4v-.4l.2-.1 2.2-.7Zm7.8 3.4q.7.3 1 .9.4.5.4 1 0 1-.7 1.6-.7.7-1.8.7l-1.3-.2q-.7-.3-1-.6v-.4h.4q.9.7 1.9.7.9 0 1.4-.5.6-.5.6-1.2 0-.4-.3-.9-.2-.4-.8-.6-.5-.3-1-.3h-.3l-.1-.2v-.2h.7q.7 0 1.1-.5.5-.4.5-.9t-.5-1q-.5-.4-1.2-.4l-1 .2q-.4.2-.6.5l-.2.1h-.2l-.1-.2q0-.2.5-.6.7-.5 1.6-.5 1 0 1.5.6.6.5.6 1.3l-.2 1q-.3.4-.9.6Zm8-.1q-.4.7-.9 1-.5.3-1 .3-.6 0-1-.2-.5-.3-.8-1-.3-.5-.3-1 0-1 .6-1.7.5-.8 1.5-.8.6 0 1.2.4.5.4.9 1.2.3 1 .3 2.4 0 1-.3 1.7-.2.5-.7 1l-1 .7q-.7.3-1.5.3-.5 0-.8-.2-.2 0-.2-.2v-.2h.5l.5.1q1.2 0 2.1-.9 1-.9 1-2.2v-.7Zm0-.8q-.4-1.2-.9-1.6-.4-.5-1-.5-.7 0-1.1.5-.5.6-.5 1.4 0 .8.5 1.3.4.5 1 .5l.7-.1q.4-.2.7-.6l.5-1Zm4.9 3.5h.2q.3 0 .6.3.2.2.2.5 0 .4-.2.6l-.6.2h-.2l-.6-.2q-.2-.2-.2-.6 0-.3.2-.5.3-.3.6-.3Zm8.1-2.4q.6.3 1 .8.3.5.3 1 0 1-.7 1.6-.7.6-1.6.6-1 0-1.6-.6-.6-.7-.6-1.5 0-.6.3-1 .3-.6 1-.9l-.9-.6q-.3-.5-.3-1 0-.9.6-1.5t1.5-.6q.9 0 1.5.6t.6 1.4q0 .6-.3 1-.2.4-.8.7Zm.6-1.6q0-.7-.5-1.1-.4-.5-1.1-.5-.7 0-1.2.5-.4.4-.4 1t.4 1q.5.5 1.2.5t1.2-.4q.4-.5.4-1Zm.2 3.5q0-.7-.5-1.1-.5-.5-1.3-.5-.7 0-1.3.5-.5.4-.5 1 0 .7.5 1.2.6.5 1.3.5.7 0 1.2-.5.6-.5.6-1.1Zm64.4-25.4v7h2v.4l-.3.1h-4v-.4l.3-.1h1.7v-6.3l-1.6.5h-.4v-.3l.2-.1 2.2-.8Zm5.5.6v2.4l.8-.2.7-.1q1 0 1.6.6.6.7.6 1.7 0 1.2-.7 2-.7.7-1.8.7-.7 0-1.3-.3l-.8-.6-.2-.3v-.2h.4q.9.9 2 .9.8 0 1.4-.6.5-.6.5-1.6 0-.8-.5-1.3t-1.2-.5q-.8 0-1.5.4h-.5v-3.5h3.4l.2.1.1.2v.2h-3.3Zm6.8 3.8q.5-.7 1-1 .5-.3 1-.3.8 0 1.4.6.7.7.7 1.6 0 1-.6 1.7t-1.5.7q-.7 0-1.2-.4-.6-.4-.9-1.2-.4-1-.4-2.3 0-.9.4-1.7l.7-1q.5-.5 1.1-.8.6-.3 1.4-.3.5 0 .8.2l.1.2v.2h-.4l-.6-.1q-1.1 0-2 1-1 1-1 2.3v.6Zm.1.8q.3 1 .7 1.5.5.5 1.2.5.6 0 1-.5.6-.5.6-1.4 0-.7-.5-1.2t-1-.5q-.6 0-1.2.4l-.8 1.2Zm8.3.9h.2l.6.2q.2.2.2.6l-.2.6-.6.2h-.2l-.6-.2-.2-.6q0-.4.2-.6l.6-.2Zm8.8-5.2v-.3h-3.6v.7l-.2.1h-.2v-1.3h4.5v.8l-2 6.4-.1.2h-.4v-.4l2-6.2Zm64.5 7.3v6.9h2v.4l-.3.1h-4v-.4l.3-.1h1.7v-6.3l-1.6.5h-.4v-.3l.2-.1 2.2-.7Zm7.7 5.3h-3.3v-.5l2.8-4.8h1v4.9h.7v.4h-.7v1.6h.7v.4l-.3.1h-2.1v-.4l.3-.1h1v-1.6Zm0-.4V429h-.2l-2.5 4.4h2.7Zm8.1-1.7q-.4.7-.9 1-.5.4-1 .4-.6 0-1-.3-.5-.3-.8-.8-.3-.6-.3-1.2 0-1 .6-1.7.5-.7 1.5-.7.6 0 1.2.4.5.4.9 1.2.3 1 .3 2.4 0 1-.3 1.7-.2.5-.7.9l-1 .7q-.7.4-1.5.4-.5 0-.8-.2-.2-.1-.2-.3v-.1l.3-.1h.2q.2.2.5.2 1.2 0 2.1-.9 1-1 1-2.3v-.7Zm0-.8q-.4-1.2-.9-1.6-.4-.4-1-.4-.7 0-1.1.5-.5.5-.5 1.3 0 .9.5 1.4.4.5 1 .5.4 0 .7-.2l.7-.5.5-1Zm4.9 3.6h.2l.6.2.2.6-.2.6-.6.2h-.2l-.6-.2-.2-.6.2-.6.6-.2Zm8.1-2.4q.6.3 1 .8.3.5.3 1 0 .9-.7 1.5-.7.7-1.6.7-1 0-1.6-.7-.6-.6-.6-1.5 0-.5.3-1t1-.8l-.9-.6q-.3-.5-.3-1.1 0-.8.6-1.4.6-.6 1.5-.6t1.5.6q.6.6.6 1.4 0 .6-.3 1-.2.4-.8.7Zm.6-1.7q0-.6-.5-1-.4-.5-1.1-.5-.7 0-1.2.4-.4.5-.4 1.1 0 .6.4 1 .5.4 1.2.4t1.2-.4q.4-.4.4-1Zm.2 3.5q0-.6-.5-1-.5-.6-1.3-.6-.7 0-1.3.5-.5.5-.5 1.1 0 .7.5 1.2.6.5 1.3.5.7 0 1.2-.5.6-.5.6-1.2Z"
  /><path
    stroke="#e06666"
    stroke-linecap="round"
    stroke-linejoin="round"
    stroke-width="3"
    d="M801.3 430.9v7h2v.4h-4.4v-.4h2v-6.3l-1.6.5h-.4v-.4l.2-.1 2.2-.7Zm7.7 5.4h-3.3v-.6l2.8-4.7h1v4.8h.7v.4h-.7v1.7h.7v.4h-2.4v-.4h1.3v-1.6Zm0-.5v-4.3h-.2l-2.5 4.3h2.7Zm7.8-4v-.3h-3.6v.7h-.4v-1.3h4.5v.9l-2 6.3-.1.2h-.4v-.3l2-6.3Zm5.2 5.1h.2q.3 0 .6.3.2.2.2.5 0 .4-.2.6l-.6.2h-.2l-.6-.2q-.2-.2-.2-.6 0-.3.2-.5.3-.3.6-.3Zm8.1-2.4q.6.3 1 .8.3.5.3 1 0 1-.7 1.6-.7.6-1.6.6-1 0-1.6-.6-.6-.7-.6-1.5 0-.6.3-1 .3-.6 1-.9l-.9-.6q-.3-.5-.3-1 0-.9.6-1.5t1.5-.6q.9 0 1.5.6t.6 1.4q0 .6-.3 1-.2.4-.8.7Zm.6-1.6q0-.7-.5-1.1-.4-.5-1.1-.5-.7 0-1.2.5-.4.4-.4 1t.4 1q.5.5 1.2.5t1.2-.4q.4-.5.4-1Zm.2 3.5q0-.7-.5-1.1-.5-.5-1.3-.5-.7 0-1.3.5-.5.4-.5 1 0 .8.5 1.3.6.4 1.3.4.7 0 1.2-.4.6-.5.6-1.2Z"
  /><path
    fill="#3a3a3a"
    d="M801.3 430.9v7h2v.4h-4.4v-.4h2v-6.3l-1.6.5h-.4v-.4l.2-.1 2.2-.7Zm7.7 5.4h-3.3v-.6l2.8-4.7h1v4.8h.7v.4h-.7v1.7h.7v.4h-2.4v-.4h1.3v-1.6Zm0-.5v-4.3h-.2l-2.5 4.3h2.7Zm7.8-4v-.3h-3.6v.7h-.4v-1.3h4.5v.9l-2 6.3-.1.2h-.4v-.3l2-6.3Zm5.2 5.1h.2q.3 0 .6.3.2.2.2.5 0 .4-.2.6l-.6.2h-.2l-.6-.2q-.2-.2-.2-.6 0-.3.2-.5.3-.3.6-.3Zm8.1-2.4q.6.3 1 .8.3.5.3 1 0 1-.7 1.6-.7.6-1.6.6-1 0-1.6-.6-.6-.7-.6-1.5 0-.6.3-1 .3-.6 1-.9l-.9-.6q-.3-.5-.3-1 0-.9.6-1.5t1.5-.6q.9 0 1.5.6t.6 1.4q0 .6-.3 1-.2.4-.8.7Zm.6-1.6q0-.7-.5-1.1-.4-.5-1.1-.5-.7 0-1.2.5-.4.4-.4 1t.4 1q.5.5 1.2.5t1.2-.4q.4-.5.4-1Zm.2 3.5q0-.7-.5-1.1-.5-.5-1.3-.5-.7 0-1.3.5-.5.4-.5 1 0 .8.5 1.3.6.4 1.3.4.7 0 1.2-.4.6-.5.6-1.2Z"
  /><path
    fill="#bdbdbd"
    d="M468.1 657h-5q.3.5.7.8.5.3 1.3.3.7 0 1.8-.3l.6-.1q.3 0 .5.2l.1.4-.1.4-1.2.4-1.7.2q-1.5 0-2.4-.8-.8-.8-.8-2 0-1.3 1-2 .9-.9 2-.9.8 0 1.4.3l1 .5q.4.5.6 1.1l.2 1v.6Zm-1.3-1.1q-.3-.6-.7-.8-.5-.3-1.1-.3-.6 0-1 .3-.5.2-.8.8h3.6Zm4-2.1v.4l.8-.4q.4-.2.9-.2 1 0 1.7.7.4.5.4 1.4v2.2q.4 0 .6.2.2.1.2.4 0 .3-.2.4-.2.2-.6.2h-1.1q-.4 0-.6-.2-.2-.1-.2-.4 0-.3.2-.4.2-.2.6-.2v-2.3q0-.4-.3-.5-.2-.3-.8-.3-.4 0-.7.2-.3.1-.8.7v2.2h.6q.3.3.3.6t-.2.4q-.2.2-.6.2h-1.4q-.4 0-.6-.2-.2-.1-.2-.4 0-.3.3-.5l.6-.1v-3h-.6l-.2-.5q0-.3.2-.5l.6-.1h1.2Zm10.2.2.4-.2q.3 0 .4.2.2.2.2.6v.8q0 .4-.2.6-.1.2-.4.2l-.4-.2-.2-.4q0-.3-.3-.5-.5-.3-1.3-.3t-1.3.5q-.5.5-.5 1.3 0 .7.5 1 .5.5 1.6.5.8 0 1.2-.2.3 0 .6-.3l.4-.2q.3 0 .4.2l.2.4q0 .4-.5.8-.8.5-2.4.5-1.4 0-2.2-.6-1-.8-1-2.1t.8-2.1q.9-.9 2.3-.9l.9.1.8.3Zm8.2 2.5q0 .7-.4 1.4-.3.6-1.1 1t-1.6.4q-.8 0-1.6-.4-.7-.4-1.1-1-.4-.7-.4-1.4t.4-1.4q.4-.7 1.1-1 .8-.5 1.6-.5t1.6.4q.8.4 1.1 1.1.4.7.4 1.4Zm-1.2 0q0-.5-.4-1-.6-.7-1.5-.7-.8 0-1.4.6-.5.5-.5 1.2 0 .5.6 1 .5.5 1.3.5t1.4-.5q.5-.5.5-1Zm7.9-5v6.4h.2q.4 0 .6.2.2.1.2.4 0 .3-.2.4-.2.2-.6.2h-1.4v-.3q-.4.3-.9.4h-1q-1.3 0-2.1-.7-.8-.8-.8-2 0-1.1.8-2 .9-.9 2.1-.9l1 .2.9.4v-1.5h-.2q-.5 0-.7-.2l-.1-.4.1-.4q.2-.2.7-.2h1.4Zm-1.2 5.1q0-.8-.6-1.3-.5-.5-1.2-.5-.8 0-1.3.5-.5.6-.5 1.3 0 .6.4 1 .5.5 1.4.5.8 0 1.3-.4.5-.5.5-1.1Zm8.4.5h-5l.7.7q.5.3 1.3.3.7 0 1.8-.3l.6-.1q.3 0 .5.2l.1.4-.1.4-1.2.4-1.7.2q-1.5 0-2.4-.8-.8-.8-.8-2 0-1.3 1-2 .9-.9 2-.9.8 0 1.4.3l1 .5q.4.5.6 1.1l.2 1v.6Zm-1.3-1.3q-.3-.5-.7-.7-.5-.3-1.1-.3-.6 0-1 .3-.5.2-.8.8h3.6Zm5-2v.7l1.2-.7.9-.2q.6 0 1.1.5.4.3.4.5 0 .3-.2.5l-.4.2q-.3 0-.5-.2l-.4-.3q-.3 0-.8.3l-1.2 1v1.8h1.7q.4 0 .6.2.2.1.2.4 0 .3-.2.4-.2.2-.6.2h-3.7q-.4 0-.6-.2-.2-.1-.2-.4 0-.3.2-.4.2-.2.6-.2h.8v-3h-1.1l-.2-.5q0-.3.2-.5l.6-.1h1.7ZM41 405.9l-.3.6v.6q0 .8.2 1.2l.2.1.2-.2.2-.8.3-1.7.7-1q.4-.3.9-.3.6 0 1 .6.7.8.7 2l-.1 1q0 .5-.3.9l.2.2v.2l-.2.4q-.2.2-.6.2h-.4q-.4 0-.6-.2l-.2-.4.1-.4.4-.2.4-.7v-.9q0-.8-.2-1.3 0-.2-.2-.2-.3 0-.4.3-.2.3-.3 1.3-.1 1.5-.6 2-.4.4-1 .4-.7 0-1-.5-.7-.7-.7-2v-.7l.3-.8v-.2l-.1-.2.2-.4.6-.1h.8q.3.2.3.6l-.1.3-.4.3Zm3.2-4.3h2v-.7q0-.4.2-.6.1-.2.4-.2.3 0 .4.2.2.2.2.6v2.2q0 .4-.2.6-.1.2-.4.2-.3 0-.4-.2-.2-.2-.2-.6v-.2h-5.4v.2q0 .4-.2.6l-.4.2q-.3 0-.5-.2l-.1-.6v-1.5h.4l-.4-.8-.2-1q0-1.2.9-2 .8-1 1.9-1 1.2 0 2 1.1.6.9.6 2l-.2.9q0 .4-.4.8Zm-2-3.5-.7.2q-.4.2-.6.6-.3.4-.3 1 0 .9.7 1.4.5.3.9.3.5 0 1-.5.4-.5.4-1.2 0-.8-.5-1.3-.4-.5-1-.5Zm.7-8v5q.4-.2.7-.7.3-.5.3-1.3 0-.7-.3-1.8l-.1-.6.2-.4q.1-.2.4-.2l.4.2q.2.2.4 1.2l.2 1.7q0 1.4-.8 2.3-.8.9-2 .9-1.3 0-2-1-.9-.9-.9-2.1 0-.7.3-1.4.2-.6.5-.9l1.1-.7 1-.2h.6Zm-1.3 1.4q-.5.2-.7.7-.3.4-.3 1 0 .7.3 1.1.2.5.7.7v-3.5ZM43 383v5q.4-.2.7-.7.3-.5.3-1.3 0-.7-.3-1.8l-.1-.6.2-.4q.1-.2.4-.2l.4.2q.2.2.4 1.2l.2 1.7q0 1.4-.8 2.3-.8.9-2 .9-1.3 0-2-1-.9-.9-.9-2.1 0-.7.3-1.4.2-.6.5-.9l1.1-.7 1-.2h.6Zm-1.3 1.4q-.5.2-.7.7-.3.4-.3 1 0 .7.3 1.1.2.5.7.7v-3.5Zm-4.3-8.1h6.4v-.2q0-.4.2-.6.1-.2.4-.2.3 0 .4.2.2.2.2.6v1.4h-.3q.3.4.4.9v.9q0 1.3-.7 2.2-.8.8-2 .8t-2-.9q-.9-.8-.9-2 0-.6.2-1 .1-.5.4-.9h-1.5v.2q0 .4-.2.6-.1.2-.4.2-.3 0-.4-.2-.2-.2-.2-.6v-1.4Zm5.1 1.2q-.8 0-1.3.5t-.5 1.3q0 .7.5 1.3.5.5 1.3.5.6 0 1-.5.5-.4.5-1.3 0-.8-.4-1.3-.5-.5-1.1-.5Zm-.4-12q-1 0-2.1-.4-.8-.2-1.7-.7l-.8-.6-.2-.4q0-.3.2-.4.1-.2.4-.2l.4.1q1 .7 2 1l1.8.2q1 0 1.8-.2 1-.3 2-1l.4-.1.4.2q.2.1.2.4l-.2.4-.9.6q-1 .6-1.7.8-1 .3-2 .3Zm-2.4-5.6h.3l-.4-.5v-1.1l.4-.5-.4-.6v-.7q0-.6.3-1 .4-.6 1.2-.6h2.7q0-.4.2-.6l.4-.1.4.1q.2.2.2.7v1.1h-4.2v.8l.6.5h2.4q0-.4.2-.6l.4-.1.4.1q.2.2.2.7v1.1h-3.8l-.4.1v.7l.6.5h2.4q0-.4.2-.5.1-.2.4-.2.3 0 .4.2.2.1.2.6v1q0 .5-.2.7-.1.2-.4.2-.3 0-.4-.2-.2-.2-.2-.6h-3v.6l-.5.2q-.3 0-.5-.2l-.1-.7v-1ZM41 350l-.3.6v.6q0 .8.2 1.2l.2.1.2-.2.2-.8.3-1.7.7-1q.4-.3.9-.3.6 0 1 .6.7.8.7 2l-.1 1q0 .5-.3.9l.2.2v.2l-.2.4q-.2.2-.6.2h-.4q-.4 0-.6-.2l-.2-.4.1-.4.4-.2.4-.7v-.9q0-.8-.2-1.3 0-.2-.2-.2-.3 0-.4.3-.2.3-.3 1.3-.1 1.5-.6 2-.4.4-1 .4-.7 0-1-.5-.7-.7-.7-2v-.7l.3-.8v-.2l-.1-.2.2-.4.6-.1h.8q.3.2.3.6l-.1.3-.4.3Zm1-6.3q1 0 2 .4.8.2 1.8.8.7.3.8.5l.2.4q0 .3-.2.5l-.4.1-.4-.1-2-1-1.8-.2q-1 0-1.9.3-.9.3-1.9.9l-.4.1-.4-.1q-.2-.2-.2-.5l.1-.3q.2-.3 1-.7l1.7-.7q1-.4 2-.4Z"
  /><path
    fill="#fff"
    d="M86.8 595.8v1.2q0 1.6-.8 2.6-.6.7-1.5.7l-.8-.2-.7-.5-.3-.6-.3-.8q-.2-.5-.2-1.2v-1.2q0-1.6.8-2.5.6-.7 1.5-.7l.8.1.7.5.3.7.3.7q.2.5.2 1.2Zm-.5 0-.2-1.2-.5-1q-.1-.2-.4-.3-.3-.2-.7-.2-.8 0-1.3.8-.5.9-.5 2v1q0 .8.2 1.4l.5 1 .4.3q.3.2.7.2.8 0 1.3-.9.5-.8.5-2v-1ZM70.7 475.2v7h2v.4h-4.4v-.3l.3-.1h1.7v-6.3l-1.6.5h-.4v-.4h.2l2.2-.8Zm9 3.2v1.2q0 1.6-.7 2.5-.6.8-1.5.8l-.8-.2-.7-.5-.3-.6-.3-.8q-.2-.5-.2-1.2v-1.2q0-1.6.8-2.5.6-.8 1.5-.8l.8.2.7.5.3.6.3.8q.2.5.2 1.2Zm-.4 0-.2-1.2-.5-1q-.1-.2-.4-.3-.3-.3-.7-.3-.8 0-1.3.9-.5.8-.5 2v1l.2 1.4.5.9q.1.2.4.3.3.3.7.3.8 0 1.3-.9.5-.8.5-2v-1Zm7.5 0v1.2q0 1.6-.8 2.5-.6.8-1.5.8l-.8-.2-.7-.5-.3-.6-.3-.8q-.2-.5-.2-1.2v-1.2q0-1.6.8-2.5.6-.8 1.5-.8l.8.2.7.5.3.6.3.8q.2.5.2 1.2Zm-.5 0-.2-1.2-.5-1q-.1-.2-.4-.3-.3-.3-.7-.3-.8 0-1.3.9-.5.8-.5 2v1l.2 1.4.5.9q.1.2.4.3.3.3.7.3.8 0 1.3-.9.5-.8.5-2v-1ZM68.4 364.8h3.8v-.5h.4v1H68v-.8l3-2.7.8-1 .4-.5v-.5q0-.6-.5-1-.5-.6-1.2-.6-.6 0-1.1.4-.5.4-.7 1v.1h-.4v-.2l.2-.7q.4-.5.9-.8.5-.3 1.1-.3 1 0 1.6.7.7.6.7 1.4l-.2.6q0 .3-.3.7l-1 1-2.8 2.6Zm11.4-3.8v1.2q0 1.6-.8 2.5-.6.7-1.5.7l-.8-.1-.7-.5-.3-.6-.3-.8q-.2-.5-.2-1.2V361q0-1.6.8-2.5.6-.8 1.5-.8l.8.2.7.5.3.6.3.8q.2.5.2 1.2Zm-.5 0q0-.7-.2-1.3l-.5-1-.4-.3q-.3-.2-.7-.2-.8 0-1.3.9-.5.8-.5 2v1q0 .7.2 1.3l.5 1q.1.2.4.3.3.2.7.2.8 0 1.3-.8.5-.9.5-2v-1Zm7.5 0v1.2q0 1.6-.8 2.5-.6.7-1.5.7l-.8-.1-.7-.5-.3-.6-.3-.8q-.2-.5-.2-1.2V361q0-1.6.8-2.5.6-.8 1.5-.8l.8.2.7.5.3.6.3.8q.2.5.2 1.2Zm-.5 0q0-.7-.2-1.3l-.5-1-.4-.3q-.3-.2-.7-.2-.8 0-1.3.9-.5.8-.5 2v1q0 .7.2 1.3l.5 1q.1.2.4.3.3.2.7.2.8 0 1.3-.8.5-.9.5-2v-1ZM71.5 243.8q.7.3 1 .9.4.5.4 1 0 1-.7 1.6-.7.7-1.8.7-.6 0-1.3-.3-.7-.2-1-.5v-.4h.4q.9.7 1.9.7.9 0 1.4-.5.6-.6.6-1.2 0-.4-.3-.9-.2-.4-.8-.6-.5-.3-1-.3H70l-.1-.2v-.2h.7q.7 0 1.1-.5.5-.4.5-.9t-.5-1q-.5-.4-1.2-.4l-1 .2-.6.5-.2.1h-.2l-.1-.2q0-.2.5-.6.7-.5 1.6-.5 1 0 1.5.6.7.5.7 1.3 0 .5-.3 1-.3.4-.9.6Zm8.3-.2v1.2q0 1.6-.8 2.5-.6.7-1.5.7l-.8-.2q-.4-.1-.7-.4l-.3-.7-.3-.8q-.2-.5-.2-1.1v-1.2q0-1.6.8-2.6.6-.7 1.5-.7l.8.2.7.5.3.6.3.8q.2.5.2 1.2Zm-.5 0q0-.7-.2-1.3l-.5-1q-.1-.2-.4-.3-.3-.2-.7-.2-.8 0-1.3.8-.5.9-.5 2v1.1q0 .7.2 1.3l.5 1q.1.2.4.3.3.2.7.2.8 0 1.3-.8.5-.9.5-2v-1Zm7.5 0v1.2q0 1.6-.8 2.5-.6.7-1.5.7l-.8-.2q-.4-.1-.7-.4l-.3-.7-.3-.8q-.2-.5-.2-1.1v-1.2q0-1.6.8-2.6.6-.7 1.5-.7l.8.2.7.5.3.6.3.8q.2.5.2 1.2Zm-.5 0q0-.7-.2-1.3l-.5-1q-.1-.2-.4-.3-.3-.2-.7-.2-.8 0-1.3.8-.5.9-.5 2v1.1q0 .7.2 1.3l.5 1q.1.2.4.3.3.2.7.2.8 0 1.3-.8.5-.9.5-2v-1ZM71.4 128.4h-3.3v-.6L71 123h1v4.8h.7v.4H72v1.6h.7v.5h-2.4v-.4h1.3v-1.6Zm0-.5v-4.3h-.2l-2.5 4.3h2.7Zm8.4-1.8v1.3q0 1.5-.8 2.5-.6.7-1.5.7l-.8-.2-.7-.5-.3-.6-.3-.8q-.2-.5-.2-1.1V126q0-1.6.8-2.5.6-.7 1.5-.7l.8.2q.4.1.7.4l.3.7.3.7q.2.5.2 1.2Zm-.5.1q0-.7-.2-1.3l-.5-1q-.1-.2-.4-.3-.3-.2-.7-.2-.8 0-1.3.8-.5.9-.5 2v1q0 .8.2 1.4l.5 1 .4.3q.3.2.7.2.8 0 1.3-.8.5-.9.5-2v-1.1Zm7.5 0v1.2q0 1.5-.8 2.5-.6.7-1.5.7l-.8-.2-.7-.5-.3-.6-.3-.8q-.2-.5-.2-1.1V126q0-1.6.8-2.5.6-.7 1.5-.7l.8.2q.4.1.7.4l.3.7.3.7q.2.5.2 1.2Zm-.5 0q0-.7-.2-1.3l-.5-1q-.1-.2-.4-.3-.3-.2-.7-.2-.8 0-1.3.8-.5.9-.5 2v1q0 .8.2 1.4l.5 1 .4.3q.3.2.7.2.8 0 1.3-.8.5-.9.5-2v-1.1Zm41 486.9v-.7q-1 .9-2.3.9-.9 0-1.4-.4-.5-.5-.5-1.2t.7-1.2q.6-.5 2-.5h.6l1 .1v-.8q0-.4-.5-.7-.3-.3-1-.3t-1.7.4h-.4v-.4l.6-.2 1.4-.3q1 0 1.5.5t.5 1v3.3h.9v.4l-.2.1h-1.2Zm0-2.5h-.7l-.8-.1q-1.1 0-1.7.4-.5.4-.5.8 0 .5.4.8.3.3 1 .3l1.2-.2 1.1-.9v-1Zm6 2.5h-.8l-2-4.6h-.8v-.4h2.4v.4H131l1.8 4.1h.2l1.8-4h-.8l-.3-.1v-.4h2.4v.4h-.8l-2 4.6Zm6.8-7.6v1.3h-.7v-1.3h.7Zm0 2.5v4.6h2.2l.1.3v.1l-.3.1h-4.6l-.1-.3v-.1l.3-.1h2v-4h-1.5l-.2-.1-.1-.2v-.2h2.3Zm6.5.5v4.1h2.4v.4l-.3.1h-4.1v-.4l.3-.1h1.2v-4h-1l-.4-.1v-.4h1.3v-.8q0-.6.6-1 .5-.6 1.3-.6l1.5.2h.4v.4l-.2.1h-.2l-1.5-.2q-.6 0-1 .4-.3.3-.3.7v.7h2.3l.2.1.1.2v.2h-2.7Zm10 2.2h-5q0 1 .7 1.5.7.6 1.7.6l1.2-.2 1-.5h.2v.4q-.3.3-1 .5-.7.3-1.5.3-1.3 0-2.1-.8-.9-.9-.9-2t.8-1.9q.8-.8 2-.8t2 .8q.8.8.8 2Zm-.5-.5q-.2-.8-.8-1.3-.6-.5-1.5-.5t-1.5.5q-.6.5-.8 1.3h4.6Zm3.2-2.2v.8q.5-.6 1-.7.4-.3.9-.3t1 .3l.6.6q.3.4.3.8v3.1h.6l.1.3v.1l-.3.1h-1.6v-.4l.3-.1h.4v-3q0-.5-.4-.9t-1-.4q-.5 0-.9.3-.3.1-1 1v3h.8v.4l-.2.1H158v-.4l.3-.1h.5v-4h-.4l-.3-.1v-.4h1.3Zm10.6.5v-.1l.1-.3h.4v1.6l-.2.1h-.2v-.3q0-.4-.6-.8-.5-.4-1.4-.4-1 0-1.6.7-.6.7-.6 1.6 0 1 .6 1.6.6.6 1.6.6l1.2-.2q.6-.2 1-.7l.3-.1h.2v.2q0 .3-.6.7-1 .6-2 .6-1.3 0-2-.8-.8-.7-.8-1.9t.8-2q.8-.8 2-.8 1 0 1.8.7Zm13.6-.1v-.3h.4l.1.3v1.1h-.4v-.2q-.1-.4-.4-.6-.5-.4-1.3-.4t-1.3.4q-.3.2-.3.5 0 .4.4.6.2.2 1 .3 1 0 1.5.2t.8.6q.3.4.3.8 0 .6-.6 1.1-.6.5-1.8.5-1.2 0-1.9-.6v.3h-.1l-.2.1h-.1v-1.6h.3l.1.2.1.4q.2.3.7.5.4.2 1 .2 1 0 1.5-.4.5-.3.5-.7 0-.5-.5-.7-.5-.3-1.4-.4-.9-.1-1.3-.3-.4-.1-.6-.4-.2-.3-.2-.7 0-.6.6-1t1.5-.4q1 0 1.6.6Zm6.4.9q.6.3 1 .8.3.5.3 1 0 .9-.7 1.5-.7.7-1.6.7-1 0-1.6-.7-.6-.6-.6-1.5 0-.5.3-1t.9-.8q-.5-.3-.8-.7-.3-.4-.3-1 0-.8.6-1.4.6-.6 1.5-.6t1.5.6q.6.6.6 1.4 0 .6-.3 1t-.8.7Zm.6-1.7q0-.6-.5-1-.4-.5-1.1-.5-.7 0-1.2.4-.4.5-.4 1.1 0 .6.4 1 .5.4 1.2.4t1.2-.4q.4-.4.4-1Zm.2 3.5q0-.6-.5-1-.5-.6-1.3-.6-.7 0-1.3.5-.5.5-.5 1.1 0 .7.5 1.2.6.5 1.3.5.7 0 1.2-.5.6-.5.6-1.2Zm41.7-2.6v-.4h.4v1.6l-.2.1h-.2v-.3q0-.4-.6-.8-.5-.4-1.4-.4-1 0-1.6.7-.6.7-.6 1.6 0 1 .6 1.6.7.6 1.7.6l1.1-.2q.6-.2 1-.7l.3-.1h.2v.2q0 .3-.5.7-1 .6-2.2.6-1.2 0-2-.8-.7-.7-.7-1.9t.8-2q.8-.8 2-.8 1.1 0 1.9.7Zm5.6-3v1.3h-.7v-1.3h.7Zm0 3h-3l-.1-.2v-.2h3.7v5.3q0 .7-.2 1-.3.5-.8.8l-.8.2H235l-.3-.1v-.4h1.8q.7 0 1-.4.5-.4.5-1v-5Zm6.6 2 2.3 2.1h.3v.1l.1.1v.2l-.3.1h-1.8l-.1-.3v-.1l.3-.1h.8l-1.9-1.8-1.9 1.8h1.1v.4l-.3.1h-1.8l-.1-.3.1-.2h.3l2.3-2.2-2-1.9h-.4v-.4h1.9v.4h-.8l1.6 1.6 1.7-1.6h-1v-.4h2v.4h-.3l-2 2Zm7-4.8v6.9h2.2v.4l-.3.1h-4.6l-.1-.3v-.1l.3-.1h2v-6.4h-1.7v-.4h2.2Zm16.4 5h-5q0 1 .8 1.5.6.6 1.6.6l1.2-.2 1-.5h.3v.4q-.3.3-1 .5-.7.3-1.5.3-1.3 0-2.1-.8-.8-.9-.8-2t.8-1.9q.8-.8 2-.8 1.1 0 2 .8.7.8.7 2Zm-.5-.5q-.2-.8-.8-1.3-.6-.5-1.5-.5-.8 0-1.5.5-.6.5-.7 1.3h4.5Zm3.4-.2q.4-.7.9-1 .5-.3 1-.3.8 0 1.5.6.6.7.6 1.6 0 1-.6 1.7-.5.7-1.5.7-.7 0-1.2-.4-.6-.4-.9-1.2-.4-1-.4-2.3 0-.9.4-1.7l.7-1q.5-.5 1.1-.8.6-.3 1.4-.3.5 0 .8.2l.1.2v.2h-.4l-.6-.1q-1.1 0-2 1-1 1-1 2.3v.6Zm0 .8q.3 1 .7 1.5.5.5 1.2.5.6 0 1.1-.5.5-.5.5-1.4 0-.7-.5-1.2t-1-.5q-.6 0-1.2.4l-.7 1.2Zm51.9-2.3v-.4h.4v1.6l-.2.1h-.1l-.1-.3q0-.4-.6-.8-.5-.4-1.3-.4-1.1 0-1.7.7-.6.7-.6 1.6 0 1 .7 1.6.6.6 1.6.6l1.1-.2q.6-.2 1.1-.7l.2-.1h.2v.2q0 .3-.5.7-1 .6-2.2.6-1.1 0-2-.8-.7-.7-.7-1.9t.8-2q.8-.8 2-.8 1.1 0 1.9.7Zm6.6 4.6h-.6l-1-3.2-1.1 3.2h-.7l-1-4.6h-.5v-.4h1.9v.4h-.9l.9 4 1-3.2h.6l1 3.1 1-3.9h-1l-.1-.2v-.2h1.9l.1.2v.2h-.6l-1 4.6Zm8-2.4h-5q.1 1 .8 1.5.6.6 1.6.6l1.2-.2 1-.5h.3l.1.2v.2l-1 .5q-.8.3-1.6.3-1.2 0-2-.8-1-.9-1-2t.9-1.9q.8-.8 2-.8 1.1 0 2 .8.7.8.7 2Zm-.5-.5q-.1-.8-.8-1.3-.6-.5-1.5-.5-.8 0-1.4.5-.7.5-.8 1.3h4.5Zm3-4.5v3.3q.9-1.1 2.1-1.1 1 0 1.9.7.7.8.7 2 0 1-.7 1.9-.8.8-1.9.8-1.3 0-2.1-1.2v1h-1.4l-.1-.3v-.1l.3-.1h.7v-6.4h-.9l-.1-.2v-.2h1.5Zm4.2 4.9q0-1-.6-1.6-.6-.6-1.5-.6-.8 0-1.5.6-.6.6-.6 1.6t.6 1.6q.7.6 1.5.6.9 0 1.5-.6.6-.7.6-1.6Zm2.8-2.6v1q.4-.6 1-.9.4-.3 1.1-.3.7 0 1.3.4.7.3 1 1 .3.5.3 1.2 0 1-.7 1.8-.8.8-1.9.8-1.3 0-2.1-1.1v3h1.4v.4h-2.8l-.1-.2v-.2h1v-6.4h-.9l-.1-.2v-.2h1.5Zm4.2 2.4q0-.8-.6-1.4-.6-.6-1.5-.6t-1.5.6q-.6.6-.6 1.4 0 .9.6 1.5t1.5.6q.9 0 1.5-.6t.6-1.5Zm9.4-2.4v.5q.6-.6 1.3-.6l.6.2q.3.2.5.6l.6-.6q.4-.3.7-.3.6 0 .9.4.4.4.4 1v3.4h.7v.4l-.3.1h-.9v-3.9q0-.4-.2-.6-.3-.3-.5-.3-.3 0-.6.3l-.7.8v3.2h.7v.4l-.3.1h-.9v-3.8q0-.4-.2-.7-.3-.3-.5-.3l-.6.2-.7.9v3.2h.7v.4l-.3.1h-1.6v-.4l.3-.1h.4v-4h-.4l-.3-.1v-.4h1.2Zm7.8 2q.4-.7.9-1 .5-.3 1-.3.9 0 1.5.6.6.7.6 1.6 0 1-.6 1.7-.5.7-1.5.7-.7 0-1.2-.4-.6-.4-.9-1.2-.4-1-.4-2.3 0-.9.4-1.7l.7-1q.5-.5 1.1-.8.7-.3 1.4-.3.5 0 .8.2.2 0 .2.2l-.1.2h-.4l-.5-.1q-1.2 0-2.1 1-1 1-1 2.3v.6Zm0 .8q.3 1 .8 1.5.4.5 1.1.5.7 0 1.1-.5.5-.5.5-1.4 0-.7-.5-1.2t-1-.5q-.6 0-1.1.4-.4.4-.8 1.2Zm47.6-2.8v.5q.6-.6 1.3-.6l.6.2q.3.2.5.6.3-.4.7-.6.3-.3.7-.3.5 0 .8.4.4.4.4 1v3.4h.7v.4l-.3.1h-.9v-3.9q0-.4-.2-.6-.2-.3-.5-.3t-.6.3l-.7.8v3.2h.7v.4l-.3.1h-.9v-3.8q0-.4-.2-.7-.2-.3-.5-.3t-.5.2l-.8.9v3.2h.7v.4l-.3.1h-1.6v-.4l.3-.1h.4v-4h-.4l-.3-.1v-.4h1.2Zm12 2.6q0 1-.8 1.9-.8.8-2 .8-1.1 0-2-.8-.7-.8-.7-2 0-1 .8-1.9.8-.8 2-.8 1 0 1.9.8.8.8.8 2Zm-.5 0q0-1-.7-1.6-.6-.6-1.6-.6-.9 0-1.6.6-.6.6-.6 1.6 0 .9.6 1.5.7.7 1.6.7 1 0 1.6-.7.7-.6.7-1.5Zm6.9-2.6v.5l-3.7 4.1h3.3v-.7l.1-.2.2-.1h.2v1.5H430v-.4l3.7-4.2h-3v.7l-.1.2-.2.1h-.2V608h4.2Zm5.6-2.5v1.3h-.8v-1.3h.8Zm0 3h-3.2v-.4h3.7v5.3q0 .7-.3 1-.2.5-.8.8-.3.2-.8.2h-1.6l-.2-.1-.1-.2v-.2h2q.6 0 1-.4t.4-1v-5Zm4.4-.5v1q.4-.6 1-.9.4-.3 1.1-.3.8 0 1.4.4.6.3 1 1 .3.5.3 1.2 0 1-.8 1.8t-1.9.8q-1.3 0-2.1-1.1v3h1.4l.1.2v.2h-2.9v-.4h.9v-6.4h-.9v-.4h1.4Zm4.3 2.4q0-.8-.7-1.4-.6-.6-1.5-.6t-1.5.6q-.6.6-.6 1.4 0 .9.6 1.5t1.5.6q1 0 1.5-.6.7-.6.7-1.5Zm7.2.3h-5q.1 1 .8 1.5.7.6 1.6.6l1.2-.2 1-.5h.3l.1.2v.2l-1 .5q-.8.3-1.6.3-1.2 0-2-.8-1-.9-1-2t.9-1.9q.8-.8 2-.8t2 .8q.7.8.7 2Zm-.5-.5q-.1-.8-.8-1.3-.6-.5-1.4-.5-.9 0-1.5.5-.7.5-.8 1.3h4.5Zm6.5-1.3v-.9h1.1l.3.1v.4h-.9v5l-.2.8-.5.6-.6.3q-.3.2-.7.2h-1.4l-.2-.1-.1-.2v-.2h1.7q.4 0 .8-.3l.6-.6v-2.1q-.7 1-2 1-1 0-1.7-.7t-.7-1.8q0-1 .7-1.8t1.8-.8q1.2 0 2 1.1Zm0 1.5q0-.9-.6-1.5-.6-.5-1.4-.5-.8 0-1.4.6-.6.6-.6 1.4 0 .9.6 1.5t1.4.6q.8 0 1.4-.6.6-.6.6-1.5Zm38.3-1.9v-.4h.4l.1.3v1.3l-.2.1h-.2v-.3q-.1-.4-.6-.8t-1.4-.4q-1.1 0-1.7.7-.5.7-.5 1.6 0 1 .6 1.6.6.6 1.6.6l1.2-.2q.6-.2 1-.7l.3-.1h.1l.1.2q0 .3-.6.7-1 .6-2.1.6-1.2 0-2-.8-.7-.7-.7-1.9t.7-2q.8-.8 2-.8 1.1 0 2 .7Zm5.7-3v1.3h-.8v-1.3h.8Zm0 3h-3.2v-.4h3.7v5.3q0 .7-.3 1-.2.5-.7.8-.4.2-.9.2h-1.6l-.2-.1v-.4h1.8q.6 0 1-.4t.4-1v-5Zm4.4-.5v1q.4-.6 1-.9.4-.3 1.1-.3.8 0 1.4.4.6.3 1 1 .3.5.3 1.2 0 1-.8 1.8-.7.8-1.9.8-1.3 0-2-1.1v3h1.3l.1.2v.2h-3v-.4h1v-6.4h-.9v-.4h1.4Zm4.3 2.4q0-.8-.7-1.4-.6-.6-1.5-.6t-1.5.6q-.6.6-.6 1.4 0 .9.6 1.5t1.5.6q1 0 1.5-.6.7-.6.7-1.5Zm7.2.3h-5q.1 1 .8 1.5.7.6 1.7.6l1.1-.2 1-.5h.4v.4q-.3.3-1 .5-.8.3-1.5.3-1.3 0-2.1-.8-.9-.9-.9-2t.8-1.9q.8-.8 2-.8t2 .8q.7.8.7 2Zm-.5-.5q-.1-.8-.7-1.3-.7-.5-1.5-.5-.9 0-1.5.5t-.8 1.3h4.5Zm6.5-1.3v-.9h1.2l.2.1v.4h-.9v5l-.2.8-.5.6-.6.3q-.2.2-.7.2h-1.4l-.2-.1-.1-.2v-.2h1.7q.5 0 .8-.3.4-.2.6-.6l.1-.6v-1.5q-.8 1-2 1-1 0-1.8-.7-.7-.7-.7-1.8 0-1 .7-1.8.8-.8 1.8-.8 1.2 0 2 1.1Zm0 1.5q0-.9-.6-1.5-.6-.5-1.4-.5-.8 0-1.4.6-.6.6-.6 1.4 0 .9.6 1.5t1.4.6q.8 0 1.4-.6.6-.6.6-1.5Zm5.6-4.7v6.9h2.2v.4l-.3.1h-4.6v-.4l.3-.1h2v-6.4H531v-.4h2.3Zm7-.2v1.3h-.7v-1.3h.7Zm0 2.5v4.6h2.2v.4l-.2.1h-4.7v-.4l.3-.1h2v-4h-1.5l-.3-.1v-.4h2.3Zm14.7 3h-3.3v-.5l2.7-4.8h1v4.9h.7l.1.2v.2h-.7v1.6h.5l.1.3v.1l-.3.1h-2.1v-.4l.3-.1h.9V611Zm0-.4v-4.4h-.3l-2.5 4.4h2.8Zm7 .4h-3.3v-.5l2.7-4.8h1v4.9h.7l.1.2v.2h-.7v1.6h.5l.1.3v.1l-.3.1h-2.1v-.4l.3-.1h.9V611Zm0-.4v-4.4h-.3l-2.5 4.4h2.8Zm7 .4h-3.3v-.5l2.7-4.8h1v4.9h.7l.1.2v.2h-.7v1.6h.5l.1.3v.1l-.3.1h-2.1v-.4l.3-.1h.9V611Zm0-.4v-4.4h-.3l-2.5 4.4h2.8Zm25-2.1v-.4h.5v1.6l-.2.1h-.2v-.3q-.1-.4-.6-.8t-1.4-.4q-1.1 0-1.7.7-.5.7-.5 1.6 0 1 .6 1.6.6.6 1.6.6l1.2-.2q.6-.2 1-.7l.3-.1h.1l.1.2q0 .3-.6.7-1 .6-2.1.6-1.2 0-2-.8-.7-.7-.7-1.9t.8-2q.7-.8 2-.8 1 0 1.8.7Zm5.7-3v1.3h-.7v-1.3h.7Zm0 3h-3.2v-.4h3.7v5.3q0 .7-.3 1-.2.5-.7.8-.4.2-.9.2h-1.5l-.3-.1v-.4h1.8q.6 0 1-.4t.4-1v-5Zm4.4-.5v1q.5-.6 1-.9.5-.3 1.1-.3.8 0 1.4.4.6.3 1 1 .3.5.3 1.2 0 1-.8 1.8-.7.8-1.8.8-1.4 0-2.2-1.1v3h1.5v.4h-2.9v-.4h.9v-6.4h-.9v-.4h1.4Zm4.3 2.4q0-.8-.6-1.4-.6-.6-1.5-.6-1 0-1.6.6-.6.6-.6 1.4 0 .9.6 1.5.7.6 1.6.6.8 0 1.5-.6.6-.6.6-1.5Zm7.2.3h-5q.1 1 .8 1.5.7.6 1.7.6l1.1-.2 1-.5h.4v.4q-.3.3-1 .5-.8.3-1.5.3-1.3 0-2.1-.8-.9-.9-.9-2t.8-1.9q.8-.8 2-.8t2 .8q.8.8.7 2Zm-.5-.5q-.1-.8-.7-1.3-.7-.5-1.5-.5-.9 0-1.5.5t-.8 1.3h4.5Zm6.5-1.3v-.9h1.2l.2.1.1.2v.2h-1v5l-.2.8q-.1.3-.5.6l-.6.3q-.2.2-.7.2h-1.4l-.2-.1v-.4h1.5q.5 0 .8-.3.4-.2.6-.6l.1-.6v-1.5q-.8 1-2 1-1 0-1.8-.7-.7-.7-.7-1.8 0-1 .7-1.8.8-.8 1.8-.8 1.2 0 2 1.1Zm0 1.5q0-.9-.6-1.5-.6-.5-1.4-.5-.8 0-1.4.6-.6.6-.6 1.4 0 .9.6 1.5t1.4.6q.8 0 1.4-.6.6-.6.6-1.5Zm5.6-4.7v6.9h2.2l.1.3v.1l-.3.1h-4.7v-.4l.3-.1h2v-6.4H625l-.1-.2v-.2h2.3Zm7-.2v1.3h-.7v-1.3h.7Zm0 2.5v4.6h2.2l.1.3v.1l-.3.1h-4.6l-.1-.3v-.1l.3-.1h2v-4h-1.5l-.3-.1v-.4h2.3Zm14.7 3h-3.3v-.5l2.8-4.8h1v4.9h.7v.4h-.7v1.6h.7v.4l-.3.1h-2.1v-.4l.3-.1h.9V611Zm0-.4v-4.4h-.3l-2.5 4.4h2.8Zm7 .4h-3.3v-.5l2.8-4.8h1v4.9h.7v.4h-.7v1.6h.7v.4l-.3.1h-2.1v-.4l.3-.1h.9V611Zm0-.4v-4.4h-.3l-2.5 4.4h2.8Zm7 .4h-3.3v-.5l2.8-4.8h1v4.9h.7v.4h-.7v1.6h.7v.4l-.3.1h-2.1v-.4l.3-.1h.9V611Zm0-.4v-4.4h-.3l-2.5 4.4h2.8Zm-42.6 13.8 2.3 2.2h.2l.2.1v.3l-.3.1h-1.9v-.4l.3-.1h.8l-2-1.8-1.8 1.8h1l.1.3v.1l-.3.1H617v-.3l.1-.2h.3l2.2-2.2-2-1.9h-.3v-.4h1.9v.4h-.9l1.7 1.6 1.7-1.6h-.9v-.4h1.9v.3l-.1.1h-.3l-2 2Zm6.7 2.7-2.3-4.6h-.4v-.4h2v.4h-1l2 4 2-4h-1v-.4h1.9v.4h-.4l-3.1 6.4h1v.4h-3.4v-.4h1.8l1-1.8Zm5.1-7.4v3.3q1-1.1 2.2-1.1 1 0 1.8.7.8.8.8 2 0 1-.8 1.9-.8.8-1.8.8-1.3 0-2.2-1.2v1h-1.4v-.4l.3-.1h.6v-6.4h-.9v-.4h1.4Zm4.3 4.9q0-1-.7-1.6-.6-.6-1.4-.6-.9 0-1.5.6-.7.6-.7 1.6t.7 1.6q.6.6 1.5.6.8 0 1.4-.6.7-.7.7-1.6Zm51.6-16.1v-.4h.4v1.6l-.2.1h-.2v-.3q0-.4-.6-.8-.5-.4-1.4-.4-1 0-1.6.7-.6.7-.6 1.6 0 1 .6 1.6.6.6 1.6.6l1.2-.2q.6-.2 1-.7l.3-.1h.2v.2q0 .3-.6.7-1 .6-2 .6-1.3 0-2-.8-.8-.7-.8-1.9t.8-2q.8-.8 2-.8 1 0 1.8.7Zm5.6-3v1.3h-.7v-1.3h.7Zm0 3h-3.2v-.4h3.7v5.3q0 .7-.2 1-.3.5-.8.8-.4.2-.9.2h-1.5l-.3-.1v-.4h1.8q.7 0 1-.4.4-.4.4-1v-5Zm4.4-.5v1q.5-.6 1-.9.5-.3 1.2-.3t1.3.4q.6.3 1 1 .3.5.3 1.2 0 1-.8 1.8-.7.8-1.8.8-1.3 0-2.2-1.1v3h1.5v.4h-2.9v-.4h.9v-6.4h-.9v-.4h1.4Zm4.3 2.4q0-.8-.6-1.4-.6-.6-1.5-.6-1 0-1.6.6-.6.6-.6 1.4 0 .9.6 1.5.7.6 1.6.6.9 0 1.5-.6t.6-1.5Zm7.3.3h-5q0 1 .7 1.5.7.6 1.7.6.6 0 1.1-.2.7-.2 1-.5h.4v.4q-.3.3-1 .5-.7.3-1.5.3-1.3 0-2.1-.8-.9-.9-.9-2t.8-1.9q.8-.8 2-.8t2 .8q.8.8.8 2Zm-.5-.5q-.2-.8-.8-1.3-.6-.5-1.5-.5t-1.5.5q-.6.5-.8 1.3h4.6Zm6.4-1.3v-.9h1.2l.2.1.1.2v.2h-1v5l-.2.8-.4.6-.6.3q-.3.2-.8.2h-1.4l-.2-.1v-.4h1.7q.4 0 .7-.3.4-.2.6-.6l.1-.6v-1.5q-.7 1-2 1-1 0-1.7-.7-.8-.7-.8-1.8 0-1 .8-1.8.7-.8 1.7-.8 1.3 0 2 1.1Zm0 1.5q0-.9-.6-1.5-.5-.5-1.4-.5-.8 0-1.4.6-.6.6-.6 1.4 0 .9.6 1.5t1.4.6q.9 0 1.4-.6.6-.6.6-1.5Zm5.6-4.7v6.9h2.2l.1.3v.1l-.3.1h-4.6l-.1-.3v-.1l.3-.1h2v-6.4H719l-.1-.2v-.2h2.3Zm7-.2v1.3h-.7v-1.3h.7Zm0 2.5v4.6h2.2l.1.3v.1l-.3.1h-4.6l-.1-.3v-.1l.3-.1h2v-4h-1.5l-.2-.1-.1-.2v-.2h2.3Zm14.7 3h-3.3v-.5l2.8-4.8h1v4.9h.7v.4h-.7v1.6h.7v.4l-.3.1h-2.1v-.4l.3-.1h1V611Zm0-.4v-4.4h-.2l-2.5 4.4h2.7Zm4 2h3.8v-.4l.2-.1h.2v1h-4.7v-.7l3-2.8.8-1q.3-.2.3-.5l.1-.4q0-.7-.5-1.1-.5-.5-1.2-.5-.6 0-1.1.3-.5.4-.7 1v.1h-.4v-.1l.2-.8q.3-.5.9-.8.5-.2 1.1-.2 1 0 1.6.6.6.6.6 1.5v.6l-.4.6-1 1-2.8 2.7Zm7 0h3.8v-.4l.2-.1h.2v1h-4.7v-.7l3-2.8.8-1q.3-.2.3-.5l.1-.4q0-.7-.5-1.1-.5-.5-1.2-.5-.6 0-1.1.3-.5.4-.7 1v.1h-.4v-.1l.2-.8q.3-.5.9-.8.5-.2 1.1-.2 1 0 1.6.6.6.6.6 1.5v.6l-.4.6-1 1-2.8 2.7Zm-39.6 11.8 2.3 2.2h.3v.1l.1.1v.2l-.3.1h-1.9v-.4l.3-.1h.8l-1.9-1.8-2 1.8h1.2v.4l-.3.1H711l-.1-.3.1-.2h.3l2.3-2.2-2-1.9h-.4v-.4h1.9v.4h-.9l1.7 1.6 1.7-1.6h-.9v-.4h1.9v.3l-.1.1h-.3l-2 2Zm6.7 2.7-2.3-4.6h-.4v-.4h1.9v.4h-.9l2 4 2-4h-.9l-.1-.2v-.2h1.9v.4h-.4l-3.1 6.4h1v.4h-3.3l-.1-.2v-.2h2l.8-1.8Zm5.1-7.4v3.3q1-1.1 2.2-1.1 1 0 1.8.7.8.8.8 2 0 1-.8 1.9-.8.8-1.8.8-1.3 0-2.2-1.2v1h-1.4v-.4l.3-.1h.6v-6.4h-.9v-.4h1.4Zm4.3 4.9q0-1-.6-1.6-.7-.6-1.5-.6-.9 0-1.5.6-.7.6-.7 1.6t.7 1.6q.6.6 1.5.6.8 0 1.5-.6.6-.7.6-1.6Zm51.6-16.1v-.4h.4v1.6l-.2.1h-.2v-.3q0-.4-.6-.8-.5-.4-1.4-.4-1 0-1.6.7-.6.7-.6 1.6 0 1 .6 1.6.7.6 1.7.6l1.1-.2q.6-.2 1-.7l.3-.1h.2v.2q0 .3-.5.7-1 .6-2.2.6-1.2 0-2-.8-.7-.7-.7-1.9t.8-2q.8-.8 2-.8 1.1 0 1.9.7Zm5.6-3v1.3h-.7v-1.3h.7Zm0 3h-3.1l-.1-.2v-.2h3.7v5.3q0 .7-.2 1-.3.5-.8.8l-.8.2h-1.6l-.3-.1v-.4h1.8q.7 0 1-.4.5-.4.5-1v-5Zm4.5-.5v1q.4-.6.9-.9.5-.3 1.2-.3t1.3.4q.7.3 1 1 .3.5.3 1.2 0 1-.7 1.8-.8.8-1.9.8-1.3 0-2.1-1.1v3h1.4v.4h-2.8l-.1-.2v-.2h1v-6.4h-.9l-.1-.2v-.2h1.5Zm4.2 2.4q0-.8-.6-1.4-.6-.6-1.5-.6-1 0-1.5.6-.6.6-.6 1.4 0 .9.6 1.5t1.5.6q.9 0 1.5-.6t.6-1.5Zm7.3.3h-5q0 1 .8 1.5.6.6 1.6.6l1.2-.2 1-.5h.3v.4q-.3.3-1 .5-.7.3-1.5.3-1.3 0-2.1-.8-.8-.9-.8-2t.8-1.9q.8-.8 2-.8 1.1 0 2 .8.7.8.7 2Zm-.5-.5q-.2-.8-.8-1.3-.6-.5-1.5-.5-.8 0-1.5.5-.6.5-.7 1.3h4.5Zm6.5-1.3v-.9h1.1l.3.1v.4h-.9v5q0 .4-.3.8l-.4.6-.6.3q-.3.2-.7.2h-1.4l-.3-.1v-.4h1.7q.4 0 .8-.3.3-.2.5-.6.2-.2.2-.6v-1.5q-.8 1-2 1-1 0-1.8-.7t-.8-1.8q0-1 .8-1.8.7-.8 1.7-.8 1.3 0 2 1.1Zm0 1.5q0-.9-.6-1.5-.6-.5-1.5-.5-.8 0-1.4.6-.6.6-.6 1.4 0 .9.6 1.5t1.4.6q.9 0 1.5-.6t.6-1.5Zm5.6-4.7v6.9h2.2v.4l-.3.1h-4.6l-.1-.3v-.1l.3-.1h2v-6.4h-1.7v-.4h2.2Zm7-.2v1.3h-.8v-1.3h.8Zm0 2.5v4.6h2.2v.4l-.3.1h-4.6v-.4l.2-.1h2v-4H820l-.2-.1-.1-.2v-.2h2.3Zm14.6 3h-3.2v-.5l2.7-4.8h1v4.9h.7v.4h-.7v1.6h.7v.4l-.3.1h-2l-.1-.3v-.1l.3-.1h1V611Zm0-.4v-4.4h-.2l-2.5 4.4h2.7Zm4 2h3.8v-.4l.2-.1h.2v1h-4.7v-.7l3-2.8.8-1q.3-.2.4-.5v-.4q0-.7-.5-1.1-.5-.5-1.2-.5-.6 0-1.1.3-.5.4-.7 1v.1h-.4v-.1q0-.3.3-.8t.8-.8q.5-.2 1.1-.2 1 0 1.6.6.7.6.7 1.5l-.2.6q0 .3-.3.6l-1 1-2.8 2.7Zm11.4-3.8v1.2q0 1.6-.8 2.6-.6.7-1.5.7l-.8-.2-.7-.5-.3-.6-.3-.8-.1-1.2v-1.2q0-1.6.7-2.5.6-.7 1.5-.7l.8.1.7.5.3.7.3.7q.2.5.2 1.2Zm-.5 0-.2-1.2-.5-1-.3-.3-.8-.2q-.8 0-1.3.8-.5.9-.5 2v1q0 .8.2 1.4l.5 1 .4.3q.3.2.7.2.8 0 1.3-.9.5-.8.5-2v-1Zm-43.5 15.6 2.3 2.2h.3v.1l.1.1v.2l-.3.1h-1.8l-.1-.3v-.1l.3-.1h.8l-1.9-1.8-1.9 1.8h1.1v.4l-.3.1H805l-.1-.3.1-.2h.3l2.3-2.2-2-1.9h-.4v-.4h1.8v.4h-.8l1.6 1.6 1.7-1.6h-.9v-.4h1.9v.4h-.3l-2 2Zm6.7 2.7-2.2-4.6h-.4l-.1-.2v-.2h1.9v.4h-.9l2 4 2-4h-.9l-.1-.2v-.2h1.9l.1.2v.1l-.2.1h-.3l-3.1 6.4h1l.1.2v.2h-3.4l-.1-.2v-.2h1.9l.8-1.8Zm5.2-7.4v3.3q.8-1.1 2.1-1.1 1 0 1.8.7.8.8.8 2 0 1-.8 1.9-.7.8-1.8.8-1.3 0-2.1-1.2v1h-1.4l-.1-.3v-.1l.3-.1h.7v-6.4h-.9l-.1-.2v-.2h1.5Zm4.2 4.9q0-1-.6-1.6-.7-.6-1.5-.6-.9 0-1.5.6t-.6 1.6q0 1 .6 1.6.6.6 1.5.6.8 0 1.5-.6.6-.7.6-1.6Z"
  /><path
    fill="#bdbdbd"
    d="m41.7 83-1.6 7.7h1.4q.5 0 .6.2.2.1.2.4 0 .4-.4.7-.2.2-.7.2H37q-.5 0-.6-.2-.2-.1-.2-.4 0-.4.4-.7.2-.2.7-.2h1.4L40 85l-1.3.3-.4.1-.4-.1q-.2-.2-.2-.5t.2-.5q.2-.2.8-.3l3.1-.8Zm8.3 4.7q.4.3.6.7l.1.8q0 .8-.4 1.6-.5.7-1.4 1.1-.8.5-1.8.5-1.3 0-2-.6-.6-.6-.6-1.5 0-.7.4-1.4t1.2-1.2l-.5-.7v-.8q0-.7.4-1.5.4-.7 1.3-1.2.8-.4 1.7-.4 1.2 0 1.8.6.7.6.7 1.5 0 .7-.4 1.3l-1 1.2Zm-1.8-.7q.8 0 1.3-.5.5-.4.5-1 0-.4-.3-.7-.4-.3-1-.3-.8 0-1.3.4-.5.5-.5 1t.3.8q.4.3 1 .3Zm-.8 4q1 0 1.4-.4.5-.4.5-1 0-.5-.4-.8-.4-.4-1-.4-.8 0-1.4.5-.6.6-.6 1.2 0 .3.3.5.4.3 1.2.3ZM58 87.6q.4.3.6.7l.1.8q0 .8-.4 1.6-.5.7-1.4 1.1-.8.5-1.8.5-1.3 0-2-.6-.6-.6-.6-1.5 0-.7.4-1.4t1.2-1.2l-.5-.7v-.8q0-.7.4-1.5.4-.7 1.3-1.2.8-.4 1.7-.4 1.2 0 1.8.6.7.6.7 1.5 0 .7-.4 1.3l-1 1.2Zm-1.8-.7q.8 0 1.3-.5.5-.4.5-1 0-.4-.3-.7-.4-.3-1-.3-.8 0-1.3.4-.5.5-.5 1t.3.8q.4.3 1 .3Zm-.8 4q1 0 1.4-.4.5-.4.5-1 0-.5-.4-.8-.4-.4-1-.4-.8 0-1.4.5-.6.6-.6 1.2 0 .3.3.5.4.3 1.2.3Zm8.1-6.3-.4 1.7q.9-.3 1.6-.3 1 0 1.7.7.6.6.6 1.7 0 1-.5 2-.5.9-1.4 1.4-.9.5-2.3.5-1.5 0-2.3-.6-.5-.3-.5-.7 0-.3.3-.6l.6-.2q.3 0 .5.2l.5.3 1.1.1q1 0 1.5-.2t.8-.8q.3-.5.3-1.1 0-.6-.3-1-.4-.3-1-.3-.7 0-1.8.5l-.4.1-.4-.1-.2-.4v-.2l.9-4h4.9q.2.2.2.5 0 .4-.4.6-.2.2-.7.2h-2.9Zm9.3 4.2 1.8 1.8q.3 0 .5.2l.1.4q0 .4-.4.7-.2.2-.7.2h-1.6q-.5 0-.6-.2-.2-.1-.2-.4 0-.3.2-.5.2-.3.5-.4l-.8-.8-1.3.8.4.2.1.4q0 .4-.4.7-.2.2-.7.2h-1.6q-.4 0-.6-.2-.2-.1-.2-.4 0-.3.3-.6.2-.2.7-.3l2.4-1.8-1.5-1.6-.4-.1-.2-.4q0-.4.4-.7.2-.2.7-.2H71q.5 0 .7.2l.1.4q0 .5-.5.8l.7.7 1-.7q-.3-.2-.3-.5 0-.4.4-.7.2-.2.7-.2h1.3q.5 0 .7.2l.1.4-.2.6q-.3.2-.7.2L72.8 89Zm9-5.8L80 90.7h1.4q.5 0 .7.2l.1.4q0 .4-.4.7-.2.2-.7.2H77q-.5 0-.6-.2-.2-.1-.2-.4 0-.4.4-.7.2-.2.7-.2h1.4L80 85l-1.3.3-.4.1-.4-.1q-.2-.2-.2-.5t.2-.5q.2-.2.8-.3l3.1-.8Zm4.3 7.6h3l.6-.2.4.2.1.4v.4l-.2.7h-6.3l.3-1.5q4.7-3.3 5.5-4.2.5-.5.5-1 0-.4-.4-.7-.3-.3-1-.3-.6 0-1.1.3-.5.3-.8.8l-.3.4-.5.1-.4-.1-.2-.4q0-.3.4-.9.6-.8 1.5-1.2.8-.4 1.7-.4 1.2 0 1.9.6.6.6.6 1.6 0 .7-.3 1.3-.4.6-1.4 1.4l-3.6 2.7Zm8.7-3.3 1.1-.7 1-.1q1 0 1.6.6.6.7.6 1.7 0 1.5-1 2.5t-2.4 1q-1.3 0-2-.7-.6-.7-.6-2.1 0-3 1.8-4.7 2-1.8 3.9-1.8.7 0 1.2.3.2.2.2.5t-.3.5q-.2.3-.5.3l-.5-.2h-.3q-.7 0-1.5.3-.8.4-1.5 1.2-.5.5-.8 1.4Zm-.2 2.1q0 .8.3 1.2.3.2 1 .2.8 0 1.3-.4.5-.5.5-1.3 0-.5-.3-.9-.4-.4-.8-.4t-1 .5q-.6.4-1 1.1Zm12.7-2.6-.4 1.6q-.3 1.4-1.2 2.5-1.2 1.4-2.6 1.4-1 0-1.7-.8-.7-.7-.7-2.2l.1-1 .4-1.5q.3-1.4 1.3-2.6 1-1.2 2.6-1.2 1 0 1.6.7.7.7.7 2.3l-.1.8Zm-1.4 0v-.7q0-.9-.3-1.3t-.9-.4q-.6 0-1.1.5-.8.8-1 2l-.4 1.5v.7q0 1 .3 1.3.3.4.9.4.6 0 1.1-.5.8-.8 1-2l.4-1.5Zm16.8 2H117l.3-1.4h5.8l-.3 1.3Zm11.5-3-.1.5q.4-.4.8-.5l.6-.1q.7 0 1.1.6l.8-.5.9-.1q.7 0 1 .4.5.4.5 1v.4l-.7 3.1q.4 0 .6.2l.1.4q0 .4-.4.7-.2.2-.7.2h-1.3l1-4.5v-.2l-.1-.3h-.8l-.7.7-.6 2.8q.4 0 .5.2.2.1.2.4 0 .4-.4.7-.2.2-.7.2h-1.3l1-4.5v-.2q0-.2-.2-.2l-.2-.1h-.5l-.8.7-.6 2.8q.4 0 .6.2.2.1.2.4 0 .4-.4.7-.2.2-.7.2h-1.3q-.5 0-.6-.2-.2-.1-.2-.4 0-.3.3-.6t.7-.3l.8-3.4-.6-.1-.2-.4q0-.4.4-.7.2-.2.7-.2h1.3Zm13 3.9h-5.8q0 .5.5.8.5.4 1.5.4.8 0 2.1-.4h1.2l.2.4q0 .4-.4.7l-1.4.5-2.1.2q-1.5 0-2.3-.8-.8-.7-.8-1.8 0-1 .6-2 .6-.9 1.7-1.5 1-.5 2.2-.5 1.3 0 2 .7 1 .7 1 2l-.1.7-.2.6Zm-1.3-1.4q-.2-.6-.7-1-.4-.2-1.1-.2-.8 0-1.3.3-.6.3-1 .9h4Zm6.5 3.8v-.4q-1.1.6-2.5.6-1 0-1.5-.5-.6-.5-.6-1.1 0-.6.4-1.1.6-.8 1.5-1.2 1-.4 2-.4l1.5.1v-.5l-.1-.4-1-.1-1.6.2h-1q-.2-.2-.2-.5t.2-.5l1.2-.4 1.7-.2q1.2 0 1.8.4.5.5.5 1.2v.5l-.6 2.8h.2q.5 0 .6.2.2.1.2.4 0 .4-.4.7-.2.2-.7.2h-1.6Zm.5-2.6-1.5-.1q-1 0-1.7.5-.4.3-.4.5t.3.4h.7l1.2-.1q.7-.2 1.3-.6v-.6Zm8.7-2-.7-.3-.7-.1q-.7 0-1.2.2-.4.1-.4.3l.1.2q.2.2 1 .3l1.8.4q.6.1.9.6.3.4.3.9 0 1-1 1.6-1.1.7-2.6.7l-1-.1-1-.3-.4.2q-.3 0-.5-.2l-.1-.4v-.4l.1-.5q.1-.5.4-.7.2-.2.5-.2l.4.1q.2.2.2.5.2.3.7.4.4.2 1 .2 1 0 1.6-.4.3-.1.3-.3 0-.3-.4-.4-.3-.2-1.3-.3-1.5-.2-2-.6-.5-.3-.5-1 0-.5.4-1 .3-.5 1-.8 1-.4 2-.4h.9l.8.3.5-.2q.2 0 .3.2.2.1.2.4v.4l-.1.3-.4.7q-.2.3-.5.3t-.5-.2l-.1-.4Zm9.8-1.7-1 4.8q.4 0 .5.2.2.1.2.4 0 .4-.4.7-.2.2-.7.2h-1.3v-.4q-1.3.6-2.3.6-.8 0-1.3-.5-.5-.4-.5-1.1v-.4l.7-3h-.2q-.5 0-.7-.2l-.1-.4q0-.4.3-.7.3-.2.8-.2h1.6l-.9 4.2v.3l.1.4q.2.2.6.2l1-.2q.5-.1 1.3-.6l.6-2.9h-.5l-.7-.1-.1-.4q0-.4.4-.7.2-.2.7-.2h1.9Zm4.7 0-.2 1 1.6-1 1-.1q.6 0 1 .3.5.4.5.7 0 .4-.2.6-.3.3-.6.3t-.5-.3l-.5-.2-.8.2-1.8 1.2-.5 2.1h2q.5 0 .6.2.2.1.2.4 0 .4-.4.7-.2.2-.7.2h-4.2q-.5 0-.7-.2l-.1-.4q0-.4.4-.7.2-.2.7-.2h.8l.7-3.4h-.5l-.6-.1q-.2-.1-.2-.4 0-.4.4-.7.2-.2.7-.2h2Zm11 3.9h-5.7q0 .5.5.8.5.4 1.5.4.8 0 2.1-.4h1.2l.2.4q0 .4-.4.7l-1.4.5-2.1.2q-1.5 0-2.3-.8-.8-.7-.8-1.8 0-1 .6-2 .6-.9 1.7-1.5 1-.5 2.2-.5 1.3 0 2 .7 1 .7 1 2l-.1.7-.2.6Zm-1.2-1.4q-.2-.6-.7-1-.4-.2-1.1-.2-.8 0-1.3.3-.6.3-1 .9h4Zm10.3-5.1-1.6 7.4h.3q.4 0 .6.2.2.1.2.4 0 .4-.4.7-.2.2-.7.2h-1.7v-.4q-1 .6-2.1.6-1.4 0-2.2-.7-.7-.7-.7-1.8 0-1 .5-2 .6-1 1.7-1.6 1-.5 2-.5 1.1 0 2 .6l.4-1.7h-.2q-.5 0-.7-.2l-.1-.4q0-.4.4-.7l.7-.1h1.6Zm-5.1 7.7q1.1 0 1.8-.7.7-.6.7-1.5 0-.7-.5-1.2-.4-.4-1.2-.4-1 0-1.8.7-.8.8-.8 1.7 0 .6.4 1 .5.4 1.4.4Zm16 1.4q-.9 0-1.6-.4-.7-.3-1-1-.4-.5-.4-1.2 0-1 .6-2 .6-.9 1.6-1.5 1.1-.5 2.2-.5.8 0 1.5.3.7.4 1 1 .4.6.4 1.4 0 1-.5 1.9-.6.9-1.7 1.4-1 .6-2.1.6Zm.3-1.4q1 0 1.8-.7t.8-1.4q0-.8-.5-1.3-.5-.4-1.3-.4-1.2 0-2 .8-.7.7-.7 1.4 0 .6.5 1.1.5.5 1.4.5Zm8-.6 2.2-3q-.5 0-.7-.2-.2-.1-.2-.4 0-.4.4-.7.2-.2.7-.2h2q.4 0 .6.2l.1.4q0 .4-.3.7l-.8.1h-.2l-3.4 4.9h-1.4l-1.3-4.9h-.2l-.7-.1-.1-.4q0-.4.3-.7.3-.2.8-.2h1.8q.5 0 .7.2l.1.4-.1.5-.4.3h-.7l.9 3.1Zm11.7-.6h-5.7q0 .5.5.8.5.4 1.5.4.8 0 2.1-.4h1.2l.2.4q0 .4-.4.7l-1.4.5-2.1.2q-1.5 0-2.3-.8-.8-.7-.8-1.8 0-1 .6-2 .6-.9 1.7-1.5 1-.5 2.2-.5 1.3 0 2 .7 1 .7 1 2l-.1.7-.2.6Zm-1.2-1.4q-.2-.6-.7-1-.4-.2-1.1-.2-.8 0-1.3.3-.6.3-1 .9h4Zm6.2-2.5-.2 1 1.6-1 1-.1q.6 0 1 .3.5.4.5.7 0 .4-.2.6-.3.3-.6.3t-.5-.3l-.5-.2-.8.2-1.8 1.2-.5 2.1h2q.5 0 .6.2.2.1.2.4 0 .4-.4.7-.2.2-.7.2h-4.2q-.5 0-.7-.2l-.1-.4q0-.4.4-.7.2-.2.7-.2h.8l.7-3.4h-.5l-.6-.1q-.2-.1-.2-.4 0-.4.4-.7.2-.2.7-.2h2Zm14 4.8h3l.6-.2.4.2.1.4v.4l-.2.7h-6.3l.3-1.5q4.7-3.3 5.5-4.2.5-.5.5-1 0-.4-.4-.7-.3-.3-1-.3-.6 0-1.1.3-.5.3-.8.8l-.3.4-.5.1-.4-.1-.2-.4q0-.3.4-.9.6-.8 1.5-1.2.8-.4 1.7-.4 1.2 0 1.9.6.6.6.6 1.6 0 .7-.3 1.3-.4.6-1.4 1.4l-3.6 2.7Zm13.2-3.8-.4 1.6q-.3 1.4-1.2 2.5-1.2 1.4-2.6 1.4-1 0-1.7-.8-.7-.7-.7-2.2l.1-1 .4-1.5q.3-1.4 1.3-2.6 1-1.2 2.6-1.2 1 0 1.6.7.7.7.7 2.3l-.1.8Zm-1.4 0v-.7q0-.9-.3-1.3t-.9-.4q-.6 0-1.1.5-.8.8-1 2l-.4 1.5v.7q0 1 .3 1.3.3.4.9.4.6 0 1.1-.5.8-.8 1-2l.4-1.5Zm14.2-1-.2 1 1.6-1 1-.1q.6 0 1 .3.5.4.5.7 0 .4-.2.6-.3.3-.6.3t-.5-.3l-.5-.2-.8.2-1.8 1.2-.5 2.1h2q.5 0 .6.2.2.1.2.4 0 .4-.4.7-.2.2-.7.2h-4.2q-.5 0-.7-.2l-.1-.4q0-.4.4-.7.2-.2.7-.2h.8l.7-3.4h-.5l-.6-.1q-.2-.1-.2-.4 0-.4.4-.7.2-.2.7-.2h2Zm11.3 0-1 4.8q.4 0 .5.2.2.1.2.4 0 .4-.4.7-.2.2-.7.2h-1.3v-.4q-1.3.6-2.3.6-.8 0-1.3-.5-.5-.4-.5-1.1v-.4l.7-3h-.2q-.5 0-.7-.2l-.1-.4q0-.4.3-.7.3-.2.8-.2h1.6l-.9 4.2v.3l.1.4q.2.2.6.2l1-.2q.5-.1 1.3-.6l.6-2.9h-.5l-.7-.1-.1-.4q0-.4.4-.7.2-.2.7-.2h1.9Zm3.6 0v.5l.8-.5 1-.1q1 0 1.6.4.6.5.6 1.3v.7l-.6 2.5q.4 0 .5.2.2.1.2.4 0 .4-.4.7-.2.2-.7.2h-1.3q-.4 0-.6-.2-.2-.1-.2-.4 0-.3.3-.6t.8-.3l.5-2.6v-.3l-.1-.4q-.3-.2-.9-.2-.5 0-.9.2-.4.1-1 .8l-.6 2.5q.5 0 .7.2.2.1.2.4 0 .4-.4.7-.2.2-.7.2h-1.6q-.5 0-.7-.2l-.1-.4q0-.4.4-.7.2-.2.8-.2l.7-3.4-.6-.1-.1-.4q0-.4.3-.7.3-.2.8-.2h1.3Zm10.6 1.7-.7-.3-.7-.1q-.7 0-1.2.2-.4.1-.4.3l.1.2q.2.2 1 .3l1.8.4q.6.1.9.6.3.4.3.9 0 1-1 1.6-1.1.7-2.6.7l-1-.1-1-.3q-.2.2-.5.2l-.4-.2-.1-.4v-.4l.1-.5q.1-.5.4-.7.2-.2.5-.2l.4.1q.2.2.2.5.2.3.7.4.4.2 1 .2 1 0 1.6-.4.3-.1.3-.3 0-.3-.4-.4-.3-.2-1.3-.3-1.5-.2-2-.6-.5-.3-.5-1 0-.5.4-1 .3-.5 1-.8 1-.4 2-.4h.9l.8.3.4-.2q.3 0 .4.2.2.1.2.4v.4l-.1.3-.4.7q-.2.3-.6.3l-.4-.2-.1-.4Zm17.5 2.2h-5.7q0 .5.5.8.5.4 1.5.4.8 0 2.1-.4h1.2l.2.4q0 .4-.4.7l-1.4.5-2.1.2q-1.5 0-2.3-.8-.8-.7-.8-1.8 0-1 .6-2 .6-.9 1.6-1.5 1.1-.5 2.3-.5 1.3 0 2 .7 1 .7 1 2l-.1.7-.2.6Zm-1.2-1.4q-.2-.6-.7-1-.4-.2-1.1-.2-.8 0-1.3.3-.6.3-1 .9h4Zm6.5 3.8v-.4q-1.1.6-2.5.6-1 0-1.5-.5-.6-.5-.6-1.1 0-.6.4-1.1.6-.8 1.5-1.2 1-.4 2-.4l1.5.1v-.5l-.1-.4-1-.1-1.6.2h-1q-.2-.2-.2-.5t.2-.5l1.2-.4 1.7-.2q1.2 0 1.8.4.5.5.5 1.2v.5l-.6 2.8h.2q.5 0 .6.2.2.1.2.4 0 .4-.4.7-.2.2-.7.2h-1.6Zm.5-2.6-1.5-.1q-1 0-1.7.5-.4.3-.4.5t.3.4h.7l1.2-.1q.7-.2 1.3-.6v-.6Zm9.7-3.4.5-.2.4.1.2.4v.4l-.3.9q0 .5-.3.7l-.6.2-.4-.1q-.2-.2-.2-.5 0-.4-.2-.6-.5-.3-1.4-.3-1.3 0-2.1 1-.5.7-.5 1.4 0 .6.4 1 .5.4 1.7.4.9 0 1.5-.2l.7-.4.6-.2.4.1.1.4q0 .5-.6 1-1.2.7-3.1.7-1.6 0-2.4-.7-.8-.7-.8-1.8 0-1 .6-2t1.6-1.6q1-.5 2.3-.5h1l.9.4Zm5-3-.7 3q1-.4 2-.4t1.5.5q.6.4.6 1.3l-.1.5-.5 2.6q.5 0 .7.2l.1.4q0 .4-.4.7-.2.2-.7.2h-1.5q-.5 0-.7-.2l-.1-.4q0-.4.4-.7.2-.2.7-.2l.6-2.5v-.4q0-.3-.2-.4-.2-.2-.8-.2-.5 0-.9.2-.4.1-1 .7l-.6 2.6q.5 0 .6.2.3.1.3.4 0 .4-.5.7-.2.2-.7.2h-1.5q-.5 0-.7-.2l-.1-.4q0-.4.4-.7.2-.2.8-.2l1.2-6h-.2q-.5 0-.6-.2-.2-.1-.2-.4 0-.4.4-.7l.7-.1h1.6Zm16 6.4-1.5 2.6h-1.3l-.1-4.9-.5-.1-.2-.4q0-.4.4-.7.2-.2.7-.2h1.3q.5 0 .7.2l.1.4q0 .4-.4.7l-.7.1v2.3l1.4-2.3h1.3l.3 2.3 1-2.3h-.6q-.2-.2-.2-.5 0-.4.4-.7.2-.2.7-.2h1.3q.5 0 .7.2l.1.4-.2.6q-.3.2-.7.2l-2.2 4.9h-1.3l-.4-2.6Zm9.9-6.3-.3 1.5h-1.7l.3-1.5h1.7Zm-.4 2.6-1 4.8h1.7q.4 0 .6.2.2.1.2.4 0 .4-.4.7-.2.2-.7.2h-4.8q-.5 0-.6-.2-.2-.1-.2-.4 0-.4.4-.7.2-.2.7-.2h1.7l.7-3.4h-1.1l-.7-.1-.1-.4q0-.4.4-.7.2-.2.7-.2h2.5Zm6.5 1.4-.6 2.9v.3l.1.3q.3.2 1 .2 1 0 2-.5l.6-.2.4.2.2.4q0 .3-.3.5-.4.4-1.4.7-1.1.3-1.9.3-.6 0-1.2-.3-.5-.1-.7-.4-.3-.4-.3-.8v-.5l.7-3h-.5q-.5 0-.6-.2-.2-.1-.2-.4 0-.4.4-.7.2-.2.7-.2h.5l.3-1.2q0-.5.3-.7.3-.3.6-.3l.4.2.1.4v.4l-.3 1.2h2.6q.5 0 .6.2.2.1.2.4 0 .4-.4.7l-.7.1h-2.6Zm8-4-.7 3q1-.5 2-.5t1.5.5q.6.4.6 1.3l-.1.5-.5 2.6q.5 0 .7.2l.1.4q0 .4-.4.7-.2.2-.7.2h-1.5q-.5 0-.7-.2l-.1-.4q0-.4.4-.7.2-.2.7-.2l.6-2.5v-.4q0-.3-.2-.4-.2-.2-.8-.2-.5 0-.9.2-.4.1-1 .7l-.6 2.6q.5 0 .6.2.3.1.3.4 0 .4-.5.7-.2.2-.7.2h-1.5q-.5 0-.7-.2l-.1-.4q0-.4.4-.7.2-.2.8-.2l1.2-6h-.2q-.5 0-.6-.2-.2-.1-.2-.4 0-.4.4-.7l.7-.1h1.6Zm16 0-.7 3q1-.5 2-.5t1.5.5q.6.4.6 1.3l-.1.5-.5 2.6q.5 0 .7.2l.1.4q0 .4-.4.7-.2.2-.7.2h-1.5q-.5 0-.7-.2l-.1-.4q0-.4.4-.7.2-.2.7-.2l.6-2.5v-.4q0-.3-.2-.4-.2-.2-.8-.2-.5 0-.9.2-.4.1-1 .7l-.6 2.6q.5 0 .6.2.3.1.3.4 0 .4-.5.7-.2.2-.7.2h-1.5q-.5 0-.7-.2l-.1-.4q0-.4.4-.7.2-.2.8-.2l1.2-6h-.2q-.5 0-.6-.2-.2-.1-.2-.4 0-.4.4-.7l.7-.1h1.6Zm6.7 8.8-1.4-4.8-.4-.1-.2-.4q0-.4.4-.7.2-.2.7-.2h1.3q.5 0 .7.2l.1.4q0 .3-.3.6-.2.2-.7.2l1 3.3 2.3-3.3-.6-.1-.2-.4q0-.4.4-.7.2-.2.7-.2h1.3q.5 0 .7.2l.1.4-.2.6q-.2.2-.7.2l-4.5 6.4h.7l.2.5q0 .5-.4.7-.3.2-.7.2h-3q-.6 0-.7-.2-.2-.1-.2-.4 0-.4.4-.7l.7-.1h1.4l1.1-1.6Zm7.2-.7-.5 2.3h.9l.6.1.2.4q0 .5-.4.7-.2.2-.7.2H403q-.5 0-.6-.2-.2-.1-.2-.4 0-.4.4-.7l.7-.1h.2l1.4-6.4h-.3l-.6-.1q-.2-.1-.2-.4 0-.4.4-.7.2-.2.7-.2h1.7l-.1.5q1.1-.6 2.2-.6 1.3 0 2 .7.9.8.9 1.9 0 .8-.6 1.7-.5.8-1.6 1.4-1 .5-2 .5t-2-.6Zm2.3-.8q1 0 1.7-.6t.7-1.2q0-.7-.5-1.2-.4-.4-1.2-.4-1 0-1.7.7-.8.7-.8 1.3 0 .5.5 1 .5.4 1.3.4Zm11.3-.8h-5.7q0 .5.5.8.5.4 1.5.4.8 0 2.1-.4h1.2l.2.4q0 .4-.4.7l-1.4.5-2.1.2q-1.5 0-2.3-.8-.8-.7-.8-1.8 0-1 .6-2 .6-.9 1.6-1.5 1.1-.5 2.3-.5 1.3 0 2 .7 1 .7 1 2l-.1.7-.2.6Zm-1.2-1.4q-.2-.6-.7-1-.4-.2-1.1-.2-.8 0-1.3.3-.6.3-1 .9h4Zm6.2-2.5-.2 1 1.6-1 1-.1q.6 0 1 .3.5.4.5.7 0 .4-.2.6-.3.3-.6.3t-.5-.3l-.5-.2-.8.2-1.8 1.2-.5 2.1h2q.5 0 .6.2.2.1.2.4 0 .4-.4.7-.2.2-.7.2h-4.2q-.5 0-.7-.2l-.1-.4q0-.4.4-.7.2-.2.7-.2h.8l.7-3.4h-.5l-.6-.1q-.2-.1-.2-.4 0-.4.4-.7.2-.2.7-.2h2Zm8 1.4-.7 3.4h2q.5 0 .6.2.2.1.2.4 0 .4-.4.7-.2.2-.7.2h-4.2q-.5 0-.7-.2l-.1-.4q0-.4.3-.7.3-.2.8-.2h.8l.7-3.4h-.7l-.6-.1q-.2-.1-.2-.4 0-.4.4-.7.2-.2.7-.2h.7l.1-.5q.2-1 1-1.5.8-.6 2.1-.6h1.3l1 .3.1.4q0 .4-.2.7l-.6.2h-.4l-1.5-.2q-.7 0-1 .2-.3.2-.4.5v.5h2q.5 0 .7.2.2.1.2.4 0 .4-.4.7l-.7.1H432Zm9.4-4-.3 1.5h-1.7l.3-1.5h1.7Zm-.4 2.6-1 4.8h1.7q.4 0 .6.2.2.1.2.4 0 .4-.4.7-.2.2-.7.2h-4.8q-.5 0-.6-.2-.2-.1-.2-.4 0-.4.4-.7.2-.2.7-.2h1.7l.7-3.4h-1.1l-.7-.1-.1-.4q0-.4.4-.7.2-.2.7-.2h2.5Zm5.9 0v.5l.8-.5 1-.1q1 0 1.6.4.6.5.6 1.3v.7l-.6 2.5q.4 0 .5.2.2.1.2.4 0 .4-.4.7-.2.2-.7.2h-1.3q-.4 0-.6-.2-.2-.1-.2-.4 0-.3.3-.6t.8-.3l.5-2.6v-.3l-.1-.4q-.3-.2-.9-.2-.5 0-.9.2-.4.1-1 .8l-.6 2.5q.5 0 .7.2.2.1.2.4 0 .4-.4.7-.2.2-.7.2h-1.6q-.5 0-.7-.2l-.1-.4q0-.4.4-.7.2-.2.8-.2l.7-3.4-.6-.1-.1-.4q0-.4.3-.7.3-.2.8-.2h1.3Zm12.1 3.9h-5.7q0 .5.5.8.5.4 1.5.4.8 0 2.1-.4h1.2l.2.4q0 .4-.4.7l-1.4.5-2.1.2q-1.5 0-2.3-.8-.8-.7-.8-1.8 0-1 .6-2 .6-.9 1.6-1.5 1.1-.5 2.3-.5 1.3 0 2 .7 1 .7 1 2l-.1.7-.2.6Zm-1.2-1.4q-.2-.6-.7-1-.4-.2-1.1-.2-.8 0-1.3.3-.6.3-1 .9h4Z"
  /><path
    fill="#fff"
    d="M45.4 45.1V57h3q1.1 0 1.6.4.4.4.4 1.1 0 .7-.4 1-.5.5-1.6.5h-9q-1.1 0-1.6-.4-.4-.4-.4-1.1 0-.7.4-1 .5-.5 1.6-.5h3V45.1h-3q-1.1 0-1.6-.4-.4-.4-.4-1 0-.7.4-1.1.5-.5 1.6-.5h9q1.1 0 1.6.5.4.4.4 1 0 .7-.4 1.1-.5.4-1.6.4h-3Zm11.9 1.5v.8q.7-.7 1.3-1 .6-.2 1.4-.2.6 0 1.3.3.6.3 1.2 1 .8-.7 1.6-1 .8-.3 1.6-.3 1.7 0 2.7.9 1.4 1.2 1.4 3V57q1 0 1.4.4.5.4.5 1.1 0 .7-.5 1-.4.5-1.5.5h-2.9v-9.5q0-.7-.2-1-.3-.2-.8-.2t-1 .3q-.5.3-1.2 1.4v6q1 0 1.4.4.4.4.4 1.1 0 .7-.4 1-.5.5-1.6.5h-2.8v-9.5q0-.7-.3-1-.2-.2-.8-.2-.5 0-1 .3-.5.4-1.2 1.4v6q.9 0 1.4.4.4.4.4 1.1 0 .7-.5 1-.4.5-1.5.5h-2.7q-1 0-1.5-.4t-.5-1.1q0-.7.5-1 .4-.5 1.4-.5v-7.3q-1 0-1.4-.4-.5-.4-.5-1.1 0-.7.5-1 .4-.5 1.5-.5h2.9Zm25.3 13.3v-.7q-1.1.6-2.5.9-1.3.3-2.5.3-2.4 0-3.9-1.3t-1.5-2.8q0-2 2-3.5 1.9-1.6 5.3-1.6l3.1.2v-.7q0-.6-.6-1-.6-.5-2.2-.5-1.3 0-3.4.5L75 50q-.6 0-1-.4t-.4-1.1l.1-.7q.2-.3.5-.4.2-.2 1-.4l2.3-.5 2.1-.2q2.8 0 4.4 1.2 1.5 1.2 1.5 3.3V57h.5q1.1 0 1.6.4.4.4.4 1.1 0 .7-.4 1-.5.5-1.6.5h-3.5Zm0-5.4q-1.8-.3-3.3-.3-1.9 0-3.2.9-.8.5-.8 1.1 0 .4.4.7.7.5 2 .5 1 0 2.5-.4 1.3-.5 2.4-1.2v-1.3Zm18.6-7v-.9h3.5q1.1 0 1.6.4.4.4.4 1.1 0 .7-.4 1-.5.5-1.6.5h-.5v11q0 1.5-.7 2.7-.6 1.2-2 2-1.4.9-3.1.9H95q-1 0-1.6-.5-.4-.4-.4-1 0-.7.4-1.1.5-.4 1.6-.4h3.3q1.4 0 2.1-.8.8-.7.8-1.9v-1.4l-2 1q-1 .3-2.1.3-3.1 0-5.2-2-2-2.1-2-5.1 0-3 2-5 2-2.1 5.2-2.1 1.1 0 2.1.3t2 1Zm0 5.7q0-1.6-1.2-2.8-1.3-1.2-3-1.2t-3 1.2q-1 1.2-1 2.8 0 1.7 1.2 3 1.2 1.1 3 1.1 1.6 0 2.9-1.2 1.2-1.2 1.2-2.9Zm22.2 1.6h-12.3q.5 1.1 1.7 1.9 1.2.7 3.2.7 1.7 0 4.4-.7l1.6-.3q.6 0 1 .4t.4 1q0 .6-.4 1-.6.6-2.8 1.1-2.3.5-4.4.5-3.6 0-5.8-2-2.1-2-2.1-5 0-3.2 2.3-5.2t5.4-2q1.8 0 3.3.7 1.6.6 2.3 1.3 1 1.1 1.8 2.7.4 1.1.4 2.6v1.3Zm-3.3-3q-.7-1.3-1.8-2-1.1-.6-2.6-.6-1.6 0-2.7.7-1 .6-1.8 1.9h9Zm28.7.7v4.4h7.7v-1.6q0-1.1.4-1.6.4-.4 1-.4.8 0 1.2.4.4.5.4 1.6v4.6h-14.1q-1.1 0-1.6-.4t-.5-1.1q0-.7.5-1 .5-.5 1.6-.5h.4V45.1h-.4q-1.1 0-1.6-.4t-.5-1q0-.7.5-1.1.5-.5 1.6-.5h13.4v4.6q0 1-.4 1.6-.4.4-1 .4-.8 0-1.2-.4-.4-.5-.4-1.6v-1.6h-7v4.4h2.7q0-1.2.2-1.5.4-.7 1.3-.7.6 0 1 .4.5.5.5 1.6v3.4q0 1-.3 1.3-.4.7-1.2.7-.9 0-1.3-.7-.2-.3-.2-1.5h-2.7Zm18-5.9v1q.9-.7 1.9-1 1-.4 2.1-.4 2.7 0 4.2 1.7 1.3 1.3 1.3 3.4V57q1 0 1.4.4.4.4.4 1.1 0 .7-.4 1-.5.5-1.6.5h-2.7q-1 0-1.5-.4t-.5-1.1q0-.7.5-1 .4-.5 1.4-.5v-5.7q0-1-.6-1.4-.7-.6-2-.6-1 0-1.9.4-.7.4-2 1.7V57q1.2 0 1.6.2.7.5.7 1.3 0 .7-.5 1-.4.5-1.5.5h-3.4q-1.1 0-1.6-.4-.4-.4-.4-1.1 0-.8.7-1.3.3-.2 1.5-.2v-7.3q-1 0-1.5-.4-.4-.4-.4-1.1 0-.7.4-1 .5-.5 1.6-.5h2.9Zm25.8.5q.5-.5 1.1-.5.6 0 1 .5.5.5.5 1.5v2q0 1-.4 1.5-.5.4-1.1.4-.6 0-1-.3t-.6-1q-.1-.9-.8-1.3-1.2-.7-3-.7-2.2 0-3.4 1.3-1.3 1.2-1.3 3.1 0 1.8 1.2 2.8 1.2 1 4 1 2 0 3.1-.4.8-.2 1.4-.8.6-.6 1.1-.6.6 0 1 .5.5.5.5 1 0 1-1.3 2-2 1.3-6 1.3-3.4 0-5.4-1.5-2.6-2-2.6-5.3 0-3.2 2.1-5.3 2.2-2.1 5.6-2.1 1.2 0 2.3.2l2 .7Zm21.1 6.4q0 1.7-1 3.4-1 1.6-2.8 2.5-2 1-4 1t-4-1q-1.8-1-2.8-2.5-1-1.7-1-3.4 0-1.8 1-3.6 1-1.7 3-2.7 1.8-1 3.8-1 2 0 4 1 1.9 1 2.8 2.8 1 1.7 1 3.5Zm-3 0q0-1.4-1-2.6-1.5-1.7-3.8-1.7-2 0-3.4 1.3-1.3 1.3-1.3 3 0 1.4 1.3 2.7 1.4 1.2 3.4 1.2t3.4-1.2q1.4-1.3 1.4-2.7Zm20-12.6v16h.6q1 0 1.5.4t.5 1.1q0 .7-.5 1-.4.5-1.5.5h-3.5v-.7q-1 .6-2.2.9-1 .3-2.3.3-3.4 0-5.4-2-2-2-2-4.8 0-3 2-5.2 2.3-2.2 5.4-2.2 1.1 0 2.3.4 1.1.3 2.2 1V44h-.5q-1.1 0-1.6-.4-.4-.4-.4-1 0-.8.4-1.2.5-.4 1.6-.4h3.5Zm-3 12.8q0-2-1.2-3.2-1.3-1.3-3.2-1.3-1.9 0-3.2 1.3-1.3 1.3-1.3 3.1 0 1.7 1.2 2.7 1.2 1 3.3 1 2.1 0 3.3-1 1.2-1 1.2-2.6ZM243 40.8V44h-3.6v-3.2h3.6Zm.4 5.7v10.3h3.6q1 0 1.5.4t.5 1.1q0 .7-.5 1-.4.5-1.5.5h-10.2q-1.1 0-1.6-.4-.4-.4-.4-1.1 0-.7.4-1 .5-.5 1.6-.5h3.6v-7.3H238q-1.1 0-1.6-.4-.4-.4-.4-1.1 0-.7.4-1 .5-.5 1.6-.5h5.4Zm13.5 0v1q.8-.7 1.8-1 1-.4 2.1-.4 2.7 0 4.2 1.7 1.3 1.3 1.3 3.4V57q1 0 1.4.4.4.4.4 1.1 0 .7-.4 1-.5.5-1.6.5h-2.7q-1 0-1.5-.4t-.5-1.1q0-.7.5-1 .4-.5 1.4-.5v-5.7q0-1-.6-1.4-.7-.6-2-.6-1 0-1.9.4-.7.4-2 1.7V57q1.2 0 1.6.2.7.5.7 1.3 0 .7-.5 1-.5.5-1.5.5h-3.5q-1 0-1.5-.4-.4-.4-.4-1.1 0-.8.7-1.3.3-.2 1.5-.2v-7.3q-1 0-1.5-.4-.4-.4-.4-1.1 0-.7.4-1 .5-.5 1.6-.5h2.9Zm24.3.9v-.9h3.5q1.1 0 1.6.4.4.4.4 1.1 0 .7-.4 1-.5.5-1.6.5h-.5v11q0 1.5-.7 2.7-.6 1.2-2 2-1.4.9-3.1.9H275q-1 0-1.6-.5-.4-.4-.4-1 0-.7.4-1.1.5-.4 1.6-.4h3.3q1.4 0 2.1-.8.8-.7.8-1.9V59l-2 1q-1 .3-2.1.3-3.1 0-5.2-2-2-2.1-2-5.1 0-3 2-5 2-2.1 5.2-2.1 1.1 0 2.1.3t2 1Zm0 5.7q0-1.6-1.2-2.8-1.3-1.2-3-1.2t-3 1.2q-1.1 1.2-1.1 2.8 0 1.7 1.2 3 1.2 1.1 3 1.1 1.6 0 2.9-1.2 1.2-1.2 1.2-2.9Zm28.3 6-.6.5-.6.2q-.7 0-1.1-.5-.4-.5-.4-1.5v-2q0-1.1.4-1.6.4-.4 1-.4t1 .2q.3.3.5 1l.4.8q.4.5 1.5 1 1.1.4 2.4.4 2 0 3.3-.9.8-.6.8-1.4 0-.6-.4-1-.4-.6-1.3-.9l-2.6-.6q-2.4-.4-3.7-1-1.3-.7-2-1.9t-.7-2.5q0-2.2 1.8-3.8 1.8-1.6 4.7-1.6 1.1 0 2 .2 1 .3 1.9.8.6-.5 1.2-.5t1 .4q.5.5.5 1.5v2.3q0 1-.5 1.6-.4.4-1 .4t-1-.3q-.3-.3-.5-1-.1-.8-.4-1-.4-.6-1.3-1-.8-.4-2-.4-1.6 0-2.5.7-1 .8-1 1.6 0 .6.4 1.1.4.5 1.2.8l2.8.7q2.3.4 3.5 1 1.3.5 2 1.7.9 1.1.9 2.7 0 2.2-1.6 3.6-2 1.7-5.3 1.7-1.2 0-2.4-.3t-2.3-.9Zm18.7-1v5h1.8q1 0 1.5.4t.5 1q0 .7-.5 1.1-.4.5-1.5.5h-5.3q-1.1 0-1.6-.5-.5-.4-.5-1 0-.7.5-1.1.5-.4 1.6-.4h.5V49.6h-.5q-1.1 0-1.6-.4t-.5-1.1q0-.7.5-1 .5-.5 1.6-.5h3.5v1q1-.7 2.2-1 1-.4 2.3-.4 3 0 5.2 2 2.2 2.2 2.2 4.9 0 3-2.6 4.9-2.1 1.6-4.8 1.6-1.2 0-2.3-.3l-2.2-1Zm8.9-5.1q0-.6-.5-1.6t-1.5-1.6q-1-.7-2.5-.7-2.2 0-3.5 1.7-1 1.1-1 2.2 0 1.2 1.4 2.4 1.2 1 3.1 1 2 0 3.2-1 1.3-1.2 1.3-2.4Zm20.3 1.7h-12.3q.5 1.1 1.7 1.9 1.2.7 3.2.7 1.7 0 4.4-.7l1.6-.3q.6 0 1 .4t.4 1q0 .6-.4 1-.6.6-2.9 1.1-2.2.5-4.3.5-3.6 0-5.8-2-2.1-2-2.1-5 0-3.2 2.3-5.2t5.4-2q1.8 0 3.3.7 1.6.6 2.3 1.3 1 1.1 1.8 2.7.4 1.1.4 2.6v1.3Zm-3.3-3q-.7-1.3-1.8-2-1.1-.6-2.6-.6-1.6 0-2.7.7-1 .6-1.8 1.9h9Zm21.3 3h-12.3q.5 1.1 1.7 1.9 1.2.7 3.2.7 1.7 0 4.4-.7l1.6-.3q.6 0 1 .4t.4 1q0 .6-.4 1-.6.6-2.9 1.1-2.2.5-4.3.5-3.6 0-5.8-2-2.1-2-2.1-5 0-3.2 2.3-5.2t5.4-2q1.8 0 3.3.7 1.6.6 2.3 1.3 1 1.1 1.8 2.7.4 1.1.4 2.6v1.3Zm-3.3-3q-.7-1.3-1.8-2-1.1-.6-2.6-.6-1.6 0-2.7.7-1 .6-1.8 1.9h9Zm20.7-10.9v16h.5q1 0 1.5.4t.5 1.1q0 .7-.5 1-.4.5-1.5.5h-3.5v-.7q-1 .6-2.2.9-1 .3-2.3.3-3.4 0-5.4-2-2-2-2-4.8 0-3 2-5.2 2.3-2.2 5.4-2.2 1.1 0 2.3.4 1.1.3 2.2 1V44h-.5q-1.1 0-1.6-.4-.4-.4-.4-1 0-.8.4-1.2.5-.4 1.6-.4h3.5Zm-3 12.8q0-2-1.3-3.2-1.3-1.3-3.2-1.3-1.9 0-3.2 1.3-1.3 1.3-1.3 3.1 0 1.7 1.2 2.7 1.1 1 3.3 1 2.1 0 3.3-1 1.2-1 1.2-2.6ZM407 50l-1.5-.7q-.8-.2-1.7-.2-1.7 0-2.8.6-.4.2-.4.5 0 .4.6.7.5.2 2.1.4 3 .4 4.2.9 1.5.5 2.3 1.6.9 1 .9 2.2 0 1.6-1.4 2.7-2 1.6-5.3 1.6-1.3 0-2.5-.3l-2-.6-.4.3h-.6q-.7 0-1-.4-.5-.4-.5-1.5v-1q0-1.1.4-1.6.4-.4 1.1-.4.6 0 1 .3.3.3.5 1 .7.6 1.7.9 1 .3 2.2.3 2 0 3.2-.7.5-.3.5-.6 0-.6-.7-1-.8-.4-3.3-.7-3.6-.3-4.8-1.4-1.2-1-1.2-2.6 0-1.7 1.4-2.7 1.8-1.5 4.8-1.5l2 .2q1 .2 1.8.6l.5-.3.5-.1q.6 0 1 .5.4.4.4 1.5v.7q0 1-.2 1.4-.5.6-1.3.6-.5 0-1-.3-.3-.3-.5-.9Z"
  />
</svg>
