<svg
  xmlns="http://www.w3.org/2000/svg"
  width="796"
  height="481"
  fill="none"
  stroke-linecap="square"
  stroke-miterlimit="10"
>
  <path fill="#000000" d="M0 0h796v481H0V0Z" /><path
    stroke="#666"
    stroke-linecap="butt"
    d="M167.5 124.5v280m226-280v280m98-280v280m226-280v280m-634 0h688m-688-70h688m-688-70h688"
  /><path stroke="#fff" stroke-linecap="butt" d="M83.5 194.5h688" /><path
    stroke="#666"
    stroke-linecap="butt"
    d="M83.5 124.5h688"
  /><path
    d="M83.5 381.5h688m-688-23h688m-688-47h688m-688-23h688m-688-47h688m-688-23h688m-688-47h688m-688-24h688"
  /><clipPath id="a"><path
      d="M83.05 124.62h688.9v280.33H83.05V124.62Z"
    /></clipPath><path
    stroke="#f8e45c"
    stroke-linecap="butt"
    d="M153.6 194.7s45.3 43.71 54.13 48.63c8.84 4.9 18.97 1.82 26.52 5.65 7.55 3.83 15.1 11.2 22.65 18.16 7.55 6.96 15.72 18.11 23.57 24.6 7.86 6.47 24.58 17.67 36.87 22.32 12.3 4.64 104.06 15.73 126.53 19.08 22.48 3.35 44.95 7.11 67.42 9.93 22.48 2.82 72.28 8.16 97.06 10.05 24.78 1.9 49.57 2.5 74.35 3.66 24.78 1.17 79.53 3.57 79.53 3.57"
    clip-path="url(#a)"
  /><path
    stroke="#f66151"
    stroke-linecap="butt"
    d="M92.77 181.54s57.09 65.01 66.99 72.5c9.9 7.5 19.8 8.63 29.69 12.84 9.9 4.21 30.34 11.74 36.15 15.13 5.82 3.38 11.63 8.77 17.45 13 5.81 4.24 21.93 18.66 32.9 23.4 10.96 4.75 95.44 15.2 122.24 18.79 26.8 3.58 53.6 5 80.4 9.13 26.8 4.12 66.01 15 96.58 18.75 30.57 3.76 62.46 3.62 91.7 4.74 29.25 1.12 87.74 2.2 87.74 2.2"
    clip-path="url(#a)"
  /><path
    fill="#f8e45c"
    d="m149.35 190.46 4.25 2.74 4.24-2.74-2.74 4.24 2.74 4.24-4.24-2.74-4.25 2.74 2.75-4.24Zm54.14 48.62 4.24 2.75 4.25-2.75-2.75 4.25 2.75 4.24-4.25-2.74-4.24 2.74 2.74-4.24Zm26.51 5.66 4.25 2.74 4.24-2.74-2.74 4.24 2.74 4.24-4.24-2.74-4.24 2.74 2.74-4.24Zm22.66 18.16 4.24 2.74 4.24-2.74-2.74 4.24 2.74 4.24-4.24-2.74-4.24 2.74 2.74-4.24Zm23.57 24.59 4.24 2.74 4.25-2.74-2.75 4.24 2.75 4.24-4.25-2.74-4.24 2.74 2.74-4.24Zm36.87 22.32 4.24 2.75 4.25-2.75-2.75 4.25 2.75 4.24-4.25-2.74-4.24 2.74 2.74-4.24Zm126.53 19.09 4.24 2.74 4.25-2.75-2.75 4.25 2.75 4.24-4.25-2.74-4.24 2.74 2.74-4.24Zm67.42 9.93 4.24 2.74 4.24-2.74-2.74 4.24 2.74 4.24-4.24-2.74-4.24 2.74 2.74-4.24Zm97.05 10.05 4.25 2.74 4.24-2.74-2.74 4.24 2.74 4.24-4.24-2.74-4.24 2.74 2.74-4.24Zm74.36 3.66 4.24 2.74 4.24-2.74-2.74 4.24 2.74 4.24-4.24-2.74-4.24 2.74 2.74-4.24Zm79.53 3.56 4.24 2.75 4.24-2.74-2.74 4.24 2.74 4.24-4.24-2.74-4.24 2.74 2.74-4.24Z"
    clip-path="url(#a)"
  /><path
    fill="#f66151"
    d="m88.53 177.3 4.24 2.74 4.24-2.75-2.74 4.25 2.74 4.24-4.24-2.74-4.24 2.74 2.74-4.24Zm66.98 72.5 4.25 2.75 4.24-2.75-2.74 4.25 2.74 4.24-4.24-2.74-4.25 2.74 2.75-4.24Zm29.69 12.84 4.25 2.74 4.24-2.74-2.74 4.24 2.74 4.24-4.24-2.74-4.24 2.74 2.74-4.24Zm36.16 15.13 4.24 2.74 4.25-2.74-2.75 4.24 2.75 4.24-4.25-2.74-4.24 2.74 2.74-4.24Zm17.44 13 4.25 2.74 4.24-2.74-2.74 4.24 2.74 4.25-4.24-2.75-4.25 2.75 2.75-4.25Zm32.9 23.4 4.25 2.74 4.24-2.74-2.74 4.24 2.74 4.25-4.24-2.75-4.25 2.75 2.75-4.25Zm122.25 18.78 4.24 2.75 4.24-2.75-2.74 4.25 2.74 4.24-4.24-2.74-4.24 2.74 2.74-4.24Zm80.4 9.13 4.24 2.75 4.25-2.75-2.75 4.25 2.75 4.24-4.25-2.74-4.24 2.74 2.74-4.24Zm96.58 18.76 4.24 2.74 4.24-2.74-2.74 4.24 2.74 4.24-4.24-2.74-4.24 2.74 2.74-4.24Zm91.7 4.74 4.24 2.74 4.24-2.74-2.74 4.24 2.74 4.24-4.24-2.74-4.24 2.74 2.74-4.24Zm87.74 2.19 4.24 2.74 4.25-2.74-2.75 4.24 2.75 4.24-4.25-2.74-4.24 2.74 2.74-4.24Z"
    clip-path="url(#a)"
  /><path
    fill="#f3f3f3"
    d="M313.56 451.01h-2.9l-.3.74h.3q.42 0 .6.17.2.15.2.44 0 .26-.2.43-.18.16-.6.16h-1.63q-.44 0-.6-.16-.2-.17-.2-.45 0-.26.2-.44.2-.17.63-.15l1.9-4.7h-.79q-.44 0-.62-.16-.2-.17-.2-.44 0-.28.2-.44.18-.17.62-.17h2.6l2.39 5.9q.42 0 .54.1.28.19.28.52 0 .26-.18.43-.2.16-.61.16h-1.63q-.44 0-.62-.16-.17-.17-.17-.45 0-.26.17-.42.19-.17.62-.17h.3l-.3-.74Zm-.48-1.2-.97-2.38-.99 2.38h1.96Zm6.03 1.69 1.3-2.68q-.49 0-.61-.07-.3-.2-.3-.52 0-.26.17-.44.19-.17.63-.17h1.65q.43 0 .61.17.19.18.19.44 0 .27-.19.44-.19.15-.6.15h-.21l-2.02 4.13h-1.25l-2.01-4.13h-.17q-.43 0-.61-.15-.19-.17-.19-.44 0-.26.19-.44.19-.17.6-.17h1.63q.42 0 .61.17.19.18.19.44 0 .33-.28.52-.14.07-.64.07l1.3 2.68Zm10-.6h-4.92q.19.47.65.75.49.28 1.3.28.67 0 1.78-.28.45-.1.63-.1.25 0 .4.17.18.15.18.42 0 .23-.18.39-.23.22-1.15.42-.9.19-1.74.19-1.45 0-2.31-.81-.86-.82-.86-2 0-1.27.92-2.07.94-.8 2.16-.8.73 0 1.34.27.63.25.92.55.43.44.7 1.08.18.45.18 1.03v.51Zm-1.33-1.2q-.26-.52-.72-.77-.44-.26-1.06-.26-.6 0-1.06.26-.44.25-.72.77h3.56Zm5.08-2.08v.75q.75-.53 1.19-.72.43-.18.8-.18.6 0 1.15.43.38.3.38.6 0 .26-.2.45-.16.17-.41.17-.22 0-.47-.22-.25-.23-.44-.23-.25 0-.75.33-.5.3-1.25.93v1.82h1.7q.44 0 .61.17.19.15.19.44 0 .26-.19.43-.17.16-.6.16h-3.63q-.44 0-.63-.16-.17-.17-.17-.45 0-.26.17-.42.19-.17.63-.17h.72v-2.93h-.44q-.44 0-.63-.15-.17-.17-.17-.44 0-.26.17-.44.2-.17.63-.17h1.64Zm8.33 5.33v-.28q-.46.23-1 .36-.55.12-.99.12-.97 0-1.57-.51-.61-.52-.61-1.14 0-.75.76-1.4.78-.65 2.14-.65.55 0 1.27.13v-.3q0-.27-.24-.44-.23-.17-.89-.17-.53 0-1.37.22-.31.08-.5.08-.24 0-.4-.18-.17-.18-.17-.45 0-.16.05-.26.06-.11.17-.18.11-.06.44-.15.45-.13.9-.2.48-.08.85-.08 1.11 0 1.74.48.62.48.62 1.33v2.47h.2q.43 0 .61.17.2.15.2.44 0 .26-.2.43-.18.16-.6.16h-1.41Zm0-2.16q-.72-.14-1.33-.14-.74 0-1.27.36-.32.24-.32.47 0 .17.15.27.3.2.8.2.44 0 .98-.17.55-.17.99-.47v-.52Zm7.23-2.8v-.37h1.4q.45 0 .62.17.19.18.19.44 0 .27-.2.44-.16.15-.6.15h-.2v4.38q0 .64-.27 1.1-.27.48-.83.82-.55.35-1.23.35h-1.36q-.44 0-.63-.18-.17-.17-.17-.43 0-.27.17-.44.19-.16.63-.16h1.33q.54 0 .84-.31.31-.3.31-.75v-.58q-.39.25-.81.38-.4.14-.84.14-1.22 0-2.05-.81-.83-.83-.83-2.04 0-1.2.83-2.01.83-.83 2.05-.83.45 0 .86.14.42.13.8.4Zm0 2.3q0-.67-.5-1.15-.48-.49-1.17-.49t-1.17.49q-.49.48-.49 1.15 0 .66.49 1.14.48.49 1.17.49t1.17-.49q.5-.48.5-1.14Zm8.69.61h-4.92q.19.47.65.75.49.28 1.3.28.67 0 1.78-.28.45-.1.63-.1.25 0 .4.17.18.15.18.42 0 .23-.18.39-.23.22-1.15.42-.9.19-1.74.19-1.45 0-2.31-.81-.86-.82-.86-2 0-1.27.92-2.07.94-.8 2.16-.8.73 0 1.34.27.63.25.92.55.43.44.7 1.08.18.45.18 1.03v.51Zm-1.33-1.2q-.26-.52-.72-.77-.44-.26-1.06-.26-.6 0-1.06.26-.44.25-.72.77h3.56Zm11.1.28v1.77h3.06v-.66q0-.42.15-.6.18-.2.44-.2.27 0 .44.2.17.18.17.6v1.86h-5.66q-.43 0-.62-.16-.19-.17-.19-.45 0-.26.19-.42.19-.17.62-.17h.2v-4.7h-.2q-.43 0-.62-.16-.19-.17-.19-.44 0-.28.19-.44.19-.17.62-.17h5.4v1.83q0 .44-.18.62-.15.18-.43.18-.27 0-.44-.18-.16-.18-.16-.62v-.63h-2.8v1.74h1.05q0-.47.1-.6.17-.3.51-.3.27 0 .42.2.18.18.18.62v1.38q0 .39-.1.53-.19.28-.5.28-.34 0-.51-.3-.1-.12-.1-.6h-1.05Zm7.01-2.36v.4q.33-.27.72-.41.39-.14.86-.14 1.06 0 1.69.67.48.51.48 1.37v2.24q.4 0 .56.17.2.15.2.44 0 .26-.2.43-.18.16-.6.16h-1.1q-.42 0-.6-.16-.2-.17-.2-.45 0-.26.18-.42.18-.17.57-.17v-2.27q0-.39-.22-.58-.28-.23-.82-.23-.41 0-.74.17-.31.16-.78.67v2.24q.45 0 .6.1.28.16.28.5 0 .27-.2.44-.16.16-.6.16h-1.36q-.44 0-.63-.16-.18-.17-.18-.45 0-.33.28-.5.14-.1.6-.1v-2.92q-.38 0-.57-.15-.17-.17-.17-.44 0-.26.19-.44.18-.17.62-.17h1.14Zm10.08.22q.22-.2.45-.2.25 0 .42.19.18.18.18.6v.79q0 .42-.18.6-.17.2-.43.2-.25 0-.43-.15-.1-.1-.18-.44-.07-.32-.35-.48-.47-.28-1.2-.28-.86 0-1.38.5-.5.5-.5 1.26 0 .7.49 1.11.5.41 1.64.41.75 0 1.22-.16.28-.09.53-.3.25-.24.47-.24.23 0 .4.18.2.18.2.43 0 .4-.55.76-.8.53-2.36.53-1.41 0-2.2-.57-1.04-.79-1.04-2.15 0-1.28.85-2.12.86-.84 2.23-.84.5 0 .92.09.44.1.8.28Zm8.25 2.55q0 .69-.4 1.34-.37.64-1.13 1.03-.75.38-1.58.38-.81 0-1.56-.38-.75-.37-1.16-1.01-.39-.66-.39-1.38 0-.72.4-1.4.4-.7 1.15-1.1.75-.4 1.56-.4.83 0 1.58.4.76.4 1.14 1.11.39.69.39 1.4Zm-1.2 0q0-.58-.41-1.06-.58-.66-1.5-.66-.81 0-1.36.53-.55.52-.55 1.2 0 .57.55 1.05.56.48 1.36.48.81 0 1.36-.48t.55-1.06Zm7.84-5.03v6.39h.2q.42 0 .61.17.19.15.19.44 0 .26-.19.43-.17.16-.6.16h-1.41v-.3q-.41.25-.86.36-.46.13-.93.13-1.35 0-2.18-.78-.83-.79-.83-1.94 0-1.22.86-2.08.87-.87 2.12-.87.47 0 .93.15.45.14.89.42v-1.5h-.2q-.44 0-.63-.15-.17-.17-.17-.44t.17-.42q.19-.17.62-.17h1.4Zm-1.2 5.09q0-.75-.54-1.27-.51-.51-1.26-.51t-1.28.51q-.52.52-.52 1.25 0 .66.47 1.08.47.42 1.33.42.84 0 1.31-.42.49-.42.49-1.06Zm8.45.45h-4.92q.19.47.65.75.49.28 1.3.28.67 0 1.78-.28.45-.1.63-.1.25 0 .4.17.18.15.18.42 0 .23-.18.39-.23.22-1.15.42-.9.19-1.74.19-1.45 0-2.31-.81-.86-.82-.86-2 0-1.27.92-2.07.94-.8 2.16-.8.73 0 1.34.27.63.25.92.55.43.44.7 1.08.18.45.18 1.03v.51Zm-1.33-1.2q-.26-.52-.72-.77-.44-.26-1.06-.26-.6 0-1.06.26-.44.25-.72.77h3.56Zm12.9-2.66v4.7h.82q.42 0 .6.18.2.15.2.44 0 .26-.2.43-.18.16-.6.16h-2.81q-.44 0-.63-.16-.19-.17-.19-.45 0-.26.2-.42.18-.17.62-.17h.8v-4.7h-1.3v1.13q0 .44-.17.63-.18.17-.44.17-.27 0-.44-.17-.16-.19-.16-.63v-2.34h6.22v2.34q0 .44-.17.63-.15.17-.44.17-.25 0-.42-.17-.17-.19-.17-.63v-1.14h-1.31Zm6.85-1.68v1.26h-1.42v-1.26h1.42Zm.17 2.26v4.13h1.44q.44 0 .61.17.19.15.19.44 0 .26-.19.43-.17.16-.6.16h-4.1q-.43 0-.61-.16-.19-.17-.19-.45 0-.26.19-.42.19-.17.6-.17h1.46v-2.93h-.97q-.44 0-.62-.15-.2-.17-.2-.44 0-.26.2-.44.18-.17.62-.17h2.17Zm4.55 0v.35q.3-.29.53-.4.24-.1.55-.1.26 0 .51.12.27.13.5.4.32-.27.63-.4.33-.12.67-.12.66 0 1.08.35.55.47.55 1.24v2.69q.37 0 .54.17.19.17.19.44 0 .26-.19.43-.17.16-.6.16h-1.15v-3.8q0-.26-.1-.37-.08-.11-.3-.11-.2 0-.36.1-.22.15-.53.56v2.42q.37 0 .54.17.19.17.19.44 0 .26-.19.43-.17.16-.6.16h-1.15v-3.8q0-.26-.1-.37-.1-.11-.3-.11-.22 0-.43.14-.2.12-.48.51v2.43q.38 0 .55.17.18.17.18.44 0 .26-.18.43-.18.16-.61.16h-1.08q-.44 0-.63-.16-.18-.17-.18-.45 0-.26.18-.42.2-.17.57-.17v-2.93q-.38 0-.57-.15-.18-.17-.18-.44 0-.26.18-.44.2-.17.63-.17h1.14Zm11.86 3.28h-4.92q.19.47.65.75.49.28 1.3.28.67 0 1.78-.28.45-.1.63-.1.25 0 .4.17.18.15.18.42 0 .23-.18.39-.23.22-1.15.42-.9.19-1.74.19-1.45 0-2.31-.81-.86-.82-.86-2 0-1.27.92-2.07.94-.8 2.16-.8.73 0 1.34.27.63.25.92.55.43.44.7 1.08.18.45.18 1.03v.51Zm-1.33-1.2q-.26-.52-.72-.77-.44-.26-1.06-.26-.6 0-1.06.26-.44.25-.72.77h3.56Zm11.9.33q0-1.02.34-2.08.25-.77.78-1.72.37-.67.54-.83.2-.15.41-.15.27 0 .44.17.17.17.17.42 0 .17-.14.4-.63 1.04-.92 1.96-.28.9-.28 1.83 0 .94.28 1.84.3.9.92 1.95.14.24.14.41 0 .25-.17.42-.17.18-.44.18-.2 0-.38-.15-.23-.2-.62-.92-.55-1.03-.75-1.7-.33-1.03-.33-2.03Zm8.73-1q-.3-.17-.63-.27-.31-.1-.67-.1-.7 0-1.11.24-.17.1-.17.22 0 .13.23.27.19.1.85.17 1.18.17 1.65.33.63.22.96.65.34.43.34.9 0 .63-.58 1.07-.81.63-2.1.63-.54 0-.98-.1-.43-.07-.8-.26-.09.08-.2.12-.1.05-.2.05-.28 0-.45-.19-.16-.19-.16-.62v-.4q0-.43.16-.62.17-.19.43-.19.22 0 .36.13.16.1.24.4.28.24.65.37.4.1.91.1.81 0 1.28-.25.22-.12.22-.26 0-.24-.31-.4-.31-.15-1.28-.26-1.46-.14-1.94-.58-.49-.42-.49-1.06 0-.64.55-1.06.74-.6 1.92-.6.43 0 .8.08.4.08.75.25l.2-.12q.1-.05.18-.05.25 0 .4.19.17.19.17.62v.3q0 .4-.09.53-.19.27-.52.27-.2 0-.37-.13-.16-.14-.2-.37Zm8.7 1.87h-4.92q.19.47.65.75.49.28 1.3.28.67 0 1.78-.28.45-.1.63-.1.25 0 .4.17.18.15.18.42 0 .23-.18.39-.23.22-1.15.42-.9.19-1.74.19-1.45 0-2.31-.81-.86-.82-.86-2 0-1.27.92-2.07.94-.8 2.16-.8.73 0 1.34.27.63.25.92.55.43.44.7 1.08.18.45.18 1.03v.51Zm-1.33-1.2q-.26-.52-.72-.77-.44-.26-1.06-.26-.6 0-1.06.26-.44.25-.72.77h3.56Zm7.19-1.86q.22-.2.45-.2.25 0 .42.19.18.18.18.6v.79q0 .42-.18.6-.17.2-.43.2-.25 0-.43-.15-.1-.1-.18-.44-.07-.32-.35-.48-.47-.28-1.2-.28-.86 0-1.38.5-.5.5-.5 1.26 0 .7.49 1.11.5.41 1.64.41.75 0 1.22-.16.28-.09.53-.3.25-.24.47-.24.23 0 .4.18.2.18.2.43 0 .4-.55.76-.8.53-2.36.53-1.41 0-2.2-.57-1.04-.79-1.04-2.15 0-1.28.85-2.12.86-.84 2.23-.84.5 0 .92.09.44.1.8.28Zm8.25 2.55q0 .69-.4 1.34-.37.64-1.13 1.03-.75.38-1.58.38-.81 0-1.56-.38-.75-.37-1.16-1.01-.39-.66-.39-1.38 0-.72.4-1.4.4-.7 1.15-1.1.75-.4 1.56-.4.83 0 1.58.4.76.4 1.14 1.11.39.69.39 1.4Zm-1.2 0q0-.58-.41-1.06-.58-.66-1.5-.66-.81 0-1.36.53-.55.52-.55 1.2 0 .57.55 1.05.56.48 1.36.48.81 0 1.36-.48t.55-1.06Zm3.87-2.77v.4q.33-.27.72-.41.39-.14.86-.14 1.06 0 1.69.67.48.51.48 1.37v2.24q.4 0 .56.17.2.15.2.44 0 .26-.2.43-.18.16-.6.16h-1.1q-.42 0-.6-.16-.2-.17-.2-.45 0-.26.18-.42.18-.17.57-.17v-2.27q0-.39-.22-.58-.28-.23-.82-.23-.41 0-.74.17-.31.16-.78.67v2.24q.45 0 .6.1.28.16.28.5 0 .27-.2.44-.16.16-.6.16h-1.36q-.44 0-.63-.16-.18-.17-.18-.45 0-.33.28-.5.14-.1.6-.1v-2.92q-.38 0-.57-.15-.17-.17-.17-.44 0-.26.19-.44.18-.17.62-.17h1.14Zm10.97-2.26v6.39h.2q.42 0 .61.17.19.15.19.44 0 .26-.19.43-.17.16-.6.16h-1.41v-.3q-.41.25-.86.36-.46.13-.93.13-1.35 0-2.18-.78-.83-.79-.83-1.94 0-1.22.86-2.08.87-.87 2.12-.87.47 0 .93.15.45.14.89.42v-1.5h-.2q-.44 0-.63-.15-.17-.17-.17-.44t.17-.42q.19-.17.62-.17h1.4Zm-1.2 5.09q0-.75-.54-1.27-.51-.51-1.26-.51t-1.28.51q-.52.52-.52 1.25 0 .66.47 1.08.47.42 1.33.42.84 0 1.31-.42.49-.42.49-1.06Zm6.75-1.42q-.3-.17-.63-.27-.31-.1-.67-.1-.7 0-1.11.24-.17.1-.17.22 0 .13.23.27.19.1.85.17 1.18.17 1.65.33.63.22.96.65.34.43.34.9 0 .63-.58 1.07-.81.63-2.1.63-.54 0-.98-.1-.43-.07-.8-.26-.09.08-.2.12-.1.05-.2.05-.28 0-.45-.19-.16-.19-.16-.62v-.4q0-.43.16-.62.17-.19.43-.19.22 0 .36.13.16.1.24.4.28.24.65.37.4.1.91.1.81 0 1.28-.25.22-.12.22-.26 0-.24-.31-.4-.31-.15-1.28-.26-1.46-.14-1.94-.58-.49-.42-.49-1.06 0-.64.55-1.06.74-.6 1.92-.6.43 0 .8.08.4.08.75.25l.2-.12q.1-.05.18-.05.25 0 .4.19.17.19.17.62v.3q0 .4-.09.53-.19.27-.52.27-.2 0-.37-.13-.16-.14-.2-.37Zm8.17-3.52-3.85 8.3q-.15.31-.26.4-.16.13-.38.13-.25 0-.43-.19-.18-.17-.18-.39 0-.15.14-.47l3.88-8.3q.14-.29.25-.38.16-.13.38-.13.23 0 .4.17.19.18.19.4 0 .15-.14.46Zm6.39 2.33q.22-.2.45-.2.25 0 .42.19.18.18.18.6v.79q0 .42-.18.6-.17.2-.43.2-.25 0-.43-.15-.1-.1-.18-.44-.07-.32-.35-.48-.47-.28-1.2-.28-.86 0-1.38.5-.5.5-.5 1.26 0 .7.49 1.11.5.41 1.64.41.75 0 1.22-.16.28-.09.53-.3.25-.24.47-.24.23 0 .4.18.2.18.2.43 0 .4-.55.76-.8.53-2.36.53-1.41 0-2.2-.57-1.04-.79-1.04-2.15 0-1.28.85-2.12.86-.84 2.23-.84.5 0 .92.09.44.1.8.28Zm5.73-2.48v6.39h1.44q.44 0 .63.17.18.15.18.44 0 .26-.18.43-.2.16-.63.16h-4.08q-.43 0-.62-.16-.19-.17-.19-.45 0-.26.19-.42.18-.17.62-.17h1.44v-5.2h-.97q-.42 0-.6-.16-.2-.17-.2-.44t.18-.42q.18-.17.62-.17h2.17Zm6.83 0v1.26h-1.42v-1.26h1.42Zm.17 2.26v4.13h1.44q.44 0 .61.17.19.15.19.44 0 .26-.19.43-.17.16-.6.16h-4.1q-.42 0-.61-.16-.19-.17-.19-.45 0-.26.19-.42.18-.17.6-.17h1.46v-2.93h-.97q-.44 0-.62-.15-.2-.17-.2-.44 0-.26.2-.44.18-.17.62-.17h2.17Zm4.9 4.67v1.97h.73q.44 0 .62.16.2.17.2.44 0 .26-.2.43-.18.18-.62.18h-2.13q-.43 0-.62-.18-.17-.17-.17-.43 0-.27.18-.44.2-.16.61-.16h.2v-5.44h-.2q-.43 0-.62-.15-.17-.17-.17-.44 0-.26.17-.44.19-.17.62-.17h1.4v.42q.43-.3.88-.43.46-.14.93-.14 1.23 0 2.09.84.88.83.88 1.9 0 1.2-1.04 1.97-.84.64-1.92.64-.47 0-.92-.12-.44-.14-.9-.4Zm3.57-2.06q0-.26-.2-.64-.19-.39-.61-.66-.4-.26-.97-.26-.89 0-1.42.67-.36.47-.36.9 0 .48.51.93.52.45 1.27.45.77 0 1.27-.45.51-.45.51-.94Zm5.44-.2q0 1.03-.33 2.08-.26.78-.78 1.71-.4.7-.58.85-.17.15-.39.15-.26 0-.44-.17-.17-.17-.17-.42 0-.17.14-.4.63-1.05.9-1.96.3-.9.3-1.84 0-.92-.3-1.83-.27-.92-.9-1.95-.14-.24-.14-.4 0-.26.17-.43.18-.17.44-.17.22 0 .38.14.23.2.62.92.56 1.03.77 1.7.3 1.03.3 2.02ZM30.64 334.17l3.41 1.13v1.34l-5.9.72q-.04.27-.2.4-.15.15-.38.15-.29 0-.46-.17-.17-.2-.17-.63v-1.6q0-.43.17-.62.16-.18.44-.18.27 0 .44.18.15.19.15.61v.64l3.36-.4-2.8-.94v-1.25l2.8-.94-3.36-.4v.62q0 .44-.15.63-.17.18-.44.18-.28 0-.44-.18-.17-.2-.17-.63v-1.6q0-.42.17-.6.16-.19.44-.19.22 0 .4.16.15.14.2.4l5.9.7v1.32l-3.4 1.15Zm.55-9.51v5.01h-1.1v-5.01h1.1Zm-.76-5.27 2.42-2q0-.36.17-.53.17-.19.44-.19.26 0 .43.2.16.18.16.6v1.36q0 .42-.16.61-.17.19-.45.19-.25 0-.4-.17-.18-.18-.2-.5l-1.48 1.2 1.49 1.22q.01-.35.18-.5.18-.17.43-.17.26 0 .43.18.16.17.16.61v1.35q0 .43-.16.62-.17.19-.45.19-.25 0-.42-.19-.17-.19-.17-.53l-2.44-2-2.27 1.9q0 .35-.17.54-.17.17-.42.17-.28 0-.44-.19-.17-.19-.17-.62v-1.11q0-.42.17-.61.16-.19.44-.19.19 0 .36.11.1.08.23.34l1.35-1.1-1.35-1.12q-.14.27-.23.35-.17.12-.36.12-.27 0-.44-.18-.17-.2-.17-.63v-1.1q0-.43.17-.62.16-.19.44-.19.25 0 .42.2.17.16.17.5l2.29 1.88Zm1.18-5.51h1.24v-1.22q0-.42.17-.61.16-.19.44-.19.26 0 .43.19.16.19.16.6v2.62q0 .44-.16.62-.17.17-.45.17-.26 0-.42-.18-.17-.19-.17-.61v-.19h-4.7v.19q0 .44-.16.62-.17.17-.44.17-.28 0-.44-.17-.17-.18-.17-.62v-2.77q0-1.22.67-1.92.67-.72 1.63-.72.51 0 .98.24.36.18.7.6.35.43.52.88.17.44.17 1.16v1.14Zm-1.2 0v-1.11q0-.8-.34-1.25-.36-.46-.86-.46-.43 0-.74.38-.33.36-.33 1.05v1.39h2.27Zm3.33-5.94q.19.16.25.25.04.1.04.23 0 .29-.17.46-.18.15-.62.15h-.81q-.43 0-.61-.15-.2-.17-.2-.46 0-.2.12-.34.1-.16.37-.22.27-.08.36-.17.17-.16.36-.6.19-.43.19-.95 0-.8-.38-1.31-.21-.33-.56-.33-.22 0-.4.16-.2.15-.33.51-.1.24-.25 1.05-.17.99-.42 1.49-.27.5-.74.8-.47.29-1.01.29-.86 0-1.5-.72-.66-.72-.66-1.87 0-.47.1-.86.1-.4.3-.72-.21-.24-.21-.47 0-.27.18-.42.18-.18.61-.18h.9q.43 0 .62.18.19.15.19.42 0 .22-.14.39-.1.12-.4.19-.3.06-.43.17-.22.15-.36.5-.16.34-.16.78 0 .66.3 1.03.3.38.62.38.24 0 .44-.14.2-.16.33-.47.08-.2.27-1.11.17-.92.39-1.42.21-.5.68-.83.46-.33 1.1-.33.89 0 1.42.62.7.85.7 2.13 0 .5-.12.97-.11.47-.36.92Zm-4.52-7.25h3.63v-.44q0-.44.17-.6.16-.2.44-.2.26 0 .43.2.16.16.16.6v1.58q0 .44-.16.63-.17.17-.45.17-.25 0-.42-.17-.17-.2-.17-.57h-4.7v.19q0 .42-.16.61-.17.19-.44.19-.28 0-.44-.19-.17-.19-.17-.61v-1.39l4.83-3.08h-3.63v.44q0 .44-.15.62-.17.18-.44.18-.28 0-.44-.18-.17-.18-.17-.62v-1.58q0-.44.17-.6.16-.2.44-.2.27 0 .44.2.15.16.15.54h5.91v1.19l-4.83 3.09Zm2.11-7.27h1.52V293q0-.44.17-.61.16-.19.44-.19.26 0 .43.19.16.17.16.6v1.83q0 .43-.16.61-.17.2-.45.2-.26 0-.42-.2-.17-.18-.17-.6v-.2h-4.7v.2q0 .42-.16.6-.17.2-.44.2-.28 0-.44-.2-.17-.18-.17-.6v-2.72q0-1.29.64-1.97.63-.7 1.53-.7.57 0 1.03.32.46.33.82.99.32-.38.84-.82.34-.26 1.05-.73 0-.45.1-.6.18-.26.5-.26.27 0 .44.19.16.17.16.6v.7q-2.25 1.45-2.72 2.42v1.18Zm-1.2 0v-.93q0-.53-.16-.94-.2-.55-.44-.74-.23-.18-.46-.18-.35 0-.63.36-.3.36-.3 1.06v1.37h1.99Zm2.72-12.8h-4.7v.2q0 .43-.16.62-.17.19-.44.19-.28 0-.44-.19-.17-.19-.17-.63v-3q0-1.07.61-1.73.6-.66 1.42-.66.4 0 .74.16.34.14.64.45.34-.56.8-.84.45-.3 1.03-.3.45 0 .84.2.3.16.47.38.25.31.4.75.16.42.16 1.08v3.51q0 .44-.16.63-.17.19-.45.19-.26 0-.42-.19-.17-.19-.17-.63v-.18Zm-2.96-1.18v-1.33q0-.7-.36-1.17-.23-.31-.59-.31-.31 0-.55.3-.25.3-.25.93v1.58h1.75Zm2.96 0v-2.08q0-.73-.22-1.03-.16-.23-.47-.23-.36 0-.7.45-.36.45-.36 1.3v1.59h1.75Zm0-5.58h-4.7q0 .4-.16.58-.17.17-.44.17-.28 0-.44-.19-.17-.18-.17-.6v-2.52q0-.6.22-1.14.22-.56.56-.9.25-.27.69-.54.44-.28.87-.42.43-.14 1.07-.14h.56q.77 0 1.36.26.58.25.95.68.38.4.55.78.28.6.28 1.51v2.42q0 .43-.16.61-.17.2-.45.2-.26 0-.42-.2-.17-.18-.17-.56Zm0-1.19v-1.28q0-.72-.2-1.08-.27-.48-.7-.71-.42-.24-1.07-.24h-.56q-.58 0-1 .22-.68.33-.93.77-.25.42-.25 1.06v1.26h4.7Zm-1.66-11.01v5.01h-1.1v-5.01h1.1Zm.14-3.24h1.52V258q0-.44.17-.61.16-.19.44-.19.26 0 .43.19.16.17.16.6v1.83q0 .43-.16.61-.17.2-.45.2-.26 0-.42-.2-.17-.18-.17-.6v-.2h-4.7v.2q0 .42-.16.6-.17.2-.44.2-.28 0-.44-.2-.17-.18-.17-.6v-2.72q0-1.29.64-1.97.63-.7 1.53-.7.57 0 1.03.32.46.33.82.99.32-.38.84-.82.34-.26 1.05-.73 0-.45.1-.6.18-.26.5-.26.27 0 .44.19.16.17.16.6v.7q-2.25 1.45-2.72 2.42v1.18Zm-1.2 0v-.93q0-.53-.16-.94-.2-.55-.44-.74-.23-.18-.46-.18-.35 0-.63.36-.3.36-.3 1.06v1.37h1.99Zm3.92-9.32h-.28q.23.45.36 1 .12.54.12.98 0 .97-.51 1.58-.52.6-1.14.6-.75 0-1.4-.76-.65-.78-.65-2.14 0-.55.13-1.26h-.3q-.27 0-.44.23-.17.23-.17.9 0 .52.22 1.37.08.3.08.5 0 .23-.18.4-.18.16-.45.16-.16 0-.26-.05-.11-.06-.18-.17-.06-.11-.15-.44-.13-.45-.2-.9-.08-.47-.08-.85 0-1.1.48-1.73.48-.63 1.33-.63h2.47v-.2q0-.42.17-.61.16-.19.44-.19.26 0 .43.19.16.19.16.61v1.4Zm-2.16 0q-.14.71-.14 1.32 0 .74.36 1.27.24.33.47.33.17 0 .27-.16.2-.3.2-.8 0-.43-.17-.98t-.47-.98h-.52Zm-1.96-5.63h2.4q.4 0 .52-.16.18-.23.18-.87 0-.92-.39-1.7-.14-.3-.14-.47 0-.24.18-.4.17-.18.42-.18.23 0 .4.19.28.3.52 1.14.22.84.22 1.42 0 1.12-.49 1.69-.48.54-1.18.54h-2.64v.44q0 .44-.16.63-.17.17-.44.17-.26 0-.44-.17-.17-.2-.17-.63v-.44h-1.08q-.43 0-.6-.15-.2-.17-.2-.44t.2-.44q.17-.17.6-.17h1.08v-2.22q0-.42.17-.6.18-.2.44-.2.27 0 .44.2.16.18.16.6v2.22Zm2.07-10.3v4.93q.47-.2.75-.66.28-.48.28-1.3 0-.67-.28-1.78-.1-.45-.1-.62 0-.25.17-.41.15-.17.42-.17.23 0 .39.17.22.23.42 1.16.19.9.19 1.73 0 1.45-.81 2.31-.82.86-2 .86-1.27 0-2.07-.92-.8-.94-.8-2.16 0-.73.27-1.34.25-.62.55-.92.44-.42 1.08-.69.45-.19 1.03-.19H32Zm-1.2 1.33q-.52.27-.77.72-.26.44-.26 1.06 0 .61.26 1.07.25.43.77.71v-3.56Zm.33-11.89q-1.02 0-2.08-.34-.77-.25-1.72-.78-.67-.38-.83-.55-.15-.19-.15-.4 0-.27.17-.44.17-.18.42-.18.17 0 .4.14 1.04.63 1.96.93.9.28 1.83.28.94 0 1.84-.28.9-.3 1.96-.93.23-.14.4-.14.25 0 .42.18.18.17.18.43 0 .2-.15.38-.2.23-.92.62-1.03.55-1.7.75-1.03.33-2.03.33Zm-2.9-8.36q.7 0 1.2.5.48.5.48 1.2t-.48 1.2q-.5.5-1.2.5-.71 0-1.21-.5t-.5-1.2q0-.7.5-1.2.48-.5 1.2-.5Zm0 .75q-.41 0-.68.28-.28.28-.28.68 0 .39.28.67.27.28.67.28t.67-.28q.29-.28.29-.67 0-.4-.29-.68-.28-.28-.67-.28Zm1.77-2.15 1.44 4.42q.05.17.05.25 0 .12-.11.23-.11.11-.28.11-.13 0-.22-.1-.08-.04-.14-.26l-1.44-4.44q-.06-.15-.06-.23 0-.14.12-.23.11-.11.27-.11.12 0 .23.07.08.07.14.29Zm2.53-.11q.7 0 1.2.5t.5 1.2q0 .7-.5 1.2-.5.49-1.2.49t-1.2-.49q-.5-.5-.5-1.2t.5-1.2q.49-.5 1.2-.5Zm0 .75q-.4 0-.67.28-.28.28-.28.67t.28.67q.27.28.67.28t.68-.28q.28-.28.28-.67 0-.4-.28-.67-.28-.28-.68-.28Zm-1.4-5.82q1.03 0 2.08.33.78.27 1.72.78.68.4.84.58.16.17.16.4 0 .26-.18.43-.17.17-.42.17-.17 0-.4-.14-1.05-.62-1.96-.9-.9-.3-1.84-.3-.92 0-1.83.3-.92.28-1.95.9-.24.14-.4.14-.26 0-.43-.17-.17-.17-.17-.44 0-.22.14-.37.2-.24.92-.63 1.03-.56 1.7-.76 1.03-.32 2.02-.32ZM62.16 404.2v.7h-5.02v-.7h5.02Zm3.03.64q.45-.67.94-1 .48-.33 1.08-.33.78 0 1.39.66.6.65.6 1.62 0 .88-.56 1.61-.54.72-1.53.72-.64 0-1.2-.39-.55-.39-.86-1.2-.4-1.02-.4-2.25 0-.92.37-1.72.28-.61.75-1.08.47-.47 1.1-.76.62-.3 1.35-.3.49 0 .81.2.14.08.14.24 0 .1-.06.17-.06.06-.15.06-.08 0-.2-.06-.23-.11-.59-.11-1.14 0-2.09.98-.94.99-.94 2.33 0 .2.05.61Zm.11.81q.22 1.07.69 1.53.48.46 1.14.46.65 0 1.1-.52.48-.51.48-1.33 0-.78-.47-1.28t-1.06-.5q-.57 0-1.1.49-.34.32-.78 1.15Zm10.6-1.98v1.22q0 1.58-.74 2.51-.6.72-1.5.72-.44 0-.83-.17-.37-.17-.64-.48-.17-.2-.37-.61-.2-.44-.29-.8-.14-.5-.14-1.17v-1.22q0-1.6.75-2.52.6-.73 1.5-.73.44 0 .82.17.39.17.65.49.17.2.38.64.2.42.3.76.12.5.12 1.19Zm-.48.06q0-.7-.2-1.3-.2-.6-.44-.95-.15-.22-.39-.36-.32-.2-.75-.2-.82 0-1.3.84-.46.85-.46 1.97v1.08q0 .7.2 1.31.2.6.45.95.14.2.38.35.33.22.75.22.83 0 1.3-.85.47-.86.47-1.98v-1.08Zm-13.26-69.61v.7h-5.02v-.7h5.02Zm5.4 1.68H64.3v-.56l2.73-4.73h1.04v4.81h.4q.19 0 .27.06.08.06.08.19 0 .1-.08.17-.08.06-.27.06h-.4v1.57h.4q.19 0 .27.07.08.07.08.18 0 .1-.08.18-.08.07-.27.07h-1.83q-.17 0-.25-.07-.07-.07-.07-.18 0-.11.07-.18.08-.07.25-.07h.93v-1.57Zm0-.48v-4.31h-.24l-2.5 4.31h2.75Zm8.35-1.73v1.21q0 1.58-.75 2.52-.6.72-1.5.72-.44 0-.83-.17-.37-.18-.64-.49-.17-.19-.37-.6-.2-.44-.29-.8-.14-.5-.14-1.18v-1.21q0-1.6.75-2.52.6-.73 1.5-.73.44 0 .82.17.39.17.65.48.17.2.38.64.2.42.3.77.12.5.12 1.19Zm-.48.06q0-.7-.2-1.3-.21-.6-.45-.95-.15-.22-.39-.36-.32-.2-.75-.2-.82 0-1.3.84-.46.84-.46 1.97v1.08q0 .7.2 1.3.2.6.45.96.14.2.38.35.33.21.75.21.83 0 1.3-.84.47-.86.47-1.98v-1.08Zm-13.27-69.62v.7h-5.02v-.7h5.02Zm2.37 3.25h3.79v-.18q0-.18.06-.25.08-.08.19-.08.1 0 .17.08.08.07.08.25v.68h-4.77v-.73q1.5-1.34 2.92-2.74.66-.65.9-.95.26-.31.34-.53.09-.23.09-.47 0-.64-.52-1.12-.5-.49-1.21-.49-.64 0-1.14.38-.5.36-.65.9-.04.14-.09.2-.06.04-.16.04t-.17-.06q-.06-.07-.06-.16 0-.28.3-.77.3-.48.84-.75.55-.28 1.13-.28.92 0 1.57.64.66.64.66 1.46 0 .32-.1.62-.12.28-.38.63-.27.32-.96 1-1.73 1.71-2.83 2.65v.03Zm11.38-3.78v1.22q0 1.58-.75 2.52-.6.72-1.5.72-.44 0-.83-.18-.37-.17-.64-.48-.17-.19-.37-.61-.2-.44-.29-.8-.14-.5-.14-1.17v-1.22q0-1.6.75-2.51.6-.74 1.5-.74.44 0 .82.17.39.18.65.49.17.2.38.64.2.42.3.76.12.5.12 1.2Zm-.48.06q0-.7-.2-1.3-.21-.6-.45-.95-.15-.21-.39-.35-.32-.2-.75-.2-.82 0-1.3.84-.46.84-.46 1.96v1.08q0 .7.2 1.32.2.59.45.95.14.2.38.34.33.22.75.22.83 0 1.3-.84.47-.86.47-1.99v-1.08Zm.47-70.14v1.22q0 1.58-.74 2.51-.6.72-1.5.72-.44 0-.83-.17-.37-.17-.64-.48-.17-.2-.37-.61-.2-.44-.29-.8-.14-.5-.14-1.17v-1.22q0-1.6.75-2.52.6-.73 1.5-.73.44 0 .82.17.39.17.65.48.17.2.38.65.2.42.3.76.12.5.12 1.19Zm-.48.06q0-.7-.2-1.3-.2-.6-.44-.95-.15-.22-.39-.36-.32-.2-.75-.2-.82 0-1.3.84-.46.85-.46 1.97v1.08q0 .7.2 1.31.2.6.45.95.14.2.38.35.33.22.75.22.83 0 1.3-.85.47-.86.47-1.98v-1.08Zm-10.89-66.36h3.79v-.2q0-.16.06-.24.08-.08.19-.08.1 0 .17.08.08.08.08.25v.69h-4.77v-.74q1.5-1.34 2.92-2.73.66-.66.9-.96.26-.3.34-.53.09-.23.09-.47 0-.64-.52-1.12-.5-.48-1.21-.48-.64 0-1.14.37-.5.36-.65.9-.04.15-.09.2-.06.04-.16.04t-.17-.06q-.06-.06-.06-.16 0-.28.3-.76.3-.49.84-.75.55-.28 1.13-.28.92 0 1.57.64.66.64.66 1.45 0 .33-.1.62-.12.29-.38.63-.27.33-.96 1-1.73 1.72-2.83 2.66v.03Zm11.38-3.78v1.21q0 1.58-.75 2.52-.6.72-1.5.72-.44 0-.83-.17-.37-.18-.64-.49-.17-.19-.37-.6-.2-.44-.29-.8-.14-.5-.14-1.18v-1.21q0-1.6.75-2.52.6-.73 1.5-.73.44 0 .82.17.39.17.65.48.17.2.38.64.2.42.3.77.12.5.12 1.19Zm-.48.06q0-.7-.2-1.3-.21-.6-.45-.95-.15-.22-.39-.36-.32-.2-.75-.2-.82 0-1.3.84-.46.84-.46 1.97v1.08q0 .7.2 1.3.2.6.45.96.14.2.38.35.33.21.75.21.83 0 1.3-.84.47-.86.47-1.98v-1.08Zm92.1 290.1v6.95h1.69q.17 0 .25.08.07.06.07.17 0 .1-.07.19-.08.06-.25.06h-3.86q-.2 0-.27-.06-.06-.08-.06-.19 0-.1.06-.17.08-.08.27-.08h1.68v-6.28l-1.6.51q-.13.04-.18.04-.1 0-.17-.07-.06-.07-.06-.18 0-.08.06-.16.05-.05.19-.11l2.25-.7Zm224.8.6v2.4q.42-.18.81-.27.4-.1.77-.1.94 0 1.55.66.62.64.62 1.7 0 1.18-.7 1.91-.7.72-1.75.72-.7 0-1.35-.31-.45-.22-.82-.53-.22-.2-.22-.33 0-.1.06-.17.08-.08.17-.08.1 0 .2.1.9.84 1.93.84.87 0 1.43-.6.57-.59.57-1.56 0-.84-.5-1.34-.49-.5-1.24-.5-.76 0-1.53.39-.19.1-.27.1-.1 0-.17-.07-.06-.08-.06-.2v-3.27h3.44q.17 0 .25.08.08.06.08.17 0 .11-.08.19-.08.06-.25.06h-2.94Zm95.6-.6v6.95h1.68q.18 0 .25.08.08.06.08.17 0 .1-.08.19-.07.06-.25.06h-3.85q-.2 0-.27-.06-.06-.08-.06-.19 0-.1.06-.17.08-.08.27-.08h1.68v-6.28l-1.6.51q-.13.04-.18.04-.1 0-.17-.07-.06-.07-.06-.18 0-.08.06-.16.05-.05.19-.11l2.25-.7Zm9.01 3.17v1.22q0 1.58-.75 2.51-.6.72-1.5.72-.43 0-.83-.17-.37-.17-.64-.48-.17-.2-.37-.61-.2-.44-.28-.8-.14-.5-.14-1.17v-1.22q0-1.6.75-2.52.6-.73 1.5-.73.43 0 .81.17.39.17.66.49.17.2.37.64.2.42.3.76.12.5.12 1.19Zm-.48.06q0-.7-.2-1.3-.2-.6-.44-.95-.16-.22-.4-.36-.32-.2-.74-.2-.83 0-1.3.84-.47.85-.47 1.97v1.08q0 .7.2 1.31.2.6.46.95.14.2.37.35.33.22.75.22.83 0 1.3-.85.47-.86.47-1.98v-1.08Zm216.27-2.63v2.4q.42-.18.81-.27.4-.1.77-.1.93 0 1.54.66.63.64.63 1.7 0 1.18-.7 1.91-.7.72-1.75.72-.7 0-1.35-.31-.45-.22-.83-.53-.21-.2-.21-.33 0-.1.06-.17.08-.08.17-.08.1 0 .2.1.9.84 1.92.84.88 0 1.44-.6.56-.59.56-1.56 0-.84-.5-1.34-.48-.5-1.23-.5-.77 0-1.53.39-.19.1-.27.1-.1 0-.17-.07-.06-.08-.06-.2v-3.27h3.44q.17 0 .25.08.07.06.07.17 0 .11-.07.19-.08.06-.25.06h-2.94Zm10.6 2.57v1.22q0 1.58-.74 2.51-.6.72-1.5.72-.44 0-.83-.17-.37-.17-.64-.48-.17-.2-.38-.61-.2-.44-.28-.8-.14-.5-.14-1.17v-1.22q0-1.6.75-2.52.6-.73 1.5-.73.44 0 .82.17.39.17.65.49.17.2.38.64.2.42.3.76.12.5.12 1.19Zm-.48.06q0-.7-.2-1.3-.2-.6-.44-.95-.15-.22-.39-.36-.33-.2-.75-.2-.83 0-1.3.84-.46.85-.46 1.97v1.08q0 .7.2 1.31.2.6.45.95.14.2.38.35.33.22.75.22.83 0 1.3-.85.46-.86.46-1.98v-1.08Z"
  /><path
    fill="#f8e45c"
    d="m329.76 90.34 4.24 2.74 4.24-2.74-2.74 4.24 2.74 4.25-4.24-2.75-4.24 2.75 2.74-4.25Z"
  /><path
    fill="#f3f3f3"
    d="M349.48 97.08h3.79v-.18q0-.18.06-.25.08-.08.19-.08.1 0 .17.08.08.07.08.25v.68H349v-.73q1.5-1.34 2.92-2.74.66-.65.9-.95.26-.31.34-.53.09-.23.09-.47 0-.64-.52-1.12-.5-.49-1.21-.49-.64 0-1.14.38-.5.36-.65.9-.04.14-.09.2-.06.04-.16.04t-.17-.06q-.06-.07-.06-.16 0-.28.3-.77.3-.48.84-.75.55-.28 1.13-.28.92 0 1.57.64.66.64.66 1.46 0 .32-.1.62-.12.28-.38.63-.27.32-.96 1-1.73 1.71-2.83 2.65v.03Zm9.02-.9h.2q.33 0 .57.23.23.22.23.55 0 .34-.23.58-.24.22-.57.22h-.2q-.33 0-.56-.22-.24-.24-.24-.57 0-.34.24-.56.23-.23.56-.23Zm8.1-2.6q.7.3 1.04.83.36.53.36 1.11 0 .9-.72 1.56-.7.68-1.78.68-.64 0-1.33-.27-.67-.27-.94-.55-.09-.1-.09-.2t.06-.16q.08-.07.18-.07.09 0 .2.09.9.67 1.92.67.86 0 1.44-.53.58-.55.58-1.2 0-.44-.29-.86-.28-.42-.82-.66-.54-.25-1.08-.25-.17 0-.25-.06-.08-.08-.08-.19 0-.1.08-.17.08-.08.22-.08l.42.02q.67 0 1.1-.41.43-.4.43-.94 0-.54-.45-.97-.46-.42-1.2-.42-.5 0-.93.17-.42.18-.67.49l-.16.14-.1.01q-.1 0-.18-.06-.06-.06-.06-.15 0-.24.5-.6.72-.5 1.6-.5.95 0 1.54.56.61.57.61 1.33 0 .5-.3.94-.28.44-.84.7Zm5.9 2.6h.2q.33 0 .57.23.23.22.23.55 0 .34-.23.58-.24.22-.57.22h-.2q-.33 0-.56-.22-.24-.24-.24-.57 0-.34.24-.56.23-.23.56-.23Zm9.36-2.88v1.22q0 1.58-.75 2.52-.6.72-1.5.72-.44 0-.83-.18-.37-.17-.64-.48-.17-.19-.37-.61-.2-.44-.29-.8-.14-.5-.14-1.17V93.3q0-1.6.75-2.51.6-.74 1.5-.74.44 0 .82.17.39.18.65.49.17.2.38.64.2.42.3.76.12.5.12 1.2Zm-.49.06q0-.7-.2-1.3-.2-.6-.44-.95-.15-.21-.39-.35-.32-.2-.75-.2-.82 0-1.3.84-.46.84-.46 1.96v1.08q0 .7.2 1.32.2.59.45.95.14.2.38.34.33.22.75.22.83 0 1.3-.84.46-.86.46-1.99v-1.08Zm7.74.47v.7h-5.02v-.7h5.02Zm2.39 3.25v-5.86h-.66q-.18 0-.26-.06-.06-.08-.06-.19 0-.1.06-.17.08-.08.26-.08h3.1q.92 0 1.48.54.58.53.58 1.25 0 .9-.95 1.45.76.28 1.1.73.37.46.37 1.02 0 .48-.24.89-.23.4-.72.7-.47.28-1.04.28h-3.68q-.18 0-.26-.06-.06-.08-.06-.19 0-.1.06-.17.08-.08.26-.08h.66Zm.5-3.3h1.73q.57 0 1.02-.21.36-.16.56-.47.2-.31.2-.64 0-.45-.43-.85-.44-.39-1.14-.39H392v2.55Zm0 3.3h2.48q.47 0 .82-.2.36-.22.54-.52.2-.3.2-.65 0-.38-.27-.72-.27-.36-.74-.53-.45-.19-1.26-.19H392v2.81Z"
  /><path
    fill="#f66151"
    d="m414.76 90.34 4.24 2.74 4.24-2.74-2.74 4.24 2.74 4.25-4.24-2.75-4.24 2.75 2.74-4.25Z"
  /><path
    fill="#f3f3f3"
    d="M437.6 93.58q.7.3 1.04.83.36.53.36 1.11 0 .9-.72 1.56-.7.68-1.78.68-.64 0-1.33-.27-.67-.27-.94-.55-.09-.1-.09-.2t.06-.16q.08-.07.18-.07.09 0 .2.09.9.67 1.92.67.86 0 1.44-.53.58-.55.58-1.2 0-.44-.29-.86-.28-.42-.82-.66-.54-.25-1.08-.25-.17 0-.25-.06-.08-.08-.08-.19 0-.1.08-.17.08-.08.22-.08l.42.02q.67 0 1.1-.41.43-.4.43-.94 0-.54-.45-.97-.46-.42-1.2-.42-.5 0-.93.17-.42.18-.67.49l-.16.14-.1.01q-.1 0-.18-.06-.06-.06-.06-.15 0-.24.5-.6.72-.5 1.6-.5.95 0 1.54.56.61.57.61 1.33 0 .5-.3.94-.28.44-.84.7Zm5.9 2.6h.2q.33 0 .57.23.23.22.23.55 0 .34-.23.58-.24.22-.57.22h-.2q-.33 0-.56-.22-.24-.24-.24-.57 0-.34.24-.56.23-.23.56-.23Zm9.36-2.88v1.22q0 1.58-.75 2.52-.6.72-1.5.72-.44 0-.83-.18-.37-.17-.64-.48-.17-.19-.37-.61-.2-.44-.29-.8-.14-.5-.14-1.17V93.3q0-1.6.75-2.51.6-.74 1.5-.74.44 0 .82.17.39.18.65.49.17.2.38.64.2.42.3.76.12.5.12 1.2Zm-.49.06q0-.7-.2-1.3-.2-.6-.44-.95-.15-.21-.39-.35-.32-.2-.75-.2-.82 0-1.3.84-.46.84-.46 1.96v1.08q0 .7.2 1.32.2.59.45.95.14.2.38.34.33.22.75.22.83 0 1.3-.84.46-.86.46-1.99v-1.08Zm5.13 2.82h.2q.33 0 .57.23.23.22.23.55 0 .34-.23.58-.24.22-.57.22h-.2q-.33 0-.56-.22-.24-.24-.24-.57 0-.34.24-.56.23-.23.56-.23Zm9.36-2.88v1.22q0 1.58-.75 2.52-.6.72-1.5.72-.44 0-.83-.18-.37-.17-.64-.48-.17-.19-.37-.61-.2-.44-.29-.8-.14-.5-.14-1.17V93.3q0-1.6.75-2.51.6-.74 1.5-.74.44 0 .82.17.39.18.65.49.17.2.38.64.2.42.3.76.12.5.12 1.2Zm-.49.06q0-.7-.2-1.3-.2-.6-.44-.95-.15-.21-.39-.35-.32-.2-.75-.2-.82 0-1.3.84-.46.84-.46 1.96v1.08q0 .7.2 1.32.2.59.45.95.14.2.38.34.33.22.75.22.83 0 1.3-.84.46-.86.46-1.99v-1.08Z"
  /><path
    fill="#b7b7b7"
    d="M27.88 61.2v4.77h2.51q.2 0 .3.08.1.08.1.22 0 .1-.1.2-.1.08-.3.08h-4.48q-.22 0-.31-.08-.08-.1-.08-.2 0-.14.08-.22.1-.08.3-.08h1.38v-4.76h-1.23q-.2 0-.3-.08-.1-.08-.1-.22 0-.11.1-.19.1-.1.3-.1h1.23v-.85q0-.74.6-1.27t1.56-.53q.81 0 1.73.16.35.05.41.12.08.08.08.2 0 .12-.08.2-.08.07-.22.07l-.18-.01q-1.04-.16-1.74-.16-.75 0-1.16.38-.4.35-.4.84v.86h2.69q.2 0 .28.1.1.07.1.2 0 .12-.1.2-.08.08-.28.08h-2.7Zm10.34 5.35v-.84q-1.19 1.06-2.55 1.06-.84 0-1.28-.45-.56-.6-.56-1.41v-3.7h-.78q-.2 0-.3-.08-.08-.08-.08-.22 0-.11.08-.19.1-.1.3-.1h1.36v4.29q0 .56.34.94.36.36.9.36 1.4 0 2.57-1.3v-3.7h-1.06q-.2 0-.3-.08-.1-.08-.1-.22 0-.11.1-.19.1-.1.3-.1h1.62v5.35h.49q.22 0 .3.08.09.08.09.22 0 .1-.1.2-.07.08-.3.08h-1.04Zm5.35-5.92v1.45q1.12-1.01 1.67-1.3.56-.3 1.03-.3.51 0 .95.35.44.35.44.52 0 .14-.1.23-.07.08-.2.08-.06 0-.1-.02l-.2-.17q-.23-.23-.42-.31-.17-.1-.34-.1-.38 0-.9.3-.54.3-1.83 1.47v3.14h2.54q.2 0 .3.08.1.08.1.22 0 .1-.1.2-.1.08-.3.08H41.6q-.2 0-.3-.08-.08-.08-.08-.2 0-.11.08-.19.1-.08.3-.08h1.39v-4.8h-1.07q-.2 0-.3-.07-.07-.08-.07-.22 0-.11.08-.19.1-.1.3-.1h1.64Zm7.5 0h3.12q.2 0 .28.1.1.07.1.2 0 .12-.1.2-.08.08-.28.08h-3.12v3.82q0 .5.4.85.4.33 1.17.33.58 0 1.25-.18.7-.18 1.07-.4.14-.08.21-.08.11 0 .2.1.09.07.09.18 0 .11-.1.19-.22.23-1.06.5-.84.25-1.6.25-1.03 0-1.62-.47-.6-.47-.6-1.27v-3.82h-1.05q-.2 0-.3-.08-.08-.08-.08-.22 0-.11.08-.19.1-.1.3-.1h1.06v-1.68q0-.22.08-.3.09-.09.21-.09.13 0 .2.1.09.07.09.3v1.68Zm7.3-2.66v3.53q.54-.6 1.04-.82.5-.25 1.12-.25.68 0 1.14.23.47.23.79.73.3.49.3 1.02v3.56h.65q.22 0 .3.08.09.08.09.22 0 .1-.1.2-.07.08-.3.08h-1.85q-.22 0-.31-.08-.08-.1-.08-.2 0-.14.08-.22.1-.08.31-.08h.64v-3.51q0-.63-.45-1.03-.44-.43-1.25-.43-.63 0-1.07.3-.32.22-1.06 1.03v3.64H59q.22 0 .3.08.1.08.1.22 0 .1-.1.2-.08.08-.3.08h-1.86q-.22 0-.3-.08-.09-.1-.09-.2 0-.14.08-.22.1-.08.31-.08h.64v-7.42h-.76q-.2 0-.3-.08-.1-.08-.1-.22 0-.12.1-.2.1-.08.3-.08h1.34Zm13 5.75H65.5q.16 1.13.94 1.81.78.68 1.94.68.64 0 1.34-.2.7-.23 1.16-.59.12-.09.22-.09t.18.1q.1.07.1.18 0 .11-.11.22-.33.34-1.17.64-.85.3-1.72.3-1.49 0-2.47-.95-.98-.97-.98-2.35 0-1.25.92-2.14.93-.9 2.3-.9 1.4 0 2.3.92.93.92.91 2.37Zm-.59-.58q-.17-.95-.9-1.54-.74-.6-1.74-.6t-1.73.6q-.72.58-.9 1.54h5.27Zm4.79-2.51v1.45q1.12-1.01 1.67-1.3.56-.3 1.03-.3.51 0 .95.35.44.35.44.52 0 .14-.1.23-.07.08-.2.08-.06 0-.1-.02l-.2-.17q-.23-.23-.42-.31-.17-.1-.34-.1-.38 0-.9.3-.54.3-1.83 1.47v3.14h2.54q.2 0 .3.08.1.08.1.22 0 .1-.1.2-.1.08-.3.08H73.6q-.2 0-.3-.08-.08-.08-.08-.2 0-.11.08-.19.1-.08.3-.08h1.39v-4.8h-1.06q-.2 0-.3-.07-.08-.08-.08-.22 0-.11.08-.19.1-.1.3-.1h1.64Zm15.5 0h3.12q.2 0 .28.1.1.07.1.2 0 .12-.1.2-.08.08-.28.08h-3.12v3.82q0 .5.4.85.4.33 1.17.33.58 0 1.25-.18.7-.18 1.07-.4.14-.08.22-.08.1 0 .18.1.1.07.1.18 0 .11-.1.19-.22.23-1.06.5-.84.25-1.6.25-1.03 0-1.62-.47-.6-.47-.6-1.27v-3.82h-1.06q-.2 0-.3-.08-.07-.08-.07-.22 0-.11.08-.19.1-.1.3-.1h1.06v-1.68q0-.22.08-.3.09-.09.21-.09.13 0 .2.1.09.07.09.3v1.68Zm12.39 2.97q0 1.3-.94 2.25-.94.92-2.27.92-1.34 0-2.28-.92-.94-.94-.94-2.25 0-1.32.94-2.24.94-.93 2.28-.93 1.33 0 2.27.93.94.92.94 2.24Zm-.58 0q0-1.08-.77-1.83-.76-.77-1.86-.77t-1.87.77q-.77.76-.77 1.83t.77 1.84q.78.77 1.87.77 1.1 0 1.86-.77.77-.77.77-1.84Zm7.36 2.95h-.72l-1.27-3.69-1.25 3.69h-.72l-1.18-5.34h-.28q-.2 0-.3-.08-.08-.08-.08-.22 0-.11.08-.19.1-.1.3-.1h1.57q.2 0 .3.1.1.08.1.2 0 .13-.1.2-.1.09-.3.09h-.73l1.02 4.56 1.23-3.64h.69l1.25 3.64.98-4.56h-.73q-.2 0-.3-.08-.1-.08-.1-.22 0-.11.1-.19.1-.1.3-.1h1.58q.2 0 .3.1.09.08.09.2 0 .13-.1.2-.1.09-.3.09h-.28l-1.15 5.34Zm7.67 0v-.83q-1.27 1.05-2.69 1.05-1.03 0-1.6-.52-.59-.53-.59-1.28 0-.83.77-1.45.77-.63 2.23-.63.4 0 .86.05.47.05 1.02.16v-.92q0-.47-.44-.82-.44-.36-1.31-.36-.67 0-1.9.4-.21.06-.27.06-.11 0-.19-.08t-.08-.2q0-.11.08-.2.1-.09.77-.27 1.06-.28 1.6-.28 1.1 0 1.7.54.62.53.62 1.2v3.8h.76q.2 0 .3.08.1.08.1.22 0 .1-.1.2-.1.08-.3.08h-1.34Zm0-2.86q-.4-.1-.86-.16-.45-.06-.95-.06-1.25 0-1.96.53-.53.4-.53.97 0 .52.4.88.41.36 1.2.36.73 0 1.37-.3.64-.3 1.33-.95v-1.27Zm5.66-3.06v1.45q1.12-1.01 1.67-1.3.56-.3 1.03-.3.51 0 .95.35.44.35.44.52 0 .14-.1.23-.07.08-.2.08-.06 0-.1-.02l-.2-.17q-.23-.23-.42-.31-.17-.1-.34-.1-.38 0-.9.3-.54.3-1.83 1.47v3.14h2.54q.2 0 .3.08.1.08.1.22 0 .1-.1.2-.1.08-.3.08h-4.51q-.2 0-.3-.08-.08-.08-.08-.2 0-.11.08-.19.1-.08.3-.08h1.39v-4.8h-1.06q-.2 0-.3-.07-.08-.08-.08-.22 0-.11.08-.19.1-.1.3-.1h1.64Zm11.5-2.66v8h.76q.2 0 .3.08.1.08.1.22 0 .1-.1.2-.1.08-.3.08h-1.34v-1.14q-1 1.36-2.55 1.36-.76 0-1.48-.4-.72-.43-1.14-1.2-.41-.76-.41-1.57 0-.82.4-1.58.43-.77 1.15-1.17.72-.42 1.5-.42 1.5 0 2.53 1.35v-3.23h-.77q-.22 0-.31-.08-.08-.08-.08-.22 0-.12.08-.2.1-.08.31-.08h1.35Zm-.58 5.63q0-1.1-.75-1.85-.74-.75-1.75-.75-1.03 0-1.77.75-.73.75-.73 1.85t.73 1.86q.74.75 1.77.75 1.01 0 1.75-.75.75-.77.75-1.86Zm7.65-2.6q0-.2.08-.28.1-.1.22-.1.13 0 .2.1.08.08.08.3V62q0 .2-.08.3-.07.1-.2.1-.12 0-.2-.08-.08-.08-.1-.25-.03-.41-.42-.68-.56-.39-1.48-.39-.96 0-1.5.4-.4.3-.4.65 0 .4.48.69.32.19 1.25.3 1.18.12 1.65.28.67.25.99.67.32.42.32.92 0 .72-.7 1.3-.7.56-2.06.56t-2.24-.69q0 .24-.03.31-.01.07-.1.11-.05.05-.15.05-.12 0-.2-.08-.08-.1-.08-.31v-1.17q0-.2.08-.3.08-.1.2-.1.13 0 .2.1.1.08.1.22 0 .33.16.53.23.33.75.55.53.22 1.3.22 1.1 0 1.65-.43.55-.42.55-.87 0-.55-.55-.86-.56-.33-1.64-.44-1.06-.1-1.53-.28-.46-.17-.72-.53-.27-.36-.27-.77 0-.73.72-1.17.74-.43 1.74-.43 1.2 0 1.93.57Zm12.93-.37h3.12q.2 0 .28.1.1.07.1.2 0 .12-.1.2-.08.08-.28.08h-3.12v3.82q0 .5.4.85.4.33 1.17.33.58 0 1.25-.18.7-.18 1.07-.4.14-.08.22-.08.1 0 .18.1.1.07.1.18 0 .11-.1.19-.22.23-1.06.5-.84.25-1.6.25-1.02 0-1.62-.47-.6-.47-.6-1.27v-3.82h-1.05q-.2 0-.3-.08-.08-.08-.08-.22 0-.11.08-.19.1-.1.3-.1h1.06v-1.68q0-.22.08-.3.09-.09.21-.09.13 0 .2.1.09.07.09.3v1.68Zm7.3-2.66v3.53q.54-.6 1.04-.82.5-.25 1.12-.25.68 0 1.15.23.46.23.78.73.3.49.3 1.02v3.56h.65q.22 0 .3.08.09.08.09.22 0 .1-.1.2-.07.08-.3.08h-1.85q-.22 0-.31-.08-.08-.1-.08-.2 0-.14.08-.22.1-.08.31-.08h.64v-3.51q0-.63-.45-1.03-.44-.43-1.25-.43-.63 0-1.06.3-.33.22-1.07 1.03v3.64h.64q.22 0 .3.08.1.08.1.22 0 .1-.1.2-.08.08-.3.08h-1.86q-.21 0-.3-.08-.09-.1-.09-.2 0-.14.08-.22.1-.08.31-.08h.64v-7.42h-.76q-.2 0-.3-.08-.1-.08-.1-.22 0-.12.1-.2.1-.08.3-.08h1.34Zm13 5.75h-5.87q.16 1.13.94 1.81.78.68 1.94.68.64 0 1.34-.2.7-.23 1.16-.59.12-.09.22-.09t.18.1q.1.07.1.18 0 .11-.11.22-.33.34-1.17.64-.85.3-1.72.3-1.49 0-2.47-.95-.98-.97-.98-2.35 0-1.25.92-2.14.93-.9 2.3-.9 1.4 0 2.3.92.93.92.91 2.37Zm-.59-.58q-.17-.95-.9-1.54-.74-.6-1.74-.6t-1.73.6q-.72.58-.9 1.54h5.27Zm11.3-5.17v3.81q1.05-1.35 2.52-1.35 1.25 0 2.14.92.9.9.9 2.23t-.9 2.27q-.9.92-2.14.92-1.5 0-2.52-1.34v1.12h-1.34q-.2 0-.3-.08-.08-.1-.08-.2 0-.14.08-.22.1-.08.3-.08h.78v-7.42h-.78q-.2 0-.3-.08-.08-.08-.08-.22 0-.12.08-.2.1-.08.3-.08h1.34Zm4.99 5.63q0-1.08-.75-1.83-.74-.77-1.74-.77t-1.75.77q-.73.75-.73 1.83 0 1.1.73 1.86.75.75 1.75.75t1.74-.75q.75-.77.75-1.86Zm8.39 0q0 1.3-.94 2.25-.94.92-2.27.92-1.34 0-2.28-.92-.94-.94-.94-2.25 0-1.32.94-2.24.94-.93 2.28-.93 1.33 0 2.27.93.94.92.94 2.24Zm-.58 0q0-1.08-.77-1.83-.76-.77-1.86-.77t-1.87.77q-.77.76-.77 1.83t.77 1.84q.78.77 1.87.77 1.1 0 1.86-.77.77-.77.77-1.84Zm4.19-2.97h3.12q.2 0 .28.1.1.07.1.2 0 .12-.1.2-.08.08-.28.08h-3.12v3.82q0 .5.4.85.4.33 1.17.33.58 0 1.25-.18.7-.18 1.07-.4.14-.08.22-.08.1 0 .18.1.1.07.1.18 0 .11-.1.19-.22.23-1.06.5-.84.25-1.6.25-1.02 0-1.62-.47-.6-.47-.6-1.27v-3.82h-1.05q-.2 0-.3-.08-.08-.08-.08-.22 0-.11.08-.19.1-.1.3-.1h1.06v-1.68q0-.22.08-.3.09-.09.21-.09.13 0 .2.1.09.07.09.3v1.68Zm8 0h3.12q.2 0 .28.1.1.07.1.2 0 .12-.1.2-.08.08-.28.08h-3.12v3.82q0 .5.4.85.4.33 1.17.33.58 0 1.25-.18.7-.18 1.07-.4.14-.08.22-.08.1 0 .18.1.1.07.1.18 0 .11-.1.19-.22.23-1.06.5-.84.25-1.6.25-1.02 0-1.62-.47-.6-.47-.6-1.27v-3.82h-1.05q-.2 0-.3-.08-.08-.08-.08-.22 0-.11.08-.19.1-.1.3-.1h1.06v-1.68q0-.22.08-.3.09-.09.21-.09.13 0 .2.1.09.07.09.3v1.68Zm12.39 2.97q0 1.3-.94 2.25-.94.92-2.27.92-1.34 0-2.28-.92-.94-.94-.94-2.25 0-1.32.94-2.24.94-.93 2.28-.93 1.33 0 2.27.93.94.92.94 2.24Zm-.58 0q0-1.08-.77-1.83-.76-.77-1.86-.77t-1.87.77q-.77.76-.77 1.83t.77 1.84q.78.77 1.87.77 1.1 0 1.86-.77.77-.77.77-1.84Zm2.76-2.97v.58q.72-.78 1.47-.78.44 0 .77.23.34.23.56.72.4-.49.78-.72.4-.23.8-.23.6 0 .98.4.49.52.49 1.13v4.01h.48q.2 0 .3.08.1.08.1.22 0 .1-.1.2-.1.08-.3.08h-1.06v-4.53q0-.44-.27-.72-.26-.3-.6-.3-.32 0-.68.24-.34.23-.78.94v3.8h.47q.2 0 .3.07.1.08.1.22 0 .1-.1.2-.1.08-.3.08h-1.06v-4.48q0-.47-.27-.77-.26-.3-.6-.3-.3 0-.6.2-.42.29-.88.98v3.8h.49q.2 0 .28.07.1.08.1.22 0 .1-.1.2-.08.08-.28.08h-1.55q-.2 0-.3-.08-.09-.1-.09-.2 0-.14.1-.22.09-.08.3-.08h.48v-4.76h-.49q-.2 0-.3-.08-.09-.08-.09-.22 0-.11.1-.19.09-.1.3-.1h1.05Zm18.9-2.66v8h2.26q.2 0 .3.08.1.08.1.22 0 .1-.1.2-.1.08-.3.08h-5.1q-.2 0-.3-.08-.07-.1-.07-.2 0-.14.08-.22.1-.08.3-.08h2.26v-7.42h-1.65q-.2 0-.3-.08-.1-.08-.1-.22 0-.12.08-.2.1-.08.32-.08h2.21Zm10.82 5.75h-5.86q.16 1.13.94 1.81.78.68 1.94.68.64 0 1.34-.2.7-.23 1.16-.59.12-.09.22-.09t.18.1q.1.07.1.18 0 .11-.11.22-.33.34-1.17.64-.85.3-1.72.3-1.49 0-2.47-.95-.98-.97-.98-2.35 0-1.25.92-2.14.93-.9 2.3-.9 1.4 0 2.3.92.93.92.91 2.37Zm-.58-.58q-.17-.95-.9-1.54-.74-.6-1.74-.6t-1.73.6q-.72.58-.9 1.54h5.27Zm5.1-1.93v4.76h2.51q.2 0 .3.08.1.08.1.22 0 .1-.1.2-.1.08-.3.08h-4.48q-.22 0-.31-.08-.08-.1-.08-.2 0-.14.08-.22.1-.08.3-.08h1.38v-4.76h-1.23q-.2 0-.3-.08-.1-.08-.1-.22 0-.11.1-.19.1-.1.3-.1h1.23v-.85q0-.74.6-1.27t1.56-.53q.81 0 1.74.16.34.05.4.12.08.08.08.2 0 .12-.08.2-.08.07-.22.07l-.19-.01q-1.03-.16-1.73-.16-.75 0-1.16.38-.4.35-.4.84v.86h2.69q.2 0 .28.1.1.07.1.2 0 .12-.1.2-.08.08-.28.08h-2.7Zm7.19-.58h3.12q.2 0 .28.1.1.07.1.2 0 .12-.1.2-.08.08-.28.08h-3.12v3.82q0 .5.4.85.4.33 1.17.33.58 0 1.25-.18.7-.18 1.07-.4.14-.08.22-.08.1 0 .18.1.1.07.1.18 0 .11-.1.19-.22.23-1.06.5-.84.25-1.6.25-1.02 0-1.62-.47-.6-.47-.6-1.27v-3.82h-1.06q-.2 0-.3-.08-.07-.08-.07-.22 0-.11.08-.19.1-.1.3-.1h1.06v-1.68q0-.22.08-.3.09-.09.21-.09.13 0 .2.1.09.07.09.3v1.68Zm20.3 1.17h-6.24q-.2 0-.3-.08-.1-.1-.1-.22t.1-.2q.1-.08.3-.08h6.25q.22 0 .3.08.09.08.09.22 0 .1-.1.2-.07.08-.3.08Zm0 2.06h-6.24q-.2 0-.3-.08-.1-.07-.1-.21 0-.13.1-.2.1-.09.3-.09h6.25q.22 0 .3.08.09.08.09.2 0 .15-.1.22-.07.08-.3.08Zm10.71-5.89v3.81q1.05-1.35 2.52-1.35 1.25 0 2.14.92.9.9.9 2.23t-.9 2.27q-.9.92-2.14.92-1.5 0-2.52-1.34v1.12h-1.34q-.2 0-.3-.08-.08-.1-.08-.2 0-.14.08-.22.1-.08.3-.08h.78v-7.42h-.78q-.2 0-.3-.08-.08-.08-.08-.22 0-.12.08-.2.1-.08.3-.08h1.34Zm4.99 5.63q0-1.08-.75-1.83-.74-.77-1.74-.77t-1.75.77q-.73.75-.73 1.83 0 1.1.73 1.86.75.75 1.75.75t1.74-.75q.75-.77.75-1.86Zm8.3.12h-5.87q.16 1.13.94 1.81.78.68 1.94.68.64 0 1.34-.2.7-.23 1.16-.59.12-.09.22-.09t.18.1q.1.07.1.18 0 .11-.11.22-.33.34-1.17.64-.85.3-1.72.3-1.49 0-2.47-.95-.99-.97-.99-2.35 0-1.25.93-2.14.93-.9 2.3-.9 1.4 0 2.3.92.93.92.91 2.37Zm-.59-.58q-.17-.95-.9-1.54-.74-.6-1.74-.6t-1.73.6q-.72.58-.9 1.54h5.27Zm4.29-2.51h3.12q.2 0 .28.1.1.07.1.2 0 .12-.1.2-.08.08-.28.08h-3.12v3.82q0 .5.4.85.4.33 1.17.33.58 0 1.25-.18.7-.18 1.07-.4.14-.08.22-.08.1 0 .18.1.1.07.1.18 0 .11-.1.19-.22.23-1.06.5-.84.25-1.6.25-1.02 0-1.62-.47-.6-.47-.6-1.27v-3.82h-1.06q-.2 0-.3-.08-.07-.08-.07-.22 0-.11.08-.19.1-.1.3-.1h1.06v-1.68q0-.22.08-.3.09-.09.21-.09.13 0 .2.1.09.07.09.3v1.68Zm8 0h3.12q.2 0 .28.1.1.07.1.2 0 .12-.1.2-.08.08-.28.08h-3.12v3.82q0 .5.4.85.4.33 1.17.33.58 0 1.25-.18.7-.18 1.07-.4.14-.08.22-.08.1 0 .18.1.1.07.1.18 0 .11-.1.19-.22.23-1.06.5-.84.25-1.6.25-1.02 0-1.62-.47-.6-.47-.6-1.27v-3.82h-1.06q-.2 0-.3-.08-.07-.08-.07-.22 0-.11.08-.19.1-.1.3-.1h1.06v-1.68q0-.22.08-.3.09-.09.21-.09.13 0 .2.1.09.07.09.3v1.68Zm12.3 3.1h-5.87q.16 1.12.94 1.8.78.68 1.94.68.64 0 1.34-.2.7-.23 1.16-.59.12-.09.22-.09t.18.1q.1.07.1.18 0 .11-.11.22-.33.34-1.17.64-.85.3-1.72.3-1.49 0-2.47-.95-.99-.97-.99-2.35 0-1.25.93-2.14.93-.9 2.3-.9 1.4 0 2.3.92.93.92.91 2.37Zm-.59-.59q-.17-.95-.9-1.54-.74-.6-1.74-.6t-1.73.6q-.72.58-.9 1.54h5.27Zm4.79-2.51v1.45q1.12-1.01 1.67-1.3.56-.3 1.03-.3.51 0 .95.35.44.35.44.52 0 .14-.1.23-.07.08-.2.08-.06 0-.1-.02l-.2-.17q-.23-.23-.42-.31-.17-.1-.34-.1-.38 0-.9.3-.54.3-1.83 1.47v3.14h2.54q.2 0 .3.08.1.08.1.22 0 .1-.1.2-.1.08-.3.08h-4.51q-.2 0-.3-.08-.08-.08-.08-.2 0-.11.08-.19.1-.08.3-.08h1.39v-4.8h-1.06q-.2 0-.3-.07-.08-.08-.08-.22 0-.11.08-.19.1-.1.3-.1h1.64Z"
  /><path
    fill="#fff"
    d="M27.13 40.53q-.27.32-.44.41-.16.1-.39.1-.45 0-.73-.32-.29-.31-.29-1.01v-1.36q0-.72.29-1.02.28-.31.73-.31.36 0 .6.19.24.18.37.62.12.42.26.58.29.31 1 .62.72.32 1.58.32 1.35 0 2.2-.63.55-.39.55-.94 0-.37-.26-.7-.27-.33-.86-.55-.4-.14-1.75-.39-1.64-.3-2.49-.73-.82-.44-1.32-1.22-.49-.78-.49-1.69 0-1.43 1.2-2.51 1.2-1.08 3.13-1.08.76 0 1.42.17.67.17 1.2.52.4-.38.78-.38.44 0 .72.31.28.3.28 1.02v1.5q0 .73-.28 1.05-.28.3-.72.3-.37 0-.64-.23-.21-.17-.32-.67-.11-.5-.27-.72-.28-.36-.86-.6-.56-.27-1.3-.27-1.09 0-1.71.52-.63.5-.63 1.04 0 .36.25.72.27.34.77.53.32.14 1.86.45 1.54.3 2.35.66.83.36 1.38 1.14.55.77.55 1.83 0 1.48-1.05 2.38-1.38 1.17-3.53 1.17-.83 0-1.63-.2-.78-.2-1.51-.62Zm14.92-2.4 2.9-6.9h-.46q-.72 0-1.03-.29-.32-.28-.32-.73 0-.46.32-.72.3-.28 1.03-.28h2.68q.72 0 1.04.28.3.26.3.72 0 .54-.46.86-.23.15-.92.15l-4.11 9.83H41.1l-4.11-9.83q-.7 0-.92-.15-.47-.32-.47-.86 0-.46.3-.72.3-.28 1.02-.28h2.7q.73 0 1.02.28.32.26.32.72 0 .45-.3.73-.3.28-1.03.28h-.47l2.89 6.9Zm12.97-6.9v7.82h1.36q.72 0 1.01.28.32.27.32.72 0 .44-.32.72-.3.28-1.01.28h-4.69q-.73 0-1.05-.28-.3-.28-.3-.72 0-.45.3-.72.32-.28 1.05-.28h1.33v-7.83h-2.17v1.9q0 .71-.28 1.02-.27.3-.72.3-.44 0-.72-.3-.28-.3-.28-1.03v-3.9h10.37v3.9q0 .72-.28 1.03-.28.3-.72.3-.44 0-.72-.3-.28-.3-.28-1.03v-1.89h-2.2Zm15.23 5.05H61.9v-1.82h8.36v1.82Zm10.25 1.55h-4.87l-.49 1.22h.49q.73 0 1.03.28.31.27.31.72 0 .44-.31.72-.3.28-1.03.28h-2.69q-.72 0-1.03-.28-.31-.28-.31-.72 0-.45.33-.73.32-.29 1.06-.27l3.14-7.83h-1.3q-.73 0-1.05-.28-.3-.28-.3-.73 0-.46.3-.72.32-.28 1.05-.28h4.31l3.99 9.84q.7 0 .94.16.45.3.45.84 0 .44-.31.72-.3.28-1.02.28h-2.7q-.72 0-1.03-.28-.32-.28-.32-.72 0-.45.32-.72.3-.28 1.03-.28h.48l-.47-1.22Zm-.83-2-1.62-3.97-1.6 3.97h3.22Zm10.38 2.3 2.9-6.9h-.46q-.72 0-1.03-.29-.32-.28-.32-.73 0-.46.32-.72.3-.28 1.03-.28h2.69q.71 0 1.03.28.3.26.3.72 0 .54-.46.86-.23.15-.92.15l-4.11 9.83H89.1l-4.11-9.83q-.7 0-.92-.15-.47-.32-.47-.86 0-.46.3-.72.3-.28 1.02-.28h2.7q.73 0 1.02.28.32.26.32.72 0 .45-.3.73-.3.28-1.03.28h-.47l2.89 6.9Zm13.02-10.03v10.95h2.03q.72 0 1.01.28.31.27.31.72 0 .44-.3.72-.3.28-1.02.28h-6.05q-.72 0-1.03-.28-.31-.28-.31-.72 0-.45.3-.72.32-.28 1.04-.28h2.02v-8.36l-1.79.47q-.43.12-.64.12-.39 0-.67-.3-.26-.3-.26-.74 0-.4.2-.63.2-.23.86-.4l4.3-1.11Zm23 10.51 2.15-4.42q-.8 0-1.01-.14-.5-.31-.5-.88 0-.43.3-.71.32-.29 1.04-.29h2.75q.72 0 1.02.29.3.28.3.73 0 .44-.3.72-.3.28-1.02.28h-.34l-3.35 6.86h-2.1l-3.34-6.86h-.28q-.73 0-1.04-.28-.3-.28-.3-.73 0-.44.3-.72.3-.29 1.04-.29h2.7q.7 0 1 .29.32.28.32.73 0 .55-.47.84-.23.16-1.05.16l2.18 4.42Zm14.84-4.25q.89.61 1.33 1.4.44.79.44 1.79 0 1.06-.58 1.97-.58.89-1.7 1.36-1.1.47-2.88.47-2.33 0-3.5-.74-.66-.4-.66-.97 0-.43.28-.73.3-.3.72-.3.28 0 .58.2.44.3.81.4.58.14 1.61.14 1.75 0 2.53-.46.79-.47.79-1.3 0-.6-.46-1.17-.45-.57-1.22-.89-.43-.17-1.48-.25-.5-.03-.77-.3-.26-.27-.26-.7 0-.42.28-.71.3-.3.75-.3h1.06q.4-.05.78-.25.4-.22.63-.6.25-.37.25-.78 0-.64-.56-1.09-.57-.47-1.7-.47-1.43 0-2.2.85-.23.23-.35.3-.2.12-.47.12-.41 0-.7-.3t-.29-.72q0-.67.9-1.31 1.3-.92 3.26-.92 1.86 0 2.98 1.06 1.13 1.05 1.13 2.53 0 .77-.35 1.44-.32.67-.98 1.23Zm10.67 5.69q0 .56-.4.95-.4.38-1.1.38-.7 0-1.1-.38-.41-.39-.41-.95 0-.58.4-.95.4-.38 1.11-.38.7 0 1.1.38.4.37.4.95Zm14.84-6.44v2.2q0 1.96-1.14 3.76-1.12 1.78-3.21 1.78-1.2 0-2.05-.53-.83-.54-1.58-1.97-.75-1.44-.75-3.03v-2.2q0-1.94 1.13-3.73 1.12-1.8 3.21-1.8 1.2 0 2.04.54.84.51 1.59 1.95.77 1.42.77 3.03Zm-2.01 0q0-1.62-.9-2.84-.52-.67-1.46-.67-.9 0-1.48.73-.88 1.13-.88 2.78v2.2q0 1.65.92 2.85.5.69 1.46.69.9 0 1.46-.75.88-1.13.88-2.78v-2.2Zm11.17 6.44q0 .56-.4.95-.4.38-1.1.38-.7 0-1.1-.38-.41-.39-.41-.95 0-.58.4-.95.4-.38 1.11-.38.7 0 1.1.38.4.37.4.95Zm14.84-6.44v2.2q0 1.96-1.14 3.76-1.12 1.78-3.21 1.78-1.2 0-2.05-.53-.83-.54-1.58-1.97-.75-1.44-.75-3.03v-2.2q0-1.94 1.13-3.73 1.12-1.8 3.21-1.8 1.2 0 2.04.54.84.51 1.59 1.95.77 1.42.77 3.03Zm-2.01 0q0-1.62-.9-2.84-.52-.67-1.46-.67-.9 0-1.48.73-.88 1.13-.88 2.78v2.2q0 1.65.92 2.85.5.69 1.46.69.9 0 1.46-.75.88-1.13.88-2.78v-2.2Zm21.66 5 2.15-4.42q-.8 0-1.01-.14-.5-.31-.5-.88 0-.43.3-.71.32-.29 1.04-.29h2.75q.72 0 1.02.29.3.28.3.73 0 .44-.3.72-.3.28-1.02.28h-.34l-3.35 6.86h-2.1l-3.33-6.86h-.29q-.73 0-1.04-.28-.3-.28-.3-.73 0-.44.3-.72.3-.29 1.04-.29h2.7q.7 0 1 .29.32.28.32.73 0 .55-.47.84-.23.16-1.05.16l2.18 4.42Zm14.15-4.1q-.5-.29-1.03-.43-.53-.16-1.12-.16-1.16 0-1.85.38-.3.17-.3.36 0 .23.41.44.31.15 1.4.3 2 .27 2.77.56 1.02.36 1.58 1.07.56.7.56 1.5 0 1.07-.95 1.8-1.36 1.05-3.53 1.05-.86 0-1.61-.16-.73-.15-1.34-.45-.14.14-.32.2-.17.06-.34.06-.47 0-.75-.3t-.28-1.02v-.68q0-.73.28-1.03.28-.3.73-.3.36 0 .6.2.25.2.39.68.45.4 1.1.6.65.18 1.5.18 1.37 0 2.12-.42.37-.22.37-.45 0-.4-.53-.64-.51-.25-2.12-.44-2.43-.25-3.24-.97t-.81-1.77q0-1.06.92-1.78 1.22-.96 3.22-.96.69 0 1.33.12.64.13 1.23.4.17-.13.33-.2.17-.08.31-.08.4 0 .68.32.28.31.28 1.03V34q0 .66-.16.9-.31.45-.84.45-.36 0-.64-.22-.27-.24-.35-.61Zm18.9 6.02q-.26.32-.43.41-.16.1-.39.1-.45 0-.73-.32-.29-.31-.29-1.01v-1.36q0-.72.29-1.02.28-.31.73-.31.36 0 .6.19.24.18.37.62.12.42.26.58.29.31 1 .62.72.32 1.58.32 1.35 0 2.2-.63.55-.39.55-.94 0-.37-.26-.7-.27-.33-.86-.55-.4-.14-1.75-.39-1.64-.3-2.49-.73-.82-.44-1.32-1.22-.49-.78-.49-1.69 0-1.43 1.2-2.51 1.2-1.08 3.13-1.08.76 0 1.42.17.67.17 1.2.52.4-.38.79-.38.43 0 .71.31.29.3.29 1.02v1.5q0 .73-.29 1.05-.28.3-.71.3-.38 0-.65-.23-.21-.17-.32-.67-.11-.5-.27-.72-.28-.36-.86-.6-.56-.27-1.3-.27-1.09 0-1.71.52-.63.5-.63 1.04 0 .36.25.72.27.34.77.53.32.14 1.86.45 1.54.3 2.36.66.82.36 1.37 1.14.55.77.55 1.83 0 1.48-1.05 2.38-1.38 1.17-3.53 1.17-.83 0-1.63-.2-.78-.2-1.51-.62Zm14.93-2.4 2.9-6.9h-.46q-.72 0-1.03-.29-.32-.28-.32-.73 0-.46.32-.72.3-.28 1.03-.28h2.69q.71 0 1.03.28.3.26.3.72 0 .54-.46.86-.23.15-.92.15l-4.11 9.83h-1.92l-4.11-9.83q-.7 0-.92-.15-.47-.32-.47-.86 0-.46.3-.72.3-.28 1.03-.28h2.7q.72 0 1.01.28.32.26.32.72 0 .45-.3.73-.3.28-1.03.28h-.47l2.89 6.9Zm12.97-6.9v7.82h1.36q.72 0 1.01.28.32.27.32.72 0 .44-.32.72-.3.28-1.01.28h-4.69q-.73 0-1.05-.28-.3-.28-.3-.72 0-.45.3-.72.32-.28 1.05-.28h1.33v-7.83h-2.17v1.9q0 .71-.28 1.02-.27.3-.72.3-.44 0-.72-.3-.28-.3-.28-1.03v-3.9h10.37v3.9q0 .72-.28 1.03-.28.3-.72.3-.44 0-.72-.3-.28-.3-.28-1.03v-1.89h-2.2Zm15.23 5.05h-8.36v-1.82h8.36v1.82Zm10.25 1.55h-4.87l-.49 1.22h.49q.73 0 1.03.28.31.27.31.72 0 .44-.31.72-.3.28-1.03.28h-2.69q-.72 0-1.03-.28-.31-.28-.31-.72 0-.45.32-.73.33-.29 1.07-.27l3.14-7.83h-1.3q-.73 0-1.05-.28-.3-.28-.3-.73 0-.46.3-.72.32-.28 1.05-.28h4.31l3.99 9.84q.7 0 .94.16.45.3.45.84 0 .44-.31.72-.3.28-1.02.28h-2.7q-.72 0-1.03-.28-.32-.28-.32-.72 0-.45.32-.72.3-.28 1.03-.28h.48l-.47-1.22Zm-.82-2-1.63-3.97-1.6 3.97h3.23Zm10.37 2.3 2.9-6.9h-.46q-.72 0-1.03-.29-.32-.28-.32-.73 0-.46.32-.72.3-.28 1.03-.28h2.69q.71 0 1.03.28.3.26.3.72 0 .54-.46.86-.23.15-.92.15l-4.11 9.83h-1.92l-4.11-9.83q-.7 0-.92-.15-.47-.32-.47-.86 0-.46.3-.72.3-.28 1.03-.28h2.7q.72 0 1.01.28.32.26.32.72 0 .45-.3.73-.3.28-1.03.28h-.47l2.89 6.9Zm13.02-10.03v10.95h2.03q.72 0 1.01.28.31.27.31.72 0 .44-.3.72-.3.28-1.02.28h-6.05q-.72 0-1.03-.28-.31-.28-.31-.72 0-.45.3-.72.32-.28 1.04-.28h2.02v-8.36l-1.79.47q-.43.12-.64.12-.39 0-.67-.3-.26-.3-.26-.74 0-.4.2-.63.2-.23.86-.4l4.3-1.11Zm15.18 8.18h-8.36v-1.82h8.36v1.82Zm6.64.7v2.07h2.02q.73 0 1.03.28.31.27.31.72 0 .44-.3.72-.3.28-1.04.28h-4.33q-.72 0-1.03-.28-.31-.28-.31-.72 0-.45.31-.72.31-.28 1.03-.28h.31v-7.83h-.3q-.73 0-1.04-.28-.31-.28-.31-.73 0-.46.31-.72.31-.28 1.03-.28h4.61q2.03 0 3.22 1.1 1.19 1.12 1.19 2.7 0 .88-.4 1.66-.3.6-1.02 1.18-.7.56-1.44.86-.74.28-1.96.28h-1.89Zm0-2h1.86q1.32 0 2.08-.59.77-.59.77-1.42 0-.7-.63-1.22-.62-.53-1.76-.53h-2.32V35Zm10.24 5.55q-.27.32-.44.41-.16.1-.39.1-.45 0-.73-.32-.29-.31-.29-1.01v-1.36q0-.72.29-1.02.28-.31.73-.31.36 0 .6.19.24.18.37.62.12.42.26.58.29.31 1 .62.72.32 1.58.32 1.35 0 2.2-.63.55-.39.55-.94 0-.37-.26-.7-.27-.33-.86-.55-.4-.14-1.75-.39-1.64-.3-2.49-.73-.82-.44-1.32-1.22-.49-.78-.49-1.69 0-1.43 1.2-2.51 1.2-1.08 3.13-1.08.76 0 1.42.17.67.17 1.2.52.4-.38.79-.38.43 0 .71.31.29.3.29 1.02v1.5q0 .73-.29 1.05-.28.3-.71.3-.38 0-.65-.23-.21-.17-.32-.67-.11-.5-.27-.72-.28-.36-.86-.6-.56-.27-1.3-.27-1.09 0-1.71.52-.63.5-.63 1.04 0 .36.25.72.27.34.77.53.32.14 1.86.45 1.54.3 2.36.66.82.36 1.37 1.14.55.77.55 1.83 0 1.48-1.05 2.38-1.38 1.17-3.53 1.17-.83 0-1.63-.2-.78-.2-1.51-.62Zm15.94-4.45v2.97h1.34q.72 0 1.03.28.31.27.31.72 0 .44-.3.72-.32.28-1.04.28h-4.7q-.7 0-1.02-.28-.31-.28-.31-.72 0-.45.31-.72.31-.28 1.02-.28h1.36v-2.97l-3.32-4.86q-.67 0-.98-.28-.3-.3-.3-.73 0-.46.3-.72.31-.28 1.05-.28h1.8q.73 0 1.02.28.32.26.32.72 0 .67-.78 1.01l1.89 2.78 1.86-2.78q-.44-.17-.63-.42-.19-.27-.19-.6 0-.45.3-.71.31-.28 1.05-.28h1.87q.72 0 1.03.28.31.26.31.72 0 .45-.3.73-.32.28-1.02.28l-3.28 4.86Zm23 2.53 2.15-4.42q-.8 0-1.01-.14-.5-.31-.5-.88 0-.43.3-.71.32-.29 1.04-.29h2.75q.72 0 1.02.29.3.28.3.73 0 .44-.3.72-.3.28-1.02.28h-.34l-3.35 6.86h-2.1l-3.33-6.86h-.29q-.73 0-1.04-.28-.3-.28-.3-.73 0-.44.3-.72.3-.29 1.04-.29h2.7q.7 0 1 .29.32.28.32.73 0 .55-.47.84-.23.16-1.05.16l2.18 4.42Zm10.1.44h4.4q.36-.3.68-.3.46 0 .72.32.28.3.28 1.03v.95h-9.12v-2.13q5.4-4.45 6.53-5.73.56-.66.56-1.25 0-.72-.64-1.28t-1.7-.56q-1.08 0-1.78.62-.38.33-.6.99-.14.4-.39.59-.23.17-.58.17-.4 0-.71-.3-.3-.3-.3-.68 0-.58.55-1.46.54-.89 1.57-1.4 1.05-.53 2.27-.53 1.89 0 3.1 1.14 1.21 1.14 1.21 2.78 0 .83-.34 1.55-.35.7-1.66 1.95-1.05.98-4.05 3.53Zm15.41 1q0 .56-.4.95-.4.38-1.1.38-.7 0-1.1-.38-.41-.39-.41-.95 0-.58.4-.95.4-.38 1.11-.38.7 0 1.1.38.4.37.4.95Zm13.33-5.69q.89.61 1.33 1.4.44.79.44 1.79 0 1.06-.58 1.97-.58.89-1.7 1.36-1.1.47-2.88.47-2.33 0-3.5-.74-.66-.4-.66-.97 0-.43.28-.73.3-.3.72-.3.28 0 .58.2.44.3.81.4.58.14 1.61.14 1.75 0 2.53-.46.79-.47.79-1.3 0-.6-.46-1.17-.45-.57-1.22-.89-.43-.17-1.48-.25-.5-.03-.77-.3-.26-.27-.26-.7 0-.42.28-.71.3-.3.75-.3h1.06q.4-.05.78-.25.4-.22.63-.6.25-.37.25-.78 0-.64-.56-1.09-.57-.47-1.7-.47-1.43 0-2.2.85-.23.23-.35.3-.2.12-.47.12-.41 0-.7-.3t-.29-.72q0-.67.9-1.31 1.3-.92 3.26-.92 1.86 0 2.98 1.06 1.13 1.05 1.13 2.53 0 .77-.35 1.44-.32.67-.98 1.23Zm10.67 5.69q0 .56-.4.95-.4.38-1.1.38-.7 0-1.1-.38-.41-.39-.41-.95 0-.58.4-.95.4-.38 1.11-.38.7 0 1.1.38.4.37.4.95Zm14.85-6.44v2.2q0 1.96-1.15 3.76-1.12 1.78-3.21 1.78-1.2 0-2.05-.53-.83-.54-1.58-1.97-.75-1.44-.75-3.03v-2.2q0-1.94 1.13-3.73 1.12-1.8 3.21-1.8 1.2 0 2.04.54.84.51 1.59 1.95.76 1.42.76 3.03Zm-2.02 0q0-1.62-.9-2.84-.52-.67-1.46-.67-.9 0-1.48.73-.88 1.13-.88 2.78v2.2q0 1.65.92 2.85.5.69 1.46.69.9 0 1.46-.75.88-1.13.88-2.78v-2.2Zm13.84 2.67h-8.36v-1.82h8.36v1.82Zm3.72 2.77v-7.83h-.31q-.74 0-1.05-.28-.3-.28-.3-.73 0-.46.3-.72.31-.28 1.05-.28h5.01q1.8 0 2.9 1 1.09 1 1.09 2.37 0 .66-.27 1.24-.25.57-.76 1.06.95.56 1.42 1.33.47.75.47 1.7 0 .77-.33 1.42-.26.5-.62.8-.5.4-1.24.67-.72.25-1.8.25h-5.87q-.74 0-1.05-.28-.3-.28-.3-.72 0-.45.32-.72.31-.28 1.03-.28h.31Zm2-4.92h2.19q1.19 0 1.97-.6.53-.4.53-1 0-.53-.5-.92t-1.58-.39h-2.6v2.9Zm0 4.92h3.45q1.22 0 1.72-.36.38-.28.38-.78 0-.61-.75-1.19-.75-.6-2.16-.6h-2.64v2.93Z"
  />
</svg>
