<svg
  xmlns="http://www.w3.org/2000/svg"
  id="svg4"
  width="151.18"
  height="180.57"
  version="1.1"
  viewBox="0 0 40 47.78"
>
  <style id="style1">
  .s0, .s1 {
    stroke: oklch(0.65 0 0);
    stroke-linecap: round;
    stroke-linejoin: round;
    fill: none;
  }
  .s0, .s1, .s2, .s3, .s4 {
    stroke-width: 0.083091;
  }
  .s2, .s3, .s4, .s5, .s6, .s7, .s8, .s9, .sa, .sb {
    stroke-linecap: round;
    stroke-linejoin: round;
    fill: none;
  }
  .s2 {
    stroke: #19b219;
  }
  .s3 {
    stroke: oklch(0.65 0 0);
  }
  .s4 {
    stroke: #0c0;
  }
  .s5, .s6 {
    stroke: oklch(0.65 0 0);
    stroke-width: 0.055394;
  }
  .s6 {
    stroke: #ff19ff;
  }
  .s7, .s8 {
    stroke: red;
    stroke-width: 0.083091;
  }
  .s8 {
    stroke: #ff0;
  }
  .s9, .sa {
    stroke: #001919;
    stroke-width: 0.055394;
  }
  .sa {
    stroke: #066;
  }
  .sb {
    stroke: #0ff;
    stroke-width: 0.166182;
  }
  .sc {
    stroke: red;
    stroke-width: 0.443153;
  }
  .sc, .sd, .se, .sf {
    stroke-linecap: round;
    stroke-linejoin: round;
    fill: none;
  }
  .sd {
    stroke: #191919;
    stroke-width: 0.055394;
  }
  .se, .sf {
    stroke: oklch(0.65 0 0);
  }
  .se {
    stroke-width: 0.055394;
    stroke-dasharray: 0.831, 0.831;
  }
  .sf {
    stroke-width: 0.166182;
  }
  </style><path
    id="path1"
    d="M20 0A20 20 0 0 0 0 20v12.84a12.5 12.5 0 0 0 6.82 11.14l4.46 2.27a14 14 0 0 0 12.72 0l8.78-4.48A13.21 13.21 0 0 0 40 30V20A20 20 0 0 0 20 0Zm4.7 17.6a5.7 5.7 0 0 1 5.7 5.7v3.83a1.9 1.9 0 0 1-1.9 1.9 1.9 1.9 0 0 1-1.9-1.9V23.3a1.9 1.9 0 0 0-1.9-1.9 1.9 1.9 0 0 0-1.9 1.9v.6a1.9 1.9 0 0 1-1.9 1.9 1.9 1.9 0 0 1-1.9-1.9v-.6a5.7 5.7 0 0 1 5.7-5.7zm-15.2.04a5.7 5.7 0 0 1 5.7 5.7v.6a1.9 1.9 0 0 1-1.9 1.9 1.9 1.9 0 0 1-1.9-1.9v-.6a1.9 1.9 0 0 0-1.9-1.9 1.9 1.9 0 0 0-1.9 1.9v3.84a1.9 1.9 0 0 1-1.9 1.9 1.9 1.9 0 0 1-1.9-1.9v-3.84a5.7 5.7 0 0 1 5.7-5.7zm7.64 11.73a10 10 0 0 1 3.9.8l7.37 3.11a3.5 3.5 0 0 1 2.13 3.1 3.5 3.5 0 0 1-1.9 3.24l-6.37 3.24a10.2 10.2 0 0 1-9.27 0L8.55 40.6a8.7 8.7 0 0 1-3.17-2.75 3.3 3.3 0 0 1-.47-2.8 3.3 3.3 0 0 1 1.88-2.13l6.44-2.74a10 10 0 0 1 3.9-.8z"
    style="fill: oklch(0.65 0 0); fill-opacity: 1; stroke: none; stroke-width: 0.083091; stroke-linecap: round; stroke-linejoin: round"
  />
</svg>
