<svg
  xmlns="http://www.w3.org/2000/svg"
  width="913"
  height="698"
  fill="none"
  stroke-linecap="square"
  stroke-miterlimit="10"
>
  <path fill="#000000" d="M0 0h913v698H0V0Z" /><path
    stroke="#3a3a3a"
    stroke-linecap="butt"
    d="M172.5.5v698m241-698v698m240-698v698m241-698v698M100.5.5v698m240-698v698m241-698v698m240-698v698m-821-175h913m-913-174h913m-913-175h913M.5.5h913m-913 654h913m-913-44h913m-913-43h913m-913-88h913m-913-43h913m-913-44h913m-913-87h913m-913-44h913m-913-43h913m-913-88h913m-913-43h913m-913-44h913"
  /><clipPath id="a"><path d="M0 0h913v698H0V0Z" /></clipPath><path
    stroke="#4a86e8"
    stroke-dasharray="2.0,3.0"
    stroke-linecap="butt"
    stroke-width="2"
    d="m288.6 50.4 60.2 47 16.6 8.3 27 48.7 68 33 31.3 11.8 44 11.3 53 10.1L649 230l179.4 42 74.8 7.1"
    clip-path="url(#a)"
  /><path
    stroke="red"
    stroke-dasharray="2.0,3.0"
    stroke-linecap="butt"
    stroke-width="2"
    d="m9.8 42.2 14 48L57 121l121.9 8.7 5.7 23.4 21.8 17.4 62.5 9.8 6 6.6 35.4 7.8 46.3 6.8 48.7 3.2 8.8 1 22 4.9 28 3 20.7 5-1.7 16.2 51.5 11.8 11.8 5.5 23 6.3 47.5 16.1 71.2 10.5 62.2 10.2"
    clip-path="url(#a)"
  /><path
    stroke="#fbbc04"
    stroke-dasharray="2.0,3.0"
    stroke-linecap="butt"
    stroke-width="2"
    d="m246.2 160.2 98.6 19.2 45.3 12.5 21.4 4.5 160.8 74.8 14.8 9.3 3.5 5.5 63.9 10.5h-.2"
    clip-path="url(#a)"
  /><path
    stroke="#f0f"
    stroke-dasharray="2.0,3.0"
    stroke-linecap="butt"
    stroke-width="2"
    d="m307.8 160.6 86 20.7 81.8 12 20 39.8 31.5 26.8 7 4 17 10.4 41.8 10.3 63.2 10.7"
    clip-path="url(#a)"
  /><path
    stroke="#46bdc6"
    stroke-dasharray="2.0,3.0"
    stroke-linecap="butt"
    stroke-width="2"
    d="m340.5 118.3 197.1 81-74.3 134.6 130.6 30 127 18.7"
    clip-path="url(#a)"
  /><path
    stroke="#90f"
    stroke-dasharray="2.0,3.0"
    stroke-linecap="butt"
    stroke-width="2"
    d="m465.4 228.7 27.6 12.5 26.8 11.8h3.9l17 11.1h1l17.1 10.5 40.5 10.4 61 11"
    clip-path="url(#a)"
  /><path
    stroke="#f07b72"
    stroke-dasharray="2.0,3.0"
    stroke-linecap="butt"
    stroke-width="2"
    d="M448.5 85h-.1l169 41.6h.1l98.8 2h-.1l84.4.2"
    clip-path="url(#a)"
  /><path
    fill="#4a86e8"
    d="M284.3 46.2h8.5v8.5h-8.5Zm60.2 46.9h8.5v8.5h-8.5Zm16.6 8.4h8.5v8.5h-8.5Zm26.9 48.6h8.6v8.5H388Zm68.3 32.9h8.4v8.6h-8.4Zm31.2 12h8.5v8.4h-8.5Zm43.9 11.3h8.5v8.5h-8.5Zm53.1 10.1h8.5v8.5h-8.5Zm60.2 9.3h8.5v8.5h-8.5Zm179.5 42.1h8.5v8.5h-8.5Zm74.8 7.1h8.5v8.4H899Z"
    clip-path="url(#a)"
  /><path
    fill="red"
    d="m9.8 36.2 1.3 4.1h4.4L12 43l1.3 4.1-3.5-2.5L6.3 47l1.3-4-3.5-2.6h4.3Zm13.9 48 1.4 4.2h4.3L26 90.9l1.4 4.2-3.6-2.6-3.5 2.6 1.4-4.2-3.6-2.5h4.4ZM57 114.9l1.3 4.1h4.4l-3.5 2.6 1.3 4.1-3.5-2.5-3.5 2.5 1.3-4.1-3.5-2.6h4.3Zm121.9 8.7 1.3 4.1h4.4l-3.5 2.6 1.3 4.1-3.5-2.5-3.5 2.5 1.3-4.1-3.5-2.6h4.3Zm5.7 23.4 1.4 4.2h4.3l-3.5 2.5 1.4 4.2-3.6-2.6-3.5 2.6 1.4-4.2-3.6-2.5h4.4Zm21.8 17.4 1.4 4.2h4.3l-3.5 2.5 1.4 4.2-3.6-2.6-3.5 2.6 1.4-4.2-3.6-2.5h4.4Zm62.6 9.8 1.3 4.1h4.3l-3.5 2.6 1.4 4.1-3.6-2.5-3.5 2.5 1.3-4.1-3.5-2.6h4.4Z"
    clip-path="url(#a)"
  /><path
    fill="red"
    d="m275 180.8 1.3 4.1h4.4l-3.5 2.6 1.3 4.1-3.5-2.5-3.5 2.5 1.3-4.1-3.5-2.6h4.3Zm35.3 7.8 1.3 4.1h4.4l-3.5 2.6 1.3 4.1-3.5-2.5-3.5 2.5 1.3-4.1-3.5-2.6h4.4Zm46.3 6.8 1.3 4.1h4.4l-3.5 2.6 1.3 4.1-3.5-2.6-3.5 2.6 1.3-4.1-3.5-2.6h4.3Zm48.7 3.2 1.3 4.1h4.4l-3.5 2.6 1.3 4.1-3.5-2.5-3.5 2.5 1.3-4.1-3.5-2.6h4.3Z"
    clip-path="url(#a)"
  /><path
    fill="red"
    d="m414.1 199.5 1.4 4.2h4.3l-3.5 2.5 1.4 4.2-3.6-2.6-3.5 2.6 1.4-4.2-3.6-2.5h4.4Zm22 5 1.4 4.1h4.3l-3.5 2.6 1.3 4.1-3.5-2.5-3.5 2.5 1.3-4.1-3.5-2.6h4.4Zm27.9 3.1 1.4 4.1h4.3l-3.5 2.6 1.4 4.1-3.6-2.5-3.5 2.5 1.3-4.1-3.5-2.6h4.4Zm20.8 4.9 1.4 4.1h4.3l-3.5 2.6 1.3 4.1-3.5-2.6-3.5 2.6 1.3-4.1-3.5-2.6h4.4Zm-1.8 16.2 1.4 4.1h4.4l-3.6 2.6 1.4 4.1-3.5-2.5-3.6 2.5 1.4-4.1-3.5-2.6h4.3Zm51.6 11.8 1.4 4.1h4.3l-3.5 2.6 1.3 4.1-3.5-2.5-3.5 2.5 1.3-4.1-3.5-2.6h4.4Zm11.8 5.5 1.3 4.1h4.4l-3.6 2.6 1.4 4.1-3.5-2.5-3.6 2.5 1.4-4.1-3.6-2.6h4.4Zm22.9 6.3 1.4 4.1h4.3l-3.5 2.6 1.3 4.1-3.5-2.6-3.5 2.6 1.3-4.1-3.5-2.6h4.4Zm47.7 16.1 1.3 4.2h4.3l-3.5 2.5 1.4 4.2-3.6-2.6-3.5 2.6 1.4-4.2-3.6-2.5h4.4Zm71 10.6 1.4 4h4.4l-3.6 2.6 1.4 4.2-3.5-2.6-3.6 2.6 1.4-4.2-3.5-2.5h4.3Zm62.3 10.1 1.4 4.2h4.3l-3.5 2.6 1.4 4.1-3.6-2.6-3.5 2.6 1.4-4.1-3.6-2.6h4.4Z"
    clip-path="url(#a)"
  /><path
    fill="#fbbc04"
    d="m246.2 154.2 6 6-6 6-6-6Zm98.6 19.2 6 6-6 6-6-6Zm45.3 12.5 6 6-6 6-6-6Zm21.4 4.5 6 6-6 6-6-6Zm160.8 74.8 6 6-6 6-6-6Zm14.7 9.3 6 6-6 6-6-6Z"
    clip-path="url(#a)"
  /><path
    fill="#fbbc04"
    d="m590.6 280 6 6-6 6-6-6Zm63.9 10.5 6 6-6 6-6-6Z"
    clip-path="url(#a)"
  /><path
    fill="#fbbc04"
    d="m654.3 290.5 6 6-6 6-6-6Z"
    clip-path="url(#a)"
  /><path
    fill="#f0f"
    d="m303.5 156.3 4.3 2.8 4.2-2.8-2.7 4.3 2.7 4.2-4.2-2.7-4.3 2.7 2.8-4.2Zm86 20.8 4.2 2.7 4.3-2.7-2.8 4.2 2.8 4.3-4.3-2.8-4.2 2.8 2.7-4.3Zm81.9 11.9 4.2 2.8 4.3-2.7-2.8 4.2 2.8 4.3-4.3-2.8-4.2 2.8 2.7-4.3Zm20 40 4.3 2.6 4.2-2.7-2.7 4.2 2.7 4.3-4.2-2.8-4.3 2.8 2.8-4.3Zm31.5 26.7 4.2 2.7 4.3-2.7-2.8 4.2 2.8 4.3-4.3-2.8-4.2 2.8 2.7-4.3Z"
    clip-path="url(#a)"
  /><path
    fill="#f0f"
    d="m530 259.6 4.2 2.7 4.2-2.7-2.7 4.2 2.7 4.3-4.2-2.8-4.3 2.8 2.8-4.3Zm17 10.4 4.2 2.8 4.2-2.7-2.7 4.2 2.7 4.3-4.2-2.8-4.3 2.8 2.8-4.3Zm41.7 10.3 4.2 2.8 4.3-2.8-2.8 4.3 2.8 4.2-4.3-2.7-4.2 2.7 2.7-4.2Zm63.2 10.7 4.2 2.8 4.2-2.7-2.7 4.2 2.7 4.2-4.2-2.7-4.2 2.7 2.7-4.2Z"
    clip-path="url(#a)"
  /><path
    fill="#ff6d01"
    d="m579.7 347.1 5.7 4.2-2.2 6.7h-7l-2.2-6.7Z"
    clip-path="url(#a)"
  /><path
    fill="#46bdc6"
    d="m340.5 112.3 5.2 3v6l-5.2 3-5.2-3v-6Zm197.1 81 5.2 3v6l-5.2 3-5.2-3v-6ZM463.3 328l5.2 3v6l-5.2 3-5.2-3v-6Zm130.6 29.8 5.2 3v6l-5.2 3-5.2-3v-6Zm126.9 18.8 5.2 3v6l-5.2 3-5.2-3v-6Z"
    clip-path="url(#a)"
  /><path
    fill="#90f"
    d="m461.2 224.5 4.2 2.7 4.3-2.7-2.8 4.2 2.8 4.3-4.3-2.8-4.2 2.8 2.7-4.3Zm27.5 12.5 4.3 2.7 4.2-2.7-2.7 4.2 2.7 4.2-4.2-2.7-4.3 2.7 2.8-4.2Zm26.9 11.8 4.2 2.7 4.3-2.7-2.8 4.2 2.8 4.3-4.3-2.8-4.2 2.8 2.7-4.3Z"
    clip-path="url(#a)"
  /><path
    fill="#90f"
    d="m519.4 248.8 4.3 2.7 4.2-2.7-2.7 4.2 2.7 4.2-4.2-2.7-4.3 2.7 2.8-4.2Zm17.1 11.1 4.3 2.7 4.2-2.7-2.7 4.2 2.7 4.2-4.2-2.7-4.3 2.7 2.8-4.2Z"
    clip-path="url(#a)"
  /><path
    fill="#90f"
    d="m537.4 259.8 4.2 2.8 4.3-2.8-2.8 4.3 2.8 4.2-4.3-2.7-4.2 2.7 2.7-4.2Zm17.2 10.6 4.2 2.7 4.3-2.7-2.8 4.2 2.8 4.3-4.3-2.8-4.2 2.8 2.7-4.3Zm40.4 10.4 4.3 2.7 4.2-2.7-2.7 4.2 2.7 4.3-4.2-2.8-4.3 2.8 2.8-4.3Zm61.1 10.9 4.3 2.7 4.2-2.7-2.7 4.2 2.7 4.3-4.2-2.8-4.3 2.8 2.8-4.3Z"
    clip-path="url(#a)"
  /><path
    fill="#f07b72"
    d="M454.5 85a6 6 0 1 1-12 0 6 6 0 0 1 12 0Z"
    clip-path="url(#a)"
  /><path
    fill="#f07b72"
    d="M454.5 85a6 6 0 1 1-12 0 6 6 0 0 1 12 0Z"
    clip-path="url(#a)"
  /><path
    fill="#f07b72"
    d="M454.4 85a6 6 0 1 1-12 0 6 6 0 0 1 12 0Z"
    clip-path="url(#a)"
  /><path
    fill="#f07b72"
    d="M454.4 85a6 6 0 1 1-12 0 6 6 0 0 1 12 0Zm169 41.6a6 6 0 1 1-12 0 6 6 0 0 1 12 0Z"
    clip-path="url(#a)"
  /><path
    fill="#f07b72"
    d="M623.5 126.6a6 6 0 1 1-12 0 6 6 0 0 1 12 0Zm98.8 2a6 6 0 1 1-12 0 6 6 0 0 1 12 0Z"
    clip-path="url(#a)"
  /><path
    fill="#f07b72"
    d="M722.2 128.6a6 6 0 1 1-12 0 6 6 0 0 1 12 0Zm84.4.2a6 6 0 1 1-12 0 6 6 0 0 1 12 0Z"
    clip-path="url(#a)"
  /><path
    stroke="#000000"
    stroke-linecap="round"
    stroke-linejoin="round"
    stroke-width="3"
    d="M32 45v1.2l1.5-1.2.9-.2q.4 0 .8.3l.4.4v.2l-.3.1q0 0 0 0l-.2-.1-.4-.3-.3-.1q-.3 0-.8.3l-1.5 1.2v2.7h2.4v.4l-.3.1h-4.1v-.4h1.5v-4.2h-1.2V45h1.7Zm10.3 2.6h-5q.1 1 .8 1.5.7.6 1.7.6l1.1-.2 1-.5h.4v.4q-.3.3-1 .5-.8.3-1.5.3-1.3 0-2.1-.8-.9-.9-.9-2t.8-1.9q.8-.8 2-.8t2 .8q.7.8.7 2Zm-.5-.5q-.1-.8-.7-1.3-.7-.5-1.5-.5-.9 0-1.5.5t-.8 1.3h4.5Zm6.3 2.9v-.7q-1.1.9-2.3.9-.9 0-1.4-.5-.5-.4-.5-1 0-.8.7-1.3.6-.5 1.9-.5h.7l.9.1v-.8q0-.4-.4-.7-.4-.3-1.1-.3-.6 0-1.6.4h-.4l-.1-.2v-.2l.7-.2 1.4-.3q1 0 1.4.5.6.5.6 1v3.3h.9v.4l-.3.1h-1.1Zm0-2.5h-.8l-.8-.1q-1 0-1.6.4-.5.4-.5.8 0 .5.3.8.4.3 1 .3.7 0 1.3-.2.5-.3 1-.9v-1Zm5.8-4.9v6.9h2.2v.4l-.3.1h-4.6v-.4l.3-.1h2v-6.4h-1.8v-.4H54ZM66.7 45h2.6l.3.1v.4h-2.9v3.3q0 .4.3.7.3.3 1 .3l1-.1 1-.4h.3l.1.2v.1l-1 .5-1.4.2q-.8 0-1.3-.4t-.5-1.1v-3.3H65V45h1.2v-1.8h.4V45Zm8.2-2.5v1.3h-.7v-1.3h.7Zm0 2.5v4.6h2.2v.4l-.2.1h-4.7v-.4l.3-.1h2v-4H73l-.3-.1V45H75Zm4.5 0v.5q.6-.6 1.3-.6.4 0 .6.2.3.2.5.6l.7-.6q.3-.3.7-.3.5 0 .8.4.4.4.4 1v3.4h.7v.4l-.2.1h-1v-3.9q0-.4-.2-.6-.2-.3-.5-.3t-.6.3l-.7.8v3.2h.7v.4l-.2.1h-1v-3.8q0-.5-.2-.7-.2-.3-.5-.3t-.5.2l-.8.9v3.2h.7v.4l-.3.1h-1.5l-.1-.3v-.1l.3-.1h.4v-4h-.4l-.2-.1-.1-.2V45h1.3Zm12 2.7h-5q0 1 .7 1.5.7.6 1.7.6l1.1-.2 1-.5h.4v.4q-.3.3-1 .5-.8.3-1.5.3-1.3 0-2.1-.8-.9-.9-.9-2t.8-1.9q.8-.8 2-.8t2 .8q.7.8.7 2Zm-.6-.5q-.1-.8-.7-1.3-.7-.5-1.5-.5-.9 0-1.5.5t-.8 1.3h4.5Zm11.8 0 .2-1.4q.2-.8.7-1.8l.7-1.2h.3v.2q-.6 1.2-.9 2.2l-.2 1.9.2 2q.3.9 1 2v.4h-.4l-.7-1.2-.7-1.7-.2-1.5Zm8.7-1.9V45h.4v1.4h-.3l-.1-.2q0-.4-.4-.6-.4-.4-1.2-.4-.9 0-1.3.4-.4.2-.4.5 0 .4.4.6.3.2 1.1.3 1 0 1.4.2.6.2.9.6l.2.8q0 .6-.6 1.1-.6.5-1.7.5-1.2 0-2-.6v.3q0 0 0 0l-.2.1h-.2v-1.6h.4v.2q0 .3.2.4.2.3.7.5.4.2 1 .2 1 0 1.5-.4.5-.3.5-.7 0-.5-.5-.7-.5-.3-1.4-.4-1-.1-1.3-.3-.4-.1-.7-.4-.2-.3-.2-.7 0-.6.6-1 .7-.4 1.5-.4 1 0 1.7.5Zm8 2.4h-5q.1 1 .8 1.5.7.6 1.7.6l1.1-.2 1-.5h.4v.4q-.3.3-1 .5-.8.3-1.5.3-1.3 0-2.1-.8-.9-.9-.9-2t.8-1.9q.8-.8 2-.8t2 .8q.7.8.7 2Zm-.5-.5q-.1-.8-.7-1.3-.7-.5-1.5-.5-.9 0-1.5.5t-.8 1.3h4.5Zm7-1.7V45h.2l.1.3v1.3l-.2.1h-.2v-.3q-.1-.4-.6-.8t-1.4-.4q-1.1 0-1.7.7-.5.7-.5 1.6 0 1 .6 1.6.6.6 1.6.6l1.2-.2q.6-.2 1-.7l.3-.1h.1l.1.2q0 .3-.6.7-1 .6-2.1.6-1.2 0-2-.8-.7-.7-.7-1.9t.7-2q.8-.8 2-.8t2 .7Zm7.6 2q0 1.2-.8 2t-2 .8q-1 0-1.9-.8-.8-.8-.8-2 0-1 .8-1.9.8-.8 2-.8 1 0 2 .8.7.8.7 2Zm-.5 0q0-.9-.7-1.5-.6-.6-1.5-.6-1 0-1.6.6-.7.6-.7 1.6 0 .9.7 1.5.6.7 1.6.7.9 0 1.5-.7.7-.6.7-1.5Zm3.2-2.5v.8q.5-.6.9-.7.4-.3 1-.3.5 0 1 .3l.6.6.2.8v3.1h.7v.4l-.3.1h-1.5l-.1-.3v-.1l.3-.1h.4v-3q0-.5-.3-.9-.4-.4-1-.4-.5 0-1 .3-.3.1-1 1v3h1v.4l-.3.1h-1.8l-.1-.3v-.1l.3-.1h.6v-4h-.4l-.3-.1V45h1.2Zm11-2.3v6.9h.9v.4l-.3.1h-1.1v-1q-.9 1.2-2.2 1.2-.7 0-1.3-.4-.6-.3-1-1-.3-.6-.3-1.3 0-.7.4-1.4.3-.6 1-1 .5-.4 1.2-.4 1.3 0 2.2 1.2v-2.8h-.9l-.1-.2v-.2h1.5Zm-.5 4.9q0-1-.7-1.6-.6-.6-1.5-.6-.8 0-1.5.6-.6.6-.6 1.6t.6 1.6q.7.6 1.5.6 1 0 1.5-.6.7-.7.7-1.6Zm6.7-2.3V45h.4v1.4h-.3l-.1-.2q0-.4-.4-.6-.4-.4-1.2-.4-.9 0-1.3.4-.4.2-.4.5 0 .4.4.6.3.2 1.1.3 1 0 1.4.2.6.2.9.6l.2.8q0 .6-.6 1.1-.6.5-1.7.5-1.2 0-2-.6v.3q0 0 0 0l-.2.1h-.2v-1.6h.4v.2q0 .3.2.4.2.3.7.5.4.2 1 .2 1 0 1.5-.4.5-.3.5-.7 0-.5-.5-.7-.5-.3-1.4-.4-1-.1-1.3-.3-.4-.1-.7-.4-.2-.3-.2-.7 0-.6.6-1 .7-.4 1.5-.4 1 0 1.7.5Zm5.5 1.9-.2 1.4q-.1.8-.6 1.8t-.8 1.2h-.2v-.4q.6-1.2.9-2.2.3-1 .3-2 0-.9-.3-1.8-.3-1-1-2.2v-.3h.4q.3.2.7 1.2l.7 1.7q.2.7.2 1.5Zm16-4.8-3.9 8.5q0 .2-.2.2h-.2l-.1-.3v-.1l4-8.5.1-.2h.4v.4Zm13.5 3V45h.4v1.4h-.3l-.1-.2q0-.4-.4-.6-.4-.4-1.2-.4-.9 0-1.3.4-.4.2-.4.5 0 .4.4.6.3.2 1.1.3 1 0 1.4.2.6.2.9.6l.2.8q0 .6-.6 1.1-.6.5-1.7.5-1.2 0-2-.6v.3q0 0 0 0l-.2.1h-.2v-1.6h.4v.2q0 .3.2.4.2.3.7.5.4.2 1 .2 1 0 1.5-.4.5-.3.5-.7 0-.5-.5-.7-.5-.3-1.4-.4-1-.1-1.3-.3-.4-.1-.7-.4-.2-.3-.2-.7 0-.6.6-1 .7-.4 1.5-.4 1 0 1.7.5Zm5.6-2.9v1.3h-.7v-1.3h.7Zm0 2.5v4.6h2.2v.4l-.2.1h-4.7v-.4l.3-.1h2v-4H192l-.3-.1V45h2.3Zm9 0v.5l-3.8 4.1h3.4v-1l.2-.1h.2V50h-4.4v-.4l3.6-4.2h-3v.7l-.1.2-.2.1h-.2v-1.5h4.2Zm7.4 2.7h-5q.1 1 .8 1.5.7.6 1.7.6l1.1-.2 1-.5h.4v.4q-.3.3-1 .5-.8.3-1.5.3-1.3 0-2.1-.8-.9-.9-.9-2t.8-1.9q.8-.8 2-.8t2 .8q.7.8.7 2Zm-.5-.5q-.1-.8-.7-1.3-.7-.5-1.5-.5-.9 0-1.5.5t-.8 1.3h4.5Zm11.8 0 .2-1.4q.2-.8.7-1.8l.7-1.2h.3v.2q-.6 1.2-.9 2.2l-.2 1.9.2 2q.3.9 1 2v.4h-.4l-.7-1.2-.7-1.7-.2-1.5Zm5.2-4.5V46q.9-1.1 2.2-1.1 1 0 1.8.7.8.8.8 2 0 1-.8 1.9-.8.8-1.8.8-1.3 0-2.2-1.2v1h-1.4v-.4l.3-.1h.6v-6.4h-.9v-.4h1.4Zm4.3 4.9q0-1-.7-1.6-.6-.6-1.4-.6-1 0-1.5.6-.7.6-.7 1.6t.7 1.6q.6.6 1.5.6.8 0 1.4-.6.7-.7.7-1.6Zm4.6 2.5-2.3-4.6h-.4V45q0 0 0 0h2v.4h-1l2 4 2-4h-1V45h2v.3l-.1.1h-.3l-3.1 6.4h1v.4H233v-.4h1.8l.9-1.8Zm6-5h2.9v.4h-2.9v3.3q0 .4.3.7.3.3 1 .3l1-.1 1-.4h.3l.1.2v.1l-1 .5-1.4.2q-.8 0-1.3-.4t-.5-1.1v-3.3H240V45h1.2v-1.8h.4V45Zm10.6 2.6h-5q.1 1 .8 1.5.7.6 1.7.6l1.1-.2 1-.5h.4v.4q-.3.3-1 .5-.8.3-1.5.3-1.3 0-2.1-.8-.9-.9-.9-2t.8-1.9q.8-.8 2-.8t2 .8q.7.8.7 2Zm-.5-.5q-.1-.8-.7-1.3-.7-.5-1.5-.5-.9 0-1.5.5t-.8 1.3h4.5Zm6.5-1.9V45h.4v1.4h-.3l-.1-.2q0-.4-.4-.6-.4-.4-1.2-.4-.9 0-1.3.4-.4.2-.4.5 0 .4.4.6.3.2 1.1.3 1 0 1.4.2.6.2.9.6l.2.8q0 .6-.6 1.1-.6.5-1.7.5-1.2 0-2-.6v.3q0 0 0 0l-.2.1h-.2v-1.6h.4v.2q0 .3.2.4.2.3.7.5.4.2 1 .2 1 0 1.5-.4.5-.3.5-.7 0-.5-.5-.7-.5-.3-1.4-.4-1-.1-1.3-.3-.4-.1-.7-.4-.2-.3-.2-.7 0-.6.6-1 .7-.4 1.5-.4 1 0 1.7.5Zm5.5 1.9-.2 1.4q-.1.8-.6 1.8t-.8 1.2h-.2v-.4q.6-1.2.9-2.2.3-1 .3-2 0-.9-.3-1.8-.3-1-1-2.2v-.3h.4q.3.2.7 1.2l.7 1.7q.2.7.2 1.5Z"
  /><path
    fill="#bdbdbd"
    d="M32 45v1.2l1.5-1.2.9-.2q.4 0 .8.3l.4.4v.2l-.3.1-.2-.1-.4-.3-.3-.1q-.3 0-.8.3l-1.5 1.2v2.7h2.4v.4l-.3.1h-4.1v-.4h1.5v-4.2h-1.2V45h1.7Zm10.3 2.6h-5q.1 1 .8 1.5.7.6 1.7.6l1.1-.2 1-.5h.4v.4q-.3.3-1 .5-.8.3-1.5.3-1.3 0-2.1-.8-.9-.9-.9-2t.8-1.9q.8-.8 2-.8t2 .8q.7.8.7 2Zm-.5-.5q-.1-.8-.7-1.3-.7-.5-1.5-.5-.9 0-1.5.5t-.8 1.3h4.5Zm6.3 2.9v-.7q-1.1.9-2.3.9-.9 0-1.4-.5-.5-.4-.5-1 0-.8.7-1.3.6-.5 1.9-.5h.7l.9.1v-.8q0-.4-.4-.7-.4-.3-1.1-.3-.6 0-1.6.4h-.4l-.1-.2v-.2l.7-.2 1.4-.3q1 0 1.4.5.6.5.6 1v3.3h.9v.4l-.3.1h-1.1Zm0-2.5h-.8l-.8-.1q-1 0-1.6.4-.5.4-.5.8 0 .5.3.8.4.3 1 .3.7 0 1.3-.2.5-.3 1-.9v-1Zm5.8-4.9v6.9h2.2v.4l-.3.1h-4.6v-.4l.3-.1h2v-6.4h-1.8v-.4H54ZM66.7 45h2.6l.3.1v.4h-2.9v3.3q0 .4.3.7.3.3 1 .3l1-.1 1-.4h.3l.1.2v.1l-1 .5-1.4.2q-.8 0-1.3-.4t-.5-1.1v-3.3H65V45h1.2v-1.8h.4V45Zm8.2-2.5v1.3h-.7v-1.3h.7Zm0 2.5v4.6h2.2v.4l-.2.1h-4.7v-.4l.3-.1h2v-4H73l-.3-.1V45H75Zm4.5 0v.5q.6-.6 1.3-.6.4 0 .6.2.3.2.5.6l.7-.6q.3-.3.7-.3.5 0 .8.4.4.4.4 1v3.4h.7v.4l-.2.1h-1v-3.9q0-.4-.2-.6-.2-.3-.5-.3t-.6.3l-.7.8v3.2h.7v.4l-.2.1h-1v-3.8q0-.5-.2-.7-.2-.3-.5-.3t-.5.2l-.8.9v3.2h.7v.4l-.3.1h-1.5l-.1-.3v-.1l.3-.1h.4v-4h-.4l-.2-.1-.1-.2V45h1.3Zm12 2.7h-5q0 1 .7 1.5.7.6 1.7.6l1.1-.2 1-.5h.4v.4q-.3.3-1 .5-.8.3-1.5.3-1.3 0-2.1-.8-.9-.9-.9-2t.8-1.9q.8-.8 2-.8t2 .8q.7.8.7 2Zm-.6-.5q-.1-.8-.7-1.3-.7-.5-1.5-.5-.9 0-1.5.5t-.8 1.3h4.5Zm11.8 0 .2-1.4q.2-.8.7-1.8l.7-1.2h.3v.2q-.6 1.2-.9 2.2l-.2 1.9.2 2q.3.9 1 2v.4h-.4l-.7-1.2-.7-1.7-.2-1.5Zm8.7-1.9V45h.4v1.4h-.3l-.1-.2q0-.4-.4-.6-.4-.4-1.2-.4-.9 0-1.3.4-.4.2-.4.5 0 .4.4.6.3.2 1.1.3 1 0 1.4.2.6.2.9.6l.2.8q0 .6-.6 1.1-.6.5-1.7.5-1.2 0-2-.6v.3l-.2.1h-.2v-1.6h.4v.2q0 .3.2.4.2.3.7.5.4.2 1 .2 1 0 1.5-.4.5-.3.5-.7 0-.5-.5-.7-.5-.3-1.4-.4-1-.1-1.3-.3-.4-.1-.7-.4-.2-.3-.2-.7 0-.6.6-1 .7-.4 1.5-.4 1 0 1.7.5Zm8 2.4h-5q.1 1 .8 1.5.7.6 1.7.6l1.1-.2 1-.5h.4v.4q-.3.3-1 .5-.8.3-1.5.3-1.3 0-2.1-.8-.9-.9-.9-2t.8-1.9q.8-.8 2-.8t2 .8q.7.8.7 2Zm-.5-.5q-.1-.8-.7-1.3-.7-.5-1.5-.5-.9 0-1.5.5t-.8 1.3h4.5Zm7-1.7V45h.2l.1.3v1.3l-.2.1h-.2v-.3q-.1-.4-.6-.8t-1.4-.4q-1.1 0-1.7.7-.5.7-.5 1.6 0 1 .6 1.6.6.6 1.6.6l1.2-.2q.6-.2 1-.7l.3-.1h.1l.1.2q0 .3-.6.7-1 .6-2.1.6-1.2 0-2-.8-.7-.7-.7-1.9t.7-2q.8-.8 2-.8t2 .7Zm7.6 2q0 1.2-.8 2t-2 .8q-1 0-1.9-.8-.8-.8-.8-2 0-1 .8-1.9.8-.8 2-.8 1 0 2 .8.7.8.7 2Zm-.5 0q0-.9-.7-1.5-.6-.6-1.5-.6-1 0-1.6.6-.7.6-.7 1.6 0 .9.7 1.5.6.7 1.6.7.9 0 1.5-.7.7-.6.7-1.5Zm3.2-2.5v.8q.5-.6.9-.7.4-.3 1-.3.5 0 1 .3l.6.6.2.8v3.1h.7v.4l-.3.1h-1.5l-.1-.3v-.1l.3-.1h.4v-3q0-.5-.3-.9-.4-.4-1-.4-.5 0-1 .3-.3.1-1 1v3h1v.4l-.3.1h-1.8l-.1-.3v-.1l.3-.1h.6v-4h-.4l-.3-.1V45h1.2Zm11-2.3v6.9h.9v.4l-.3.1h-1.1v-1q-.9 1.2-2.2 1.2-.7 0-1.3-.4-.6-.3-1-1-.3-.6-.3-1.3 0-.7.4-1.4.3-.6 1-1 .5-.4 1.2-.4 1.3 0 2.2 1.2v-2.8h-.9l-.1-.2v-.2h1.5Zm-.5 4.9q0-1-.7-1.6-.6-.6-1.5-.6-.8 0-1.5.6-.6.6-.6 1.6t.6 1.6q.7.6 1.5.6 1 0 1.5-.6.7-.7.7-1.6Zm6.7-2.3V45h.4v1.4h-.3l-.1-.2q0-.4-.4-.6-.4-.4-1.2-.4-.9 0-1.3.4-.4.2-.4.5 0 .4.4.6.3.2 1.1.3 1 0 1.4.2.6.2.9.6l.2.8q0 .6-.6 1.1-.6.5-1.7.5-1.2 0-2-.6v.3l-.2.1h-.2v-1.6h.4v.2q0 .3.2.4.2.3.7.5.4.2 1 .2 1 0 1.5-.4.5-.3.5-.7 0-.5-.5-.7-.5-.3-1.4-.4-1-.1-1.3-.3-.4-.1-.7-.4-.2-.3-.2-.7 0-.6.6-1 .7-.4 1.5-.4 1 0 1.7.5Zm5.5 1.9-.2 1.4q-.1.8-.6 1.8t-.8 1.2h-.2v-.4q.6-1.2.9-2.2.3-1 .3-2 0-.9-.3-1.8-.3-1-1-2.2v-.3h.4q.3.2.7 1.2l.7 1.7q.2.7.2 1.5Zm16-4.8-3.9 8.5q0 .2-.2.2h-.2l-.1-.3v-.1l4-8.5.1-.2h.4v.4Zm13.5 3V45h.4v1.4h-.3l-.1-.2q0-.4-.4-.6-.4-.4-1.2-.4-.9 0-1.3.4-.4.2-.4.5 0 .4.4.6.3.2 1.1.3 1 0 1.4.2.6.2.9.6l.2.8q0 .6-.6 1.1-.6.5-1.7.5-1.2 0-2-.6v.3l-.2.1h-.2v-1.6h.4v.2q0 .3.2.4.2.3.7.5.4.2 1 .2 1 0 1.5-.4.5-.3.5-.7 0-.5-.5-.7-.5-.3-1.4-.4-1-.1-1.3-.3-.4-.1-.7-.4-.2-.3-.2-.7 0-.6.6-1 .7-.4 1.5-.4 1 0 1.7.5Zm5.6-2.9v1.3h-.7v-1.3h.7Zm0 2.5v4.6h2.2v.4l-.2.1h-4.7v-.4l.3-.1h2v-4H192l-.3-.1V45h2.3Zm9 0v.5l-3.8 4.1h3.4v-1l.2-.1h.2V50h-4.4v-.4l3.6-4.2h-3v.7l-.1.2-.2.1h-.2v-1.5h4.2Zm7.4 2.7h-5q.1 1 .8 1.5.7.6 1.7.6l1.1-.2 1-.5h.4v.4q-.3.3-1 .5-.8.3-1.5.3-1.3 0-2.1-.8-.9-.9-.9-2t.8-1.9q.8-.8 2-.8t2 .8q.7.8.7 2Zm-.5-.5q-.1-.8-.7-1.3-.7-.5-1.5-.5-.9 0-1.5.5t-.8 1.3h4.5Zm11.8 0 .2-1.4q.2-.8.7-1.8l.7-1.2h.3v.2q-.6 1.2-.9 2.2l-.2 1.9.2 2q.3.9 1 2v.4h-.4l-.7-1.2-.7-1.7-.2-1.5Zm5.2-4.5V46q.9-1.1 2.2-1.1 1 0 1.8.7.8.8.8 2 0 1-.8 1.9-.8.8-1.8.8-1.3 0-2.2-1.2v1h-1.4v-.4l.3-.1h.6v-6.4h-.9v-.4h1.4Zm4.3 4.9q0-1-.7-1.6-.6-.6-1.4-.6-1 0-1.5.6-.7.6-.7 1.6t.7 1.6q.6.6 1.5.6.8 0 1.4-.6.7-.7.7-1.6Zm4.6 2.5-2.3-4.6h-.4V45h2v.4h-1l2 4 2-4h-1V45h2v.3l-.1.1h-.3l-3.1 6.4h1v.4H233v-.4h1.8l.9-1.8Zm6-5h2.9v.4h-2.9v3.3q0 .4.3.7.3.3 1 .3l1-.1 1-.4h.3l.1.2v.1l-1 .5-1.4.2q-.8 0-1.3-.4t-.5-1.1v-3.3H240V45h1.2v-1.8h.4V45Zm10.6 2.6h-5q.1 1 .8 1.5.7.6 1.7.6l1.1-.2 1-.5h.4v.4q-.3.3-1 .5-.8.3-1.5.3-1.3 0-2.1-.8-.9-.9-.9-2t.8-1.9q.8-.8 2-.8t2 .8q.7.8.7 2Zm-.5-.5q-.1-.8-.7-1.3-.7-.5-1.5-.5-.9 0-1.5.5t-.8 1.3h4.5Zm6.5-1.9V45h.4v1.4h-.3l-.1-.2q0-.4-.4-.6-.4-.4-1.2-.4-.9 0-1.3.4-.4.2-.4.5 0 .4.4.6.3.2 1.1.3 1 0 1.4.2.6.2.9.6l.2.8q0 .6-.6 1.1-.6.5-1.7.5-1.2 0-2-.6v.3l-.2.1h-.2v-1.6h.4v.2q0 .3.2.4.2.3.7.5.4.2 1 .2 1 0 1.5-.4.5-.3.5-.7 0-.5-.5-.7-.5-.3-1.4-.4-1-.1-1.3-.3-.4-.1-.7-.4-.2-.3-.2-.7 0-.6.6-1 .7-.4 1.5-.4 1 0 1.7.5Zm5.5 1.9-.2 1.4q-.1.8-.6 1.8t-.8 1.2h-.2v-.4q.6-1.2.9-2.2.3-1 .3-2 0-.9-.3-1.8-.3-1-1-2.2v-.3h.4q.3.2.7 1.2l.7 1.7q.2.7.2 1.5Z"
  /><path
    stroke="#000000"
    stroke-linecap="round"
    stroke-linejoin="round"
    stroke-width="3"
    d="M9.8 528v7h2v.4l-.3.1H7.4v-.4l.3-.1h1.7v-6.3l-1.7.5h-.2v-.3l.2-.1 2.2-.8Zm9 3.2v1.2q0 1.6-.7 2.6-.6.7-1.5.7l-.8-.2-.7-.5-.3-.6-.3-.8q-.2-.5-.2-1.2v-1.2q0-1.6.8-2.5.6-.7 1.5-.7l.8.1.7.5.3.7.3.7q.2.5.2 1.2Zm-.4 0-.2-1.2-.5-1q-.1-.2-.4-.3-.3-.2-.7-.2-.8 0-1.3.8-.5.9-.5 2v1q0 .8.2 1.4l.5 1 .4.3q.3.2.7.2.8 0 1.3-.9.5-.8.5-2v-1Zm7.5 0v1.2q0 1.6-.8 2.6-.6.7-1.5.7l-.8-.2-.7-.5-.3-.6-.3-.8q-.2-.5-.2-1.2v-1.2q0-1.6.8-2.5.6-.7 1.5-.7l.8.1.7.5.3.7.3.7q.2.5.2 1.2Zm-.5 0-.2-1.2-.5-1q-.1-.2-.4-.3-.3-.2-.7-.2-.8 0-1.3.8-.5.9-.5 2v1q0 .8.2 1.4l.5 1 .4.3q.3.2.7.2.8 0 1.3-.9.5-.8.5-2v-1Zm7.5 0v1.2q0 1.6-.8 2.6-.6.7-1.5.7l-.8-.2-.7-.5-.3-.6-.3-.8q-.2-.5-.2-1.2v-1.2q0-1.6.8-2.5.6-.7 1.5-.7l.8.1.7.5.3.7.3.7q.2.5.2 1.2Zm-.5 0-.2-1.2-.5-1q-.1-.2-.4-.3-.3-.2-.7-.2-.8 0-1.3.8-.5.9-.5 2v1q0 .8.2 1.4l.5 1 .4.3q.3.2.7.2.8 0 1.3-.9.5-.8.5-2v-1Zm7.5 0v1.2q0 1.6-.8 2.6-.6.7-1.5.7l-.8-.2-.7-.5-.3-.6-.3-.8q-.2-.5-.2-1.2v-1.2q0-1.6.8-2.5.6-.7 1.5-.7l.8.1.7.5.3.7.3.7q.2.5.2 1.2Zm-.5 0-.2-1.2-.5-1q-.1-.2-.4-.3-.3-.2-.7-.2-.8 0-1.3.8-.5.9-.5 2v1q0 .8.2 1.4l.5 1 .4.3q.3.2.7.2.8 0 1.3-.9.5-.8.5-2v-1Zm7.5 0v1.2q0 1.6-.8 2.6-.6.7-1.5.7l-.8-.2-.7-.5-.3-.6-.3-.8q-.2-.5-.2-1.2v-1.2q0-1.6.8-2.5.6-.7 1.5-.7l.8.1.7.5.3.7.3.7q.2.5.2 1.2Zm-.5 0-.2-1.2-.5-1q-.1-.2-.4-.3-.3-.2-.7-.2-.8 0-1.3.8-.5.9-.5 2v1q0 .8.2 1.4l.5 1 .4.3q.3.2.7.2.8 0 1.3-.9.5-.8.5-2v-1Zm7.5 0v1.2q0 1.6-.8 2.6-.6.7-1.5.7l-.8-.2-.7-.5-.3-.6-.3-.8q-.2-.5-.2-1.2v-1.2q0-1.6.8-2.5.6-.7 1.5-.7l.8.1.7.5.3.7.3.7q.2.5.2 1.2Zm-.5 0-.2-1.2-.5-1q-.1-.2-.4-.3-.3-.2-.7-.2-.8 0-1.3.8-.5.9-.5 2v1q0 .8.2 1.4l.5 1 .4.3q.3.2.7.2.8 0 1.3-.9.5-.8.5-2v-1Zm7.5 0v1.2q0 1.6-.8 2.6-.6.7-1.5.7l-.8-.2-.7-.5-.3-.6-.3-.8q-.2-.5-.2-1.2v-1.2q0-1.6.8-2.5.6-.7 1.5-.7l.8.1.7.5.3.7.3.7q.2.5.2 1.2Zm-.5 0-.2-1.2-.5-1q-.1-.2-.4-.3-.3-.2-.7-.2-.8 0-1.3.8-.5.9-.5 2v1q0 .8.2 1.4l.5 1 .4.3q.3.2.7.2.8 0 1.3-.9.5-.8.5-2v-1Zm7.5 0v1.2q0 1.6-.8 2.6-.6.7-1.5.7l-.8-.2-.7-.5-.3-.6-.3-.8q-.2-.5-.2-1.2v-1.2q0-1.6.8-2.5.6-.7 1.5-.7l.8.1.7.5.3.7.3.7q.2.5.2 1.2Zm-.5 0-.2-1.2-.5-1q-.1-.2-.4-.3-.3-.2-.7-.2-.8 0-1.3.8-.5.9-.5 2v1q0 .8.2 1.4l.5 1 .4.3q.3.2.7.2.8 0 1.3-.9.5-.8.5-2v-1Z"
  /><path
    fill="#bdbdbd"
    d="M9.8 528v7h2v.4l-.3.1H7.4v-.4l.3-.1h1.7v-6.3l-1.7.5h-.2v-.3l.2-.1 2.2-.8Zm9 3.2v1.2q0 1.6-.7 2.6-.6.7-1.5.7l-.8-.2-.7-.5-.3-.6-.3-.8q-.2-.5-.2-1.2v-1.2q0-1.6.8-2.5.6-.7 1.5-.7l.8.1.7.5.3.7.3.7q.2.5.2 1.2Zm-.4 0-.2-1.2-.5-1q-.1-.2-.4-.3-.3-.2-.7-.2-.8 0-1.3.8-.5.9-.5 2v1q0 .8.2 1.4l.5 1 .4.3q.3.2.7.2.8 0 1.3-.9.5-.8.5-2v-1Zm7.5 0v1.2q0 1.6-.8 2.6-.6.7-1.5.7l-.8-.2-.7-.5-.3-.6-.3-.8q-.2-.5-.2-1.2v-1.2q0-1.6.8-2.5.6-.7 1.5-.7l.8.1.7.5.3.7.3.7q.2.5.2 1.2Zm-.5 0-.2-1.2-.5-1q-.1-.2-.4-.3-.3-.2-.7-.2-.8 0-1.3.8-.5.9-.5 2v1q0 .8.2 1.4l.5 1 .4.3q.3.2.7.2.8 0 1.3-.9.5-.8.5-2v-1Zm7.5 0v1.2q0 1.6-.8 2.6-.6.7-1.5.7l-.8-.2-.7-.5-.3-.6-.3-.8q-.2-.5-.2-1.2v-1.2q0-1.6.8-2.5.6-.7 1.5-.7l.8.1.7.5.3.7.3.7q.2.5.2 1.2Zm-.5 0-.2-1.2-.5-1q-.1-.2-.4-.3-.3-.2-.7-.2-.8 0-1.3.8-.5.9-.5 2v1q0 .8.2 1.4l.5 1 .4.3q.3.2.7.2.8 0 1.3-.9.5-.8.5-2v-1Zm7.5 0v1.2q0 1.6-.8 2.6-.6.7-1.5.7l-.8-.2-.7-.5-.3-.6-.3-.8q-.2-.5-.2-1.2v-1.2q0-1.6.8-2.5.6-.7 1.5-.7l.8.1.7.5.3.7.3.7q.2.5.2 1.2Zm-.5 0-.2-1.2-.5-1q-.1-.2-.4-.3-.3-.2-.7-.2-.8 0-1.3.8-.5.9-.5 2v1q0 .8.2 1.4l.5 1 .4.3q.3.2.7.2.8 0 1.3-.9.5-.8.5-2v-1Zm7.5 0v1.2q0 1.6-.8 2.6-.6.7-1.5.7l-.8-.2-.7-.5-.3-.6-.3-.8q-.2-.5-.2-1.2v-1.2q0-1.6.8-2.5.6-.7 1.5-.7l.8.1.7.5.3.7.3.7q.2.5.2 1.2Zm-.5 0-.2-1.2-.5-1q-.1-.2-.4-.3-.3-.2-.7-.2-.8 0-1.3.8-.5.9-.5 2v1q0 .8.2 1.4l.5 1 .4.3q.3.2.7.2.8 0 1.3-.9.5-.8.5-2v-1Zm7.5 0v1.2q0 1.6-.8 2.6-.6.7-1.5.7l-.8-.2-.7-.5-.3-.6-.3-.8q-.2-.5-.2-1.2v-1.2q0-1.6.8-2.5.6-.7 1.5-.7l.8.1.7.5.3.7.3.7q.2.5.2 1.2Zm-.5 0-.2-1.2-.5-1q-.1-.2-.4-.3-.3-.2-.7-.2-.8 0-1.3.8-.5.9-.5 2v1q0 .8.2 1.4l.5 1 .4.3q.3.2.7.2.8 0 1.3-.9.5-.8.5-2v-1Zm7.5 0v1.2q0 1.6-.8 2.6-.6.7-1.5.7l-.8-.2-.7-.5-.3-.6-.3-.8q-.2-.5-.2-1.2v-1.2q0-1.6.8-2.5.6-.7 1.5-.7l.8.1.7.5.3.7.3.7q.2.5.2 1.2Zm-.5 0-.2-1.2-.5-1q-.1-.2-.4-.3-.3-.2-.7-.2-.8 0-1.3.8-.5.9-.5 2v1q0 .8.2 1.4l.5 1 .4.3q.3.2.7.2.8 0 1.3-.9.5-.8.5-2v-1Zm7.5 0v1.2q0 1.6-.8 2.6-.6.7-1.5.7l-.8-.2-.7-.5-.3-.6-.3-.8q-.2-.5-.2-1.2v-1.2q0-1.6.8-2.5.6-.7 1.5-.7l.8.1.7.5.3.7.3.7q.2.5.2 1.2Zm-.5 0-.2-1.2-.5-1q-.1-.2-.4-.3-.3-.2-.7-.2-.8 0-1.3.8-.5.9-.5 2v1q0 .8.2 1.4l.5 1 .4.3q.3.2.7.2.8 0 1.3-.9.5-.8.5-2v-1Z"
  /><path
    stroke="#000000"
    stroke-linecap="round"
    stroke-linejoin="round"
    stroke-width="3"
    d="M7.5 360.5h3.8v-.4l.2-.1h.2v1H7v-.7l3-2.8.8-1q.3-.2.4-.5v-.4q0-.7-.5-1.1-.5-.5-1.2-.5-.6 0-1.1.3-.5.4-.7 1v.1h-.4v-.1l.2-.8q.4-.5.9-.8.5-.2 1.1-.2 1 0 1.6.6.7.6.7 1.5l-.2.6q0 .3-.3.6l-1 1-2.8 2.7h0Zm11.4-3.8v1.2q0 1.6-.8 2.6-.6.7-1.5.7l-.8-.2-.7-.5-.3-.6-.3-.8q-.2-.5-.2-1.2v-1.2q0-1.6.8-2.5.6-.7 1.5-.7l.8.1.7.5.3.7.3.7q.2.5.2 1.2Zm-.5 0-.2-1.2-.5-1q-.1-.2-.4-.3-.3-.2-.7-.2-.8 0-1.3.8-.5.9-.5 2v1q0 .8.2 1.4l.5 1 .4.3q.3.2.7.2.8 0 1.3-.9.5-.8.5-2v-1Zm7.5 0v1.2q0 1.6-.8 2.6-.6.7-1.5.7l-.8-.2-.7-.5-.3-.6-.3-.8q-.2-.5-.2-1.2v-1.2q0-1.6.8-2.5.6-.7 1.5-.7l.8.1.7.5.3.7.3.7q.2.5.2 1.2Zm-.5 0-.2-1.2-.5-1q-.1-.2-.4-.3-.3-.2-.7-.2-.8 0-1.3.8-.5.9-.5 2v1q0 .8.2 1.4l.5 1 .4.3q.3.2.7.2.8 0 1.3-.9.5-.8.5-2v-1Zm7.5 0v1.2q0 1.6-.8 2.6-.6.7-1.5.7l-.8-.2-.7-.5-.3-.6-.3-.8q-.2-.5-.2-1.2v-1.2q0-1.6.8-2.5.6-.7 1.5-.7l.8.1.7.5.3.7.3.7q.2.5.2 1.2Zm-.5 0-.2-1.2-.5-1q-.1-.2-.4-.3-.3-.2-.7-.2-.8 0-1.3.8-.5.9-.5 2v1q0 .8.2 1.4l.5 1 .4.3q.3.2.7.2.8 0 1.3-.9.5-.8.5-2v-1Zm7.5 0v1.2q0 1.6-.8 2.6-.6.7-1.5.7l-.8-.2-.7-.5-.3-.6-.3-.8q-.2-.5-.2-1.2v-1.2q0-1.6.8-2.5.6-.7 1.5-.7l.8.1.7.5.3.7.3.7q.2.5.2 1.2Zm-.5 0-.2-1.2-.5-1q-.1-.2-.4-.3-.3-.2-.7-.2-.8 0-1.3.8-.5.9-.5 2v1q0 .8.2 1.4l.5 1 .4.3q.3.2.7.2.8 0 1.3-.9.5-.8.5-2v-1Zm7.5 0v1.2q0 1.6-.8 2.6-.6.7-1.5.7l-.8-.2-.7-.5-.3-.6-.3-.8q-.2-.5-.2-1.2v-1.2q0-1.6.8-2.5.6-.7 1.5-.7l.8.1.7.5.3.7.3.7q.2.5.2 1.2Zm-.5 0-.2-1.2-.5-1q-.1-.2-.4-.3-.3-.2-.7-.2-.8 0-1.3.8-.5.9-.5 2v1q0 .8.2 1.4l.5 1 .4.3q.3.2.7.2.8 0 1.3-.9.5-.8.5-2v-1Zm7.5 0v1.2q0 1.6-.8 2.6-.6.7-1.5.7l-.8-.2-.7-.5-.3-.6-.3-.8q-.2-.5-.2-1.2v-1.2q0-1.6.8-2.5.6-.7 1.5-.7l.8.1.7.5.3.7.3.7q.2.5.2 1.2Zm-.5 0-.2-1.2-.5-1q-.1-.2-.4-.3-.3-.2-.7-.2-.8 0-1.3.8-.5.9-.5 2v1q0 .8.2 1.4l.5 1 .4.3q.3.2.7.2.8 0 1.3-.9.5-.8.5-2v-1Zm7.5 0v1.2q0 1.6-.8 2.6-.6.7-1.5.7l-.8-.2-.7-.5-.3-.6-.3-.8q-.2-.5-.2-1.2v-1.2q0-1.6.8-2.5.6-.7 1.5-.7l.8.1.7.5.3.7.3.7q.2.5.2 1.2Zm-.5 0-.2-1.2-.5-1q-.1-.2-.4-.3-.3-.2-.7-.2-.8 0-1.3.8-.5.9-.5 2v1q0 .8.2 1.4l.5 1 .4.3q.3.2.7.2.8 0 1.3-.9.5-.8.5-2v-1Zm7.5 0v1.2q0 1.6-.8 2.6-.6.7-1.5.7l-.8-.2-.7-.5-.3-.6-.3-.8q-.2-.5-.2-1.2v-1.2q0-1.6.8-2.5.6-.7 1.5-.7l.8.1.7.5.3.7.3.7q.2.5.2 1.2Zm-.5 0-.2-1.2-.5-1q-.1-.2-.4-.3-.3-.2-.7-.2-.8 0-1.3.8-.5.9-.5 2v1q0 .8.2 1.4l.5 1 .4.3q.3.2.7.2.8 0 1.3-.9.5-.8.5-2v-1Z"
  /><path
    fill="#bdbdbd"
    d="M7.5 360.5h3.8v-.4l.2-.1h.2v1H7v-.7l3-2.8.8-1q.3-.2.4-.5v-.4q0-.7-.5-1.1-.5-.5-1.2-.5-.6 0-1.1.3-.5.4-.7 1v.1h-.4v-.1l.2-.8q.4-.5.9-.8.5-.2 1.1-.2 1 0 1.6.6.7.6.7 1.5l-.2.6q0 .3-.3.6l-1 1-2.8 2.7Zm11.4-3.8v1.2q0 1.6-.8 2.6-.6.7-1.5.7l-.8-.2-.7-.5-.3-.6-.3-.8q-.2-.5-.2-1.2v-1.2q0-1.6.8-2.5.6-.7 1.5-.7l.8.1.7.5.3.7.3.7q.2.5.2 1.2Zm-.5 0-.2-1.2-.5-1q-.1-.2-.4-.3-.3-.2-.7-.2-.8 0-1.3.8-.5.9-.5 2v1q0 .8.2 1.4l.5 1 .4.3q.3.2.7.2.8 0 1.3-.9.5-.8.5-2v-1Zm7.5 0v1.2q0 1.6-.8 2.6-.6.7-1.5.7l-.8-.2-.7-.5-.3-.6-.3-.8q-.2-.5-.2-1.2v-1.2q0-1.6.8-2.5.6-.7 1.5-.7l.8.1.7.5.3.7.3.7q.2.5.2 1.2Zm-.5 0-.2-1.2-.5-1q-.1-.2-.4-.3-.3-.2-.7-.2-.8 0-1.3.8-.5.9-.5 2v1q0 .8.2 1.4l.5 1 .4.3q.3.2.7.2.8 0 1.3-.9.5-.8.5-2v-1Zm7.5 0v1.2q0 1.6-.8 2.6-.6.7-1.5.7l-.8-.2-.7-.5-.3-.6-.3-.8q-.2-.5-.2-1.2v-1.2q0-1.6.8-2.5.6-.7 1.5-.7l.8.1.7.5.3.7.3.7q.2.5.2 1.2Zm-.5 0-.2-1.2-.5-1q-.1-.2-.4-.3-.3-.2-.7-.2-.8 0-1.3.8-.5.9-.5 2v1q0 .8.2 1.4l.5 1 .4.3q.3.2.7.2.8 0 1.3-.9.5-.8.5-2v-1Zm7.5 0v1.2q0 1.6-.8 2.6-.6.7-1.5.7l-.8-.2-.7-.5-.3-.6-.3-.8q-.2-.5-.2-1.2v-1.2q0-1.6.8-2.5.6-.7 1.5-.7l.8.1.7.5.3.7.3.7q.2.5.2 1.2Zm-.5 0-.2-1.2-.5-1q-.1-.2-.4-.3-.3-.2-.7-.2-.8 0-1.3.8-.5.9-.5 2v1q0 .8.2 1.4l.5 1 .4.3q.3.2.7.2.8 0 1.3-.9.5-.8.5-2v-1Zm7.5 0v1.2q0 1.6-.8 2.6-.6.7-1.5.7l-.8-.2-.7-.5-.3-.6-.3-.8q-.2-.5-.2-1.2v-1.2q0-1.6.8-2.5.6-.7 1.5-.7l.8.1.7.5.3.7.3.7q.2.5.2 1.2Zm-.5 0-.2-1.2-.5-1q-.1-.2-.4-.3-.3-.2-.7-.2-.8 0-1.3.8-.5.9-.5 2v1q0 .8.2 1.4l.5 1 .4.3q.3.2.7.2.8 0 1.3-.9.5-.8.5-2v-1Zm7.5 0v1.2q0 1.6-.8 2.6-.6.7-1.5.7l-.8-.2-.7-.5-.3-.6-.3-.8q-.2-.5-.2-1.2v-1.2q0-1.6.8-2.5.6-.7 1.5-.7l.8.1.7.5.3.7.3.7q.2.5.2 1.2Zm-.5 0-.2-1.2-.5-1q-.1-.2-.4-.3-.3-.2-.7-.2-.8 0-1.3.8-.5.9-.5 2v1q0 .8.2 1.4l.5 1 .4.3q.3.2.7.2.8 0 1.3-.9.5-.8.5-2v-1Zm7.5 0v1.2q0 1.6-.8 2.6-.6.7-1.5.7l-.8-.2-.7-.5-.3-.6-.3-.8q-.2-.5-.2-1.2v-1.2q0-1.6.8-2.5.6-.7 1.5-.7l.8.1.7.5.3.7.3.7q.2.5.2 1.2Zm-.5 0-.2-1.2-.5-1q-.1-.2-.4-.3-.3-.2-.7-.2-.8 0-1.3.8-.5.9-.5 2v1q0 .8.2 1.4l.5 1 .4.3q.3.2.7.2.8 0 1.3-.9.5-.8.5-2v-1Zm7.5 0v1.2q0 1.6-.8 2.6-.6.7-1.5.7l-.8-.2-.7-.5-.3-.6-.3-.8q-.2-.5-.2-1.2v-1.2q0-1.6.8-2.5.6-.7 1.5-.7l.8.1.7.5.3.7.3.7q.2.5.2 1.2Zm-.5 0-.2-1.2-.5-1q-.1-.2-.4-.3-.3-.2-.7-.2-.8 0-1.3.8-.5.9-.5 2v1q0 .8.2 1.4l.5 1 .4.3q.3.2.7.2.8 0 1.3-.9.5-.8.5-2v-1Z"
  /><path
    stroke="#000000"
    stroke-linecap="round"
    stroke-linejoin="round"
    stroke-width="3"
    d="M10.6 182.5q.7.3 1 .8.4.6.4 1.1 0 1-.7 1.6-.7.7-1.8.7-.6 0-1.3-.3l-1-.5v-.4h.4q.9.7 1.9.7.9 0 1.4-.5.6-.6.6-1.2 0-.5-.3-1-.2-.3-.8-.6l-1-.2H9l-.1-.3v-.1l.3-.1h.4q.7 0 1.1-.4.4-.4.4-1 0-.5-.4-1-.5-.3-1.2-.3l-1 .1-.6.5-.2.2q0 0 0 0h-.2l-.1-.2q0-.3.5-.6.7-.5 1.6-.5 1 0 1.5.5.7.6.7 1.4 0 .5-.3.9t-.9.7Zm8.3-.3v1.2q0 1.6-.8 2.6-.6.7-1.5.7l-.8-.2-.7-.5-.3-.6-.3-.8q-.2-.5-.2-1.2v-1.2q0-1.6.8-2.5.6-.7 1.5-.7l.8.1.7.5.3.7.3.7q.2.5.2 1.2Zm-.5 0-.2-1.2-.5-1q-.1-.2-.4-.3-.3-.2-.7-.2-.8 0-1.3.8-.5.9-.5 2v1q0 .8.2 1.4l.5 1 .4.3q.3.2.7.2.8 0 1.3-.9.5-.8.5-2v-1Zm7.5 0v1.2q0 1.6-.8 2.6-.6.7-1.5.7l-.8-.2-.7-.5-.3-.6-.3-.8q-.2-.5-.2-1.2v-1.2q0-1.6.8-2.5.6-.7 1.5-.7l.8.1.7.5.3.7.3.7q.2.5.2 1.2Zm-.5 0-.2-1.2-.5-1q-.1-.2-.4-.3-.3-.2-.7-.2-.8 0-1.3.8-.5.9-.5 2v1q0 .8.2 1.4l.5 1 .4.3q.3.2.7.2.8 0 1.3-.9.5-.8.5-2v-1Zm7.5 0v1.2q0 1.6-.8 2.6-.6.7-1.5.7l-.8-.2-.7-.5-.3-.6-.3-.8q-.2-.5-.2-1.2v-1.2q0-1.6.8-2.5.6-.7 1.5-.7l.8.1.7.5.3.7.3.7q.2.5.2 1.2Zm-.5 0-.2-1.2-.5-1q-.1-.2-.4-.3-.3-.2-.7-.2-.8 0-1.3.8-.5.9-.5 2v1q0 .8.2 1.4l.5 1 .4.3q.3.2.7.2.8 0 1.3-.9.5-.8.5-2v-1Zm7.5 0v1.2q0 1.6-.8 2.6-.6.7-1.5.7l-.8-.2-.7-.5-.3-.6-.3-.8q-.2-.5-.2-1.2v-1.2q0-1.6.8-2.5.6-.7 1.5-.7l.8.1.7.5.3.7.3.7q.2.5.2 1.2Zm-.5 0-.2-1.2-.5-1q-.1-.2-.4-.3-.3-.2-.7-.2-.8 0-1.3.8-.5.9-.5 2v1q0 .8.2 1.4l.5 1 .4.3q.3.2.7.2.8 0 1.3-.9.5-.8.5-2v-1Zm7.5 0v1.2q0 1.6-.8 2.6-.6.7-1.5.7l-.8-.2-.7-.5-.3-.6-.3-.8q-.2-.5-.2-1.2v-1.2q0-1.6.8-2.5.6-.7 1.5-.7l.8.1.7.5.3.7.3.7q.2.5.2 1.2Zm-.5 0-.2-1.2-.5-1q-.1-.2-.4-.3-.3-.2-.7-.2-.8 0-1.3.8-.5.9-.5 2v1q0 .8.2 1.4l.5 1 .4.3q.3.2.7.2.8 0 1.3-.9.5-.8.5-2v-1Zm7.5 0v1.2q0 1.6-.8 2.6-.6.7-1.5.7l-.8-.2-.7-.5-.3-.6-.3-.8q-.2-.5-.2-1.2v-1.2q0-1.6.8-2.5.6-.7 1.5-.7l.8.1.7.5.3.7.3.7q.2.5.2 1.2Zm-.5 0-.2-1.2-.5-1q-.1-.2-.4-.3-.3-.2-.7-.2-.8 0-1.3.8-.5.9-.5 2v1q0 .8.2 1.4l.5 1 .4.3q.3.2.7.2.8 0 1.3-.9.5-.8.5-2v-1Zm7.5 0v1.2q0 1.6-.8 2.6-.6.7-1.5.7l-.8-.2-.7-.5-.3-.6-.3-.8q-.2-.5-.2-1.2v-1.2q0-1.6.8-2.5.6-.7 1.5-.7l.8.1.7.5.3.7.3.7q.2.5.2 1.2Zm-.5 0-.2-1.2-.5-1q-.1-.2-.4-.3-.3-.2-.7-.2-.8 0-1.3.8-.5.9-.5 2v1q0 .8.2 1.4l.5 1 .4.3q.3.2.7.2.8 0 1.3-.9.5-.8.5-2v-1Zm7.5 0v1.2q0 1.6-.8 2.6-.6.7-1.5.7l-.8-.2-.7-.5-.3-.6-.3-.8q-.2-.5-.2-1.2v-1.2q0-1.6.8-2.5.6-.7 1.5-.7l.8.1.7.5.3.7.3.7q.2.5.2 1.2Zm-.5 0-.2-1.2-.5-1q-.1-.2-.4-.3-.3-.2-.7-.2-.8 0-1.3.8-.5.9-.5 2v1q0 .8.2 1.4l.5 1 .4.3q.3.2.7.2.8 0 1.3-.9.5-.8.5-2v-1Z"
  /><path
    fill="#bdbdbd"
    d="M10.6 182.5q.7.3 1 .8.4.6.4 1.1 0 1-.7 1.6-.7.7-1.8.7-.6 0-1.3-.3l-1-.5v-.4h.4q.9.7 1.9.7.9 0 1.4-.5.6-.6.6-1.2 0-.5-.3-1-.2-.3-.8-.6l-1-.2H9l-.1-.3v-.1l.3-.1h.4q.7 0 1.1-.4.4-.4.4-1 0-.5-.4-1-.5-.3-1.2-.3l-1 .1-.6.5-.2.2h-.2l-.1-.2q0-.3.5-.6.7-.5 1.6-.5 1 0 1.5.5.7.6.7 1.4 0 .5-.3.9t-.9.7Zm8.3-.3v1.2q0 1.6-.8 2.6-.6.7-1.5.7l-.8-.2-.7-.5-.3-.6-.3-.8q-.2-.5-.2-1.2v-1.2q0-1.6.8-2.5.6-.7 1.5-.7l.8.1.7.5.3.7.3.7q.2.5.2 1.2Zm-.5 0-.2-1.2-.5-1q-.1-.2-.4-.3-.3-.2-.7-.2-.8 0-1.3.8-.5.9-.5 2v1q0 .8.2 1.4l.5 1 .4.3q.3.2.7.2.8 0 1.3-.9.5-.8.5-2v-1Zm7.5 0v1.2q0 1.6-.8 2.6-.6.7-1.5.7l-.8-.2-.7-.5-.3-.6-.3-.8q-.2-.5-.2-1.2v-1.2q0-1.6.8-2.5.6-.7 1.5-.7l.8.1.7.5.3.7.3.7q.2.5.2 1.2Zm-.5 0-.2-1.2-.5-1q-.1-.2-.4-.3-.3-.2-.7-.2-.8 0-1.3.8-.5.9-.5 2v1q0 .8.2 1.4l.5 1 .4.3q.3.2.7.2.8 0 1.3-.9.5-.8.5-2v-1Zm7.5 0v1.2q0 1.6-.8 2.6-.6.7-1.5.7l-.8-.2-.7-.5-.3-.6-.3-.8q-.2-.5-.2-1.2v-1.2q0-1.6.8-2.5.6-.7 1.5-.7l.8.1.7.5.3.7.3.7q.2.5.2 1.2Zm-.5 0-.2-1.2-.5-1q-.1-.2-.4-.3-.3-.2-.7-.2-.8 0-1.3.8-.5.9-.5 2v1q0 .8.2 1.4l.5 1 .4.3q.3.2.7.2.8 0 1.3-.9.5-.8.5-2v-1Zm7.5 0v1.2q0 1.6-.8 2.6-.6.7-1.5.7l-.8-.2-.7-.5-.3-.6-.3-.8q-.2-.5-.2-1.2v-1.2q0-1.6.8-2.5.6-.7 1.5-.7l.8.1.7.5.3.7.3.7q.2.5.2 1.2Zm-.5 0-.2-1.2-.5-1q-.1-.2-.4-.3-.3-.2-.7-.2-.8 0-1.3.8-.5.9-.5 2v1q0 .8.2 1.4l.5 1 .4.3q.3.2.7.2.8 0 1.3-.9.5-.8.5-2v-1Zm7.5 0v1.2q0 1.6-.8 2.6-.6.7-1.5.7l-.8-.2-.7-.5-.3-.6-.3-.8q-.2-.5-.2-1.2v-1.2q0-1.6.8-2.5.6-.7 1.5-.7l.8.1.7.5.3.7.3.7q.2.5.2 1.2Zm-.5 0-.2-1.2-.5-1q-.1-.2-.4-.3-.3-.2-.7-.2-.8 0-1.3.8-.5.9-.5 2v1q0 .8.2 1.4l.5 1 .4.3q.3.2.7.2.8 0 1.3-.9.5-.8.5-2v-1Zm7.5 0v1.2q0 1.6-.8 2.6-.6.7-1.5.7l-.8-.2-.7-.5-.3-.6-.3-.8q-.2-.5-.2-1.2v-1.2q0-1.6.8-2.5.6-.7 1.5-.7l.8.1.7.5.3.7.3.7q.2.5.2 1.2Zm-.5 0-.2-1.2-.5-1q-.1-.2-.4-.3-.3-.2-.7-.2-.8 0-1.3.8-.5.9-.5 2v1q0 .8.2 1.4l.5 1 .4.3q.3.2.7.2.8 0 1.3-.9.5-.8.5-2v-1Zm7.5 0v1.2q0 1.6-.8 2.6-.6.7-1.5.7l-.8-.2-.7-.5-.3-.6-.3-.8q-.2-.5-.2-1.2v-1.2q0-1.6.8-2.5.6-.7 1.5-.7l.8.1.7.5.3.7.3.7q.2.5.2 1.2Zm-.5 0-.2-1.2-.5-1q-.1-.2-.4-.3-.3-.2-.7-.2-.8 0-1.3.8-.5.9-.5 2v1q0 .8.2 1.4l.5 1 .4.3q.3.2.7.2.8 0 1.3-.9.5-.8.5-2v-1Zm7.5 0v1.2q0 1.6-.8 2.6-.6.7-1.5.7l-.8-.2-.7-.5-.3-.6-.3-.8q-.2-.5-.2-1.2v-1.2q0-1.6.8-2.5.6-.7 1.5-.7l.8.1.7.5.3.7.3.7q.2.5.2 1.2Zm-.5 0-.2-1.2-.5-1q-.1-.2-.4-.3-.3-.2-.7-.2-.8 0-1.3.8-.5.9-.5 2v1q0 .8.2 1.4l.5 1 .4.3q.3.2.7.2.8 0 1.3-.9.5-.8.5-2v-1Z"
  /><path
    stroke="#000000"
    stroke-linecap="round"
    stroke-linejoin="round"
    stroke-width="3"
    d="M173.1 680.5v7h2v.4l-.3.1h-4.1v-.4l.3-.1h1.7v-6.3l-1.7.5h-.3v-.3l.2-.1 2.2-.8Z"
  /><path
    fill="#bdbdbd"
    d="M173.1 680.5v7h2v.4l-.3.1h-4.1v-.4l.3-.1h1.7v-6.3l-1.7.5h-.3v-.3l.2-.1 2.2-.8Z"
  /><path
    stroke="#000000"
    stroke-linecap="round"
    stroke-linejoin="round"
    stroke-width="3"
    d="M410.2 680.5v7h1.8v.4l-.3.1h-4.1v-.4l.3-.1h1.7v-6.3l-1.6.5h-.4v-.3l.2-.1 2.3-.8Zm9 3.2v1.2q0 1.6-.8 2.6-.6.7-1.5.7l-.8-.2q-.4-.2-.6-.5l-.4-.6-.3-.8-.1-1.2v-1.2q0-1.6.7-2.5.6-.7 1.5-.7l.8.1.7.5.3.7q.3.4.3.7.2.5.2 1.2Zm-.5 0-.2-1.2-.5-1-.3-.3-.8-.2q-.8 0-1.3.8-.5.9-.5 2v1q0 .8.2 1.4l.5 1 .4.3q.3.2.7.2.8 0 1.3-.9.5-.8.5-2v-1Z"
  /><path
    fill="#bdbdbd"
    d="M410.2 680.5v7h1.8v.4l-.3.1h-4.1v-.4l.3-.1h1.7v-6.3l-1.6.5h-.4v-.3l.2-.1 2.3-.8Zm9 3.2v1.2q0 1.6-.8 2.6-.6.7-1.5.7l-.8-.2q-.4-.2-.6-.5l-.4-.6-.3-.8-.1-1.2v-1.2q0-1.6.7-2.5.6-.7 1.5-.7l.8.1.7.5.3.7q.3.4.3.7.2.5.2 1.2Zm-.5 0-.2-1.2-.5-1-.3-.3-.8-.2q-.8 0-1.3.8-.5.9-.5 2v1q0 .8.2 1.4l.5 1 .4.3q.3.2.7.2.8 0 1.3-.9.5-.8.5-2v-1Z"
  /><path
    stroke="#000000"
    stroke-linecap="round"
    stroke-linejoin="round"
    stroke-width="3"
    d="M647.2 680.5v7h1.9v.4l-.2.1h-4.2v-.4l.3-.1h1.7v-6.3l-1.6.5h-.4v-.3l.2-.1 2.3-.8Zm9 3.2v1.2q0 1.6-.8 2.6-.6.7-1.5.7l-.8-.2q-.4-.2-.6-.5l-.4-.6-.3-.8-.1-1.2v-1.2q0-1.6.7-2.5.6-.7 1.5-.7l.8.1.7.5.4.7.3.7v1.2Zm-.5 0-.2-1.2-.4-1-.4-.3-.8-.2q-.8 0-1.3.8-.4.9-.4 2v1q0 .8.2 1.4l.4 1 .4.3q.3.2.7.2.9 0 1.3-.9.5-.8.5-2v-1Zm7.5 0v1.2q0 1.6-.8 2.6-.6.7-1.5.7l-.8-.2q-.4-.2-.6-.5l-.4-.6-.3-.8-.1-1.2v-1.2q0-1.6.7-2.5.6-.7 1.5-.7l.8.1.7.5.4.7.3.7v1.2Zm-.5 0-.2-1.2-.4-1-.4-.3-.8-.2q-.8 0-1.3.8-.4.9-.4 2v1q0 .8.2 1.4l.4 1 .4.3q.3.2.7.2.9 0 1.3-.9.5-.8.5-2v-1Z"
  /><path
    fill="#bdbdbd"
    d="M647.2 680.5v7h1.9v.4l-.2.1h-4.2v-.4l.3-.1h1.7v-6.3l-1.6.5h-.4v-.3l.2-.1 2.3-.8Zm9 3.2v1.2q0 1.6-.8 2.6-.6.7-1.5.7l-.8-.2q-.4-.2-.6-.5l-.4-.6-.3-.8-.1-1.2v-1.2q0-1.6.7-2.5.6-.7 1.5-.7l.8.1.7.5.4.7.3.7v1.2Zm-.5 0-.2-1.2-.4-1-.4-.3-.8-.2q-.8 0-1.3.8-.4.9-.4 2v1q0 .8.2 1.4l.4 1 .4.3q.3.2.7.2.9 0 1.3-.9.5-.8.5-2v-1Zm7.5 0v1.2q0 1.6-.8 2.6-.6.7-1.5.7l-.8-.2q-.4-.2-.6-.5l-.4-.6-.3-.8-.1-1.2v-1.2q0-1.6.7-2.5.6-.7 1.5-.7l.8.1.7.5.4.7.3.7v1.2Zm-.5 0-.2-1.2-.4-1-.4-.3-.8-.2q-.8 0-1.3.8-.4.9-.4 2v1q0 .8.2 1.4l.4 1 .4.3q.3.2.7.2.9 0 1.3-.9.5-.8.5-2v-1Z"
  /><path
    stroke="#000000"
    stroke-linecap="round"
    stroke-linejoin="round"
    stroke-width="3"
    d="M884.2 680.5v7h1.9v.4l-.2.1h-4.2v-.4l.3-.1h1.7v-6.3l-1.6.5h-.4v-.3l.2-.1 2.3-.8Zm9 3.2v1.2q0 1.6-.8 2.6-.6.7-1.5.7l-.8-.2q-.4-.2-.6-.5l-.4-.6-.3-.8-.1-1.2v-1.2q0-1.6.7-2.5.6-.7 1.5-.7l.8.1.7.5.4.7.3.7v1.2Zm-.5 0-.2-1.2-.4-1-.4-.3-.8-.2q-.8 0-1.3.8-.4.9-.4 2v1q0 .8.2 1.4l.4 1 .4.3q.3.2.7.2.9 0 1.3-.9.5-.8.5-2v-1Zm7.5 0v1.2q0 1.6-.8 2.6-.6.7-1.5.7l-.8-.2q-.4-.2-.6-.5l-.4-.6-.3-.8-.1-1.2v-1.2q0-1.6.7-2.5.6-.7 1.5-.7l.8.1.7.5.4.7.3.7v1.2Zm-.5 0-.2-1.2-.4-1-.4-.3-.8-.2q-.8 0-1.3.8-.4.9-.4 2v1q0 .8.2 1.4l.4 1 .4.3q.3.2.7.2.9 0 1.3-.9.5-.8.5-2v-1Zm7.5 0v1.2q0 1.6-.8 2.6-.6.7-1.5.7l-.8-.2q-.4-.2-.6-.5l-.4-.6-.3-.8-.1-1.2v-1.2q0-1.6.7-2.5.6-.7 1.5-.7l.8.1.7.5.4.7.3.7v1.2Zm-.5 0-.2-1.2-.4-1-.4-.3-.8-.2q-.8 0-1.3.8-.4.9-.4 2v1q0 .8.2 1.4l.4 1 .4.3q.3.2.7.2.9 0 1.3-.9.5-.8.5-2v-1Z"
  /><path
    fill="#bdbdbd"
    d="M884.2 680.5v7h1.9v.4l-.2.1h-4.2v-.4l.3-.1h1.7v-6.3l-1.6.5h-.4v-.3l.2-.1 2.3-.8Zm9 3.2v1.2q0 1.6-.8 2.6-.6.7-1.5.7l-.8-.2q-.4-.2-.6-.5l-.4-.6-.3-.8-.1-1.2v-1.2q0-1.6.7-2.5.6-.7 1.5-.7l.8.1.7.5.4.7.3.7v1.2Zm-.5 0-.2-1.2-.4-1-.4-.3-.8-.2q-.8 0-1.3.8-.4.9-.4 2v1q0 .8.2 1.4l.4 1 .4.3q.3.2.7.2.9 0 1.3-.9.5-.8.5-2v-1Zm7.5 0v1.2q0 1.6-.8 2.6-.6.7-1.5.7l-.8-.2q-.4-.2-.6-.5l-.4-.6-.3-.8-.1-1.2v-1.2q0-1.6.7-2.5.6-.7 1.5-.7l.8.1.7.5.4.7.3.7v1.2Zm-.5 0-.2-1.2-.4-1-.4-.3-.8-.2q-.8 0-1.3.8-.4.9-.4 2v1q0 .8.2 1.4l.4 1 .4.3q.3.2.7.2.9 0 1.3-.9.5-.8.5-2v-1Zm7.5 0v1.2q0 1.6-.8 2.6-.6.7-1.5.7l-.8-.2q-.4-.2-.6-.5l-.4-.6-.3-.8-.1-1.2v-1.2q0-1.6.7-2.5.6-.7 1.5-.7l.8.1.7.5.4.7.3.7v1.2Zm-.5 0-.2-1.2-.4-1-.4-.3-.8-.2q-.8 0-1.3.8-.4.9-.4 2v1q0 .8.2 1.4l.4 1 .4.3q.3.2.7.2.9 0 1.3-.9.5-.8.5-2v-1Z"
  /><path fill="#4a86e8" d="M12.7 662.7h8.5v8.5h-8.5Z" /><path
    stroke="#000000"
    stroke-linecap="round"
    stroke-linejoin="round"
    stroke-width="3"
    d="M32.7 662.6v3.3q1-1.2 2.2-1.2 1 0 1.8.8t.8 2q0 1-.8 1.9-.8.8-1.8.8-1.3 0-2.2-1.2v1h-1.4v-.4l.3-.1h.6V663h-.9v-.4h1.4Zm4.3 4.8q0-.9-.6-1.5-.7-.7-1.5-.7-.9 0-1.5.7-.7.6-.7 1.5 0 1 .7 1.6.6.7 1.5.7.8 0 1.5-.7.6-.6.6-1.6Zm4-2.5v1.3q1-1 1.4-1.2l1-.2q.3 0 .7.3l.4.4v.2h-.3q0 0 0 0H44q-.2-.3-.4-.3l-.3-.1-.7.2-1.6 1.3v2.7h2.4l.1.2v.2H39l-.1-.2v-.1h1.5v-4.2h-1.2v-.4l.3-.1H41Zm10.3 2.5q0 1.2-.8 2t-2 .8q-1 0-1.9-.8-.8-.8-.8-2 0-1 .8-1.9.8-.8 2-.8 1.1 0 2 .8.7.8.7 2Zm-.5 0q0-.9-.6-1.5-.7-.7-1.6-.7-1 0-1.6.7-.7.6-.7 1.5 0 1 .7 1.6.6.7 1.6.7t1.6-.7q.6-.6.6-1.6Zm3.8-2.5h2.9v.4l-.3.1h-2.6v3.3q0 .4.3.7.4.3 1 .3l1.1-.2.9-.3h.3l.1.2v.1q-.2.2-1 .4-.7.3-1.4.3-.8 0-1.3-.4t-.5-1.1v-3.3h-1.2v-.4l.3-.1h.9v-1.7h.4v1.7Zm8.2-2.3v6.9H65l.1.2v.2h-4.9l-.1-.2v-.1l.3-.1h2V663h-1.7l-.1-.2v-.2H63Zm7-.2v1.3h-.7v-1.3h.7Zm0 2.5v4.6H72l.1.2v.2h-4.9l-.1-.2v-.1l.3-.1h2v-4.1h-1.7l-.1-.2v-.2l.3-.1h2Z"
  /><path
    fill="#bdbdbd"
    d="M32.7 662.6v3.3q1-1.2 2.2-1.2 1 0 1.8.8t.8 2q0 1-.8 1.9-.8.8-1.8.8-1.3 0-2.2-1.2v1h-1.4v-.4l.3-.1h.6V663h-.9v-.4h1.4Zm4.3 4.8q0-.9-.6-1.5-.7-.7-1.5-.7-.9 0-1.5.7-.7.6-.7 1.5 0 1 .7 1.6.6.7 1.5.7.8 0 1.5-.7.6-.6.6-1.6Zm4-2.5v1.3q1-1 1.4-1.2l1-.2q.3 0 .7.3l.4.4v.2H44q-.2-.3-.4-.3l-.3-.1-.7.2-1.6 1.3v2.7h2.4l.1.2v.2H39l-.1-.2v-.1h1.5v-4.2h-1.2v-.4l.3-.1H41Zm10.3 2.5q0 1.2-.8 2t-2 .8q-1 0-1.9-.8-.8-.8-.8-2 0-1 .8-1.9.8-.8 2-.8 1.1 0 2 .8.7.8.7 2Zm-.5 0q0-.9-.6-1.5-.7-.7-1.6-.7-1 0-1.6.7-.7.6-.7 1.5 0 1 .7 1.6.6.7 1.6.7t1.6-.7q.6-.6.6-1.6Zm3.8-2.5h2.9v.4l-.3.1h-2.6v3.3q0 .4.3.7.4.3 1 .3l1.1-.2.9-.3h.3l.1.2v.1q-.2.2-1 .4-.7.3-1.4.3-.8 0-1.3-.4t-.5-1.1v-3.3h-1.2v-.4l.3-.1h.9v-1.7h.4v1.7Zm8.2-2.3v6.9H65l.1.2v.2h-4.9l-.1-.2v-.1l.3-.1h2V663h-1.7l-.1-.2v-.2H63Zm7-.2v1.3h-.7v-1.3h.7Zm0 2.5v4.6H72l.1.2v.2h-4.9l-.1-.2v-.1l.3-.1h2v-4.1h-1.7l-.1-.2v-.2l.3-.1h2Z"
  /><path
    fill="red"
    d="m95 661 1.3 4.1h4.4l-3.5 2.6 1.3 4.1-3.5-2.5-3.5 2.5 1.3-4.1-3.5-2.6h4.3Z"
  /><path
    stroke="#000000"
    stroke-linecap="round"
    stroke-linejoin="round"
    stroke-width="3"
    d="M114.7 664.9v.4l-3.7 4.2h3.4v-.9l.2-.1h.2v1.5h-4.4v-.5l3.6-4.1h-3v.7l-.1.2-.2.1h-.2v-1.5h4.2Zm6.5.3v-.2l.2-.1h.2l.1.3v1.1l-.3.1h-.1v-.3q-.1-.3-.5-.5-.4-.4-1.2-.4-.9 0-1.3.4-.4.2-.4.5 0 .4.5.6.2.2 1 .3 1 0 1.4.2.6.2.9.6.3.4.3.8 0 .6-.6 1-.6.6-1.8.6-1.2 0-2-.6v.3h-.3l-.1-.2v-1.3h.4l.1.2.1.4q.2.3.7.5.4.2 1 .2 1 0 1.5-.4.5-.3.5-.7 0-.5-.5-.8l-1.4-.3q-1-.1-1.3-.3-.4-.1-.6-.4-.3-.3-.3-.7 0-.6.7-1 .6-.4 1.4-.4 1 0 1.7.5Zm4.4-.3h2.9v.4l-.3.1h-2.6v3.3q0 .4.3.7.4.3 1 .3l1.1-.2.9-.3h.3l.1.2v.1q-.2.2-1 .4-.7.3-1.4.3-.8 0-1.3-.4t-.5-1.1v-3.3h-1.2v-.4l.3-.1h.9v-1.7h.4v1.7Zm10.4-2.3v6.9h.9v.4h-1.4v-.9q-.9 1.2-2.2 1.2-.6 0-1.3-.4-.6-.3-1-1-.3-.6-.3-1.4 0-.7.4-1.3.3-.7 1-1 .6-.4 1.2-.4 1.3 0 2.2 1.2v-2.8h-.9v-.4h1.4Zm-.5 4.8q0-.9-.6-1.5-.7-.7-1.5-.7-1 0-1.6.7-.6.6-.6 1.5 0 1 .6 1.6.7.7 1.6.7.8 0 1.5-.7.6-.6.6-1.6Z"
  /><path
    fill="#bdbdbd"
    d="M114.7 664.9v.4l-3.7 4.2h3.4v-.9l.2-.1h.2v1.5h-4.4v-.5l3.6-4.1h-3v.7l-.1.2-.2.1h-.2v-1.5h4.2Zm6.5.3v-.2l.2-.1h.2l.1.3v1.1l-.3.1h-.1v-.3q-.1-.3-.5-.5-.4-.4-1.2-.4-.9 0-1.3.4-.4.2-.4.5 0 .4.5.6.2.2 1 .3 1 0 1.4.2.6.2.9.6.3.4.3.8 0 .6-.6 1-.6.6-1.8.6-1.2 0-2-.6v.3h-.3l-.1-.2v-1.3h.4l.1.2.1.4q.2.3.7.5.4.2 1 .2 1 0 1.5-.4.5-.3.5-.7 0-.5-.5-.8l-1.4-.3q-1-.1-1.3-.3-.4-.1-.6-.4-.3-.3-.3-.7 0-.6.7-1 .6-.4 1.4-.4 1 0 1.7.5Zm4.4-.3h2.9v.4l-.3.1h-2.6v3.3q0 .4.3.7.4.3 1 .3l1.1-.2.9-.3h.3l.1.2v.1q-.2.2-1 .4-.7.3-1.4.3-.8 0-1.3-.4t-.5-1.1v-3.3h-1.2v-.4l.3-.1h.9v-1.7h.4v1.7Zm10.4-2.3v6.9h.9v.4h-1.4v-.9q-.9 1.2-2.2 1.2-.6 0-1.3-.4-.6-.3-1-1-.3-.6-.3-1.4 0-.7.4-1.3.3-.7 1-1 .6-.4 1.2-.4 1.3 0 2.2 1.2v-2.8h-.9v-.4h1.4Zm-.5 4.8q0-.9-.6-1.5-.7-.7-1.5-.7-1 0-1.6.7-.6.6-.6 1.5 0 1 .6 1.6.7.7 1.6.7.8 0 1.5-.7.6-.6.6-1.6Z"
  /><path fill="#fbbc04" d="m159 661 6 6-6 6-6-6Z" /><path
    stroke="#000000"
    stroke-linecap="round"
    stroke-linejoin="round"
    stroke-width="3"
    d="M178.2 663.3v-.2h-3.5v.7h-.4v-1.2h4.4v.8l-2 6.3v.2l-.2.1h-.2v-.4l2-6.3Zm7.5 1.6v.4l-3.7 4.2h3.4v-.9l.2-.1h.2v1.5h-4.4v-.5l3.6-4.1h-3v.7l-.1.2-.2.1h-.2v-1.5h4.2Zm5.1-2.5v1.3h-.7v-1.3h.7Zm0 2.5v4.6h2.2l.1.2v.2h-4.9l-.1-.2v-.1l.3-.1h2v-4.1h-1.7l-.1-.2v-.2l.3-.1h2Zm5 0v1q.4-.6.9-.9.5-.3 1.2-.3t1.3.4q.6.3 1 1 .3.5.3 1.2 0 1-.8 1.8-.7.8-1.8.8-1.4 0-2.2-1.1v3h1.5v.4h-2.9v-.4h.9v-6.4h-.9v-.4l.3-.1h1.1Zm4.2 2.4q0-.9-.6-1.5t-1.5-.6q-1 0-1.6.6-.6.6-.6 1.5 0 .8.6 1.4.7.7 1.6.7.8 0 1.5-.6.6-.6.6-1.5Z"
  /><path
    fill="#bdbdbd"
    d="M178.2 663.3v-.2h-3.5v.7h-.4v-1.2h4.4v.8l-2 6.3v.2l-.2.1h-.2v-.4l2-6.3Zm7.5 1.6v.4l-3.7 4.2h3.4v-.9l.2-.1h.2v1.5h-4.4v-.5l3.6-4.1h-3v.7l-.1.2-.2.1h-.2v-1.5h4.2Zm5.1-2.5v1.3h-.7v-1.3h.7Zm0 2.5v4.6h2.2l.1.2v.2h-4.9l-.1-.2v-.1l.3-.1h2v-4.1h-1.7l-.1-.2v-.2l.3-.1h2Zm5 0v1q.4-.6.9-.9.5-.3 1.2-.3t1.3.4q.6.3 1 1 .3.5.3 1.2 0 1-.8 1.8-.7.8-1.8.8-1.4 0-2.2-1.1v3h1.5v.4h-2.9v-.4h.9v-6.4h-.9v-.4l.3-.1h1.1Zm4.2 2.4q0-.9-.6-1.5t-1.5-.6q-1 0-1.6.6-.6.6-.6 1.5 0 .8.6 1.4.7.7 1.6.7.8 0 1.5-.6.6-.6.6-1.5Z"
  /><path
    fill="#f0f"
    d="m218.7 662.7 4.3 2.8 4.2-2.8-2.7 4.3 2.7 4.2-4.2-2.7-4.3 2.7 2.8-4.2Z"
  /><path
    stroke="#000000"
    stroke-linecap="round"
    stroke-linejoin="round"
    stroke-width="3"
    d="m241 667.3 2.2 2.2h.4v.4h-2.2v-.3l.3-.1h.8l-2-1.8-1.8 1.8h1l.1.2v.2h-2.1l-.1-.2v-.1h.1l.3-.1 2.2-2.2-2-1.9h-.2l-.1-.1v-.3l.3-.1h1.6v.4l-.3.1h-.6l1.7 1.6 1.7-1.6h-.9v-.4l.3-.1h1.6v.3q0 0 0 0l-.1.2h-.3l-2 2Zm8.7-2.4v.4l-3.7 4.2h3.4v-.9l.2-.1h.2v1.5h-4.4v-.5l3.6-4.1h-3v.7l-.1.2-.2.1h-.2v-1.5h4.2Z"
  /><path
    fill="#bdbdbd"
    d="m241 667.3 2.2 2.2h.4v.4h-2.2v-.3l.3-.1h.8l-2-1.8-1.8 1.8h1l.1.2v.2h-2.1l-.1-.2v-.1h.1l.3-.1 2.2-2.2-2-1.9h-.2l-.1-.1v-.3l.3-.1h1.6v.4l-.3.1h-.6l1.7 1.6 1.7-1.6h-.9v-.4l.3-.1h1.6v.3l-.1.2h-.3l-2 2Zm8.7-2.4v.4l-3.7 4.2h3.4v-.9l.2-.1h.2v1.5h-4.4v-.5l3.6-4.1h-3v.7l-.1.2-.2.1h-.2v-1.5h4.2Z"
  /><path fill="#ff6d01" d="m273 661 5.7 4.1-2.2 6.7h-7l-2.2-6.7Z" /><path
    stroke="#000000"
    stroke-linecap="round"
    stroke-linejoin="round"
    stroke-width="3"
    d="M292.7 664.9v.4l-3.7 4.2h3.4v-.9l.2-.1h.2v1.5h-4.4v-.5l3.6-4.1h-3v.7l-.1.2-.2.1h-.2v-1.5h4.2Zm3 0v1q.5-.6 1-.9.5-.3 1.2-.3t1.3.4q.6.3 1 1 .3.5.3 1.2 0 1-.8 1.8-.7.8-1.8.8-1.4 0-2.2-1.1v3h1.5v.4h-2.9v-.4h.9v-6.4h-.9v-.4l.3-.1h1.1Zm4.3 2.4q0-.9-.6-1.5t-1.5-.6q-1 0-1.6.6-.6.6-.6 1.5 0 .8.6 1.4.7.7 1.6.7.8 0 1.5-.6.6-.6.6-1.5Zm6 2.7v-.7q-1 .9-2.3.9-.9 0-1.4-.5-.5-.4-.5-1 0-.8.7-1.3.6-.6 1.9-.6h.7l.9.2v-.8q0-.4-.4-.7-.4-.3-1.1-.3-.6 0-1.6.4h-.4v-.4l.6-.2 1.4-.3q1 0 1.5.5t.5 1v3.3h.9v.4H306Zm0-2.5-.7-.1h-.9q-1 0-1.6.4-.5.4-.5.8 0 .5.4.8.3.3 1 .3.6 0 1.2-.3.5-.2 1.1-.8v-1Zm7.5-1.7v-.9h1.4v.4l-.3.1h-.6v6.3h.6l.3.1v.4H312v-.4h1.5v-3q-.8 1-2.1 1-1.2 0-2-.7-.7-.7-.7-1.8 0-1 .8-1.8.7-.8 1.9-.8 1.3 0 2.1 1.1Zm0 1.5q0-.9-.6-1.5-.7-.6-1.5-.6-1 0-1.6.6-.6.6-.6 1.5 0 .8.6 1.4.7.7 1.6.7.8 0 1.5-.7.6-.6.6-1.4Zm12-.2.2-1.5.7-1.7.7-1.2h.3l.1.2v.1q-.7 1.2-1 2.2-.2.9-.2 1.9 0 1 .2 1.9.3 1 1 2.1v.3l-.2.1h-.2l-.7-1.2-.7-1.7-.2-1.5Zm7.3-4.5v6.9h2.2l.1.2v.2h-4.9l-.1-.2v-.1l.3-.1h2V663h-1.7l-.1-.2v-.2h2.3Zm6.2 2.3v1.3q1-1 1.4-1.2l1-.2q.3 0 .7.3l.4.4v.2h-.3q0 0 0 0h-.2q-.2-.3-.4-.3l-.3-.1-.7.2-1.6 1.3v2.7h2.4l.1.2v.2H337l-.1-.2v-.1h1.5v-4.2h-1.2v-.4l.3-.1h1.4Zm9.7 0v.4l-3.7 4.2h3.4v-.9l.2-.1h.2v1.5h-4.4v-.5l3.6-4.1h-3v.7l-.1.2-.2.1h-.2v-1.5h4.2Zm5.1-2.5v1.3h-.7v-1.3h.7Zm0 2.5v4.6h2.2l.1.2v.2h-4.9l-.1-.2v-.1l.3-.1h2v-4.1h-1.7l-.1-.2v-.2l.3-.1h2Zm5 0v1q.4-.6.9-.9.5-.3 1.2-.3t1.3.4q.6.3 1 1 .3.5.3 1.2 0 1-.8 1.8-.7.8-1.8.8-1.4 0-2.2-1.1v3h1.5v.4h-2.9v-.4h.9v-6.4h-.9v-.4l.3-.1h1.1Zm4.2 2.4q0-.9-.6-1.5t-1.5-.6q-1 0-1.6.6-.6.6-.6 1.5 0 .8.6 1.4.7.7 1.6.7.8 0 1.5-.6.6-.6.6-1.5Zm4.7-.2-.2 1.4q-.1.7-.6 1.7l-.7 1.2-.2.1h-.2v-.4l.9-2.1q.3-1 .3-2 0-.9-.3-1.8-.3-1-1-2.2v-.1l.1-.2h.4l.7 1.2q.5 1 .6 1.7.2.7.2 1.5Z"
  /><path
    fill="#bdbdbd"
    d="M292.7 664.9v.4l-3.7 4.2h3.4v-.9l.2-.1h.2v1.5h-4.4v-.5l3.6-4.1h-3v.7l-.1.2-.2.1h-.2v-1.5h4.2Zm3 0v1q.5-.6 1-.9.5-.3 1.2-.3t1.3.4q.6.3 1 1 .3.5.3 1.2 0 1-.8 1.8-.7.8-1.8.8-1.4 0-2.2-1.1v3h1.5v.4h-2.9v-.4h.9v-6.4h-.9v-.4l.3-.1h1.1Zm4.3 2.4q0-.9-.6-1.5t-1.5-.6q-1 0-1.6.6-.6.6-.6 1.5 0 .8.6 1.4.7.7 1.6.7.8 0 1.5-.6.6-.6.6-1.5Zm6 2.7v-.7q-1 .9-2.3.9-.9 0-1.4-.5-.5-.4-.5-1 0-.8.7-1.3.6-.6 1.9-.6h.7l.9.2v-.8q0-.4-.4-.7-.4-.3-1.1-.3-.6 0-1.6.4h-.4v-.4l.6-.2 1.4-.3q1 0 1.5.5t.5 1v3.3h.9v.4H306Zm0-2.5-.7-.1h-.9q-1 0-1.6.4-.5.4-.5.8 0 .5.4.8.3.3 1 .3.6 0 1.2-.3.5-.2 1.1-.8v-1Zm7.5-1.7v-.9h1.4v.4l-.3.1h-.6v6.3h.6l.3.1v.4H312v-.4h1.5v-3q-.8 1-2.1 1-1.2 0-2-.7-.7-.7-.7-1.8 0-1 .8-1.8.7-.8 1.9-.8 1.3 0 2.1 1.1Zm0 1.5q0-.9-.6-1.5-.7-.6-1.5-.6-1 0-1.6.6-.6.6-.6 1.5 0 .8.6 1.4.7.7 1.6.7.8 0 1.5-.7.6-.6.6-1.4Zm12-.2.2-1.5.7-1.7.7-1.2h.3l.1.2v.1q-.7 1.2-1 2.2-.2.9-.2 1.9 0 1 .2 1.9.3 1 1 2.1v.3l-.2.1h-.2l-.7-1.2-.7-1.7-.2-1.5Zm7.3-4.5v6.9h2.2l.1.2v.2h-4.9l-.1-.2v-.1l.3-.1h2V663h-1.7l-.1-.2v-.2h2.3Zm6.2 2.3v1.3q1-1 1.4-1.2l1-.2q.3 0 .7.3l.4.4v.2h-.5q-.2-.3-.4-.3l-.3-.1-.7.2-1.6 1.3v2.7h2.4l.1.2v.2H337l-.1-.2v-.1h1.5v-4.2h-1.2v-.4l.3-.1h1.4Zm9.7 0v.4l-3.7 4.2h3.4v-.9l.2-.1h.2v1.5h-4.4v-.5l3.6-4.1h-3v.7l-.1.2-.2.1h-.2v-1.5h4.2Zm5.1-2.5v1.3h-.7v-1.3h.7Zm0 2.5v4.6h2.2l.1.2v.2h-4.9l-.1-.2v-.1l.3-.1h2v-4.1h-1.7l-.1-.2v-.2l.3-.1h2Zm5 0v1q.4-.6.9-.9.5-.3 1.2-.3t1.3.4q.6.3 1 1 .3.5.3 1.2 0 1-.8 1.8-.7.8-1.8.8-1.4 0-2.2-1.1v3h1.5v.4h-2.9v-.4h.9v-6.4h-.9v-.4l.3-.1h1.1Zm4.2 2.4q0-.9-.6-1.5t-1.5-.6q-1 0-1.6.6-.6.6-.6 1.5 0 .8.6 1.4.7.7 1.6.7.8 0 1.5-.6.6-.6.6-1.5Zm4.7-.2-.2 1.4q-.1.7-.6 1.7l-.7 1.2-.2.1h-.2v-.4l.9-2.1q.3-1 .3-2 0-.9-.3-1.8-.3-1-1-2.2v-.1l.1-.2h.4l.7 1.2q.5 1 .6 1.7.2.7.2 1.5Z"
  /><path fill="#46bdc6" d="m393 661 5.2 3v6l-5.2 3-5.2-3v-6Z" /><path
    stroke="#000000"
    stroke-linecap="round"
    stroke-linejoin="round"
    stroke-width="3"
    d="M412.7 664.9v.4l-3.7 4.2h3.4v-.9l.2-.1h.2v1.5h-4.4v-.5l3.6-4.1h-3v.7l-.1.2-.2.1h-.2v-1.5h4.2Zm3 0v1q.5-.6 1-.9.5-.3 1.2-.3t1.3.4q.6.3 1 1 .3.5.3 1.2 0 1-.8 1.8-.7.8-1.8.8-1.4 0-2.2-1.1v3h1.5v.4h-2.9v-.4h.9v-6.4h-.9v-.4l.3-.1h1.1Zm4.3 2.4q0-.9-.6-1.5t-1.5-.6q-1 0-1.6.6-.6.6-.6 1.5 0 .8.6 1.4.7.7 1.6.7.8 0 1.5-.6.6-.6.6-1.5Zm6 2.7v-.7q-1 .9-2.3.9-.9 0-1.4-.5-.5-.4-.5-1 0-.8.7-1.3.6-.6 1.9-.6h.7l.9.2v-.8q0-.4-.4-.7-.4-.3-1.1-.3-.6 0-1.6.4h-.4v-.4l.6-.2 1.4-.3q1 0 1.5.5t.5 1v3.3h.9v.4H426Zm0-2.5-.7-.1h-.9q-1 0-1.6.4-.5.4-.5.8 0 .5.4.8.3.3 1 .3.6 0 1.2-.3.5-.2 1.1-.8v-1Zm7.5-1.7v-.9h1.4v.4l-.3.1h-.6v6.3h.6l.3.1v.4H432v-.4h1.5v-3q-.8 1-2.1 1-1.2 0-2-.7-.7-.7-.7-1.8 0-1 .8-1.8.7-.8 1.9-.8 1.3 0 2.1 1.1Zm0 1.5q0-.9-.6-1.5-.7-.6-1.5-.6-1 0-1.6.6-.6.6-.6 1.5 0 .8.6 1.4.7.7 1.6.7.8 0 1.5-.7.6-.6.6-1.4Z"
  /><path
    fill="#bdbdbd"
    d="M412.7 664.9v.4l-3.7 4.2h3.4v-.9l.2-.1h.2v1.5h-4.4v-.5l3.6-4.1h-3v.7l-.1.2-.2.1h-.2v-1.5h4.2Zm3 0v1q.5-.6 1-.9.5-.3 1.2-.3t1.3.4q.6.3 1 1 .3.5.3 1.2 0 1-.8 1.8-.7.8-1.8.8-1.4 0-2.2-1.1v3h1.5v.4h-2.9v-.4h.9v-6.4h-.9v-.4l.3-.1h1.1Zm4.3 2.4q0-.9-.6-1.5t-1.5-.6q-1 0-1.6.6-.6.6-.6 1.5 0 .8.6 1.4.7.7 1.6.7.8 0 1.5-.6.6-.6.6-1.5Zm6 2.7v-.7q-1 .9-2.3.9-.9 0-1.4-.5-.5-.4-.5-1 0-.8.7-1.3.6-.6 1.9-.6h.7l.9.2v-.8q0-.4-.4-.7-.4-.3-1.1-.3-.6 0-1.6.4h-.4v-.4l.6-.2 1.4-.3q1 0 1.5.5t.5 1v3.3h.9v.4H426Zm0-2.5-.7-.1h-.9q-1 0-1.6.4-.5.4-.5.8 0 .5.4.8.3.3 1 .3.6 0 1.2-.3.5-.2 1.1-.8v-1Zm7.5-1.7v-.9h1.4v.4l-.3.1h-.6v6.3h.6l.3.1v.4H432v-.4h1.5v-3q-.8 1-2.1 1-1.2 0-2-.7-.7-.7-.7-1.8 0-1 .8-1.8.7-.8 1.9-.8 1.3 0 2.1 1.1Zm0 1.5q0-.9-.6-1.5-.7-.6-1.5-.6-1 0-1.6.6-.6.6-.6 1.5 0 .8.6 1.4.7.7 1.6.7.8 0 1.5-.7.6-.6.6-1.4Z"
  /><path
    fill="#90f"
    d="m452.7 662.7 4.3 2.8 4.2-2.8-2.7 4.3 2.7 4.2-4.2-2.7-4.3 2.7 2.8-4.2Z"
  /><path
    stroke="#000000"
    stroke-linecap="round"
    stroke-linejoin="round"
    stroke-width="3"
    d="m475 667.3 2.2 2.2h.4v.4h-2.2v-.3l.3-.1h.8l-2-1.8-1.8 1.8h1l.1.2v.2h-2.1l-.1-.2v-.1h.1l.3-.1 2.2-2.2-2-1.9h-.2l-.1-.1v-.3l.3-.1h1.6v.4l-.3.1h-.6l1.7 1.6 1.7-1.6h-.9v-.4l.3-.1h1.6v.3q0 0 0 0l-.1.2h-.3l-2 2Zm8.7-2.4v.4l-3.7 4.2h3.4v-.9l.2-.1h.2v1.5h-4.4v-.5l3.6-4.1h-3v.7l-.1.2-.2.1h-.2v-1.5h4.2Zm11.8 2.2.2-1.5.7-1.7.7-1.2h.3l.1.2v.1q-.7 1.2-1 2.2-.2.9-.2 1.9 0 1 .2 1.9.3 1 1 2.1v.3l-.2.1h-.2l-.7-1.2-.7-1.7-.2-1.5Zm9.7.5h-5q.2 1 .8 1.5.7.6 1.7.6l1.1-.2 1-.5h.4v.4q-.3.3-1 .5-.8.3-1.5.3-1.3 0-2.1-.9-.9-.8-.9-2 0-1 .8-1.8t2-.8q1.2 0 2 .8t.7 2Zm-.5-.5q0-.9-.7-1.4-.6-.5-1.5-.5t-1.5.5q-.6.5-.8 1.4h4.5Zm5.2.2 2.3 2.2h.4v.4h-2.2v-.3l.3-.1h.8l-2-1.8-1.8 1.8h1l.1.2v.2h-2.1l-.1-.2v-.1h.1l.3-.1 2.2-2.2-2-1.9h-.2l-.1-.1v-.3l.3-.1h1.6v.4l-.3.1h-.6l1.7 1.6 1.7-1.6h-.9v-.4l.3-.1h1.6v.3q0 0 0 0l-.1.2h-.3l-2 2Zm5.7-2.4h2.9v.4l-.3.1h-2.6v3.3q0 .4.3.7.4.3 1 .3l1.1-.2.9-.3h.3l.1.2v.1q-.2.2-1 .4-.7.3-1.4.3-.8 0-1.3-.4t-.5-1.1v-3.3h-1.2v-.4l.3-.1h.9v-1.7h.4v1.7Zm7.4 0v1.3q1-1 1.4-1.2l1-.2q.3 0 .7.3l.4.4v.2h-.3q0 0 0 0h-.2q-.2-.3-.4-.3l-.3-.1-.7.2-1.6 1.3v2.7h2.4l.1.2v.2H521l-.1-.2v-.1h1.5v-4.2h-1.2v-.4l.3-.1h1.4Zm10.2 2.7h-5q.2 1 .8 1.5.7.6 1.7.6l1.1-.2 1-.5h.4v.4q-.3.3-1 .5-.8.3-1.5.3-1.3 0-2.1-.9-.9-.8-.9-2 0-1 .8-1.8t2-.8q1.2 0 2 .8t.7 2Zm-.5-.5q-.1-.9-.7-1.4-.6-.5-1.5-.5t-1.5.5q-.6.5-.8 1.4h4.5Zm2.6-2.2v.5q.7-.7 1.3-.7.4 0 .7.2.3.2.4.6l.7-.6q.3-.2.7-.2.5 0 .8.4.5.4.5 1v3.4h.6l.1.2v.2h-1.3v-3.8q0-.4-.2-.6-.2-.3-.5-.3l-.6.2q-.3.2-.6.8v3.3h.6l.1.2v.2h-1.3v-3.8q0-.4-.2-.6-.2-.3-.5-.3l-.5.2q-.4.2-.8.8v3.3h.7v.4h-1.8l-.1-.2v-.1l.3-.1h.5v-4.1h-.7l-.1-.2v-.2l.3-.1h1Zm12 2.7h-5q0 1 .7 1.5.7.6 1.7.6l1.1-.2 1-.5h.4v.4q-.3.3-1 .5-.8.3-1.5.3-1.3 0-2.1-.9-.9-.8-.9-2 0-1 .8-1.8t2-.8q1.2 0 2 .8t.7 2Zm-.6-.5q-.1-.9-.7-1.4-.6-.5-1.5-.5t-1.5.5q-.6.5-.8 1.4h4.5Zm5 0-.2 1.4q-.1.7-.6 1.7l-.7 1.2-.2.1h-.2v-.4l.9-2.1q.3-1 .3-2 0-.9-.3-1.8-.3-1-1-2.2v-.1l.1-.2h.4l.7 1.2q.5 1 .6 1.7.2.7.2 1.5Z"
  /><path
    fill="#bdbdbd"
    d="m475 667.3 2.2 2.2h.4v.4h-2.2v-.3l.3-.1h.8l-2-1.8-1.8 1.8h1l.1.2v.2h-2.1l-.1-.2v-.1h.1l.3-.1 2.2-2.2-2-1.9h-.2l-.1-.1v-.3l.3-.1h1.6v.4l-.3.1h-.6l1.7 1.6 1.7-1.6h-.9v-.4l.3-.1h1.6v.3l-.1.2h-.3l-2 2Zm8.7-2.4v.4l-3.7 4.2h3.4v-.9l.2-.1h.2v1.5h-4.4v-.5l3.6-4.1h-3v.7l-.1.2-.2.1h-.2v-1.5h4.2Zm11.8 2.2.2-1.5.7-1.7.7-1.2h.3l.1.2v.1q-.7 1.2-1 2.2-.2.9-.2 1.9 0 1 .2 1.9.3 1 1 2.1v.3l-.2.1h-.2l-.7-1.2-.7-1.7-.2-1.5Zm9.7.5h-5q.2 1 .8 1.5.7.6 1.7.6l1.1-.2 1-.5h.4v.4q-.3.3-1 .5-.8.3-1.5.3-1.3 0-2.1-.9-.9-.8-.9-2 0-1 .8-1.8t2-.8q1.2 0 2 .8t.7 2Zm-.5-.5q0-.9-.7-1.4-.6-.5-1.5-.5t-1.5.5q-.6.5-.8 1.4h4.5Zm5.2.2 2.3 2.2h.4v.4h-2.2v-.3l.3-.1h.8l-2-1.8-1.8 1.8h1l.1.2v.2h-2.1l-.1-.2v-.1h.1l.3-.1 2.2-2.2-2-1.9h-.2l-.1-.1v-.3l.3-.1h1.6v.4l-.3.1h-.6l1.7 1.6 1.7-1.6h-.9v-.4l.3-.1h1.6v.3l-.1.2h-.3l-2 2Zm5.7-2.4h2.9v.4l-.3.1h-2.6v3.3q0 .4.3.7.4.3 1 .3l1.1-.2.9-.3h.3l.1.2v.1q-.2.2-1 .4-.7.3-1.4.3-.8 0-1.3-.4t-.5-1.1v-3.3h-1.2v-.4l.3-.1h.9v-1.7h.4v1.7Zm7.4 0v1.3q1-1 1.4-1.2l1-.2q.3 0 .7.3l.4.4v.2h-.5q-.2-.3-.4-.3l-.3-.1-.7.2-1.6 1.3v2.7h2.4l.1.2v.2H521l-.1-.2v-.1h1.5v-4.2h-1.2v-.4l.3-.1h1.4Zm10.2 2.7h-5q.2 1 .8 1.5.7.6 1.7.6l1.1-.2 1-.5h.4v.4q-.3.3-1 .5-.8.3-1.5.3-1.3 0-2.1-.9-.9-.8-.9-2 0-1 .8-1.8t2-.8q1.2 0 2 .8t.7 2Zm-.5-.5q-.1-.9-.7-1.4-.6-.5-1.5-.5t-1.5.5q-.6.5-.8 1.4h4.5Zm2.6-2.2v.5q.7-.7 1.3-.7.4 0 .7.2.3.2.4.6l.7-.6q.3-.2.7-.2.5 0 .8.4.5.4.5 1v3.4h.6l.1.2v.2h-1.3v-3.8q0-.4-.2-.6-.2-.3-.5-.3l-.6.2q-.3.2-.6.8v3.3h.6l.1.2v.2h-1.3v-3.8q0-.4-.2-.6-.2-.3-.5-.3l-.5.2q-.4.2-.8.8v3.3h.7v.4h-1.8l-.1-.2v-.1l.3-.1h.5v-4.1h-.7l-.1-.2v-.2l.3-.1h1Zm12 2.7h-5q0 1 .7 1.5.7.6 1.7.6l1.1-.2 1-.5h.4v.4q-.3.3-1 .5-.8.3-1.5.3-1.3 0-2.1-.9-.9-.8-.9-2 0-1 .8-1.8t2-.8q1.2 0 2 .8t.7 2Zm-.6-.5q-.1-.9-.7-1.4-.6-.5-1.5-.5t-1.5.5q-.6.5-.8 1.4h4.5Zm5 0-.2 1.4q-.1.7-.6 1.7l-.7 1.2-.2.1h-.2v-.4l.9-2.1q.3-1 .3-2 0-.9-.3-1.8-.3-1-1-2.2v-.1l.1-.2h.4l.7 1.2q.5 1 .6 1.7.2.7.2 1.5Z"
  /><path fill="#f07b72" d="M583 667a6 6 0 1 1-12 0 6 6 0 0 1 12 0Z" /><path
    stroke="#000000"
    stroke-linecap="round"
    stroke-linejoin="round"
    stroke-width="3"
    d="M596.7 664.9v.4l-3.7 4.2h3.4v-.9l.2-.1h.2v1.5h-4.4v-.5l3.6-4.1h-3v.7l-.1.2-.2.1h-.2v-1.5h4.2Zm5.1-2.5v1.3h-.7v-1.3h.7Zm0 2.5v4.6h2.2l.1.2v.2h-4.9l-.1-.2v-.1l.3-.1h2v-4.1h-1.7l-.1-.2v-.2l.3-.1h2Zm5 0v1q.4-.6.9-.9.5-.3 1.2-.3t1.3.4q.6.3 1 1 .3.5.3 1.2 0 1-.8 1.8-.7.8-1.8.8-1.4 0-2.2-1.1v3h1.5v.4h-2.9v-.4h.9v-6.4h-.9v-.4l.3-.1h1.1Zm4.2 2.4q0-.9-.6-1.5t-1.5-.6q-1 0-1.6.6-.6.6-.6 1.5 0 .8.6 1.4.7.7 1.6.7.8 0 1.5-.6.6-.6.6-1.5Zm11.5-.2.2-1.5.7-1.7.7-1.2h.3l.1.2v.1q-.7 1.2-1 2.2-.2.9-.2 1.9 0 1 .2 1.9.3 1 1 2.1v.3l-.2.1h-.2l-.7-1.2-.7-1.7-.2-1.5Zm8.7-3.8v-.2h-3.5v.7h-.4v-1.2h4.4v.8l-2 6.3v.2l-.2.1h-.2v-.4l2-6.3Zm7.5 1.6v.4l-3.7 4.2h3.4v-.9l.2-.1h.2v1.5h-4.4v-.5l3.6-4.1h-3v.7l-.1.2-.2.1h-.2v-1.5h4.2Zm5 2.2-.2 1.4q-.1.7-.6 1.7l-.7 1.2-.2.1h-.2v-.4l.9-2.1q.3-1 .3-2 0-.9-.3-1.8-.3-1-1-2.2v-.1l.1-.2h.4l.7 1.2q.5 1 .6 1.7.2.7.2 1.5Z"
  /><path
    fill="#bdbdbd"
    d="M596.7 664.9v.4l-3.7 4.2h3.4v-.9l.2-.1h.2v1.5h-4.4v-.5l3.6-4.1h-3v.7l-.1.2-.2.1h-.2v-1.5h4.2Zm5.1-2.5v1.3h-.7v-1.3h.7Zm0 2.5v4.6h2.2l.1.2v.2h-4.9l-.1-.2v-.1l.3-.1h2v-4.1h-1.7l-.1-.2v-.2l.3-.1h2Zm5 0v1q.4-.6.9-.9.5-.3 1.2-.3t1.3.4q.6.3 1 1 .3.5.3 1.2 0 1-.8 1.8-.7.8-1.8.8-1.4 0-2.2-1.1v3h1.5v.4h-2.9v-.4h.9v-6.4h-.9v-.4l.3-.1h1.1Zm4.2 2.4q0-.9-.6-1.5t-1.5-.6q-1 0-1.6.6-.6.6-.6 1.5 0 .8.6 1.4.7.7 1.6.7.8 0 1.5-.6.6-.6.6-1.5Zm11.5-.2.2-1.5.7-1.7.7-1.2h.3l.1.2v.1q-.7 1.2-1 2.2-.2.9-.2 1.9 0 1 .2 1.9.3 1 1 2.1v.3l-.2.1h-.2l-.7-1.2-.7-1.7-.2-1.5Zm8.7-3.8v-.2h-3.5v.7h-.4v-1.2h4.4v.8l-2 6.3v.2l-.2.1h-.2v-.4l2-6.3Zm7.5 1.6v.4l-3.7 4.2h3.4v-.9l.2-.1h.2v1.5h-4.4v-.5l3.6-4.1h-3v.7l-.1.2-.2.1h-.2v-1.5h4.2Zm5 2.2-.2 1.4q-.1.7-.6 1.7l-.7 1.2-.2.1h-.2v-.4l.9-2.1q.3-1 .3-2 0-.9-.3-1.8-.3-1-1-2.2v-.1l.1-.2h.4l.7 1.2q.5 1 .6 1.7.2.7.2 1.5Z"
  /><path
    stroke="#000000"
    stroke-linecap="round"
    stroke-linejoin="round"
    stroke-width="3"
    d="m19.2 644.1-.7 3.5h2l.6.1.2.4q0 .4-.4.7-.2.2-.7.2h-4.3q-.4 0-.6-.2-.2-.1-.2-.4 0-.4.4-.7l.7-.1h.9l.7-3.5h-1.3q-.2-.2-.2-.5 0-.4.4-.7l.7-.1h.7l.1-.6q.2-1 1-1.5.8-.6 2.1-.6h1.3l.9.3q.2.2.2.5t-.3.6q-.2.2-.5.2h-.4l-1.5-.2q-.7 0-1 .2-.3.2-.4.5l-.1.6h2.2l.6.1.1.4q0 .4-.3.7l-.7.1h-2.2Zm11.3-1.3-1 4.8.5.1.2.4q0 .4-.4.7-.2.2-.7.2h-1.4l.1-.4q-1.3.6-2.3.6-.8 0-1.3-.5-.5-.4-.5-1.1v-.4l.7-3H24q-.4 0-.6-.2-.2-.1-.2-.4 0-.4.4-.7l.7-.1H26l-1 4.1v.4q0 .2.2.3.2.2.6.2l1-.2 1.3-.6.6-2.9h-1.2l-.1-.5q0-.4.4-.7l.7-.1h1.9Zm4.7 0-.2.8 1.6-.8 1-.2q.6 0 1 .3.5.4.5.7 0 .4-.3.6-.2.3-.6.3-.2 0-.5-.3l-.4-.2q-.3 0-.8.3-.6.2-1.9 1.1l-.4 2.2h2l.6.1.2.4q0 .4-.4.7-.2.2-.7.2h-4.2q-.5 0-.7-.2l-.1-.4q0-.4.3-.7l.7-.1h.9l.7-3.5h-1.1q-.2-.2-.2-.5 0-.4.4-.7l.7-.1h2Zm7.5 1.3-.6 2.9v.3l.1.3q.3.2 1 .2 1 0 2-.5l.6-.2.4.2.1.4-.2.6q-.4.3-1.5.6-1 .3-1.8.3-.7 0-1.3-.2l-.7-.5-.2-.8v-.5l.7-3h-.5q-.5 0-.6-.2-.2-.1-.2-.4 0-.4.4-.7l.7-.1h.5l.3-1.3q0-.5.3-.7.2-.2.6-.2l.4.1.1.4v.4l-.3 1.3h2.6l.6.1.2.4q0 .4-.4.7l-.7.1h-2.6Zm8-4-.7 3q1-.5 1.9-.5 1 0 1.6.5.6.5.6 1.3l-.1.5-.6 2.7h.7q.2.2.2.5 0 .4-.4.7-.2.2-.7.2h-1.6q-.4 0-.6-.2-.2-.1-.2-.4 0-.4.4-.7l.8-.1.6-2.6v-.4l-.2-.4q-.3-.2-.8-.2t-.9.2q-.4.1-1.1.7l-.6 2.7h.7q.2.2.2.5 0 .4-.4.7-.2.2-.7.2h-1.6q-.4 0-.6-.2-.2-.1-.2-.4 0-.4.5-.7l.7-.1 1.3-6.1h-.2l-.7-.1-.1-.5q0-.4.4-.7l.7-.1h1.6Zm11.5 6.5h-5.7q0 .5.5.8.5.4 1.5.4.8 0 2.1-.4h1.2l.1.5q0 .3-.3.6l-1.4.5-2.1.2q-1.5 0-2.3-.8-.8-.7-.8-1.8 0-1 .6-2 .6-.9 1.6-1.5 1.1-.5 2.2-.5 1.4 0 2.2.7.8.7.8 2v.7l-.2.6Zm-1.3-1.4q-.1-.6-.6-1-.4-.2-1.2-.2-.7 0-1.3.3-.5.3-1 .9H61Zm6.3-2.4-.2.8 1.6-.8 1-.2q.6 0 1 .3.5.4.5.7 0 .4-.3.6-.2.3-.6.3-.2 0-.5-.3l-.4-.2q-.3 0-.8.3-.6.2-1.9 1.1l-.4 2.2h2l.6.1.2.4q0 .4-.4.7-.2.2-.7.2h-4.2q-.5 0-.7-.2l-.1-.4q0-.4.3-.7l.7-.1h.9l.7-3.5h-1.1q-.2-.2-.2-.5 0-.4.4-.7l.7-.1h2Zm15.5 1.3-.6 2.9v.3l.1.3q.3.2 1 .2 1 0 2-.5l.6-.2.4.2.1.4-.2.6q-.4.3-1.5.6-1 .3-1.8.3-.7 0-1.3-.2l-.7-.5-.2-.8v-.5l.7-3h-.5q-.5 0-.6-.2-.2-.1-.2-.4 0-.4.4-.7l.7-.1h.5l.3-1.3q0-.5.3-.7.2-.2.6-.2l.4.1.1.4v.4l-.3 1.3h2.6l.6.1.2.4q0 .4-.4.7l-.7.1h-2.6Zm7.5 5q-1 0-1.6-.3-.7-.3-1.1-1-.4-.5-.4-1.2 0-1 .6-2 .6-.9 1.7-1.5 1.1-.5 2.2-.5.8 0 1.5.3.7.4 1 1 .4.6.4 1.4 0 1-.5 1.9-.6.9-1.7 1.4-1 .6-2.1.6Zm.2-1.3q1.1 0 1.9-.7.8-.7.8-1.4 0-.8-.5-1.2-.5-.5-1.3-.5-1.2 0-2 .9-.7.7-.7 1.4 0 .6.5 1 .5.5 1.3.5Zm8.3-1.4-1.5 2.6H96l-.2-4.9-.5-.1v-.4q0-.4.3-.7l.7-.1h1.3l.7.1.1.4q0 .4-.4.7l-.7.1v2.3l1.4-2.3h1.2l.4 2.3 1-2.3h-.6q-.2-.2-.2-.5 0-.4.4-.7l.7-.1h1.3l.6.1.2.4-.2.6q-.3.2-.7.2l-2.2 4.9h-1.3l-.5-2.6Zm8.7 2.6.1-.4q-1.2.6-2.5.6-1 0-1.5-.5-.6-.5-.6-1.1 0-.5.4-1.1.5-.8 1.5-1.2.9-.4 2-.4l1.5.1v-.5l-.1-.4-1-.1-1.7.2-.6.1-.3-.1-.2-.4q0-.4.2-.6.2-.2 1.2-.4l1.7-.2q1.2 0 1.7.5.6.4.6 1v.6l-.7 2.9h.3l.6.1.2.4q0 .4-.4.7-.2.2-.7.2h-1.7Zm.6-2.6-1.6-.1q-.9 0-1.6.5-.5.3-.5.5t.3.4h.8l1.2-.1 1.2-.5.2-.7Zm7.2-3.6-.2.8 1.6-.8 1-.2q.6 0 1 .3.5.4.5.7 0 .4-.3.6-.2.3-.6.3-.2 0-.5-.3l-.4-.2q-.3 0-.8.3-.6.2-1.9 1.1l-.4 2.2h2l.6.1.2.4q0 .4-.4.7-.2.2-.7.2h-4.2q-.5 0-.7-.2l-.1-.4q0-.4.3-.7l.7-.1h.9l.7-3.5h-1.1q-.2-.2-.2-.5 0-.4.4-.7l.7-.1h2Zm12-2.7-1.5 7.5h.2l.7.1.1.4q0 .4-.4.7-.2.2-.7.2H124v-.4q-1 .6-2.1.6-1.4 0-2.2-.7-.7-.7-.7-1.8 0-1 .5-2 .6-1 1.7-1.6 1-.5 2-.5 1.1 0 2 .6l.4-1.7h-.3l-.6-.1q-.2-.2-.2-.5 0-.4.4-.7l.7-.1h1.7Zm-5 7.7q1 0 1.8-.7.7-.6.7-1.5 0-.7-.5-1.2-.5-.4-1.2-.4-1 0-1.8.7-.8.8-.8 1.7 0 .6.4 1 .5.4 1.3.4Zm16.5-3.7-.6 2.9v.3l.1.3q.3.2 1 .2 1 0 2-.5l.6-.2.4.2.1.4-.2.6q-.4.3-1.5.6-1 .3-1.8.3-.7 0-1.3-.2l-.7-.5-.2-.8v-.5l.7-3h-.5q-.5 0-.6-.2-.2-.1-.2-.4 0-.4.4-.7l.7-.1h.5l.3-1.3q0-.5.3-.7.2-.2.6-.2l.4.1.1.4v.4l-.3 1.3h2.6l.6.1.2.4q0 .4-.4.7l-.7.1h-2.6Zm8-4-.7 3q1-.5 1.9-.5 1 0 1.6.5.6.5.6 1.3l-.1.5-.6 2.7h.7q.2.2.2.5 0 .4-.4.7-.2.2-.7.2h-1.6q-.4 0-.6-.2-.2-.1-.2-.4 0-.4.4-.7l.8-.1.6-2.6v-.4l-.2-.4q-.3-.2-.8-.2t-.9.2q-.4.1-1.1.7l-.6 2.7h.7q.2.2.2.5 0 .4-.4.7-.2.2-.7.2h-1.6q-.4 0-.6-.2-.2-.1-.2-.4 0-.4.5-.7l.7-.1 1.3-6.1h-.2l-.7-.1-.1-.5q0-.4.4-.7l.7-.1h1.6Zm11.5 6.5h-5.7q0 .5.5.8.5.4 1.5.4.8 0 2.1-.4h1.2l.1.5q0 .3-.3.6l-1.4.5-2.1.2q-1.5 0-2.3-.8-.8-.7-.8-1.8 0-1 .6-2 .6-.9 1.6-1.5 1.1-.5 2.2-.5 1.4 0 2.2.7.8.7.8 2v.7l-.2.6Zm-1.3-1.4q-.1-.6-.6-1-.4-.2-1.2-.2-.7 0-1.3.3-.5.3-1 .9h4.1Zm13.4-5.1-.7 3.1q1.2-.6 2.3-.6 1.3 0 2 .7.8.8.8 2 0 1-.5 1.9-.5.9-1.6 1.4-1 .6-2.2.6-1 0-1.9-.6v.4h-1.7q-.5 0-.7-.2l-.1-.4q0-.4.4-.7l.7-.1h.2l1.3-6.1h-.2l-.7-.1-.1-.5q0-.4.3-.7l.8-.1h1.6Zm.4 7.7q1.2 0 1.9-.7.7-.6.7-1.5 0-.7-.5-1.2-.5-.4-1.2-.4-1 0-1.8.7-.8.8-.8 1.7 0 .6.4 1 .5.4 1.3.4Zm7.5 1.4q-1 0-1.6-.4-.7-.3-1.1-1-.4-.5-.4-1.2 0-1 .6-2 .6-.9 1.7-1.5 1.1-.5 2.2-.5.8 0 1.5.3.7.4 1 1 .4.6.4 1.4 0 1-.5 1.9-.6.9-1.7 1.4-1 .6-2.1.6Zm.2-1.4q1.1 0 1.9-.7.8-.7.8-1.4 0-.8-.5-1.2-.5-.5-1.3-.5-1.2 0-2 .9-.7.7-.7 1.4 0 .6.5 1 .5.5 1.3.5Zm8.3-3.7-.6 2.9v.3l.1.3q.3.2 1 .2 1 0 2-.5l.6-.2.4.2.1.4-.2.6q-.4.3-1.5.6-1 .3-1.8.3-.7 0-1.3-.2l-.7-.5-.2-.8v-.5l.7-3h-.5q-.5 0-.6-.2-.2-.1-.2-.4 0-.4.4-.7l.7-.1h.5l.3-1.3q0-.5.3-.7.2-.2.6-.2l.4.1.1.4v.4l-.3 1.3h2.6l.6.1.2.4q0 .4-.4.7l-.7.1h-2.6Zm8 0-.6 2.9v.3l.1.3q.3.2 1 .2 1 0 2-.5l.6-.2.4.2.1.4-.2.6q-.4.3-1.5.6-1 .3-1.8.3-.7 0-1.3-.2l-.7-.5-.2-.8v-.5l.7-3h-.5q-.5 0-.6-.2-.2-.1-.2-.4 0-.4.4-.7l.7-.1h.5l.3-1.3q0-.5.3-.7.2-.2.6-.2l.4.1.1.4v.4l-.3 1.3h2.6l.6.1.2.4q0 .4-.4.7l-.7.1h-2.6Zm7.5 5q-1 0-1.6-.3-.7-.3-1.1-1-.4-.5-.4-1.2 0-1 .6-2 .6-.9 1.7-1.5 1.1-.5 2.2-.5.8 0 1.5.3.7.4 1 1 .4.6.4 1.4 0 1-.5 1.9-.6.9-1.7 1.4-1 .6-2.1.6Zm.2-1.3q1.1 0 1.9-.7.8-.7.8-1.4 0-.8-.5-1.2-.5-.5-1.3-.5-1.2 0-2 .9-.7.7-.7 1.4 0 .6.5 1 .5.5 1.3.5Zm6.8-5v.4l.7-.5.7-.1q.6 0 1.1.6l.8-.5.8-.1q.8 0 1.2.4.4.4.4 1v.4l-.7 3.2.5.1.2.4q0 .4-.4.7-.2.2-.7.2h-1.3l1-4.5v-.2q0-.2-.2-.2l-.2-.1h-.5l-.7.7-.7 2.9.6.1.2.4q0 .4-.4.7-.2.2-.7.2h-1.4l1-4.5v-.4l-.4-.1-.4.1-.8.6-.6 2.9.6.1.1.4q0 .4-.4.7-.2.2-.7.2h-1.2q-.5 0-.7-.2l-.1-.4q0-.3.3-.6.2-.2.7-.2l.7-3.5h-.5q-.2-.2-.2-.5 0-.4.4-.7l.7-.1h1.2Zm19.6-2.7-1.6 7.5h1.7l.6.1.2.4q0 .4-.4.7-.2.2-.7.2h-4.8q-.5 0-.6-.2-.2-.1-.2-.4 0-.4.4-.7l.7-.1h1.7l1.3-6.1h-1.2l-.6-.1-.1-.5q0-.4.3-.7l.7-.1h2.6Zm9.4 6.5h-5.7q0 .5.5.8.5.4 1.5.4.8 0 2.1-.4h1.2l.1.5q0 .3-.3.6l-1.4.5-2.1.2q-1.5 0-2.3-.8-.8-.7-.8-1.8 0-1 .6-2 .6-.9 1.6-1.5 1.1-.5 2.2-.5 1.4 0 2.2.7.8.7.8 2v.7l-.2.6Zm-1.3-1.4q-.1-.6-.6-1-.4-.2-1.2-.2-.7 0-1.3.3-.5.3-1 .9h4.1Zm6.3-1-.7 3.4h2l.6.1.2.4q0 .4-.4.7-.2.2-.7.2h-4.3q-.4 0-.6-.2-.2-.1-.2-.4 0-.4.4-.7l.7-.1h.9l.7-3.5h-1.3q-.2-.2-.2-.5 0-.4.4-.7l.7-.1h.7l.1-.6q.2-1 1-1.5.8-.6 2.1-.6h1.3l.9.3q.2.2.2.5t-.3.6q-.2.2-.5.2h-.4l-1.5-.2q-.7 0-1 .2-.3.2-.4.5l-.1.6h2.2l.6.1.1.4q0 .4-.3.7l-.7.1h-2.2Zm7.5 0-.6 2.8v.3l.1.3q.3.2 1 .2 1 0 2-.5l.6-.2.4.2.1.4-.2.6q-.4.3-1.5.6-1 .3-1.8.3-.7 0-1.3-.2l-.7-.5-.2-.8v-.5l.7-3h-.5q-.5 0-.6-.2-.2-.1-.2-.4 0-.4.4-.7l.7-.1h.5l.3-1.3q0-.5.3-.7.2-.2.6-.2l.4.1.1.4v.4l-.3 1.3h2.6l.6.1.2.4q0 .4-.4.7l-.7.1h-2.6Zm19.5.2h-6q-.5 0-.7-.2l-.1-.4q0-.4.4-.7.2-.2.7-.2h6q.4 0 .6.2.2.1.2.4 0 .4-.4.7-.2.2-.7.2Zm-.6 2.6h-6l-.6-.1q-.2-.2-.2-.5 0-.4.4-.7l.7-.1h6l.6.1.2.4q0 .5-.4.8h-.7Zm12.7-6.9-.7 3.1q1.2-.6 2.3-.6 1.3 0 2 .7.8.8.8 2 0 1-.5 1.9-.5.9-1.6 1.4-1 .6-2.2.6-1 0-1.9-.6v.4h-1.7q-.5 0-.7-.2l-.1-.4q0-.4.4-.7l.7-.1h.2l1.3-6.1h-.2l-.7-.1-.1-.5q0-.4.3-.7l.8-.1h1.6Zm.4 7.7q1.2 0 1.9-.7.7-.6.7-1.5 0-.7-.5-1.2-.5-.4-1.2-.4-1 0-1.8.7-.8.8-.8 1.7 0 .6.4 1 .5.4 1.3.4Zm11.5-1.2h-5.7q0 .5.5.8.5.4 1.5.4.8 0 2.1-.4h1.2l.1.5q0 .3-.3.6l-1.4.5-2.1.2q-1.5 0-2.3-.8-.8-.7-.8-1.8 0-1 .6-2 .6-.9 1.6-1.5 1.1-.5 2.2-.5 1.4 0 2.2.7.8.7.8 2v.7l-.2.6Zm-1.3-1.4q-.1-.6-.6-1-.4-.2-1.2-.2-.7 0-1.3.3-.5.3-1 .9h4.1Zm5.8-1-.6 2.8v.3l.1.3q.3.2 1 .2 1 0 2-.5l.6-.2.4.2.1.4-.2.6q-.4.3-1.5.6-1 .3-1.8.3-.7 0-1.3-.2l-.7-.5-.2-.8v-.5l.7-3h-.5q-.5 0-.6-.2-.2-.1-.2-.4 0-.4.4-.7l.7-.1h.5l.3-1.3q0-.5.3-.7.2-.2.6-.2l.4.1.1.4v.4l-.3 1.3h2.6l.6.1.2.4q0 .4-.4.7l-.7.1h-2.6Zm8 0-.6 2.8v.3l.1.3q.3.2 1 .2 1 0 2-.5l.6-.2.4.2.1.4-.2.6q-.4.3-1.5.6-1 .3-1.8.3-.7 0-1.3-.2l-.7-.5-.2-.8v-.5l.7-3h-.5q-.5 0-.6-.2-.2-.1-.2-.4 0-.4.4-.7l.7-.1h.5l.3-1.3q0-.5.3-.7.2-.2.6-.2l.4.1.1.4v.4l-.3 1.3h2.6l.6.1.2.4q0 .4-.4.7l-.7.1h-2.6Zm11.5 2.4h-5.7q0 .5.5.8.5.4 1.5.4.8 0 2.1-.4h1.2l.1.5q0 .3-.3.6l-1.4.5-2.1.2q-1.5 0-2.3-.8-.8-.7-.8-1.8 0-1 .6-2 .6-.9 1.6-1.5 1.1-.5 2.2-.5 1.4 0 2.2.7.8.7.8 2v.7l-.2.6Zm-1.3-1.4q-.1-.6-.6-1-.4-.2-1.2-.2-.7 0-1.3.3-.5.3-1 .9h4.1Zm6.3-2.4-.2.8 1.6-.8 1-.2q.6 0 1 .3.5.4.5.7 0 .4-.3.6-.2.3-.6.3-.2 0-.5-.3l-.4-.2q-.3 0-.8.3-.6.2-1.9 1.1l-.4 2.2h2l.6.1.2.4q0 .4-.4.7-.2.2-.7.2h-4.2q-.5 0-.7-.2l-.1-.4q0-.4.3-.7l.7-.1h.9l.7-3.5h-1.1q-.2-.2-.2-.5 0-.4.4-.7l.7-.1h2Z"
  /><path
    fill="#bdbdbd"
    d="m19.2 644.1-.7 3.5h2l.6.1.2.4q0 .4-.4.7-.2.2-.7.2h-4.3q-.4 0-.6-.2-.2-.1-.2-.4 0-.4.4-.7l.7-.1h.9l.7-3.5h-1.3q-.2-.2-.2-.5 0-.4.4-.7l.7-.1h.7l.1-.6q.2-1 1-1.5.8-.6 2.1-.6h1.3l.9.3q.2.2.2.5t-.3.6q-.2.2-.5.2h-.4l-1.5-.2q-.7 0-1 .2-.3.2-.4.5l-.1.6h2.2l.6.1.1.4q0 .4-.3.7l-.7.1h-2.2Zm11.3-1.3-1 4.8.5.1.2.4q0 .4-.4.7-.2.2-.7.2h-1.4l.1-.4q-1.3.6-2.3.6-.8 0-1.3-.5-.5-.4-.5-1.1v-.4l.7-3H24q-.4 0-.6-.2-.2-.1-.2-.4 0-.4.4-.7l.7-.1H26l-1 4.1v.4q0 .2.2.3.2.2.6.2l1-.2 1.3-.6.6-2.9h-1.2l-.1-.5q0-.4.4-.7l.7-.1h1.9Zm4.7 0-.2.8 1.6-.8 1-.2q.6 0 1 .3.5.4.5.7 0 .4-.3.6-.2.3-.6.3-.2 0-.5-.3l-.4-.2q-.3 0-.8.3-.6.2-1.9 1.1l-.4 2.2h2l.6.1.2.4q0 .4-.4.7-.2.2-.7.2h-4.2q-.5 0-.7-.2l-.1-.4q0-.4.3-.7l.7-.1h.9l.7-3.5h-1.1q-.2-.2-.2-.5 0-.4.4-.7l.7-.1h2Zm7.5 1.3-.6 2.9v.3l.1.3q.3.2 1 .2 1 0 2-.5l.6-.2.4.2.1.4-.2.6q-.4.3-1.5.6-1 .3-1.8.3-.7 0-1.3-.2l-.7-.5-.2-.8v-.5l.7-3h-.5q-.5 0-.6-.2-.2-.1-.2-.4 0-.4.4-.7l.7-.1h.5l.3-1.3q0-.5.3-.7.2-.2.6-.2l.4.1.1.4v.4l-.3 1.3h2.6l.6.1.2.4q0 .4-.4.7l-.7.1h-2.6Zm8-4-.7 3q1-.5 1.9-.5 1 0 1.6.5.6.5.6 1.3l-.1.5-.6 2.7h.7q.2.2.2.5 0 .4-.4.7-.2.2-.7.2h-1.6q-.4 0-.6-.2-.2-.1-.2-.4 0-.4.4-.7l.8-.1.6-2.6v-.4l-.2-.4q-.3-.2-.8-.2t-.9.2q-.4.1-1.1.7l-.6 2.7h.7q.2.2.2.5 0 .4-.4.7-.2.2-.7.2h-1.6q-.4 0-.6-.2-.2-.1-.2-.4 0-.4.5-.7l.7-.1 1.3-6.1h-.2l-.7-.1-.1-.5q0-.4.4-.7l.7-.1h1.6Zm11.5 6.5h-5.7q0 .5.5.8.5.4 1.5.4.8 0 2.1-.4h1.2l.1.5q0 .3-.3.6l-1.4.5-2.1.2q-1.5 0-2.3-.8-.8-.7-.8-1.8 0-1 .6-2 .6-.9 1.6-1.5 1.1-.5 2.2-.5 1.4 0 2.2.7.8.7.8 2v.7l-.2.6Zm-1.3-1.4q-.1-.6-.6-1-.4-.2-1.2-.2-.7 0-1.3.3-.5.3-1 .9H61Zm6.3-2.4-.2.8 1.6-.8 1-.2q.6 0 1 .3.5.4.5.7 0 .4-.3.6-.2.3-.6.3-.2 0-.5-.3l-.4-.2q-.3 0-.8.3-.6.2-1.9 1.1l-.4 2.2h2l.6.1.2.4q0 .4-.4.7-.2.2-.7.2h-4.2q-.5 0-.7-.2l-.1-.4q0-.4.3-.7l.7-.1h.9l.7-3.5h-1.1q-.2-.2-.2-.5 0-.4.4-.7l.7-.1h2Zm15.5 1.3-.6 2.9v.3l.1.3q.3.2 1 .2 1 0 2-.5l.6-.2.4.2.1.4-.2.6q-.4.3-1.5.6-1 .3-1.8.3-.7 0-1.3-.2l-.7-.5-.2-.8v-.5l.7-3h-.5q-.5 0-.6-.2-.2-.1-.2-.4 0-.4.4-.7l.7-.1h.5l.3-1.3q0-.5.3-.7.2-.2.6-.2l.4.1.1.4v.4l-.3 1.3h2.6l.6.1.2.4q0 .4-.4.7l-.7.1h-2.6Zm7.5 5q-1 0-1.6-.3-.7-.3-1.1-1-.4-.5-.4-1.2 0-1 .6-2 .6-.9 1.7-1.5 1.1-.5 2.2-.5.8 0 1.5.3.7.4 1 1 .4.6.4 1.4 0 1-.5 1.9-.6.9-1.7 1.4-1 .6-2.1.6Zm.2-1.3q1.1 0 1.9-.7.8-.7.8-1.4 0-.8-.5-1.2-.5-.5-1.3-.5-1.2 0-2 .9-.7.7-.7 1.4 0 .6.5 1 .5.5 1.3.5Zm8.3-1.4-1.5 2.6H96l-.2-4.9-.5-.1-.1-.4q0-.4.4-.7l.7-.1h1.3l.7.1.1.4q0 .4-.4.7l-.7.1v2.3l1.4-2.3h1.2l.4 2.3 1-2.3h-.6q-.2-.2-.2-.5 0-.4.4-.7l.7-.1h1.3l.6.1.2.4-.2.6q-.3.2-.7.2l-2.2 4.9h-1.3l-.5-2.6Zm8.7 2.6.1-.4q-1.2.6-2.5.6-1 0-1.5-.5-.6-.5-.6-1.1 0-.5.4-1.1.5-.8 1.5-1.2.9-.4 2-.4l1.5.1v-.5l-.1-.4-1-.1-1.7.2-.6.1-.3-.1-.2-.4q0-.4.2-.6.2-.2 1.2-.4l1.7-.2q1.2 0 1.7.5.6.4.6 1v.6l-.7 2.9h.3l.6.1.2.4q0 .4-.4.7-.2.2-.7.2h-1.7Zm.6-2.6-1.6-.1q-.9 0-1.6.5-.5.3-.5.5t.3.4h.8l1.2-.1 1.2-.5.2-.7Zm7.2-3.6-.2.8 1.6-.8 1-.2q.6 0 1 .3.5.4.5.7 0 .4-.3.6-.2.3-.6.3-.2 0-.5-.3l-.4-.2q-.3 0-.8.3-.6.2-1.9 1.1l-.4 2.2h2l.6.1.2.4q0 .4-.4.7-.2.2-.7.2h-4.2q-.5 0-.7-.2l-.1-.4q0-.4.3-.7l.7-.1h.9l.7-3.5h-1.1q-.2-.2-.2-.5 0-.4.4-.7l.7-.1h2Zm12-2.7-1.5 7.5h.2l.7.1.1.4q0 .4-.4.7-.2.2-.7.2H124v-.4q-1 .6-2.1.6-1.4 0-2.2-.7-.7-.7-.7-1.8 0-1 .5-2 .6-1 1.7-1.6 1-.5 2-.5 1.1 0 2 .6l.4-1.7h-.3l-.6-.1q-.2-.2-.2-.5 0-.4.4-.7l.7-.1h1.7Zm-5 7.7q1 0 1.8-.7.7-.6.7-1.5 0-.7-.5-1.2-.5-.4-1.2-.4-1 0-1.8.7-.8.8-.8 1.7 0 .6.4 1 .5.4 1.3.4Zm16.5-3.7-.6 2.9v.3l.1.3q.3.2 1 .2 1 0 2-.5l.6-.2.4.2.1.4-.2.6q-.4.3-1.5.6-1 .3-1.8.3-.7 0-1.3-.2l-.7-.5-.2-.8v-.5l.7-3h-.5q-.5 0-.6-.2-.2-.1-.2-.4 0-.4.4-.7l.7-.1h.5l.3-1.3q0-.5.3-.7.2-.2.6-.2l.4.1.1.4v.4l-.3 1.3h2.6l.6.1.2.4q0 .4-.4.7l-.7.1h-2.6Zm8-4-.7 3q1-.5 1.9-.5 1 0 1.6.5.6.5.6 1.3l-.1.5-.6 2.7h.7q.2.2.2.5 0 .4-.4.7-.2.2-.7.2h-1.6q-.4 0-.6-.2-.2-.1-.2-.4 0-.4.4-.7l.8-.1.6-2.6v-.4l-.2-.4q-.3-.2-.8-.2t-.9.2q-.4.1-1.1.7l-.6 2.7h.7q.2.2.2.5 0 .4-.4.7-.2.2-.7.2h-1.6q-.4 0-.6-.2-.2-.1-.2-.4 0-.4.5-.7l.7-.1 1.3-6.1h-.2l-.7-.1-.1-.5q0-.4.4-.7l.7-.1h1.6Zm11.5 6.5h-5.7q0 .5.5.8.5.4 1.5.4.8 0 2.1-.4h1.2l.1.5q0 .3-.3.6l-1.4.5-2.1.2q-1.5 0-2.3-.8-.8-.7-.8-1.8 0-1 .6-2 .6-.9 1.6-1.5 1.1-.5 2.2-.5 1.4 0 2.2.7.8.7.8 2v.7l-.2.6Zm-1.3-1.4q-.1-.6-.6-1-.4-.2-1.2-.2-.7 0-1.3.3-.5.3-1 .9h4.1Zm13.4-5.1-.7 3.1q1.2-.6 2.3-.6 1.3 0 2 .7.8.8.8 2 0 1-.5 1.9-.5.9-1.6 1.4-1 .6-2.2.6-1 0-1.9-.6v.4h-1.7q-.5 0-.7-.2l-.1-.4q0-.4.4-.7l.7-.1h.2l1.3-6.1h-.2l-.7-.1-.1-.5q0-.4.3-.7l.8-.1h1.6Zm.4 7.7q1.2 0 1.9-.7.7-.6.7-1.5 0-.7-.5-1.2-.5-.4-1.2-.4-1 0-1.8.7-.8.8-.8 1.7 0 .6.4 1 .5.4 1.3.4Zm7.5 1.4q-1 0-1.6-.4-.7-.3-1.1-1-.4-.5-.4-1.2 0-1 .6-2 .6-.9 1.7-1.5 1.1-.5 2.2-.5.8 0 1.5.3.7.4 1 1 .4.6.4 1.4 0 1-.5 1.9-.6.9-1.7 1.4-1 .6-2.1.6Zm.2-1.4q1.1 0 1.9-.7.8-.7.8-1.4 0-.8-.5-1.2-.5-.5-1.3-.5-1.2 0-2 .9-.7.7-.7 1.4 0 .6.5 1 .5.5 1.3.5Zm8.3-3.7-.6 2.9v.3l.1.3q.3.2 1 .2 1 0 2-.5l.6-.2.4.2.1.4-.2.6q-.4.3-1.5.6-1 .3-1.8.3-.7 0-1.3-.2l-.7-.5-.2-.8v-.5l.7-3h-.5q-.5 0-.6-.2-.2-.1-.2-.4 0-.4.4-.7l.7-.1h.5l.3-1.3q0-.5.3-.7.2-.2.6-.2l.4.1.1.4v.4l-.3 1.3h2.6l.6.1.2.4q0 .4-.4.7l-.7.1h-2.6Zm8 0-.6 2.9v.3l.1.3q.3.2 1 .2 1 0 2-.5l.6-.2.4.2.1.4-.2.6q-.4.3-1.5.6-1 .3-1.8.3-.7 0-1.3-.2l-.7-.5-.2-.8v-.5l.7-3h-.5q-.5 0-.6-.2-.2-.1-.2-.4 0-.4.4-.7l.7-.1h.5l.3-1.3q0-.5.3-.7.2-.2.6-.2l.4.1.1.4v.4l-.3 1.3h2.6l.6.1.2.4q0 .4-.4.7l-.7.1h-2.6Zm7.5 5q-1 0-1.6-.3-.7-.3-1.1-1-.4-.5-.4-1.2 0-1 .6-2 .6-.9 1.7-1.5 1.1-.5 2.2-.5.8 0 1.5.3.7.4 1 1 .4.6.4 1.4 0 1-.5 1.9-.6.9-1.7 1.4-1 .6-2.1.6Zm.2-1.3q1.1 0 1.9-.7.8-.7.8-1.4 0-.8-.5-1.2-.5-.5-1.3-.5-1.2 0-2 .9-.7.7-.7 1.4 0 .6.5 1 .5.5 1.3.5Zm6.8-5v.4l.7-.5.7-.1q.6 0 1.1.6l.8-.5.8-.1q.8 0 1.2.4.4.4.4 1v.4l-.7 3.2.5.1.2.4q0 .4-.4.7-.2.2-.7.2h-1.3l1-4.5v-.2q0-.2-.2-.2l-.2-.1h-.5l-.7.7-.7 2.9.6.1.2.4q0 .4-.4.7-.2.2-.7.2h-1.4l1-4.5v-.4l-.4-.1-.4.1-.8.6-.6 2.9.6.1.1.4q0 .4-.4.7-.2.2-.7.2h-1.2q-.5 0-.7-.2l-.1-.4q0-.3.3-.6.2-.2.7-.2l.7-3.5h-.5q-.2-.2-.2-.5 0-.4.4-.7l.7-.1h1.2Zm19.6-2.7-1.6 7.5h1.7l.6.1.2.4q0 .4-.4.7-.2.2-.7.2h-4.8q-.5 0-.6-.2-.2-.1-.2-.4 0-.4.4-.7l.7-.1h1.7l1.3-6.1h-1.2l-.6-.1-.1-.5q0-.4.3-.7l.7-.1h2.6Zm9.4 6.5h-5.7q0 .5.5.8.5.4 1.5.4.8 0 2.1-.4h1.2l.1.5q0 .3-.3.6l-1.4.5-2.1.2q-1.5 0-2.3-.8-.8-.7-.8-1.8 0-1 .6-2 .6-.9 1.6-1.5 1.1-.5 2.2-.5 1.4 0 2.2.7.8.7.8 2v.7l-.2.6Zm-1.3-1.4q-.1-.6-.6-1-.4-.2-1.2-.2-.7 0-1.3.3-.5.3-1 .9h4.1Zm6.3-1-.7 3.4h2l.6.1.2.4q0 .4-.4.7-.2.2-.7.2h-4.3q-.4 0-.6-.2-.2-.1-.2-.4 0-.4.4-.7l.7-.1h.9l.7-3.5h-1.3q-.2-.2-.2-.5 0-.4.4-.7l.7-.1h.7l.1-.6q.2-1 1-1.5.8-.6 2.1-.6h1.3l.9.3q.2.2.2.5t-.3.6q-.2.2-.5.2h-.4l-1.5-.2q-.7 0-1 .2-.3.2-.4.5l-.1.6h2.2l.6.1.1.4q0 .4-.3.7l-.7.1h-2.2Zm7.5 0-.6 2.8v.3l.1.3q.3.2 1 .2 1 0 2-.5l.6-.2.4.2.1.4-.2.6q-.4.3-1.5.6-1 .3-1.8.3-.7 0-1.3-.2l-.7-.5-.2-.8v-.5l.7-3h-.5q-.5 0-.6-.2-.2-.1-.2-.4 0-.4.4-.7l.7-.1h.5l.3-1.3q0-.5.3-.7.2-.2.6-.2l.4.1.1.4v.4l-.3 1.3h2.6l.6.1.2.4q0 .4-.4.7l-.7.1h-2.6Zm19.5.2h-6q-.5 0-.7-.2l-.1-.4q0-.4.4-.7.2-.2.7-.2h6q.4 0 .6.2.2.1.2.4 0 .4-.4.7-.2.2-.7.2Zm-.6 2.6h-6l-.6-.1q-.2-.2-.2-.5 0-.4.4-.7l.7-.1h6l.6.1.2.4q0 .5-.4.8h-.7Zm12.7-6.9-.7 3.1q1.2-.6 2.3-.6 1.3 0 2 .7.8.8.8 2 0 1-.5 1.9-.5.9-1.6 1.4-1 .6-2.2.6-1 0-1.9-.6v.4h-1.7q-.5 0-.7-.2l-.1-.4q0-.4.4-.7l.7-.1h.2l1.3-6.1h-.2l-.7-.1-.1-.5q0-.4.3-.7l.8-.1h1.6Zm.4 7.7q1.2 0 1.9-.7.7-.6.7-1.5 0-.7-.5-1.2-.5-.4-1.2-.4-1 0-1.8.7-.8.8-.8 1.7 0 .6.4 1 .5.4 1.3.4Zm11.5-1.2h-5.7q0 .5.5.8.5.4 1.5.4.8 0 2.1-.4h1.2l.1.5q0 .3-.3.6l-1.4.5-2.1.2q-1.5 0-2.3-.8-.8-.7-.8-1.8 0-1 .6-2 .6-.9 1.6-1.5 1.1-.5 2.2-.5 1.4 0 2.2.7.8.7.8 2v.7l-.2.6Zm-1.3-1.4q-.1-.6-.6-1-.4-.2-1.2-.2-.7 0-1.3.3-.5.3-1 .9h4.1Zm5.8-1-.6 2.8v.3l.1.3q.3.2 1 .2 1 0 2-.5l.6-.2.4.2.1.4-.2.6q-.4.3-1.5.6-1 .3-1.8.3-.7 0-1.3-.2l-.7-.5-.2-.8v-.5l.7-3h-.5q-.5 0-.6-.2-.2-.1-.2-.4 0-.4.4-.7l.7-.1h.5l.3-1.3q0-.5.3-.7.2-.2.6-.2l.4.1.1.4v.4l-.3 1.3h2.6l.6.1.2.4q0 .4-.4.7l-.7.1h-2.6Zm8 0-.6 2.8v.3l.1.3q.3.2 1 .2 1 0 2-.5l.6-.2.4.2.1.4-.2.6q-.4.3-1.5.6-1 .3-1.8.3-.7 0-1.3-.2l-.7-.5-.2-.8v-.5l.7-3h-.5q-.5 0-.6-.2-.2-.1-.2-.4 0-.4.4-.7l.7-.1h.5l.3-1.3q0-.5.3-.7.2-.2.6-.2l.4.1.1.4v.4l-.3 1.3h2.6l.6.1.2.4q0 .4-.4.7l-.7.1h-2.6Zm11.5 2.4h-5.7q0 .5.5.8.5.4 1.5.4.8 0 2.1-.4h1.2l.1.5q0 .3-.3.6l-1.4.5-2.1.2q-1.5 0-2.3-.8-.8-.7-.8-1.8 0-1 .6-2 .6-.9 1.6-1.5 1.1-.5 2.2-.5 1.4 0 2.2.7.8.7.8 2v.7l-.2.6Zm-1.3-1.4q-.1-.6-.6-1-.4-.2-1.2-.2-.7 0-1.3.3-.5.3-1 .9h4.1Zm6.3-2.4-.2.8 1.6-.8 1-.2q.6 0 1 .3.5.4.5.7 0 .4-.3.6-.2.3-.6.3-.2 0-.5-.3l-.4-.2q-.3 0-.8.3-.6.2-1.9 1.1l-.4 2.2h2l.6.1.2.4q0 .4-.4.7-.2.2-.7.2h-4.2q-.5 0-.7-.2l-.1-.4q0-.4.3-.7l.7-.1h.9l.7-3.5h-1.1q-.2-.2-.2-.5 0-.4.4-.7l.7-.1h2Z"
  /><path
    stroke="#000000"
    stroke-linecap="round"
    stroke-linejoin="round"
    stroke-width="3"
    d="M9.3 29V17.2q-1 0-1.4-.4-.5-.4-.5-1 0-.8.5-1.2.4-.4 1.5-.4h6.3q1.5 0 2.9.6 1.4.5 2.2 1.4.6.6 1.3 1.7.7 1 1 2.2.4 1 .4 2.6v1.4q0 2-.6 3.4-.6 1.5-1.7 2.4-1 1-2 1.4-1.4.7-3.8.7h-6q-1 0-1.5-.4t-.5-1.1q0-.7.5-1.1.4-.4 1.4-.4Zm3 0h3.2q1.7 0 2.7-.5 1.1-.7 1.7-1.7.6-1 .6-2.7v-1.5q0-1.4-.5-2.5-.8-1.6-2-2.2-1-.7-2.6-.7h-3.1V29Zm24.4 3v-.7q-1.1.6-2.5.9-1.4.3-2.5.3-2.4 0-4-1.3-1.4-1.3-1.4-2.8 0-2 1.9-3.5 2-1.7 5.3-1.7 1.4 0 3.2.3v-.7q0-.7-.6-1-.6-.5-2.2-.5-1.3 0-3.5.5l-1.2.2q-.6 0-1-.4-.4-.5-.4-1.1l.1-.7.4-.4 1.1-.4 2.3-.5 2-.2q2.9 0 4.4 1.2 1.6 1.2 1.6 3.3V29h.5q1 0 1.5.4t.5 1q0 .8-.5 1.2-.4.4-1.5.4h-3.5Zm0-5.4q-1.8-.4-3.3-.4-1.9 0-3.2 1-.8.5-.8 1.1 0 .4.4.7.7.5 2 .5 1 0 2.4-.4 1.4-.5 2.5-1.2v-1.3Zm14.5-5v6.1q0 1 .4 1.3.6.5 2.2.5 2.3 0 4.3-1 .7-.4 1.2-.4t1 .4q.4.5.4 1.1 0 .6-.5 1-.7.7-2.8 1.3-2.1.6-3.6.6-2.8 0-4.2-1.2-1.4-1.3-1.4-3v-6.6h-1q-1.1 0-1.6-.4-.4-.5-.4-1.1 0-.7.4-1 .5-.5 1.6-.5h1V16q0-1.1.5-1.6.4-.4 1-.4.7 0 1.1.4.4.5.4 1.6v2.7h5.6q1 0 1.5.4t.5 1q0 .7-.5 1.2-.4.4-1.5.4h-5.6ZM72.7 32v-.7q-1.1.6-2.5.9-1.4.3-2.5.3-2.4 0-4-1.3-1.4-1.3-1.4-2.8 0-2 1.9-3.5 2-1.7 5.3-1.7 1.4 0 3.2.3v-.7q0-.7-.6-1-.6-.5-2.2-.5-1.3 0-3.5.5l-1.2.2q-.6 0-1-.4-.4-.5-.4-1.1l.1-.7.4-.4 1.1-.4 2.3-.5 2-.2q2.9 0 4.4 1.2 1.6 1.2 1.6 3.3V29h.5q1 0 1.5.4t.5 1q0 .8-.5 1.2-.4.4-1.5.4h-3.5Zm0-5.4q-1.8-.4-3.3-.4-1.9 0-3.2 1-.8.5-.8 1.1 0 .4.4.7.7.5 2 .5 1 0 2.4-.4 1.4-.5 2.5-1.2v-1.3Zm38-11.6.6-.6q.3-.2.7-.2.7 0 1 .5.5.4.5 1.5v2.6q0 1-.4 1.5t-1 .5q-.7 0-1-.4-.4-.3-.6-1.2-.1-.6-.4-1-.6-.6-1.7-1-1-.4-2.2-.4-1.3 0-2.4.6-1.1.5-2 1.9-.9 1.3-.9 3.1v2q0 2.1 1.6 3.6 1.6 1.4 4.4 1.4 1.6 0 2.8-.4.7-.3 1.4-1 .5-.6.8-.7l.6-.1q.6 0 1 .4.5.5.5 1.1 0 .6-.6 1.3-1 1-2.3 1.6-2 .8-4.2.8-2.7 0-4.8-1-1.7-1-3-2.8-1.2-2-1.2-4.2v-2Q98 20 99 18q1.1-2 3-3.1 2-1.1 4.1-1.1 1.3 0 2.5.3 1.1.3 2.1.9Zm21 10.6q0 1.7-.9 3.3-1 1.6-2.8 2.6-2 1-4 1t-4-1q-1.8-1-2.8-2.6-1-1.6-1-3.4 0-1.8 1-3.5t2.9-2.7q1.9-1 4-1 2 0 3.8 1 2 1 3 2.7.9 1.8.9 3.6Zm-3 0q0-1.5-1-2.7-1.4-1.6-3.7-1.6-2 0-3.4 1.3t-1.4 3q0 1.4 1.4 2.6 1.4 1.3 3.4 1.3t3.4-1.3q1.4-1.2 1.4-2.6Zm8.6-7v1q.8-.8 1.4-1 .6-.3 1.3-.3.7 0 1.3.3.7.3 1.3 1 .8-.7 1.6-1 .8-.3 1.6-.3 1.7 0 2.7.9 1.4 1.2 1.4 3V29q1 0 1.4.4.4.4.4 1 0 .8-.4 1.2-.5.4-1.6.4H147v-9.5q0-.7-.2-1-.3-.2-.8-.2l-1 .2q-.5.4-1.2 1.4v6q.9 0 1.3.5.5.4.5 1 0 .8-.5 1.2-.4.4-1.5.4h-2.9v-9.5q0-.7-.2-1-.3-.2-.8-.2t-1 .3q-.5.3-1.3 1.3v6q1 0 1.4.5.5.4.5 1 0 .8-.5 1.2-.4.4-1.5.4h-2.7q-1.1 0-1.6-.4-.4-.4-.4-1.1 0-.7.4-1.1.5-.4 1.4-.4v-7.3q-1 0-1.4-.4-.4-.5-.4-1.1 0-.7.4-1 .5-.5 1.6-.5h2.8Zm19 11.7v5h1.8q1 0 1.5.4t.5 1q0 .7-.5 1.1-.5.4-1.5.4h-5.4q-1 0-1.5-.4t-.5-1q0-.7.5-1.1.5-.5 1.5-.5h.5V21.7h-.5q-1 0-1.5-.4-.5-.5-.5-1.1 0-.7.5-1 .5-.5 1.5-.5h3.6v1q1-.7 2.1-1 1.2-.4 2.3-.4 3.1 0 5.3 2 2.2 2.2 2.2 4.9 0 3-2.6 4.9-2.1 1.6-4.8 1.6-1.2 0-2.3-.4-1.1-.3-2.2-1Zm8.9-5.1q0-.7-.5-1.6-.5-1-1.6-1.7-1-.6-2.4-.6-2.2 0-3.5 1.7-1 1.1-1 2.2 0 1.2 1.3 2.3 1.3 1.2 3.2 1.2 2 0 3.2-1.2 1.3-1 1.3-2.3Zm12.2-6.5v1.9q1.8-1.4 3-1.9 1-.4 2-.4 1.5 0 2.8 1 1 .8 1 1.6 0 .6-.5 1-.4.5-1 .5t-1.2-.5q-.6-.6-1.1-.6-.7 0-2 .8l-3 2.3V29h4.2q1.1 0 1.6.4.4.4.4 1 0 .8-.4 1.2-.5.4-1.6.4h-9q-1.1 0-1.6-.4-.4-.4-.4-1.1 0-.7.4-1.1.5-.4 1.6-.4h1.8v-7.3h-1.1q-1.1 0-1.6-.4-.4-.5-.4-1.1 0-.7.4-1 .5-.5 1.6-.5h4Zm26.1 8.2h-12.3q.5 1.1 1.7 1.8 1.2.8 3.2.8 1.7 0 4.4-.8l1.6-.3q.6 0 1 .5.4.4.4 1t-.4 1q-.6.6-2.9 1-2.2.6-4.3.6-3.6 0-5.8-2-2.2-2.1-2.2-5 0-3.3 2.4-5.2 2.3-2 5.4-2 1.8 0 3.3.6 1.6.7 2.3 1.4 1 1.1 1.7 2.7.5 1.1.5 2.6v1.3Zm-3.3-3q-.7-1.3-1.8-2-1.1-.6-2.7-.6-1.5 0-2.6.6-1.1.7-1.8 2h8.9Zm17-1.7q-.7-.5-1.5-.7-.8-.2-1.7-.2-1.7 0-2.8.6-.4.2-.4.5t.6.7q.5.2 2.1.4 3 .4 4.2.8 1.5.6 2.3 1.6.9 1.1.9 2.3 0 1.6-1.5 2.7-2 1.6-5.2 1.6-1.4 0-2.5-.3l-2-.6-.5.3h-.5q-.7 0-1-.4-.5-.5-.5-1.5v-1q0-1.1.4-1.6t1.1-.5q.5 0 1 .3.3.3.5 1 .7.7 1.6 1 1 .3 2.3.3 2 0 3.2-.7.5-.3.5-.7 0-.5-.8-1-.7-.3-3.2-.6-3.6-.3-4.8-1.4-1.2-1.1-1.2-2.7t1.3-2.7q1.9-1.4 4.9-1.4l2 .2q1 .2 1.8.6l.5-.3.5-.1q.6 0 1 .5.4.4.4 1.5v.7q0 1-.2 1.3-.5.7-1.3.7-.5 0-1-.3-.4-.4-.5-.9Zm18 0q-.7-.5-1.5-.7-.8-.2-1.7-.2-1.7 0-2.8.6-.4.2-.4.5t.6.7q.5.2 2.1.4 3 .4 4.2.8 1.5.6 2.3 1.6.9 1.1.9 2.3 0 1.6-1.5 2.7-2 1.6-5.2 1.6-1.4 0-2.5-.3l-2-.6-.5.3h-.5q-.7 0-1-.4-.5-.5-.5-1.5v-1q0-1.1.4-1.6t1.1-.5q.5 0 1 .3.3.3.5 1 .7.7 1.6 1 1 .3 2.3.3 2 0 3.2-.7.5-.3.5-.7 0-.5-.8-1-.7-.3-3.2-.6-3.6-.3-4.8-1.4-1.2-1.1-1.2-2.7t1.3-2.7q1.9-1.4 4.9-1.4l2 .2q1 .2 1.8.6l.5-.3.5-.1q.6 0 1 .5.4.4.4 1.5v.7q0 1-.2 1.3-.5.7-1.3.7-.5 0-1-.3-.4-.4-.5-.9Zm15.9-9.2v3.2h-3.6V13h3.6Zm.4 5.7V29h3.6q1 0 1.5.4t.5 1q0 .8-.5 1.2-.4.4-1.5.4h-10.2q-1.1 0-1.6-.4-.4-.4-.4-1.1 0-.7.4-1.1.5-.4 1.6-.4h3.6v-7.3H246q-1 0-1.5-.4-.5-.5-.5-1.1 0-.7.5-1 .5-.5 1.5-.5h5.5Zm24.3 6.9q0 1.7-1 3.3-1 1.6-2.8 2.6-2 1-4 1t-4-1q-1.8-1-2.8-2.6-1-1.6-1-3.4 0-1.8 1-3.5t2.9-2.7q1.9-1 4-1 2 0 3.8 1 2 1 3 2.7.9 1.8.9 3.6Zm-3 0q0-1.5-1-2.7-1.5-1.6-3.8-1.6-2 0-3.4 1.3t-1.4 3q0 1.4 1.4 2.6 1.4 1.3 3.4 1.3t3.4-1.3q1.4-1.2 1.4-2.6Zm10.1-7v1l1.8-1q1-.3 2.2-.3 2.7 0 4.2 1.6 1.2 1.4 1.2 3.5V29q1 0 1.4.4.5.4.5 1 0 .8-.5 1.2-.4.4-1.5.4h-2.7q-1.1 0-1.6-.4-.4-.4-.4-1.1 0-.7.4-1.1.5-.4 1.4-.4v-5.7q0-1-.5-1.4-.7-.6-2-.6-1 0-1.9.4-.8.4-2 1.7V29q1.2 0 1.5.2.8.4.8 1.3 0 .7-.5 1-.5.5-1.5.5h-3.5q-1 0-1.5-.4t-.5-1.1q0-.8.7-1.3.4-.2 1.5-.2v-7.3q-1 0-1.4-.4-.4-.5-.4-1.1 0-.7.4-1 .5-.5 1.6-.5h2.8Z"
  /><path
    fill="#fff"
    d="M9.3 29V17.2q-1 0-1.4-.4-.5-.4-.5-1 0-.8.5-1.2.4-.4 1.5-.4h6.3q1.5 0 2.9.6 1.4.5 2.2 1.4.6.6 1.3 1.7.7 1 1 2.2.4 1 .4 2.6v1.4q0 2-.6 3.4-.6 1.5-1.7 2.4-1 1-2 1.4-1.4.7-3.8.7h-6q-1 0-1.5-.4t-.5-1.1q0-.7.5-1.1.4-.4 1.4-.4Zm3 0h3.2q1.7 0 2.7-.5 1.1-.7 1.7-1.7.6-1 .6-2.7v-1.5q0-1.4-.5-2.5-.8-1.6-2-2.2-1-.7-2.6-.7h-3.1V29Zm24.4 3v-.7q-1.1.6-2.5.9-1.4.3-2.5.3-2.4 0-4-1.3-1.4-1.3-1.4-2.8 0-2 1.9-3.5 2-1.7 5.3-1.7 1.4 0 3.2.3v-.7q0-.7-.6-1-.6-.5-2.2-.5-1.3 0-3.5.5l-1.2.2q-.6 0-1-.4-.4-.5-.4-1.1l.1-.7.4-.4 1.1-.4 2.3-.5 2-.2q2.9 0 4.4 1.2 1.6 1.2 1.6 3.3V29h.5q1 0 1.5.4t.5 1q0 .8-.5 1.2-.4.4-1.5.4h-3.5Zm0-5.4q-1.8-.4-3.3-.4-1.9 0-3.2 1-.8.5-.8 1.1 0 .4.4.7.7.5 2 .5 1 0 2.4-.4 1.4-.5 2.5-1.2v-1.3Zm14.5-5v6.1q0 1 .4 1.3.6.5 2.2.5 2.3 0 4.3-1 .7-.4 1.2-.4t1 .4q.4.5.4 1.1 0 .6-.5 1-.7.7-2.8 1.3-2.1.6-3.6.6-2.8 0-4.2-1.2-1.4-1.3-1.4-3v-6.6h-1q-1.1 0-1.6-.4-.4-.5-.4-1.1 0-.7.4-1 .5-.5 1.6-.5h1V16q0-1.1.5-1.6.4-.4 1-.4.7 0 1.1.4.4.5.4 1.6v2.7h5.6q1 0 1.5.4t.5 1q0 .7-.5 1.2-.4.4-1.5.4h-5.6ZM72.7 32v-.7q-1.1.6-2.5.9-1.4.3-2.5.3-2.4 0-4-1.3-1.4-1.3-1.4-2.8 0-2 1.9-3.5 2-1.7 5.3-1.7 1.4 0 3.2.3v-.7q0-.7-.6-1-.6-.5-2.2-.5-1.3 0-3.5.5l-1.2.2q-.6 0-1-.4-.4-.5-.4-1.1l.1-.7.4-.4 1.1-.4 2.3-.5 2-.2q2.9 0 4.4 1.2 1.6 1.2 1.6 3.3V29h.5q1 0 1.5.4t.5 1q0 .8-.5 1.2-.4.4-1.5.4h-3.5Zm0-5.4q-1.8-.4-3.3-.4-1.9 0-3.2 1-.8.5-.8 1.1 0 .4.4.7.7.5 2 .5 1 0 2.4-.4 1.4-.5 2.5-1.2v-1.3Zm38-11.6.6-.6q.3-.2.7-.2.7 0 1 .5.5.4.5 1.5v2.6q0 1-.4 1.5t-1 .5q-.7 0-1-.4-.4-.3-.6-1.2-.1-.6-.4-1-.6-.6-1.7-1-1-.4-2.2-.4-1.3 0-2.4.6-1.1.5-2 1.9-.9 1.3-.9 3.1v2q0 2.1 1.6 3.6 1.6 1.4 4.4 1.4 1.6 0 2.8-.4.7-.3 1.4-1 .5-.6.8-.7l.6-.1q.6 0 1 .4.5.5.5 1.1 0 .6-.6 1.3-1 1-2.3 1.6-2 .8-4.2.8-2.7 0-4.8-1-1.7-1-3-2.8-1.2-2-1.2-4.2v-2Q98 20 99 18q1.1-2 3-3.1 2-1.1 4.1-1.1 1.3 0 2.5.3 1.1.3 2.1.9Zm21 10.6q0 1.7-.9 3.3-1 1.6-2.8 2.6-2 1-4 1t-4-1q-1.8-1-2.8-2.6-1-1.6-1-3.4 0-1.8 1-3.5t2.9-2.7q1.9-1 4-1 2 0 3.8 1 2 1 3 2.7.9 1.8.9 3.6Zm-3 0q0-1.5-1-2.7-1.4-1.6-3.7-1.6-2 0-3.4 1.3t-1.4 3q0 1.4 1.4 2.6 1.4 1.3 3.4 1.3t3.4-1.3q1.4-1.2 1.4-2.6Zm8.6-7v1q.8-.8 1.4-1 .6-.3 1.3-.3.7 0 1.3.3.7.3 1.3 1 .8-.7 1.6-1 .8-.3 1.6-.3 1.7 0 2.7.9 1.4 1.2 1.4 3V29q1 0 1.4.4.4.4.4 1 0 .8-.4 1.2-.5.4-1.6.4H147v-9.5q0-.7-.2-1-.3-.2-.8-.2l-1 .2q-.5.4-1.2 1.4v6q.9 0 1.3.5.5.4.5 1 0 .8-.5 1.2-.4.4-1.5.4h-2.9v-9.5q0-.7-.2-1-.3-.2-.8-.2t-1 .3q-.5.3-1.3 1.3v6q1 0 1.4.5.5.4.5 1 0 .8-.5 1.2-.4.4-1.5.4h-2.7q-1.1 0-1.6-.4-.4-.4-.4-1.1 0-.7.4-1.1.5-.4 1.4-.4v-7.3q-1 0-1.4-.4-.4-.5-.4-1.1 0-.7.4-1 .5-.5 1.6-.5h2.8Zm19 11.7v5h1.8q1 0 1.5.4t.5 1q0 .7-.5 1.1-.5.4-1.5.4h-5.4q-1 0-1.5-.4t-.5-1q0-.7.5-1.1.5-.5 1.5-.5h.5V21.7h-.5q-1 0-1.5-.4-.5-.5-.5-1.1 0-.7.5-1 .5-.5 1.5-.5h3.6v1q1-.7 2.1-1 1.2-.4 2.3-.4 3.1 0 5.3 2 2.2 2.2 2.2 4.9 0 3-2.6 4.9-2.1 1.6-4.8 1.6-1.2 0-2.3-.4-1.1-.3-2.2-1Zm8.9-5.1q0-.7-.5-1.6-.5-1-1.6-1.7-1-.6-2.4-.6-2.2 0-3.5 1.7-1 1.1-1 2.2 0 1.2 1.3 2.3 1.3 1.2 3.2 1.2 2 0 3.2-1.2 1.3-1 1.3-2.3Zm12.2-6.5v1.9q1.8-1.4 3-1.9 1-.4 2-.4 1.5 0 2.8 1 1 .8 1 1.6 0 .6-.5 1-.4.5-1 .5t-1.2-.5q-.6-.6-1.1-.6-.7 0-2 .8l-3 2.3V29h4.2q1.1 0 1.6.4.4.4.4 1 0 .8-.4 1.2-.5.4-1.6.4h-9q-1.1 0-1.6-.4-.4-.4-.4-1.1 0-.7.4-1.1.5-.4 1.6-.4h1.8v-7.3h-1.1q-1.1 0-1.6-.4-.4-.5-.4-1.1 0-.7.4-1 .5-.5 1.6-.5h4Zm26.1 8.2h-12.3q.5 1.1 1.7 1.8 1.2.8 3.2.8 1.7 0 4.4-.8l1.6-.3q.6 0 1 .5.4.4.4 1t-.4 1q-.6.6-2.9 1-2.2.6-4.3.6-3.6 0-5.8-2-2.2-2.1-2.2-5 0-3.3 2.4-5.2 2.3-2 5.4-2 1.8 0 3.3.6 1.6.7 2.3 1.4 1 1.1 1.7 2.7.5 1.1.5 2.6v1.3Zm-3.3-3q-.7-1.3-1.8-2-1.1-.6-2.7-.6-1.5 0-2.6.6-1.1.7-1.8 2h8.9Zm17-1.7q-.7-.5-1.5-.7-.8-.2-1.7-.2-1.7 0-2.8.6-.4.2-.4.5t.6.7q.5.2 2.1.4 3 .4 4.2.8 1.5.6 2.3 1.6.9 1.1.9 2.3 0 1.6-1.5 2.7-2 1.6-5.2 1.6-1.4 0-2.5-.3l-2-.6-.5.3h-.5q-.7 0-1-.4-.5-.5-.5-1.5v-1q0-1.1.4-1.6t1.1-.5q.5 0 1 .3.3.3.5 1 .7.7 1.6 1 1 .3 2.3.3 2 0 3.2-.7.5-.3.5-.7 0-.5-.8-1-.7-.3-3.2-.6-3.6-.3-4.8-1.4-1.2-1.1-1.2-2.7t1.3-2.7q1.9-1.4 4.9-1.4l2 .2q1 .2 1.8.6l.5-.3.5-.1q.6 0 1 .5.4.4.4 1.5v.7q0 1-.2 1.3-.5.7-1.3.7-.5 0-1-.3-.4-.4-.5-.9Zm18 0q-.7-.5-1.5-.7-.8-.2-1.7-.2-1.7 0-2.8.6-.4.2-.4.5t.6.7q.5.2 2.1.4 3 .4 4.2.8 1.5.6 2.3 1.6.9 1.1.9 2.3 0 1.6-1.5 2.7-2 1.6-5.2 1.6-1.4 0-2.5-.3l-2-.6-.5.3h-.5q-.7 0-1-.4-.5-.5-.5-1.5v-1q0-1.1.4-1.6t1.1-.5q.5 0 1 .3.3.3.5 1 .7.7 1.6 1 1 .3 2.3.3 2 0 3.2-.7.5-.3.5-.7 0-.5-.8-1-.7-.3-3.2-.6-3.6-.3-4.8-1.4-1.2-1.1-1.2-2.7t1.3-2.7q1.9-1.4 4.9-1.4l2 .2q1 .2 1.8.6l.5-.3.5-.1q.6 0 1 .5.4.4.4 1.5v.7q0 1-.2 1.3-.5.7-1.3.7-.5 0-1-.3-.4-.4-.5-.9Zm15.9-9.2v3.2h-3.6V13h3.6Zm.4 5.7V29h3.6q1 0 1.5.4t.5 1q0 .8-.5 1.2-.4.4-1.5.4h-10.2q-1.1 0-1.6-.4-.4-.4-.4-1.1 0-.7.4-1.1.5-.4 1.6-.4h3.6v-7.3H246q-1 0-1.5-.4-.5-.5-.5-1.1 0-.7.5-1 .5-.5 1.5-.5h5.5Zm24.3 6.9q0 1.7-1 3.3-1 1.6-2.8 2.6-2 1-4 1t-4-1q-1.8-1-2.8-2.6-1-1.6-1-3.4 0-1.8 1-3.5t2.9-2.7q1.9-1 4-1 2 0 3.8 1 2 1 3 2.7.9 1.8.9 3.6Zm-3 0q0-1.5-1-2.7-1.5-1.6-3.8-1.6-2 0-3.4 1.3t-1.4 3q0 1.4 1.4 2.6 1.4 1.3 3.4 1.3t3.4-1.3q1.4-1.2 1.4-2.6Zm10.1-7v1l1.8-1q1-.3 2.2-.3 2.7 0 4.2 1.6 1.2 1.4 1.2 3.5V29q1 0 1.4.4.5.4.5 1 0 .8-.5 1.2-.4.4-1.5.4h-2.7q-1.1 0-1.6-.4-.4-.4-.4-1.1 0-.7.4-1.1.5-.4 1.4-.4v-5.7q0-1-.5-1.4-.7-.6-2-.6-1 0-1.9.4-.8.4-2 1.7V29q1.2 0 1.5.2.8.4.8 1.3 0 .7-.5 1-.5.5-1.5.5h-3.5q-1 0-1.5-.4t-.5-1.1q0-.8.7-1.3.4-.2 1.5-.2v-7.3q-1 0-1.4-.4-.4-.5-.4-1.1 0-.7.4-1 .5-.5 1.6-.5h2.8Z"
  />
</svg>
