<svg
  xmlns="http://www.w3.org/2000/svg"
  width="287.4"
  height="217.35"
  version="1.0"
>
  <g style="opacity: 1; display: inline"><path
      d="M232.86 429.24h287.4v217.35h-287.4z"
      style="opacity: 1; fill: #fff; fill-opacity: 1; fill-rule: evenodd; stroke: none; stroke-width: 3.38973784; stroke-linecap: round; stroke-linejoin: round; stroke-miterlimit: 4; stroke-dasharray: none; stroke-dashoffset: 0; stroke-opacity: 1"
      transform="translate(-232.86 -429.24)"
    /><path
      d="M253.47 440.85h3m12-9v3m39-3v3m39-3v3m39-3v3m38-3v3m39-3v3m39-3v3m12 6h4m-4 38h4m-4 38h4m-4 38h4m-4 38h4m-264-114h3m-3 38h3m-3 38h3m-3 38h3"
      style="fill: none; fill-opacity: 0.75; fill-rule: evenodd; stroke: #000; stroke-width: 1px; stroke-linecap: butt; stroke-linejoin: miter; stroke-opacity: 1"
      transform="translate(-232.86 -429.24)"
    /><text
      xml:space="preserve"
      x="243.31"
      y="634.21"
      style="font-size: 10px; font-style: normal; font-variant: normal; font-weight: 400; font-stretch: normal; text-align: start; line-height: 100%; writing-mode: lr-tb; text-anchor: start; fill: #000; fill-opacity: 1; stroke: none; stroke-width: 1px; stroke-linecap: butt; stroke-linejoin: miter; stroke-opacity: 1; font-family: Bitstream Vera Sans"
      transform="translate(-232.86 -429.24)"
    ><tspan x="243.31" y="634.21">0</tspan></text><text
      xml:space="preserve"
      x="234.31"
      y="596.21"
      style="font-size: 10px; font-style: normal; font-variant: normal; font-weight: 400; font-stretch: normal; text-align: start; line-height: 100%; writing-mode: lr-tb; text-anchor: start; fill: #000; fill-opacity: 1; stroke: none; stroke-width: 1px; stroke-linecap: butt; stroke-linejoin: miter; stroke-opacity: 1; font-family: Bitstream Vera Sans"
      transform="translate(-232.86 -429.24)"
    ><tspan x="234.31" y="596.21">0.2</tspan></text><text
      xml:space="preserve"
      x="234.31"
      y="558.21"
      style="font-size: 10px; font-style: normal; font-variant: normal; font-weight: 400; font-stretch: normal; text-align: start; line-height: 100%; writing-mode: lr-tb; text-anchor: start; fill: #000; fill-opacity: 1; stroke: none; stroke-width: 1px; stroke-linecap: butt; stroke-linejoin: miter; stroke-opacity: 1; font-family: Bitstream Vera Sans"
      transform="translate(-232.86 -429.24)"
    ><tspan x="234.31" y="558.21">0.4</tspan></text><text
      xml:space="preserve"
      x="234.31"
      y="520.21"
      style="font-size: 10px; font-style: normal; font-variant: normal; font-weight: 400; font-stretch: normal; text-align: start; line-height: 100%; writing-mode: lr-tb; text-anchor: start; fill: #000; fill-opacity: 1; stroke: none; stroke-width: 1px; stroke-linecap: butt; stroke-linejoin: miter; stroke-opacity: 1; font-family: Bitstream Vera Sans"
      transform="translate(-232.86 -429.24)"
    ><tspan x="234.31" y="520.21">0.6</tspan></text><text
      xml:space="preserve"
      x="234.31"
      y="482.21"
      style="font-size: 10px; font-style: normal; font-variant: normal; font-weight: 400; font-stretch: normal; text-align: start; line-height: 100%; writing-mode: lr-tb; text-anchor: start; fill: #000; fill-opacity: 1; stroke: none; stroke-width: 1px; stroke-linecap: butt; stroke-linejoin: miter; stroke-opacity: 1; font-family: Bitstream Vera Sans"
      transform="translate(-232.86 -429.24)"
    ><tspan x="234.31" y="482.21">0.8</tspan></text><text
      xml:space="preserve"
      x="233.87"
      y="444.21"
      style="font-size: 10px; font-style: normal; font-variant: normal; font-weight: 400; font-stretch: normal; text-align: start; line-height: 100%; writing-mode: lr-tb; text-anchor: start; fill: #000; fill-opacity: 1; stroke: none; stroke-width: 1px; stroke-linecap: butt; stroke-linejoin: miter; stroke-opacity: 1; font-family: Bitstream Vera Sans"
      transform="translate(-232.86 -429.24)"
    ><tspan x="233.87" y="444.21">1.0</tspan></text><text
      xml:space="preserve"
      x="258.48"
      y="644.21"
      style="font-size: 10px; font-style: normal; font-variant: normal; font-weight: 400; font-stretch: normal; text-align: start; line-height: 100%; writing-mode: lr-tb; text-anchor: start; fill: #000; fill-opacity: 1; stroke: none; stroke-width: 1px; stroke-linecap: butt; stroke-linejoin: miter; stroke-opacity: 1; font-family: Bitstream Vera Sans"
      transform="translate(-232.86 -429.24)"
    ><tspan x="258.48" y="644.21">400</tspan></text><text
      xml:space="preserve"
      x="297.48"
      y="644.21"
      style="font-size: 10px; font-style: normal; font-variant: normal; font-weight: 400; font-stretch: normal; text-align: start; line-height: 100%; writing-mode: lr-tb; text-anchor: start; fill: #000; fill-opacity: 1; stroke: none; stroke-width: 1px; stroke-linecap: butt; stroke-linejoin: miter; stroke-opacity: 1; font-family: Bitstream Vera Sans"
      transform="translate(-232.86 -429.24)"
    ><tspan x="297.48" y="644.21">450</tspan></text><text
      xml:space="preserve"
      x="336.2"
      y="644.21"
      style="font-size: 10px; font-style: normal; font-variant: normal; font-weight: 400; font-stretch: normal; text-align: start; line-height: 100%; writing-mode: lr-tb; text-anchor: start; fill: #000; fill-opacity: 1; stroke: none; stroke-width: 1px; stroke-linecap: butt; stroke-linejoin: miter; stroke-opacity: 1; font-family: Bitstream Vera Sans"
      transform="translate(-232.86 -429.24)"
    ><tspan x="336.2" y="644.21">500</tspan></text><text
      xml:space="preserve"
      x="375.2"
      y="644.21"
      style="font-size: 10px; font-style: normal; font-variant: normal; font-weight: 400; font-stretch: normal; text-align: start; line-height: 100%; writing-mode: lr-tb; text-anchor: start; fill: #000; fill-opacity: 1; stroke: none; stroke-width: 1px; stroke-linecap: butt; stroke-linejoin: miter; stroke-opacity: 1; font-family: Bitstream Vera Sans"
      transform="translate(-232.86 -429.24)"
    ><tspan x="375.2" y="644.21">550</tspan></text><text
      xml:space="preserve"
      x="413.27"
      y="644.21"
      style="font-size: 10px; font-style: normal; font-variant: normal; font-weight: 400; font-stretch: normal; text-align: start; line-height: 100%; writing-mode: lr-tb; text-anchor: start; fill: #000; fill-opacity: 1; stroke: none; stroke-width: 1px; stroke-linecap: butt; stroke-linejoin: miter; stroke-opacity: 1; font-family: Bitstream Vera Sans"
      transform="translate(-232.86 -429.24)"
    ><tspan x="413.27" y="644.21">600</tspan></text><text
      xml:space="preserve"
      x="452.27"
      y="644.21"
      style="font-size: 10px; font-style: normal; font-variant: normal; font-weight: 400; font-stretch: normal; text-align: start; line-height: 100%; writing-mode: lr-tb; text-anchor: start; fill: #000; fill-opacity: 1; stroke: none; stroke-width: 1px; stroke-linecap: butt; stroke-linejoin: miter; stroke-opacity: 1; font-family: Bitstream Vera Sans"
      transform="translate(-232.86 -429.24)"
    ><tspan x="452.27" y="644.21">650</tspan></text><text
      xml:space="preserve"
      x="491.15"
      y="644.21"
      style="font-size: 10px; font-style: normal; font-variant: normal; font-weight: 400; font-stretch: normal; text-align: start; line-height: 100%; writing-mode: lr-tb; text-anchor: start; fill: #000; fill-opacity: 1; stroke: none; stroke-width: 1px; stroke-linecap: butt; stroke-linejoin: miter; stroke-opacity: 1; font-family: Bitstream Vera Sans"
      transform="translate(-232.86 -429.24)"
    ><tspan x="491.15" y="644.21">700</tspan></text><path
      d="M346.47 630.85v-4m-39 4v-4"
      style="fill: none; fill-opacity: 0.75; fill-rule: evenodd; stroke: #000; stroke-width: 1px; stroke-linecap: butt; stroke-linejoin: miter; stroke-opacity: 1"
      transform="translate(-232.86 -429.24)"
    /><path
      d="M260.23 627.37c8.4-3.37 12.26-15.77 18.37-53.08 6.3-35 6.04-59.02 12.36-92.1 6.34-33.2 11.4-41.03 12.5-41 1.35.2 2.02 9.23 5.7 21.88 2.78 15.16 5.91 14.82 7.08 20.44 1.63 15.28 4.58 21.7 6.34 31.73 11.98 71.9 13.97 73.29 23.51 93.06.44 1.79 6.1 6 6.65 9.27 1.8 4.85 16.48 11.27 28.03 12.25l135.3.33"
      style="fill: none; fill-opacity: 0.75; fill-rule: evenodd; stroke: #00f; stroke-width: 1px; stroke-linecap: butt; stroke-linejoin: miter; stroke-opacity: 1"
      transform="translate(-232.86 -429.24)"
    /><path
      d="M260.42 629.62c25.86-1.21 27.02-6.54 35.58-10.36 12.38-5.52 20-10.1 23.61-18.48 6.2-11.93 16.89-25.97 18.3-30.27 7.42-14.22 12.93-48.74 14.67-58.28 5.32-29.15 12.46-63.04 19.62-69.4 1.8-1.17 3.86-2.1 6.6-2.32 7.92-.8 9.17 7.18 14.1 18.09 5.55 13.69 7.53 14.11 9.13 21.1 15.12 54.13 17.07 70.06 22.11 87.36 4.23 13.09 8.66 27.46 14.65 38.38 6 10.93 12.93 17.77 20.28 19.99 10.96 3.3 12.14 4.95 57.6 4.54"
      style="fill: none; fill-opacity: 0.75; fill-rule: evenodd; stroke: #0f0; stroke-width: 1px; stroke-linecap: butt; stroke-linejoin: miter; stroke-opacity: 1"
      transform="translate(-232.86 -429.24)"
    /><path
      d="M285.04 625.7c38.55-6.07 32.66-11.82 42.98-19.98 20.05-15.88 24.92-67.86 34.68-103.88 7.64-28.38 10.9-30.64 15.99-39.86 5.08-9.2 9.38-15.04 11.1-14.93 1.67.11 4.66-1.24 6.75-2.4 2.25-1.26 2.89-2.6 4.74-3.05a5.88 5.88 0 0 1 5.08 1.72c1.45 1.33 2.12 3.34 3.19 3.59 7.97 1.2 18.98 35.34 28.85 71.28 16.22 49.2 17.7 109.81 65.98 111.51"
      style="fill: none; fill-opacity: 0.75; fill-rule: evenodd; stroke: red; stroke-width: 1px; stroke-linecap: butt; stroke-linejoin: miter; stroke-opacity: 1"
      transform="translate(-232.86 -429.24)"
    /><text
      xml:space="preserve"
      x="314.58"
      y="461.72"
      style="font-size: 18px; font-style: normal; font-variant: normal; font-weight: 400; font-stretch: normal; text-align: start; line-height: 100%; writing-mode: lr-tb; text-anchor: start; fill: #000; fill-opacity: 1; stroke: none; stroke-width: 1px; stroke-linecap: butt; stroke-linejoin: miter; stroke-opacity: 1; font-family: Bitstream Vera Sans"
      transform="translate(-232.86 -429.24)"
    ><tspan x="314.58" y="461.72">S</tspan></text><text
      xml:space="preserve"
      x="343.23"
      y="461.36"
      style="font-size: 18px; font-style: normal; font-variant: normal; font-weight: 400; font-stretch: normal; text-align: start; line-height: 100%; writing-mode: lr-tb; text-anchor: start; fill: #000; fill-opacity: 1; stroke: none; stroke-width: 1px; stroke-linecap: butt; stroke-linejoin: miter; stroke-opacity: 1; font-family: Bitstream Vera Sans"
      transform="translate(-232.86 -429.24)"
    ><tspan x="343.23" y="461.36">M</tspan></text><text
      xml:space="preserve"
      x="427.23"
      y="461.36"
      style="font-size: 18px; font-style: normal; font-variant: normal; font-weight: 400; font-stretch: normal; text-align: start; line-height: 100%; writing-mode: lr-tb; text-anchor: start; fill: #000; fill-opacity: 1; stroke: none; stroke-width: 1px; stroke-linecap: butt; stroke-linejoin: miter; stroke-opacity: 1; font-family: Bitstream Vera Sans"
      transform="translate(-232.86 -429.24)"
    ><tspan x="427.23" y="461.36">L</tspan></text><path
      d="M268.47 630.85v-4m117 4v-4m38 4v-4m39 4v-4m39 4v-4"
      style="fill: none; fill-opacity: 0.75; fill-rule: evenodd; stroke: #000; stroke-width: 1px; stroke-linecap: butt; stroke-linejoin: miter; stroke-opacity: 1"
      transform="translate(-232.86 -429.24)"
    /><path
      d="M253.47 431.85v199h264v-199h-264z"
      style="opacity: 1; fill: none; fill-opacity: 0.75; fill-rule: evenodd; stroke: #000; stroke-width: 0.99563217px; stroke-linecap: butt; stroke-linejoin: miter; stroke-opacity: 1"
      transform="translate(-232.86 -429.24)"
    /></g>
</svg>
